<svg xmlns="http://www.w3.org/2000/svg" xmlns:xlink="http://www.w3.org/1999/xlink" width="382" height="217" viewBox="0 0 382 217">
    <defs>
        <filter id="a" width="126.3%" height="149.7%" x="-13.1%" y="-24.9%" filterUnits="objectBoundingBox">
            <feOffset dy="8" in="SourceAlpha" result="shadowOffsetOuter1"/>
            <feGaussianBlur in="shadowOffsetOuter1" result="shadowBlurOuter1" stdDeviation="8"/>
            <feColorMatrix in="shadowBlurOuter1" result="shadowMatrixOuter1" values="0 0 0 0 0 0 0 0 0 0.741176471 0 0 0 0 0.611764706 0 0 0 0.298595935 0"/>
            <feMerge>
                <feMergeNode in="shadowMatrixOuter1"/>
                <feMergeNode in="SourceGraphic"/>
            </feMerge>
        </filter>
        <rect id="b" width="350" height="185" rx="10"/>
        <rect id="d" width="350" height="185" rx="10"/>
    </defs>
    <g fill="none" fill-rule="evenodd" filter="url(#a)" transform="translate(16 8)">
        <mask id="c" fill="#fff">
            <use xlink:href="#b"/>
        </mask>
        <use fill="#3AD4C3" fill-rule="nonzero" xlink:href="#b"/>
        <g mask="url(#c)">
            <path fill="#02A185" d="M230.431 178.804c1.34 1.557 1.043 5.08-8.508 5.08-9.55 0-15.706-2.771-21.403-1.147-3.166.902-13.082 2.657-17.56 1.554-2.81-.691-8.576-2.671-14.506-2.825-5.93-.154-3.783-4.278 4.476-4.273 3.598.003 9.613 3.76 14.195 2.567 4.583-1.194 17.64-3.135 23.255-.956 7.41 2.877 17.266-3.235 20.051 0M241.398 183.032c-1.814-1.557-1.411-5.08 11.515-5.08s22.89-3.04 30.602-4.663c4.284-.901 16.07 3.154 22.132 4.257 3.803.69 11.605 2.67 19.63 2.825 8.026.153 5.121 4.272-6.057 4.272-11.674 0-20.376-9.054-28.228-5.742-5.818 2.455-11.724 2.017-13.135.848-8.033-6.658-32.69 6.52-36.459 3.283"/>
            <path fill="#E6A583" d="M215.006 166.478c-.865-1.774.44-.926-2.07-.854-2.78.08-2.473 3.393-1.948 5.236 1.394 4.896-.567 8.648 5.118 9.245 1.214.128 13.15.575 10.642-1.653-1.126-1.001-5.915-2.307-7.257-2.674-2.94-.811-3.16-6.585-4.485-9.3"/>
            <path fill="#4E3B40" d="M211.78 176.27c.306 2.37.988 4.079 4.4 4.431 1.21.13 15.963.951 12.115-1.862-1.493-1.099-7.464-2.692-8.806-3.06a1.237 1.237 0 0 1-.428-.19c.22.612.399 1.31-.454 1.761-.957.514-6.452.384-6.828-1.08"/>
            <path fill="#E6A583" d="M178.404 165.842c.409-1.93.915-.462-1.107-1.946-2.24-1.648-4.035 1.15-4.756 2.931-1.912 4.716-5.266 5.776-1.15 9.744.878.846 5.188 6.261 5.724 4.015.348-1.468-.198-.825-1.03-1.943-1.82-2.445 1.693-9.845 2.319-12.801"/>
            <path fill="#4E3B40" d="M169.838 171.578c1.343-.19 3.646 4.867 4.715 5.052.674.115.9-.185 1.033-.525.007.113.007.85.5 1.726.68 1.214 5.232 3.751 2.296 3.863-5.412.208-6.353-2.486-8.748-5.102-2.316-2.53-1.014-2.963.204-5.014"/>
            <path fill="#EFF1F6" d="M176.105 173.246c4.394-1.162 10.95-17.42 12.993-21.763 2.042-4.342 10.474-22.737 10.218-27.973-.254-5.24-16.957-26.296-16.616-21.19.34 5.108 2.024 20.039.01 26.3-1.293 4.027-14.8 39.076-12.249 41.976.957 1.09 3.995 3.086 5.644 2.65"/>
            <path fill="#C0C0C0" d="M199.186 122.745c.086.412.124.927.108 1.553-.47 6.076-8.245 23.037-10.196 27.185-2.044 4.343-8.599 20.6-12.993 21.763-.16.04-.343.043-.527.043 2.11-1.062 11.03-23.431 11.968-27.902 2.233-10.663 1.377-26.845-2.898-36.78-.044-4.282 1.827-3.982 3.93-2.253 4.38 5.086 9.733 12.83 10.608 16.391"/>
            <path fill="#EFF1F6" d="M196.597 127.88c2.793 5.395 10 44.246 14.043 46.98 1.982 1.341 10.976 2.077 10.465-3.29-.511-5.365-11.914-72.662-16.586-71.438-4.672 1.226-21.35-10.088-22.361-5.843-2.97 12.455 3.395 12.26 14.439 33.592"/>
            <path fill="#4E3B40" d="M213.944 60.729c-3.063-.294-2.217.241-2.805.913-.928 1.054-.504 2.23.5 3.049.837.682 1.85 1.15 2.834 1.583 1.258.55 2.547 1.028 3.826 1.53 1.572.618 3.178 1.244 4.648 2.081.363.206.716.427 1.083.624.23.122.517.305.786.305.537.001.357-.81.296-1.133-.08-.436-1.237-7.997-11.168-8.952"/>
            <path fill="#D9806F" d="M243.805 80.463c.067-.713-.191-2.454-.99-2.614-.801-.16-1.192.886-1.887 1.993-.487.775-1.665 1.938-1.87 1.83-.202-.104.558-.791.776-1 .25-.238 1.246-.647.73-1.011-.789-.548-3.157 2.205-3.795 2.645-.515.36-1.005.878-1.067 1.582-.067.768 1.166.942 1.699 1.022 2.234.334 4.476-.87 5.749-2.677.36-.51.594-1.142.655-1.77"/>
            <path fill="#4E3B40" d="M238.548 85.599c.155-1.253-2.705-4.53-4.797-3.152-2.094 1.382-10.596 8.693-12.756 7.958-5.714-1.95-6.142-22.42-15.172-18.198-7.802 3.65 6.987 24.396 13.832 25.626 6.84 1.23 18.735-10.983 18.893-12.234"/>
            <path fill="#FFB79A" d="M227.243 66.876c.701-.766 1.633-1.118 2.623-.613.098.049.176.122.266.181.76-1.476 2.175-2.24 3.827-2.274 2.073-.038 4.219.804 5.86 2.039 1.389 1.04 2.453 2.494 2.474 4.281.006.657-.105 1.312-.24 1.953-.125.607-.197 1.24-.482 1.797-.275.534-.712.928-1.197 1.264-.397.275-.85.512-1.145.907-.285.382-.348.863-.381 1.327-.05.66.092 2.15-.836 2.274-.86.111-1.632-.464-2.492-.076-.412.187-.744.506-1.118.75-.463.3-.98.48-1.522.581-2.97.567-3.233-4.755-4.186-5.097-.955-.34-3.75 1.448-4.036 2.51-.033.129-2.966-7.01-3.663-8.322 2.255-.798 4.6-1.686 6.248-3.482"/>
            <path fill="#40403E" d="M259.798 80.007l16.375-12.045-.275-.372-16.375 12.044.275.373"/>
            <path fill="#686866" d="M257.977 78.368l.273-.19.325.471c.293.258.637.662.973 1.144.333.485.588.956.724 1.317l.326.47-.275.19c-.22.15-.924-.486-1.57-1.428-.648-.94-.996-1.823-.776-1.974"/>
            <path fill="#40403E" d="M259.027 80.154c.649.94 1.352 1.58 1.57 1.426.221-.151-.13-1.035-.776-1.976-.647-.938-1.35-1.577-1.571-1.426-.218.152.13 1.036.777 1.976"/>
            <path fill="#686866" d="M261.097 78.725a.419.419 0 0 0-.583-.107l-1.05.724a.42.42 0 0 0 .479.69l1.047-.721a.421.421 0 0 0 .107-.586"/>
            <path fill="#FFF" d="M286.016 69.606l-4.046-5.93-1.054 1.132.686 5.262 4.414-.464"/>
            <path fill="#FFF" d="M281.541 70.016c0 .15.183.275.403.275h5.052c.22 0 .401-.124.401-.275V68.91c0-.153-.18-.28-.4-.28h-5.053c-.22 0-.403.127-.403.28v1.105"/>
            <path fill="#1D1D1B" d="M280.309 70.784l.004-3.454c-.002-.014-.007-.029-.007-.046a1.417 1.417 0 0 1 2.833.002l-.002.025.002.017-.002 3.458a.61.61 0 0 1-.611.611h-1.606a.614.614 0 0 1-.611-.613"/>
            <path fill="#525250" d="M281.726 66.225a.978.978 0 0 0-.978.977.975.975 0 1 0 .978-.976"/>
            <path fill="#787876" d="M281.044 69.077a.295.295 0 1 0-.002.59.295.295 0 0 0 .002-.59M282.402 69.077c.164 0 .294.132.294.296 0 .164-.13.296-.294.294a.295.295 0 1 1 0-.59"/>
            <path fill="#1D1D1B" d="M284.5 62.348c.12.225.514.252.881.058l.76-.399c.366-.19.567-.532.45-.757l-.756-1.437c-.117-.229-.514-.256-.88-.063l-.76.4c-.366.193-.567.535-.449.762l.754 1.436M275.26 68.14c.119.225.512.255.881.061l.758-.399c.367-.193.569-.533.449-.76l-.753-1.436c-.12-.227-.515-.254-.88-.06l-.76.398c-.368.194-.57.533-.45.76l.754 1.436M280.777 70.814c0 .142.226.258.508.258h6.37c.284 0 .508-.116.508-.258v-1.046c0-.143-.224-.259-.508-.259h-6.37c-.282 0-.508.116-.508.259v1.046"/>
            <path fill="#1D1D1B" d="M281.096 73.215c0 .257.206.464.464.464h5.822a.464.464 0 0 0 .464-.464v-1.854a.464.464 0 0 0-.464-.464h-5.822a.463.463 0 0 0-.464.464v1.854"/>
            <path fill="#242424" d="M256.499 62.912a.466.466 0 0 1 .64.143l4.555 7.128a.465.465 0 0 1-.141.641l-.586.376a.466.466 0 0 1-.64-.143l-4.554-7.128a.467.467 0 0 1 .14-.64l.586-.377"/>
            <path fill="#FFF" d="M295.439 42.425c-.25.159-.332.482-.18.72l5.013 7.848c.151.237.478.3.73.138l10.906-6.964c.25-.164.334-.485.178-.72l-5.01-7.85a.528.528 0 0 0-.732-.14l-10.905 6.968"/>
            <path fill="#FFF" d="M253.152 70.687c-.854.544-1.449 1.14-1.327 1.33l3.992 6.246c.122.19.91-.099 1.763-.645l43.295-27.654c.854-.546 1.449-1.142 1.326-1.33l-3.989-6.248c-.122-.19-.913.1-1.765.645l-43.295 27.656"/>
            <path fill="#242424" d="M294.849 43.363a.461.461 0 0 1 .638.14l4.554 7.13c.138.215.076.5-.14.641l-.587.374a.463.463 0 0 1-.64-.14l-4.552-7.131a.462.462 0 0 1 .14-.64l.587-.374M282.935 50.974a.463.463 0 0 1 .64.14l4.553 7.13a.466.466 0 0 1-.14.64l-.587.373a.462.462 0 0 1-.64-.14l-4.554-7.129a.464.464 0 0 1 .14-.64l.588-.374M274.144 56.589a.461.461 0 0 1 .64.14l4.557 7.128a.464.464 0 0 1-.143.64l-.586.375a.46.46 0 0 1-.638-.141l-4.556-7.129a.465.465 0 0 1 .142-.64l.584-.373M258.815 66.381a.461.461 0 0 1 .638.14l4.554 7.131a.463.463 0 0 1-.14.64l-.586.374a.465.465 0 0 1-.64-.14l-4.555-7.13a.467.467 0 0 1 .141-.641l.588-.374"/>
            <path fill="#FFF" d="M260.598 58.463a.155.155 0 0 0-.045.212l1.497 2.344c.045.071.14.09.21.046l3.595-2.297a.153.153 0 0 0 .046-.21l-1.497-2.345a.154.154 0 0 0-.21-.044l-3.596 2.294"/>
            <path fill="#FFF" d="M251.296 64.632c-.19.124-.315.273-.275.336l1.312 2.054c.038.06.227.012.418-.11l9.732-6.217c.191-.121.317-.27.277-.334l-1.312-2.055c-.04-.06-.229-.01-.42.11l-9.732 6.216"/>
            <path fill="#242424" d="M260.343 58.627a.157.157 0 0 1 .21.048l1.497 2.344a.154.154 0 0 1-.046.21l-.193.123a.155.155 0 0 1-.212-.046l-1.495-2.343a.154.154 0 0 1 .046-.212l.193-.124M256.425 61.13a.151.151 0 0 1 .21.048l1.498 2.344a.152.152 0 0 1-.047.21l-.193.12a.152.152 0 0 1-.21-.045l-1.497-2.343a.154.154 0 0 1 .046-.21l.193-.124M253.537 62.975a.152.152 0 0 1 .21.047l1.497 2.345a.15.15 0 0 1-.047.21l-.193.122a.149.149 0 0 1-.21-.047l-1.497-2.343a.154.154 0 0 1 .047-.21l.193-.124M281.487 50.592c-.067.042-.042.204.059.36.1.159.237.25.304.209l1.123-.718c.068-.044.04-.206-.059-.363-.103-.158-.237-.25-.304-.206l-1.123.718"/>
            <path fill="#242424" d="M281.793 49.834a.238.238 0 0 0-.069.321l1.289 2.018a.231.231 0 1 0 .39-.25l-1.29-2.018a.229.229 0 0 0-.32-.071"/>
            <path fill="#1D1D1B" d="M325.675 180.747L289.671 71.496a2.28 2.28 0 1 0-4.33 1.428l.024.065 39.298 108.107c.1.279.408.422.685.32a.538.538 0 0 0 .327-.669M243.018 180.747l36-109.251a2.282 2.282 0 0 1 2.88-1.453 2.282 2.282 0 0 1 1.451 2.88l-.023.066-39.299 108.107a.533.533 0 0 1-.684.32.531.531 0 0 1-.325-.669"/>
            <path fill="#1D1D1B" d="M285.805 173.55l.64-99.692a1.977 1.977 0 1 0-3.95-.026v.06l2.382 99.668a.464.464 0 0 0 .928-.01M249.896 78.053c.72 1.115 1.652 2.057 2.549 1.942.899-.116 3.277-1.342 3.882-1.673-1.09-1.09-4.342-6.786-4.516-6.555-.177.233-4.29 2.608-1.915 6.286"/>
            <path fill="#242424" d="M255.16 79.644a1.591 1.591 0 1 0-3.183 0 1.591 1.591 0 0 0 3.182 0"/>
            <path fill="#FFF" d="M254.231 79.644a.662.662 0 1 0-.663.662.662.662 0 0 0 .663-.662"/>
            <path fill="#1D1D1B" d="M275.906 68.418l8.95-5.91-.51-.776-8.95 5.91.51.776"/>
            <path fill="#1D1D1B" d="M280.972 63.44l1.869 2.908c.008.01.02.023.027.035a1.414 1.414 0 0 1-.426 1.957 1.418 1.418 0 0 1-1.97-.45c-.001-.004-.006-.008-.008-.012l-1.868-2.91a.608.608 0 0 1 .184-.844l1.348-.867a.608.608 0 0 1 .844.183"/>
            <path fill="#FFF" d="M282.251 68.04a.977.977 0 0 0 .294-1.348.976.976 0 0 0-1.642 1.054.976.976 0 0 0 1.348.294"/>
            <path fill="#787876" d="M281.28 65.275a.296.296 0 1 0-.317-.5.296.296 0 0 0 .318.5M280.139 66.01a.297.297 0 0 1-.41-.09.293.293 0 0 1 .09-.408.294.294 0 0 1 .408.088.297.297 0 0 1-.088.41"/>
            <path fill="#000" d="M284.732 105.255c11.015 0 19.947.823 19.947 1.835 0 1.015-8.932 1.836-19.947 1.836-11.018 0-19.948-.821-19.948-1.836 0-1.012 8.93-1.835 19.948-1.835zm0 .928c-4.833 0-9.485.162-13.101.456-1.829.147-3.124.307-4.038.451.914.145 2.21.305 4.038.454 3.616.292 8.268.454 13.101.454 4.832 0 9.483-.162 13.098-.454 1.83-.149 3.126-.309 4.038-.454-.912-.144-2.207-.304-4.038-.45-3.615-.295-8.266-.457-13.098-.457zM282.037 121.42c0 .256.206.464.464.464h4.46a.465.465 0 0 0 .465-.463v-4.46a.466.466 0 0 0-.466-.466h-4.459a.465.465 0 0 0-.464.466v4.46M281.835 117.946c0-.129-.17-.232-.378-.232s-.376.103-.376.232v2.49c0 .13.168.233.376.233s.378-.103.378-.234v-2.49"/>
            <path fill="#000" d="M283.282 119.424c.13 0 .233-.105.233-.233a.23.23 0 0 0-.233-.231h-2.49a.232.232 0 0 0 0 .464h2.49M305.93 117.603a.464.464 0 0 0-.598-.269l-4.17 1.586a.463.463 0 0 0-.268.598l1.584 4.17c.09.24.36.361.599.269l4.17-1.585a.463.463 0 0 0 .269-.597l-1.586-4.172M307.356 120.78c.044.12.24.158.433.084.195-.076.314-.231.27-.35l-.887-2.33c-.045-.119-.238-.157-.433-.084-.195.075-.317.232-.271.351l.888 2.329"/>
            <path fill="#000" d="M305.477 119.915a.228.228 0 0 0-.134.298c.044.12.178.18.298.134l2.328-.883a.233.233 0 0 0-.166-.435l-2.326.886M261.02 121.383a.463.463 0 0 0 .25.606l4.123 1.703a.464.464 0 0 0 .607-.252l1.703-4.121a.466.466 0 0 0-.253-.607l-4.123-1.705a.464.464 0 0 0-.605.254l-1.702 4.122M262.16 118.093c.048-.118-.068-.278-.261-.358-.193-.08-.386-.048-.436.07l-.951 2.303c-.05.12.066.278.258.36.193.077.388.045.438-.072l.951-2.303"/>
            <path fill="#000" d="M262.932 120.012a.23.23 0 0 0 .303-.129.226.226 0 0 0-.126-.3l-2.302-.951a.227.227 0 0 0-.3.126.23.23 0 0 0 .124.302l2.301.952M247.899 81.387c.309 0 .62-.094.888-.292l2.694-1.97a1.507 1.507 0 0 0-1.778-2.433l-2.694 1.972a1.51 1.51 0 0 0-.33 2.106c.298.403.756.617 1.22.617"/>
            <path fill="#000" d="M239.862 79.791c.01.005.018.007.03.009l7.707 1.557a1.507 1.507 0 0 0 .598-2.956l-7.708-1.555a.404.404 0 0 0-.11-.005c.743.206.234 2.854-.517 2.95"/>
            <path fill="#6A6A6A" d="M239.862 79.791c.751-.096 1.26-2.744.516-2.95-.745.11-1.247 2.726-.516 2.95"/>
            <path fill="#FFF" d="M246.708 78.053l1.378-.143 1.891 3.156-3.883.869.614-3.882"/>
            <path fill="#000" d="M244.418 67.126c.613 2.47 3.882 2.702 3.79 4.508-.173 3.3-5.396 3.3-7.549 1.342-1.167-1.06-1.866-2.448-2.317-3.918-.217-.701-.311-2.079-1.113-2.305-1.867-.531-2.858.972-3.385 1.08.107-.385.183-1.64-.277-1.92-.432-.263-1.461-.49-2.018.862-1.46 3.557-4.789 1.09-4.472.13.464-1.404 3.723-6.777 11.798-7.184 4.606-.233 4.902 4.84 5.543 7.405"/>
            <path fill="#000" d="M246.534 68.838c.645.33 1.495.226 1.132-.714-.33-.849-.861-1.482-1.764-1.624-1.041-.163-.844.973-.445 1.502.317.42.616.597 1.077.836"/>
            <path fill="#FFB79A" d="M252.088 78.177c-.863-.068-1.142 1.083-1.737 2.334-.417.876-1.511 2.245-1.74 2.16-.227-.087.487-.904.692-1.152.234-.28 1.229-.836.64-1.152-.897-.481-3.048 2.71-3.665 3.256-.495.439-.947 1.048-.926 1.795.027.819 1.344.848 1.915.863 2.393.074 4.942-1.465 5.721-3.531.777-2.064-.041-4.504-.9-4.573"/>
            <path fill="#5D4C51" d="M225.374 82.67c.576-3.162.385-11.661-4.38-14.441-2.347-1.37-17.387-8.24-29.82 5.845-8.588 9.726-10.817 23.31-9.604 25.479 1.245 2.232 23.631 4.317 24.209 1.155 2.108-4.598 6.401-9.022 11.478-9.215 5.08-.192 8.117-8.823 8.117-8.823"/>
            <path fill="#706166" d="M248.56 86.863c.009-1.338-3.41-4.428-5.44-2.717-2.032 1.711-10.658 7.298-13.021 6.79-6.255-1.341-8.67-19.665-17.65-14.095-7.756 4.81 2.822 19.587 17.162 22.082 7.261 1.262 18.941-10.72 18.95-12.06"/>
            <path fill="#F28F7C" d="M227.367 73.57c.963-1.963 2.335-2.553 1.625-.958-.767 1.727-.315 2.928.245 4.34l-.002.003c-.17-.412-.342-.712-.541-.785-.544-.194-1.678.302-2.61.957-.023-1.117.754-2.474 1.283-3.557"/>
            <path fill="#706166" d="M224.85 71.877c-3.77-5.9-11.786-6.147-12.996-9.395-.66-1.778 2.529-1.684 2.17-1.745-2.839-.483-8.938.219-8.182 3.456.756 3.24 8.337 4.75 10.56 5.74 10.354 4.62 8.378 13.022 8.79 13.218.546.258 2.313-7.112-.342-11.274"/>
            <path fill="#000" d="M239.268 74.114c-.174-.151-1.685-.58-1.256-.302 1.411.909 1.144 2.33 1.428 2.338.965.032.13-1.767-.172-2.036"/>
            <path fill="#C0C0C0" d="M207.774 135.118c4.277 2.558 6.315 2.63 7.347 2.029.336 1.706.663 3.41.983 5.093-2.35.793-6.257-1.12-8.33-7.122"/>
        </g>
        <use fill="#000" fill-rule="nonzero" opacity=".2" xlink:href="#d"/>
    </g>
</svg>
