<svg xmlns="http://www.w3.org/2000/svg" xmlns:xlink="http://www.w3.org/1999/xlink" width="382" height="284" viewBox="0 0 382 284">
    <defs>
        <filter id="a" width="126.3%" height="123.8%" x="-13.1%" y="-10.7%" filterUnits="objectBoundingBox">
            <feOffset dy="8" in="SourceAlpha" result="shadowOffsetOuter1"/>
            <feGaussianBlur in="shadowOffsetOuter1" result="shadowBlurOuter1" stdDeviation="8"/>
            <feColorMatrix in="shadowBlurOuter1" result="shadowMatrixOuter1" values="0 0 0 0 0.48627451 0 0 0 0 0.525490196 0 0 0 0 0.541176471 0 0 0 0.15 0"/>
            <feMerge>
                <feMergeNode in="shadowMatrixOuter1"/>
                <feMergeNode in="SourceGraphic"/>
            </feMerge>
        </filter>
        <rect id="b" width="350" height="252" rx="5"/>
        <path id="d" d="M.094.044v33.404h11.571L.095.044"/>
        <linearGradient id="e" x1="49.843%" x2="50.154%" y1="101.023%" y2=".416%">
            <stop offset="0%" stop-color="#759BD3"/>
            <stop offset="100%" stop-color="#4049A9"/>
        </linearGradient>
        <path id="g" d="M2.99.781C4.078.506 4.842.192 4.926.15c-.084.042-.847.356-1.936.63"/>
        <linearGradient id="h" x1="-956.154%" x2="300.472%" y1="-15695.082%" y2="-15695.082%">
            <stop offset="0%" stop-color="#ACD2CE"/>
            <stop offset="100%" stop-color="#ACD2CE"/>
        </linearGradient>
        <path id="j" d="M.137.245"/>
        <linearGradient id="k" x1="-3582.514%" x2="971.037%" y1="-19190%" y2="-19190%">
            <stop offset="0%" stop-color="#FFF"/>
            <stop offset="100%" stop-color="#FFF"/>
        </linearGradient>
        <path id="m" d="M2.718 3.238v-.002C1.935 2.172 1 1.121.066.088 1 1.12 1.936 2.172 2.717 3.238"/>
        <linearGradient id="n" x1="-1774.722%" x2="524.744%" y1="-716.346%" y2="-716.346%">
            <stop offset="0%" stop-color="#FFF"/>
            <stop offset="100%" stop-color="#FFF"/>
        </linearGradient>
        <path id="p" d="M1.568 6.546c.574-1.257.492-2.528.01-3.793h.001c.48 1.265.563 2.536-.011 3.793M.918 1.39A15.453 15.453 0 0 0 .026.039V.04C.355.488.656.94.92 1.39"/>
        <linearGradient id="q" x1="-2555.702%" x2="579.041%" y1="-395.164%" y2="-395.164%">
            <stop offset="0%" stop-color="#ACD2CE"/>
            <stop offset="100%" stop-color="#ACD2CE"/>
        </linearGradient>
        <path id="s" d="M.403.424l-.3-.331.3.331"/>
        <linearGradient id="t" x1="-15553.527%" x2="4728.387%" y1="-6707.107%" y2="-6707.107%">
            <stop offset="0%" stop-color="#FFF"/>
            <stop offset="100%" stop-color="#FFF"/>
        </linearGradient>
        <path id="v" d="M.738 1.407"/>
        <linearGradient id="w" x1="-7661.468%" x2="1569.801%" y1="-1985.679%" y2="-1985.679%">
            <stop offset="0%" stop-color="#FFF"/>
            <stop offset="100%" stop-color="#FFF"/>
        </linearGradient>
        <path id="y" d="M4.815 54.783C2.53 52.263.362 49.876.63 47.769c.348-2.743 2.208-5.432 4.626-8.064C2.838 42.337.978 45.025.63 47.769c-.267 2.107 1.9 4.494 4.185 7.014m5.793-20.322c2.732-2.554 5.38-5.051 6.988-7.488 1.032-1.565 1.654-4.923 1.352-8.75.302 3.827-.32 7.185-1.352 8.75-1.608 2.437-4.256 4.934-6.988 7.488M18.834 17.1C17.865 9.303 13.017.142.204.121H.117h.044c12.843 0 17.703 9.174 18.673 16.978"/>
        <linearGradient id="z" x1="-222.387%" x2="100.002%" y1="59.323%" y2="59.323%">
            <stop offset="0%" stop-color="#F8F8F9"/>
            <stop offset="100%" stop-color="#F8F8F9"/>
        </linearGradient>
        <path id="B" d="M.4 1.227"/>
        <linearGradient id="C" x1="-36093.95%" x2="129.55%" y1="1375.165%" y2="1375.165%">
            <stop offset="0%" stop-color="#FFF"/>
            <stop offset="100%" stop-color="#FFF"/>
        </linearGradient>
        <path id="E" d="M.04 5.376C1.667 3.603 3.548 1.854 5.39.133 3.55 1.854 1.669 3.603.04 5.376"/>
        <linearGradient id="F" x1="-881.737%" x2="257.295%" y1="-36.489%" y2="-36.489%">
            <stop offset="0%" stop-color="#FFF"/>
            <stop offset="100%" stop-color="#FFF"/>
        </linearGradient>
        <path id="H" d="M9.29 2.597C6.906 1.737 3.908.883.163.104c3.745.78 6.743 1.633 9.127 2.493"/>
        <linearGradient id="I" x1="-278.663%" x2="389.187%" y1="-960.162%" y2="-960.162%">
            <stop offset="0%" stop-color="#ACD2CE"/>
            <stop offset="100%" stop-color="#ACD2CE"/>
        </linearGradient>
        <path id="K" d="M1.214.362"/>
        <linearGradient id="L" x1="-1431.721%" x2="4095.209%" y1="-8237.342%" y2="-8237.342%">
            <stop offset="0%" stop-color="#FFF"/>
            <stop offset="100%" stop-color="#FFF"/>
        </linearGradient>
        <path id="N" d="M25.294 55.45H3.714s6.204-3.168 6.941-5.709L.146.071s21.126.099 21.58 0a.84.84 0 0 1 1.005.642l9.997 45.49a7.582 7.582 0 0 1-1.503 6.405 7.579 7.579 0 0 1-5.931 2.843"/>
        <linearGradient id="O" x1="49.999%" x2="49.999%" y1="3.33%" y2="125.365%">
            <stop offset="0%" stop-color="#DADAEA"/>
            <stop offset="100%" stop-color="#C4C4DA"/>
        </linearGradient>
    </defs>
    <g fill="none" fill-rule="evenodd" filter="url(#a)" transform="translate(16 8)">
        <mask id="c" fill="#fff">
            <use xlink:href="#b"/>
        </mask>
        <use fill="#FC3471" fill-rule="nonzero" xlink:href="#b"/>
        <g mask="url(#c)">
            <path fill="#0B2231" d="M247.716 227.967c.882.09-.783 12.984-4.747 12.106-3.965-.878.025-12.58 4.747-12.106"/>
            <path fill="#DB9276" d="M258.5 235.979a.797.797 0 0 1-.307-.06c-1.207-.499-3.65-1.793-4.303-2.75-.242-.108-1.01-.155-1.647-.1a.81.81 0 0 1-.877-.73.81.81 0 0 1 .73-.877c.948-.084 2.605-.094 3.134.81.239.358 1.975 1.492 3.579 2.155a.807.807 0 1 1-.308 1.552"/>
            <path fill="#DB9276" d="M263.145 237.65l-.668-.418c-.224-.143-.44-.265-.675-.442l-.69-.498c-.232-.167-.434-.347-.652-.52-.216-.174-.43-.352-.633-.544-.204-.19-.417-.368-.611-.57-.199-.2-.4-.394-.589-.61-.096-.107-.193-.205-.288-.32-.097-.117-.185-.214-.298-.364l.859.513-4.74-.804a.942.942 0 0 1 .21-1.872l4.8.271h.014c.36.02.671.226.845.512.039.064.118.172.18.262.064.093.143.189.214.285.14.192.304.375.46.562.152.192.329.365.492.547.165.185.34.358.52.528.178.168.353.355.535.508l.547.475c.17.158.397.316.602.473l.631.473a.942.942 0 0 1-1.065 1.553"/>
            <path fill="#DB9276" d="M266.718 237.35l-.483-.212c-.17-.086-.392-.21-.636-.348-.268-.147-.471-.285-.734-.448-.511-.32-1.082-.7-1.688-1.127-.609-.423-1.238-.89-1.88-1.4-.156-.118-.333-.285-.497-.426l-.127-.11-.017-.015-.008-.006c.052.047-.12-.11.114.106l-.003-.004-.028-.02-.06-.042-.115-.084-.002.03c.084.057-.115-.02-.21-.042-.14-.028-.266-.064-.421-.086a14.31 14.31 0 0 0-1.762-.171 27.089 27.089 0 0 0-1.799-.017h-.045a1.616 1.616 0 1 1 .099-3.228l.57.046c.355.032.857.082 1.464.166.61.09 1.315.2 2.126.421.197.049.42.128.636.2.25.108.414.142.824.39.084.053.182.117.248.166l.107.094.22.2.083.086c.118.116.209.225.349.35.525.491 1.09.99 1.632 1.434.537.449 1.053.86 1.494 1.186.216.16.44.333.577.422.154.11.288.204.4.281l.465.251.046.024a1.075 1.075 0 0 1-.94 1.933"/>
            <path fill="#E89E81" d="M267.675 233.78l-1.795-.458-.45-.115c-.15-.044-.296-.064-.454-.128l-.93-.335c-.613-.23-1.268-.435-1.84-.705-.589-.259-1.174-.503-1.777-.812l.85.16a62.302 62.302 0 0 1-4.405.762c-.75.084-1.488.19-2.265.23-.39.019-.76.068-1.168.06h-1.21a2.027 2.027 0 1 1 .296-4.031l.146.024.951.146c.311.059.663.067.996.103.668.074 1.37.08 2.063.112a58.691 58.691 0 0 0 4.217-.069l.108-.01c.27-.025.527.04.742.17.478.291 1.015.564 1.538.84.527.3 1.047.493 1.57.742l.788.358c.123.066.286.103.427.155l.44.147 1.76.587.008.003a1.076 1.076 0 0 1-.606 2.063M256.776 239.789l-1.671-.75c-.5-.194-1.069-.459-1.693-.67l-.954-.344c-.326-.098-.656-.197-.988-.294a8.489 8.489 0 0 0-.982-.26l-.945-.203c-.306-.084-.592-.074-.866-.116-.27-.03-.525-.06-.76-.084-.235-.026-.43.011-.61.01l-.458.016-.395.009-.316.007a2.435 2.435 0 1 1 .29-4.847l.617.088.703.107c.264.05.582.076.89.164l.985.292c.34.115.727.196 1.07.356.351.146.715.297 1.084.452.375.145.728.327 1.08.508l1.048.537.973.567c.638.359 1.186.746 1.674 1.049l1.542 1.061a1.349 1.349 0 0 1-1.318 2.345"/>
            <path fill="#E89E81" d="M255.862 229.509c-.183-.11-2.857-1.396-3.476-1.396-.621-.001-6.14.65-7.097.621-.957-.03-4.2-.151-4.913-.15-.712.002-.024 6.46.764 6.636.787.175 1.87 1.265 2.312 1.439 1.98.769 3.956.377 3.956.377l8.454-7.527"/>
            <path fill="#112E41" d="M202.23 239.829l40.739.244c-.749-2.677-.73-10.482 4.747-12.106l-39.628-5.39s-9.014-21.122-10.53-23.9l-13.18-7.268c-3.897 2.235 8.92 32.713 13.804 45.61a4.354 4.354 0 0 0 4.049 2.81"/>
            <path fill="#0B2231" d="M198.33 200.254l-.005-.01-13.787-1.15c2.583 10.44 10.147 28.69 13.644 37.925a4.356 4.356 0 0 0 4.049 2.81s.838-28.907-3.901-39.575"/>
            <path fill="#112E41" d="M195.925 252.712c2.402-12.19 9.698-46.27-.779-57.62-5.04-5.458-15.39-8.652-15.39-8.652l-15.458-1.836s-16.375 5.51-20.813 9.183c-4.438 3.671-15.75 22.179-15.75 22.179l24.412 3.054c1.307 6.027-.504 20.328-2.769 33.692h46.547"/>
            <path fill="#404AA9" d="M177.785 180.474l2.028.75 2.03 3.38-4.526.24.468-4.37"/>
            <path fill="#FFF" d="M161.369 184.604s14.277-4.16 21.254 0l3.65 15.501 3.843 27.896v16h-18.542s1.315-12.714-.82-22.454c-.99-4.516-9.385-36.943-9.385-36.943"/>
            <path fill="#E89E81" d="M168.152 163.464s-.997 11.376-6.399 19.055c0 7.7 14.76 11.597 17.78 6.765.685-1.101.37-2.255.223-2.844-1.458-4.111-1.458-9.906-1.458-9.906l-10.146-13.07"/>
            <path fill="#DB9276" d="M178.298 176.534l-10.146-13.07s-.181 2.056-.802 5.005c.186 3.243 1.273 13.481 11.869 16.135-.92-3.808-.92-8.07-.92-8.07"/>
            <path fill="#18394F" d="M172.028 213.867c-2.55-11.905-9.275-27.806-6.838-37.975-6.63 6.003-8.84 20.94-8.84 20.94l8.342 3.84-3.318 3.935s9.6 23.199 10.535 35.203c.373-3.18.703-6.063.98-8.523a54.198 54.198 0 0 0-.861-17.42M178.615 181.183l-.137-1.264c4.37 1.188 15.879 15.342 15.879 15.342l-5.952 6.993 4.665 2.171s-2.5 28.728.518 40.841c-9.585-11.697-8.624-58.596-14.973-64.083"/>
            <path fill="#E89E81" d="M184.082 178.618c3.344-1.125 16.823-39.741-9.117-39.148-24.366.557-7.47 44.732 9.117 39.148"/>
            <path fill="#DB9276" d="M190.275 160.992c.437-3.688.42-7.466-.386-10.81l-13.67 4.56c3.12 3.906 7.316 6.427 14.056 6.25"/>
            <path fill="#112E41" d="M163.4 159.15s-9.298-13.478-.29-18.694c3.165-1.833 6.359 1.403 6.359 1.403s1.483-7.367 8.175-6.524c10.933 1.378 16.018 18.115 22.685 16.556-3.315 9.61-17.326 3.114-17.326 3.114l-.313 2.25s-6.786.74-8.933-7.098c-1.21 7.015-5.575 12.594-5.575 12.594l-4.781-3.602"/>
            <path fill="#E89E81" d="M169.502 161.537a3.942 3.942 0 1 0-7.699 1.697 3.942 3.942 0 0 0 7.7-1.697"/>
            <path fill="#DB9276" d="M167.453 161.988a1.843 1.843 0 1 0-3.6.794 1.843 1.843 0 0 0 3.6-.794"/>
            <path fill="#002951" d="M169.502 144.37a.562.562 0 0 1-.552-.669c.564-2.913-1.09-4.605-2.577-5.51a.562.562 0 1 1 .584-.96c2.533 1.542 3.632 3.916 3.096 6.683a.562.562 0 0 1-.551.455"/>
            <path fill="#0B2231" d="M179.579 232.408c1.83.242 4.12 7.582 1.405 11.656h-10.861s3.09-12.5 9.456-11.656"/>
            <g transform="translate(257.382 190.737)">
                <mask id="f" fill="#fff">
                    <use xlink:href="#d"/>
                </mask>
                <path fill="url(#e)" d="M.094.044v33.404h11.571L.095.044" mask="url(#f)"/>
            </g>
            <path fill="#DB9276" d="M174.97 241.147c-3.981-1.093-8.545 1.107-11.588 1.778-3.043.672-4.775-6.908-4.775-6.908l18.219-2.199-1.856 7.329"/>
            <path fill="#0B2231" d="M156.812 212.174l-13.935-2.487s.711 3.664 1.8 8.399l7.47.934c.84 3.877.39 11.178-.64 19.451.849.836 6.928-11.182 5.305-26.297"/>
            <path fill="#404AA9" d="M245.17 214.879a1.088 1.088 0 1 0-2.176.001 1.088 1.088 0 0 0 2.176-.001"/>
            <path fill="#EA6363" d="M186.635 242.434s-.029-.015-.081-.046c-.05-.026-.143-.084-.217-.112-.145-.066-.43-.2-.767-.335a17.722 17.722 0 0 0-2.55-.813c-.464-.11-.927-.192-1.346-.236-.416-.042-.798-.062-1.082-.032-.15.002-.273.022-.374.044-.104.017-.195.029-.247.056l-.187.059-.09.027a1.777 1.777 0 1 1-.733-3.462l.522-.059c.17-.023.357-.022.569-.017.217-.001.452.01.691.046.498.045 1.024.168 1.564.32.538.154 1.082.353 1.605.573 1.047.445 2.018.971 2.73 1.416.36.22.639.412.883.585.123.086.175.135.229.175l.072.06a1.063 1.063 0 0 1-1.183 1.756l-.008-.005"/>
            <path fill="#DB9276" d="M179.717 237.821c-3.606.27-3.583 3.006-8.302 1.16.906.432 2.814 1.955 3.98 2.339 1.322.434 5.133-.43 5.133-.43l-.811-3.069"/>
            <path fill="#DADAEA" d="M178.529 243.99c-1.853-3.209 2.829-7.973 9.383-7.973 4.754 0 9.76 3.753 11.298 7.973H178.53"/>
            <path fill="#C0C0DA" d="M196.158 243.062a.78.78 0 0 1-.732-.51c-.012-.029-.608-1.55-2.414-2.597a.779.779 0 0 1 .783-1.35c2.326 1.35 3.064 3.327 3.095 3.412a.777.777 0 0 1-.732 1.045"/>
            <path fill="#E89E81" d="M195.38 237.737l-.161-.03c-.118-.027-.231-.034-.485-.093a7.42 7.42 0 0 1-.823-.215c-.3-.1-.638-.207-.99-.353-.701-.293-1.477-.717-2.23-1.153l-.553-.301c-.163-.083-.358-.177-.407-.174l-.012-.003-.006-.002c.191.058.05.016.09.029l-.005-.002-.01-.001-.084-.014c.002.015.07.027.046.029l-.241.018-.608.074c-.848.118-1.736.303-2.559.483l-2.255.54-1.588.441-.595.182a2.141 2.141 0 1 1-.666-4.187h.022l2.33-.03 2.382-.059c.876-.02 1.802-.039 2.775-.032.242.002.493.01.757.024.136.01.278.02.44.04.087.009.267.039.381.067l.08.027.117.036.032.015.066.028c.37.165.553.312.767.455.185.136.367.269.545.402.675.503 1.282.885 1.838 1.14a6 6 0 0 0 .757.302c.237.07.426.115.57.141.133.04.335.05.428.063l.163.017a1.06 1.06 0 0 1-.229 2.108c-.025-.003-.054-.007-.079-.012"/>
            <path fill="#E89E81" d="M175.742 235.809a1.06 1.06 0 0 1-.224-2.095c2.84-.616 11.086-2.814 11.169-2.836.193-.052.395-.047.586.01 1.17.362 8.304.658 9.193.463.551-.193 1.132.106 1.326.658.193.552-.122 1.163-.675 1.356-1.1.387-8.12.032-10.14-.373-1.448.385-8.372 2.22-11.01 2.793a1.153 1.153 0 0 1-.225.024"/>
            <path fill="#E89E81" d="M191.06 241.648l-.176-.015-.296-.054a3.84 3.84 0 0 1-.48-.145 5.095 5.095 0 0 1-.816-.392 8.587 8.587 0 0 1-1.31-.972 14.21 14.21 0 0 1-1.091-1.09c-.17-.19-.337-.381-.499-.576a12.22 12.22 0 0 1-.483-.618l-.001-.002.44.396-5.027-2.472v-.002l.976.131-4.339 1.352a1.77 1.77 0 1 1-.784-3.443l4.495-.663.217-.032c.274-.04.542.023.759.161l4.863 2.785.108.06a.926.926 0 0 1 .335.336c.097.153.232.348.356.52.128.175.261.35.396.52.27.34.555.664.851.964.295.296.603.564.907.774.152.103.302.188.441.252.068.032.142.058.192.076l.049.019.175.028c.579.088.976.63.887 1.207a1.064 1.064 0 0 1-1.145.895"/>
            <path fill="#E89E81" d="M187.141 243.837l-.321-.176c-.098-.047-.24-.145-.367-.23-.274-.176-.478-.35-.702-.526-.422-.363-.81-.75-1.164-1.158a14.52 14.52 0 0 1-1.407-1.938l-.205-.345-.206-.379.448.512-4.882-2.943a1.413 1.413 0 0 1 1.459-2.42c.024.013.05.032.074.047l4.69 3.24.07.05c.176.12.302.28.378.462l.13.276.15.295a12.284 12.284 0 0 0 1.074 1.688c.268.348.556.67.855.964.155.135.315.288.448.384.072.055.123.107.242.176l.31.196a1.059 1.059 0 0 1-1.074 1.825"/>
            <path fill="#E89E81" d="M171.415 238.98c6.308 2.697 6.79-.597 10.567-.127l-3.315-5.32s-2.59.731-5.794 0c-2.737-.625-1.762 5.337-1.762 5.337.082.015.19.057.313.116l-.009-.005"/>
            <path fill="#112E41" d="M118.503 244.174h53.29c-.75-2.677 2.308-10.144 7.786-11.766l-34.123-3.805 12.73-18.416-15.882-15.276c-4.218 2.418-27.498 38.759-23.8 49.263"/>
            <path fill="#0B2231" d="M145.265 226.508s4.166-.935 3.09 3.137c-1.077 4.074-5.478.718-5.478.718l2.388-3.855"/>
            <path fill="#FFF" d="M134.61 231.082H85.828a2.666 2.666 0 0 0-2.665 2.665v.054a2.665 2.665 0 0 0 2.665 2.666h48.78v-5.385"/>
            <path fill="#ED5C61" d="M136.358 237.189h-50.53a3.39 3.39 0 0 1-3.386-3.388v-.054a3.39 3.39 0 0 1 3.387-3.385h50.529a.721.721 0 1 1 0 1.442h-50.53a1.946 1.946 0 0 0-1.943 1.943v.054c0 1.072.872 1.946 1.944 1.946h50.529a.721.721 0 1 1 0 1.442"/>
            <path fill="#FFF" d="M142.304 237.894H93.523a2.666 2.666 0 0 0-2.665 2.665v.054a2.665 2.665 0 0 0 2.665 2.666h48.78v-5.385"/>
            <path fill="#FAB620" d="M144.052 244h-50.53a3.39 3.39 0 0 1-3.386-3.387v-.054a3.39 3.39 0 0 1 3.387-3.385h50.53a.722.722 0 0 1 0 1.442h-50.53a1.947 1.947 0 0 0-1.944 1.943v.054c0 1.072.872 1.944 1.944 1.944h50.53a.723.723 0 0 1 0 1.444"/>
            <path fill="#FFF" d="M123.77 228a.834.834 0 0 1-.34-1.598c4.312-1.917 5.572-4.527 4.906-6.265-.369-.962-1.242-1.434-2.117-1.15a.832.832 0 0 1-1.05-.538.833.833 0 0 1 .535-1.05c1.712-.555 3.511.367 4.19 2.14.878 2.294-.11 5.865-5.786 8.388a.81.81 0 0 1-.338.074"/>
            <g transform="translate(117.712 215.642)">
                <mask id="i" fill="#fff">
                    <use xlink:href="#g"/>
                </mask>
                <path fill="url(#h)" d="M2.99.781C4.078.506 4.842.192 4.926.15c-.084.042-.847.356-1.936.63" mask="url(#i)"/>
            </g>
            <g transform="translate(119.226 215.81)">
                <mask id="l" fill="#fff">
                    <use xlink:href="#j"/>
                </mask>
                <path fill="url(#k)" d="M.137.245" mask="url(#l)"/>
            </g>
            <g transform="translate(118.385 206.05)">
                <mask id="o" fill="#fff">
                    <use xlink:href="#m"/>
                </mask>
                <path fill="url(#n)" d="M2.718 3.238v-.002C1.935 2.172 1 1.121.066.088 1 1.12 1.936 2.172 2.717 3.238" mask="url(#o)"/>
            </g>
            <g transform="translate(121.077 209.248)">
                <mask id="r" fill="#fff">
                    <use xlink:href="#p"/>
                </mask>
                <path fill="url(#q)" d="M1.568 6.546c.574-1.257.492-2.528.01-3.793h.001c.48 1.265.563 2.536-.011 3.793M.918 1.39A15.453 15.453 0 0 0 .026.039V.04C.355.488.656.94.92 1.39" mask="url(#r)"/>
            </g>
            <g transform="translate(118.048 205.714)">
                <mask id="u" fill="#fff">
                    <use xlink:href="#s"/>
                </mask>
                <path fill="url(#t)" d="M.403.424l-.3-.331.3.331" mask="url(#u)"/>
            </g>
            <g transform="translate(121.919 210.594)">
                <mask id="x" fill="#fff">
                    <use xlink:href="#v"/>
                </mask>
                <path fill="url(#w)" d="M.738 1.407" mask="url(#x)"/>
            </g>
            <g transform="translate(113.337 151.024)">
                <mask id="A" fill="#fff">
                    <use xlink:href="#y"/>
                </mask>
                <path fill="url(#z)" d="M4.815 54.783C2.53 52.263.362 49.876.63 47.769c.348-2.743 2.208-5.432 4.626-8.064C2.838 42.337.978 45.025.63 47.769c-.267 2.107 1.9 4.494 4.185 7.014m5.793-20.322c2.732-2.554 5.38-5.051 6.988-7.488 1.032-1.565 1.654-4.923 1.352-8.75.302 3.827-.32 7.185-1.352 8.75-1.608 2.437-4.256 4.934-6.988 7.488M18.834 17.1C17.865 9.303 13.017.142.204.121H.117h.044c12.843 0 17.703 9.174 18.673 16.978" mask="url(#A)"/>
            </g>
            <g transform="translate(132.015 168.02)">
                <mask id="D" fill="#fff">
                    <use xlink:href="#B"/>
                </mask>
                <path fill="url(#C)" d="M.4 1.227" mask="url(#D)"/>
            </g>
            <g transform="translate(118.553 185.353)">
                <mask id="G" fill="#fff">
                    <use xlink:href="#E"/>
                </mask>
                <path fill="url(#F)" d="M.04 5.376C1.667 3.603 3.548 1.854 5.39.133 3.55 1.854 1.669 3.603.04 5.376" mask="url(#G)"/>
            </g>
            <g transform="translate(96.677 207.397)">
                <mask id="J" fill="#fff">
                    <use xlink:href="#H"/>
                </mask>
                <path fill="url(#I)" d="M9.29 2.597C6.906 1.737 3.908.883.163.104c3.745.78 6.743 1.633 9.127 2.493" mask="url(#J)"/>
            </g>
            <g transform="translate(87.085 205.378)">
                <mask id="M" fill="#fff">
                    <use xlink:href="#K"/>
                </mask>
                <path fill="url(#L)" d="M1.214.362" mask="url(#M)"/>
            </g>
            <path fill="#FFF" d="M114.608 230.363c-3.982-4.501-4.015-15.44-4.015-15.44h15.46s.263 10.939-3.596 15.44h-7.85M164.64 162.232a1.46 1.46 0 0 0 .727 1.932c.213.097.438.132.657.124l1.762 2.485a.738.738 0 0 0 1.029.176l.012-.01a.738.738 0 0 0 .175-1.028l-1.726-2.435.023-.039a1.46 1.46 0 0 0-2.66-1.205"/>
            <path fill="#D5245A" d="M275.459 104.617h-6.983v5.887l-8.606-5.887h-55.273a3.598 3.598 0 0 1-3.597-3.598V89.245a3.597 3.597 0 0 1 3.597-3.597h70.862a3.597 3.597 0 0 1 3.597 3.597v11.774a3.598 3.598 0 0 1-3.597 3.598"/>
            <path fill="#000" d="M218.043 85.648c-2.544 3.103-5.594 11.631-6.73 14.973-.798-1.206-2.127-2.901-3.54-3.383a.655.655 0 0 0-.423 1.239c1.401.477 3.045 3.052 3.563 4.005a.653.653 0 0 0 1.197-.111c.043-.133 4.306-13.295 7.265-16.261a.653.653 0 0 0 .192-.462h-1.524" opacity=".15"/>
            <path fill="#FFF" d="M209.802 99.687a.65.65 0 0 1-.575-.343c-.517-.952-2.16-3.527-3.562-4.004a.655.655 0 0 1 .423-1.238c1.413.481 2.742 2.176 3.54 3.382 1.196-3.522 4.52-12.813 7.135-15.436a.653.653 0 1 1 .927.924c-2.959 2.967-7.222 16.13-7.265 16.262a.654.654 0 0 1-.623.453M268.476 98.294h-45.968a3.052 3.052 0 1 1 0-6.105h45.968a3.053 3.053 0 0 1 0 6.105"/>
            <path fill="#D5245A" d="M330.765 135.457h-6.986l.002 5.887-8.607-5.887H259.9a3.597 3.597 0 0 1-3.597-3.598v-11.774a3.598 3.598 0 0 1 3.597-3.598h70.864a3.598 3.598 0 0 1 3.597 3.598v11.774a3.597 3.597 0 0 1-3.597 3.598"/>
            <path fill="#000" d="M273.349 116.487c-2.544 3.103-5.595 11.632-6.731 14.974-.797-1.206-2.126-2.901-3.539-3.383a.655.655 0 0 0-.423 1.239c1.401.477 3.045 3.052 3.562 4.005a.65.65 0 0 0 .635.34.654.654 0 0 0 .563-.451c.043-.133 4.304-13.295 7.265-16.262a.651.651 0 0 0 .19-.462h-1.522" opacity=".15"/>
            <path fill="#FFF" d="M265.107 130.527a.65.65 0 0 1-.574-.343c-.517-.952-2.161-3.527-3.562-4.005a.653.653 0 1 1 .423-1.238c1.413.482 2.741 2.177 3.539 3.383 1.195-3.52 4.52-12.813 7.136-15.436a.655.655 0 0 1 .927.924c-2.959 2.967-7.222 16.129-7.266 16.261a.655.655 0 0 1-.623.454M323.781 129.134h-45.967a3.053 3.053 0 0 1 0-6.105h45.967a3.051 3.051 0 0 1 3.051 3.052 3.051 3.051 0 0 1-3.05 3.053"/>
            <path fill="#D5245A" d="M330.765 79.76h-6.986l.002 5.888-8.607-5.887H259.9a3.598 3.598 0 0 1-3.597-3.598V64.389a3.598 3.598 0 0 1 3.597-3.598h70.864a3.598 3.598 0 0 1 3.597 3.598v11.774a3.598 3.598 0 0 1-3.597 3.598"/>
            <path fill="#000" d="M273.349 60.791c-2.544 3.103-5.595 11.632-6.731 14.974-.797-1.206-2.126-2.901-3.539-3.383a.655.655 0 0 0-.423 1.238c1.401.478 3.045 3.053 3.562 4.005a.65.65 0 0 0 .635.34.654.654 0 0 0 .563-.45c.043-.133 4.304-13.296 7.265-16.262a.652.652 0 0 0 .19-.462h-1.522" opacity=".15"/>
            <path fill="#FFF" d="M265.107 74.83a.65.65 0 0 1-.574-.342c-.517-.952-2.161-3.527-3.562-4.005a.655.655 0 0 1 .423-1.238c1.413.482 2.741 2.177 3.539 3.383 1.197-3.521 4.52-12.813 7.136-15.436a.654.654 0 0 1 .927.924c-2.959 2.966-7.222 16.129-7.266 16.261a.654.654 0 0 1-.623.454M323.781 73.437h-45.967a3.053 3.053 0 0 1 0-6.105h45.967a3.052 3.052 0 0 1 3.051 3.053 3.051 3.051 0 0 1-3.05 3.052"/>
            <path fill="#EDF2F6" d="M77.312 252.712h250.772v-8.711H77.312z"/>
            <path fill="#C4C4DA" d="M198.327 244h88.36v-2.503h-88.36z"/>
            <path fill="#DADAEA" d="M210.254 244h88.362v-2.503h-88.362z"/>
            <path fill="#C5DEEA" d="M255.966 244l-54.62 8.712h127.059v-8.711h-72.439"/>
            <path fill="#C4C4DA" d="M304.868 224.186h-83.213a3.368 3.368 0 0 1-3.369-3.369v-60.748a3.368 3.368 0 0 1 3.369-3.369h83.213a3.368 3.368 0 0 1 3.369 3.369v60.748a3.368 3.368 0 0 1-3.37 3.369"/>
            <path fill="#DADAEA" d="M307.28 224.186h-83.214a3.368 3.368 0 0 1-3.369-3.369v-60.748a3.368 3.368 0 0 1 3.37-3.369h83.212a3.368 3.368 0 0 1 3.37 3.369v60.748a3.368 3.368 0 0 1-3.37 3.369"/>
            <path fill="#C4C4DA" d="M281.334 190.781H256.76a1.324 1.324 0 0 1-1.324-1.324v-.027c0-.73.592-1.323 1.324-1.323h24.575c.73 0 1.323.593 1.323 1.323v.027c0 .732-.592 1.324-1.323 1.324M238.462 214.879a1.087 1.087 0 1 0-2.173-.001 1.087 1.087 0 0 0 2.173 0M241.894 214.879a1.087 1.087 0 1 0-2.174-.001 1.087 1.087 0 0 0 2.174 0M291.958 214.879a1.087 1.087 0 1 0-2.173-.001 1.087 1.087 0 0 0 2.173 0M295.389 214.879a1.087 1.087 0 1 0-2.173-.001 1.087 1.087 0 0 0 2.173 0"/>
            <g transform="translate(257.718 188.55)">
                <mask id="P" fill="#fff">
                    <use xlink:href="#N"/>
                </mask>
                <path fill="url(#O)" d="M25.294 55.45H3.714s6.204-3.168 6.941-5.709L.146.071s21.126.099 21.58 0a.84.84 0 0 1 1.005.642l9.997 45.49a7.582 7.582 0 0 1-1.503 6.405 7.579 7.579 0 0 1-5.931 2.843" mask="url(#P)"/>
            </g>
            <path fill="#C4C4DA" d="M261.432 244h-17.824a.842.842 0 1 1 0-1.686h17.824a5.896 5.896 0 0 0 4.618-2.212 5.9 5.9 0 0 0 1.17-4.986l-9.998-45.49a.844.844 0 0 1 1.647-.363l9.998 45.49a7.577 7.577 0 0 1-1.503 6.405 7.579 7.579 0 0 1-5.932 2.843"/>
            <path fill="#0B2231" d="M206.685 222.296c1.267-.042 3.37-1.592 4.54.936 1.171 2.527-4.54-.936-4.54-.936"/>
        </g>
    </g>
</svg>
