<svg xmlns="http://www.w3.org/2000/svg" xmlns:xlink="http://www.w3.org/1999/xlink" width="382" height="217" viewBox="0 0 382 217">
    <defs>
        <filter id="a" width="126.9%" height="135.2%" x="-13.4%" y="-15.9%" filterUnits="objectBoundingBox">
            <feOffset dy="8" in="SourceAlpha" result="shadowOffsetOuter1"/>
            <feGaussianBlur in="shadowOffsetOuter1" result="shadowBlurOuter1" stdDeviation="8"/>
            <feColorMatrix in="shadowBlurOuter1" result="shadowMatrixOuter1" values="0 0 0 0 0.48627451 0 0 0 0 0.525490196 0 0 0 0 0.541176471 0 0 0 0.202059659 0"/>
            <feMerge>
                <feMergeNode in="shadowMatrixOuter1"/>
                <feMergeNode in="SourceGraphic"/>
            </feMerge>
        </filter>
        <rect id="b" width="350" height="185" rx="5"/>
    </defs>
    <g fill="none" fill-rule="evenodd" filter="url(#a)" transform="translate(16 8)">
        <mask id="c" fill="#fff">
            <use xlink:href="#b"/>
        </mask>
        <use fill="#3AD4C3" fill-rule="nonzero" xlink:href="#b"/>
        <g mask="url(#c)">
            <path fill="#5192A3" d="M323.149 176.211c-1.22 0-2.374-.294-3.34-.85l-14.335-8.278c1.507-.74 2.419-1.194 2.419-1.194l13.586 7.844c.1.058.207.109.32.153l.018.006.055.019c.065.023.129.047.196.066.036.01.074.018.112.027l.063.016.056.014c.072.015.145.027.22.038l.08.009.056.006.078.009c.073.006.145.01.218.011H323.178c.082-.003.164-.009.246-.017l.03-.004.066-.01c.063-.007.125-.014.187-.025.028-.005.053-.015.08-.02.076-.016.15-.035.222-.056.039-.01.08-.017.117-.029l.05-.022c.155-.053.303-.114.435-.191l50.64-29.429.027-.016c.042-.025.072-.054.11-.08.054-.04.113-.077.158-.118l.016-.011c.052-.049.098-.098.138-.149l.023-.035.024-.036.043-.062a.905.905 0 0 0 .059-.127l.005-.018.007-.024c.008-.027.018-.055.024-.082a.76.76 0 0 0 .014-.128v-.02l.005-1.67.071.042c.253.146.492.214.704.214a.814.814 0 0 0 .424-.112l-.01.006 1.16-.674c.14.43.215.882.215 1.345.003 1.628-.907 3.129-2.43 4.014l-49.545 28.792c-.964.56-2.121.856-3.344.856m54.404-35.308v-.033.033"/>
            <path fill="#D1D3D4" d="M378.893 81.478l-.004-.077-.006-.076-.009-.078a2.616 2.616 0 0 0-.011-.08v-.002l-.014-.077a2.95 2.95 0 0 0-.036-.165l-.022-.084-.02-.064v-.006l-.004-.013a3.835 3.835 0 0 0-.055-.163l-.029-.077-.031-.077-.024-.057-.002-.005-.006-.014-.035-.077a3.115 3.115 0 0 0-.09-.177c-.017-.033-.036-.065-.054-.097l-.01-.02-.013-.022a3.939 3.939 0 0 0-.214-.325l-.002-.002-.001-.002a3.643 3.643 0 0 0-.07-.092l-.061-.075-.06-.071-.062-.068-.01-.01-.005-.006-.05-.051-.065-.066-.07-.064-.069-.06-.034-.028-.007-.006-.028-.024-.07-.052-.067-.048-.066-.044-.066-.04-.016-.01-75.397-43.53-.05-.028-.064-.033-.064-.03-.064-.027-.063-.024-.013-.004-.005-.002-.045-.015-.066-.018-.064-.014-.07-.012-.046-.004-.007-.001-.017-.002-.074-.002a.847.847 0 0 0-.173.017h-.002l-.003.001a.793.793 0 0 0-.233.088l-1.173.682a.78.78 0 0 1 .232-.088h.004a.922.922 0 0 1 .265-.014h.007c.094.009.191.03.292.064l.004.001c.103.036.21.084.319.147l75.397 43.53c.107.062.21.136.312.217l.008.007c.1.081.196.172.288.27l.005.004c.093.1.181.206.264.319l.001.002c.082.111.158.228.227.348l.01.018c.069.12.13.242.186.367l.001.003c.056.128.104.258.143.388l.002.006c.039.13.07.26.09.39.02.13.031.259.03.384l-.166 58.64c0 .121-.011.234-.031.337l-.003.01a1.24 1.24 0 0 1-.089.277l-.001.004c-.026.053-.06.096-.093.141a.802.802 0 0 1-.242.238l1.173-.682a.795.795 0 0 0 .243-.238l.031-.03c.022-.034.041-.07.06-.108l.001-.003.001-.003a1.167 1.167 0 0 0 .083-.246l.007-.032.002-.01.007-.034.01-.075.009-.075.004-.074.002-.075v-.004l.166-58.64v-.071"/>
            <path fill="#E6E7E8" d="M376.152 79.509c.866.5 1.57 1.72 1.568 2.722l-.167 58.64c-.002.995-.711 1.399-1.578.899l-75.397-43.53c-.872-.504-1.576-1.724-1.573-2.72l.166-58.64c.003-1.001.712-1.405 1.584-.902l75.397 43.53"/>
            <path fill="#394873" d="M375.83 82.225c.001-.322-.342-.918-.623-1.08L301.62 38.659a.376.376 0 0 0-.565.325l-.16 56.541c-.001.32.345.914.628 1.078l73.582 42.483a.376.376 0 0 0 .565-.325l.16-56.536"/>
            <path fill="#E9E9EA" d="M376.679 141.984c-.212 0-.451-.068-.704-.214l-.071-.041.001-.363a.48.48 0 0 1-.001.035c.017-.341-.2-.686-.652-.948l-12.705-7.334 1.111-.642-6.518-3.764 17.965 10.373a.377.377 0 0 0 .565-.325l.16-56.536c.001-.322-.342-.918-.623-1.08L319.098 48.75l-.89-2.695 57.944 33.454c.864.499 1.568 1.715 1.568 2.716v.006l-.167 58.64v.045c-.012.465-.181.795-.45.956a.814.814 0 0 1-.424.112m-28.353-17.076l-5.046-2.914-.524-1.585 6.681 3.857-1.111.642"/>
            <path fill="#4D5B81" d="M375.293 139.137a.372.372 0 0 1-.188-.051l-11.447-6.61v-31.388-.043l.001-.02c0-.112-.001-.223-.005-.335l-.003-.064v-.001c0-.03-.002-.06-.004-.09l-.002-.044-.001-.024a2.644 2.644 0 0 0-.006-.135l-.01-.123-.002-.02c-.002-.042-.006-.083-.01-.124v-.002l-.004-.057a.752.752 0 0 0-.003-.035l-.005-.05a8.164 8.164 0 0 0-.01-.089l-.007-.066-.005-.038a6.85 6.85 0 0 0-.009-.08l-.004-.04a10.979 10.979 0 0 0-.053-.372l-.001-.007-.01-.055c-.017-.103-.034-.208-.054-.312l-.004-.021-.008-.035-.03-.149c-.012-.06-.023-.121-.037-.182l-.023-.1a11.887 11.887 0 0 0-.038-.163l-.03-.125-.038-.15a11.27 11.27 0 0 0-.043-.163l-.021-.08-.063-.213-.04-.14-.012-.038c-.039-.128-.08-.256-.122-.383l-.002-.005-.012-.034a16.827 16.827 0 0 0-.118-.339l-.02-.053-.048-.127-.068-.183-.046-.115-.058-.142-.041-.103-.087-.202-.048-.113-.017-.04c-.053-.12-.108-.239-.164-.358l-.006-.013-.046-.096-.136-.28-.022-.042-.114-.222-.093-.18-.018-.032c-.103-.192-.21-.382-.32-.57l-.027-.049-.087-.142a15.197 15.197 0 0 0-.414-.658l-.049-.075-.048-.07a18.315 18.315 0 0 0-.42-.598l-.003-.004a17.414 17.414 0 0 0-.313-.41l-.014-.019a16.48 16.48 0 0 0-.236-.291l-.047-.058-.003-.004c-.094-.113-.19-.225-.286-.335l-.014-.016-.09-.099c-.06-.068-.122-.137-.184-.204l-.036-.037-.126-.133-.141-.148-.053-.052-.14-.138-.12-.119-.069-.064-.15-.14-.106-.099-.084-.073a16.08 16.08 0 0 0-.152-.132l-.093-.082-.103-.083c-.05-.041-.099-.082-.15-.122l-.077-.064-.128-.098-.14-.107-.057-.043c-.058-.043-.117-.083-.174-.124l-.118-.083-.03-.022a11.13 11.13 0 0 0-.315-.208l-.003-.002-.023-.013a9.738 9.738 0 0 0-.288-.177l-.073-.043a9.719 9.719 0 0 0-.235-.131l-.09-.046a6.903 6.903 0 0 0-.12-.063l-.094-.049-.149-.07-.107-.05-.044-.02a7.753 7.753 0 0 0-.595-.238l-.039-.014-.107-.035-.15-.05-.075-.02-.131-.036c-.034-.009-.068-.02-.1-.027-.036-.01-.07-.016-.105-.024a5.26 5.26 0 0 0-.13-.029l-.07-.015c-.04-.008-.08-.013-.121-.02-.05-.009-.1-.018-.15-.025l-.053-.008c-.041-.006-.082-.009-.123-.013a4.963 4.963 0 0 0-.16-.016l-.047-.005c-.036-.003-.07-.002-.107-.004a4.595 4.595 0 0 0-.188-.006l-.053-.002c-.027 0-.053.004-.08.004a4.404 4.404 0 0 0-.233.011l-.07.004-.096.01-.073.01a3.921 3.921 0 0 0-.259.042l-.008.001-.068.017c-.071.015-.141.032-.21.051l-.1.032c-.043.013-.088.026-.131.041l-.033.013a3.515 3.515 0 0 0-.196.08l-.094.04a3.667 3.667 0 0 0-.277.144l-15.973 9.289-15.932-48.256 56.109 32.395c.28.162.624.758.623 1.08l-.16 56.536a.377.377 0 0 1-.377.376m-18.153-10.424l-14.384-8.304-1.034-3.133 7.715-4.486v11.476l7.703 4.447"/>
            <path fill="#D1D3D4" d="M245.522 127.303c-.001.332.218.665.657.918l75.306 43.478c.105.061.219.114.338.16l.056.019c.1.036.201.067.306.093l.064.015c.116.027.236.047.357.061l.053.007c.122.012.245.019.369.02h.06c.124-.002.248-.008.371-.021l.067-.01a3.501 3.501 0 0 0 .656-.152 2.49 2.49 0 0 0 .436-.192l50.639-29.428c.051-.03.09-.065.136-.097.055-.038.113-.076.159-.117.07-.063.128-.128.177-.195l.024-.037a.928.928 0 0 0 .107-.207l.007-.024a.772.772 0 0 0 .038-.228l-.006 2.033v.02a.76.76 0 0 1-.014.127c-.006.027-.016.055-.024.082l-.007.024-.005.018a.905.905 0 0 1-.06.127l-.042.062-.024.036-.023.035c-.04.05-.086.1-.138.149l-.016.011c-.045.041-.104.079-.158.117-.038.027-.068.056-.11.081l-.027.016-50.64 29.429c-.132.077-.28.138-.435.191l-.05.022c-.037.012-.078.018-.117.029-.073.02-.146.04-.221.056-.028.005-.053.015-.081.02-.062.01-.124.018-.187.026l-.067.009-.03.004a3.864 3.864 0 0 1-.245.016h-.097l-.059.001h-.07a3.64 3.64 0 0 1-.219-.011c-.026-.002-.052-.006-.078-.01l-.056-.005-.08-.01a3.655 3.655 0 0 1-.22-.037l-.056-.014-.063-.016c-.038-.009-.076-.017-.112-.027-.067-.02-.131-.043-.196-.066l-.055-.019-.018-.006a2.468 2.468 0 0 1-.32-.153l-75.306-43.478c-.439-.254-.658-.586-.657-.918l.006-2.034"/>
            <path fill="#F1F2F2" d="M375.252 140.453c.87.503.87 1.315.005 1.818l-50.64 29.428c-.86.5-2.262.503-3.132 0l-75.306-43.478c-.871-.502-.876-1.318-.016-1.817l50.64-29.429c.864-.502 2.272-.502 3.142 0l75.307 43.478"/>
            <path fill="#D1D3D4" d="M336.938 159.181l29.18-16.847-69.891-40.352-29.181 16.847 69.892 40.352M277.721 141.552l19.826 11.446 13.08-7.551L290.8 134l-13.08 7.552"/>
            <path fill="#58595B" d="M273.465 120.755c-.34.197-.86.218-1.154.048l-2.63-1.518c-.294-.17-.257-.47.083-.666l3.037-1.753c.34-.197.86-.218 1.154-.048l2.63 1.518c.294.17.257.47-.083.666l-3.037 1.753M277.837 123.28c-.34.196-.86.217-1.154.047l-2.63-1.518c-.294-.17-.257-.47.083-.666l3.037-1.754c.34-.196.86-.217 1.153-.047l2.63 1.518c.295.17.257.47-.083.666l-3.036 1.753M282.209 125.804c-.34.196-.86.217-1.154.047l-2.63-1.518c-.294-.17-.257-.47.083-.666l3.037-1.753c.34-.197.859-.218 1.153-.048l2.63 1.518c.295.17.257.47-.083.666l-3.036 1.754M324.145 150.015c-.34.197-.86.218-1.154.048l-2.63-1.518c-.294-.17-.257-.47.083-.667l3.036-1.752c.34-.197.86-.218 1.154-.048l2.63 1.518c.295.17.257.47-.083.666l-3.036 1.753M290.061 130.337c-.34.197-.86.218-1.154.048l-6.11-3.528c-.295-.17-.258-.47.083-.666l3.036-1.753c.34-.197.86-.218 1.154-.048l6.11 3.528c.295.17.258.47-.082.666l-3.037 1.753M319.773 147.491c-.34.197-.86.218-1.154.048l-6.11-3.528c-.295-.17-.258-.47.082-.666l3.037-1.753c.34-.197.86-.218 1.154-.048l6.11 3.528c.295.17.257.47-.082.666l-3.037 1.753M311.92 142.957c-.34.197-.86.218-1.153.048l-20.117-11.614c-.295-.17-.258-.47.082-.666l3.037-1.753c.34-.197.86-.219 1.154-.049l20.117 11.615c.294.17.257.47-.083.666l-3.037 1.753M328.517 152.54c-.34.196-.86.217-1.155.047l-2.63-1.518c-.293-.17-.256-.47.084-.666l.9-.52c.34-.196.859-.218 1.154-.048l2.63 1.519c.294.17.257.47-.084.666l-.9.52M332.888 155.063c-.34.197-.859.218-1.154.048l-2.63-1.518c-.294-.17-.257-.47.084-.666l.9-.52c.34-.196.859-.218 1.153-.048l2.63 1.519c.294.17.257.47-.083.666l-.9.52"/>
            <path fill="#58595B" d="M335.025 153.83c-.34.196-.86.218-1.154.048l-2.63-1.519c-.294-.17-.257-.47.083-.666l.9-.52c.34-.196.86-.217 1.154-.047l2.63 1.518c.294.17.257.47-.083.666l-.9.52M337.26 157.588c-.34.196-.86.217-1.154.047l-2.63-1.518c-.294-.17-.257-.47.083-.666l.9-.52c.34-.196.86-.218 1.154-.047l2.63 1.518c.294.17.257.47-.083.666l-.9.52M299.208 106.473c-.34.196-.86.218-1.154.048l-3.132-1.809c-.295-.17-.257-.47.083-.666l.9-.52c.34-.196.86-.218 1.154-.047l3.132 1.808c.295.17.257.47-.083.666l-.9.52M304.077 109.284c-.34.196-.86.218-1.154.048l-3.132-1.809c-.295-.17-.258-.47.083-.666l.9-.52c.34-.196.859-.218 1.153-.047l3.133 1.808c.294.17.257.47-.083.666l-.9.52M308.945 112.095c-.34.196-.859.218-1.153.048l-3.133-1.809c-.294-.17-.257-.47.083-.666l.9-.52c.34-.196.86-.218 1.154-.047l3.132 1.808c.295.17.257.47-.083.666l-.9.52M313.814 114.906c-.34.196-.86.217-1.154.047l-3.132-1.808c-.294-.17-.257-.47.083-.666l.9-.52c.34-.196.86-.218 1.154-.048l3.132 1.809c.294.17.257.47-.083.666l-.9.52M318.683 117.717c-.34.196-.86.217-1.154.047l-3.132-1.808c-.295-.17-.258-.47.083-.666l.9-.52c.34-.196.859-.218 1.153-.048l3.133 1.809c.294.17.257.47-.083.666l-.9.52M323.551 120.528c-.34.196-.86.217-1.153.047l-3.133-1.808c-.294-.17-.257-.47.083-.666l.9-.52c.34-.196.86-.218 1.154-.048l3.132 1.809c.295.17.257.47-.083.666l-.9.52M328.42 123.338c-.34.197-.86.218-1.154.048l-3.132-1.808c-.295-.17-.257-.47.083-.667l.9-.519c.34-.196.859-.218 1.154-.048l3.132 1.809c.295.17.257.47-.083.666l-.9.52M333.289 126.15c-.34.196-.86.217-1.154.047l-3.132-1.808c-.295-.17-.258-.47.082-.667l.9-.52c.34-.195.86-.217 1.154-.047l3.133 1.809c.294.17.257.47-.083.666l-.9.52M338.158 128.96c-.34.197-.86.218-1.154.048l-3.133-1.808c-.294-.17-.257-.47.083-.667l.9-.52c.34-.195.86-.217 1.154-.047l3.132 1.808c.295.17.257.47-.083.666l-.9.52M343.026 131.771c-.34.196-.86.218-1.154.048l-3.132-1.808c-.294-.17-.257-.47.083-.667l.9-.52c.34-.195.86-.217 1.154-.047l3.132 1.809c.294.17.257.47-.083.665l-.9.52M347.895 134.582c-.34.196-.86.218-1.154.048l-3.132-1.809c-.295-.17-.258-.47.083-.666l.9-.52c.34-.195.859-.217 1.153-.047l3.133 1.808c.294.17.257.47-.083.666l-.9.52M352.763 137.393c-.34.196-.859.218-1.153.048l-3.133-1.809c-.294-.17-.257-.47.083-.666l.9-.52c.34-.196.86-.217 1.154-.047l3.132 1.808c.295.17.257.47-.083.666l-.9.52M357.632 140.204c-.34.196-.86.218-1.154.048l-3.132-1.809c-.295-.17-.257-.47.083-.666l.9-.52c.34-.196.859-.217 1.154-.047l3.132 1.808c.294.17.257.47-.083.666l-.9.52M362.5 143.015c-.34.196-.859.218-1.153.048l-3.132-1.809c-.295-.17-.257-.47.082-.666l.9-.52c.34-.196.86-.217 1.154-.047l3.132 1.808c.295.17.258.47-.083.666l-.9.52M293.658 109.097c-.34.196-.86.218-1.154.048l-2.63-1.518c-.294-.17-.257-.47.083-.666l3.036-1.753c.34-.197.86-.219 1.154-.048l2.63 1.518c.294.17.257.47-.083.666l-3.036 1.753M298.03 111.621c-.34.197-.86.218-1.155.048l-2.63-1.518c-.294-.17-.257-.47.084-.666l3.036-1.753c.34-.197.86-.218 1.154-.048l2.63 1.518c.294.17.257.47-.083.666l-3.037 1.753M302.401 114.145c-.34.197-.86.218-1.154.048l-2.63-1.518c-.294-.17-.257-.47.083-.666l3.037-1.754c.34-.196.86-.217 1.154-.047l2.63 1.518c.294.17.257.47-.083.666l-3.037 1.753M306.773 116.67c-.34.196-.86.217-1.154.047l-2.63-1.518c-.294-.17-.257-.47.083-.666l3.037-1.753c.34-.197.86-.218 1.153-.048l2.63 1.518c.295.17.258.47-.082.666l-3.037 1.753M311.144 119.194c-.34.196-.858.217-1.153.048l-2.63-1.519c-.295-.17-.257-.47.083-.666l3.037-1.753c.34-.197.859-.218 1.153-.048l2.63 1.518c.295.17.258.47-.083.666l-3.037 1.754M315.517 121.717c-.34.197-.86.218-1.154.048l-2.63-1.518c-.295-.17-.257-.47.083-.666l3.036-1.753c.34-.197.86-.218 1.154-.048l2.63 1.518c.294.17.257.47-.083.667l-3.036 1.752M319.889 124.242c-.34.196-.86.217-1.155.047l-2.63-1.518c-.294-.17-.257-.47.083-.666l3.037-1.753c.34-.197.86-.218 1.154-.048l2.63 1.518c.294.17.257.47-.083.667l-3.036 1.753M324.26 126.766c-.34.196-.86.218-1.154.048l-2.63-1.519c-.294-.17-.257-.47.083-.666l3.037-1.753c.34-.196.86-.218 1.154-.048l2.63 1.518c.294.17.257.47-.083.666l-3.037 1.754M328.632 129.29c-.34.196-.86.218-1.154.048l-2.63-1.519c-.294-.17-.257-.47.083-.666l3.037-1.753c.34-.197.86-.218 1.154-.048l2.63 1.518c.294.17.256.47-.084.666l-3.036 1.754M333.004 131.814c-.34.196-.86.218-1.154.048l-2.63-1.518c-.294-.17-.257-.47.083-.667l3.037-1.753c.34-.196.859-.218 1.153-.048l2.63 1.518c.295.17.257.47-.083.667l-3.036 1.753M337.375 134.338c-.34.196-.859.218-1.153.047l-2.63-1.518c-.295-.17-.257-.47.083-.666l3.036-1.753c.34-.196.86-.218 1.154-.048l2.63 1.519c.294.17.257.47-.083.666l-3.037 1.753M341.747 136.862c-.34.196-.86.218-1.154.048l-2.63-1.519c-.294-.17-.257-.47.084-.666l3.036-1.753c.34-.196.86-.218 1.154-.048l2.63 1.518c.294.17.257.47-.083.667l-3.037 1.753M346.12 139.386c-.34.196-.86.218-1.155.048l-2.63-1.518c-.294-.17-.257-.47.083-.667l3.037-1.753c.34-.196.86-.218 1.154-.048l2.63 1.519c.294.17.257.47-.083.666l-3.037 1.753M350.49 141.91c-.34.196-.858.218-1.153.048l-2.63-1.518c-.294-.17-.257-.47.083-.667l3.037-1.753c.34-.196.859-.218 1.154-.048l2.63 1.519c.294.17.257.47-.083.666l-3.037 1.753M357.453 145.93c-.34.196-.86.217-1.154.047l-5.22-3.013c-.295-.17-.257-.47.083-.667l3.037-1.753c.34-.196.859-.218 1.154-.048l5.22 3.014c.294.17.257.47-.084.666l-3.036 1.753M351.74 144.954c.34-.196.86-.218 1.154-.048l2.63 1.519c.294.17.257.47-.083.666l-3.036 1.753c-.34.196-.86.218-1.155.048l-2.63-1.519c-.294-.17-.256-.47.084-.666l3.036-1.753M347.368 142.43c.34-.197.86-.218 1.155-.048l2.63 1.519c.294.17.256.47-.084.666l-3.036 1.753c-.34.196-.86.218-1.154.047l-2.63-1.518c-.294-.17-.257-.47.083-.666l3.036-1.753M342.997 139.906c.34-.196.86-.218 1.154-.048l2.63 1.518c.294.17.257.47-.084.667l-3.036 1.753c-.34.196-.86.218-1.154.048l-2.63-1.519c-.294-.17-.257-.47.083-.666l3.037-1.753M338.625 137.382c.34-.197.86-.218 1.154-.048l2.63 1.518c.294.17.257.47-.083.666l-3.037 1.754c-.34.196-.86.218-1.153.048l-2.63-1.519c-.295-.17-.258-.47.082-.666l3.037-1.753M334.253 134.858c.34-.196.86-.218 1.154-.048l2.63 1.518c.294.17.257.47-.083.666l-3.037 1.754c-.34.196-.86.218-1.153.047l-2.63-1.518c-.295-.17-.258-.47.083-.666l3.036-1.753M329.881 132.334c.34-.197.86-.218 1.154-.048l2.63 1.518c.295.17.257.47-.083.666l-3.037 1.754c-.34.196-.859.217-1.153.047l-2.63-1.518c-.295-.17-.258-.47.083-.666l3.036-1.753M325.51 129.81c.34-.197.859-.218 1.153-.048l2.63 1.518c.295.17.257.47-.083.666l-3.036 1.753c-.34.197-.86.218-1.154.048l-2.63-1.518c-.294-.17-.257-.47.083-.666l3.036-1.753M321.138 127.286c.34-.197.859-.218 1.154-.048l2.63 1.518c.294.17.256.47-.083.666l-3.037 1.753c-.34.197-.86.219-1.154.049l-2.63-1.519c-.294-.17-.257-.47.083-.666l3.037-1.753M316.766 124.762c.34-.197.86-.218 1.154-.048l2.63 1.518c.294.17.257.47-.083.666l-3.037 1.754c-.34.196-.86.217-1.154.047l-2.63-1.518c-.294-.17-.257-.47.083-.666l3.037-1.753M312.394 122.237c.34-.196.86-.217 1.154-.047l2.63 1.518c.294.17.257.47-.083.666l-3.037 1.753c-.34.197-.86.218-1.154.048l-2.63-1.518c-.294-.17-.256-.47.084-.666l3.036-1.754M308.022 119.713c.34-.196.86-.217 1.154-.048l2.63 1.519c.294.17.257.47-.083.666l-3.036 1.753c-.34.197-.86.218-1.154.048l-2.63-1.518c-.295-.17-.257-.47.083-.666l3.036-1.754M303.65 117.19c.34-.197.86-.218 1.155-.048l2.63 1.518c.294.17.257.47-.084.666l-3.036 1.753c-.34.196-.86.218-1.154.048l-2.63-1.518c-.295-.17-.257-.47.083-.667l3.037-1.752M299.279 114.665c.34-.196.859-.217 1.154-.047l2.63 1.518c.294.17.257.47-.084.666l-3.036 1.753c-.34.197-.86.218-1.154.048l-2.63-1.518c-.294-.17-.257-.47.083-.666l3.037-1.754M294.907 112.141c.34-.196.86-.218 1.154-.048l2.63 1.519c.294.17.257.47-.083.666l-3.037 1.753c-.34.196-.86.218-1.154.048l-2.63-1.518c-.294-.17-.257-.47.083-.667l3.037-1.753M287.945 108.122c.34-.196.86-.218 1.154-.048l5.22 3.014c.295.17.257.47-.083.666l-3.037 1.753c-.34.197-.859.218-1.154.048l-5.22-3.013c-.294-.17-.257-.47.084-.667l3.036-1.753M336.653 142.073c.34-.197.86-.218 1.155-.048l2.63 1.519c.294.17.256.47-.084.665l-3.036 1.754c-.34.196-.86.218-1.154.047l-2.63-1.518c-.294-.17-.257-.47.083-.666l3.036-1.753M332.282 139.549c.34-.196.859-.218 1.154-.048l2.63 1.518c.294.17.257.47-.083.666l-3.037 1.753c-.34.197-.86.218-1.154.048l-2.63-1.518c-.294-.17-.257-.47.083-.666l3.037-1.753M327.91 137.025c.34-.197.86-.218 1.154-.048l2.63 1.518c.294.17.257.47-.083.666l-3.037 1.753c-.34.197-.86.218-1.154.048l-2.63-1.518c-.294-.17-.257-.47.084-.666l3.036-1.753M323.538 134.5c.34-.196.86-.217 1.154-.047l2.63 1.518c.294.17.257.47-.083.666l-3.037 1.754c-.34.196-.86.217-1.153.047l-2.63-1.518c-.295-.17-.257-.47.083-.666l3.036-1.753M319.167 131.976c.34-.196.859-.217 1.153-.047l2.63 1.518c.295.17.257.47-.083.666l-3.036 1.754c-.34.196-.86.217-1.154.047l-2.63-1.518c-.294-.17-.257-.47.083-.666l3.037-1.754M314.795 129.453c.34-.197.86-.219 1.154-.048l2.63 1.518c.294.17.257.47-.084.666l-3.036 1.753c-.34.197-.86.218-1.154.048l-2.63-1.518c-.294-.17-.257-.47.083-.666l3.037-1.753M310.423 126.929c.34-.197.859-.218 1.154-.048l2.63 1.518c.294.17.257.47-.083.666l-3.037 1.753c-.34.197-.86.218-1.154.048l-2.63-1.518c-.294-.17-.257-.47.083-.666l3.037-1.753M306.051 124.405c.34-.197.86-.218 1.154-.048l2.63 1.518c.294.17.257.47-.083.666l-3.037 1.753c-.34.197-.859.218-1.154.048l-2.63-1.518c-.294-.17-.257-.47.083-.667l3.037-1.752M301.68 121.88c.34-.196.859-.218 1.153-.047l2.63 1.518c.295.17.257.47-.083.666l-3.037 1.753c-.34.197-.859.218-1.154.048l-2.63-1.518c-.294-.17-.256-.47.084-.666l3.036-1.754M297.307 119.356c.34-.196.86-.218 1.154-.048l2.63 1.519c.295.17.257.47-.083.666l-3.036 1.753c-.34.196-.86.218-1.154.048l-2.63-1.518c-.295-.17-.257-.47.083-.666l3.036-1.754M292.936 116.832c.34-.196.859-.218 1.154-.048l2.63 1.519c.294.17.257.47-.084.666l-3.036 1.753c-.34.196-.86.218-1.154.048l-2.63-1.518c-.294-.17-.257-.47.083-.667l3.037-1.753M289.228 118.198c-.34.196-.86.218-1.154.048l-8.296-4.79c-.295-.17-.258-.47.083-.667l3.036-1.752c.34-.197.86-.218 1.154-.048l8.296 4.79c.295.17.258.47-.083.666l-3.036 1.753M337.989 146.35c-.34.196-.378.496-.083.666l8.297 4.79c.294.17.813.149 1.153-.048l3.037-1.753c.34-.196.377-.496.083-.666l-8.297-4.79c-.294-.17-.813-.149-1.154.048l-3.036 1.753M329.42 143.725c.34-.196.86-.218 1.154-.048l2.63 1.519c.294.17.257.47-.084.666l-3.036 1.753c-.34.197-.86.218-1.154.048l-2.63-1.518c-.294-.17-.257-.47.083-.667l3.037-1.753M325.048 141.201c.34-.196.859-.218 1.154-.047l2.63 1.518c.294.17.257.47-.084.666l-3.036 1.753c-.34.196-.86.218-1.154.048l-2.63-1.518c-.294-.17-.257-.47.083-.667l3.037-1.753M320.676 138.677c.34-.196.86-.218 1.154-.048l2.63 1.519c.294.17.257.47-.083.666l-3.037 1.753c-.34.196-.859.218-1.154.048l-2.63-1.518c-.294-.17-.257-.47.083-.667l3.037-1.753M316.304 136.153c.34-.196.86-.218 1.154-.048l2.63 1.518c.295.17.257.47-.083.667l-3.037 1.753c-.34.196-.859.218-1.154.048l-2.63-1.518c-.294-.17-.256-.47.084-.667l3.036-1.753M311.932 133.63c.34-.197.86-.219 1.154-.049l2.63 1.519c.295.17.257.47-.083.666l-3.036 1.753c-.34.197-.86.218-1.154.048l-2.63-1.519c-.295-.17-.257-.47.083-.666l3.036-1.753M307.56 131.105c.34-.196.86-.218 1.155-.048l2.63 1.519c.294.17.257.47-.084.666l-3.036 1.753c-.34.196-.86.218-1.154.048l-2.63-1.518c-.294-.17-.257-.47.083-.667l3.037-1.753M303.189 128.581c.34-.196.859-.218 1.154-.048l2.63 1.519c.294.17.257.47-.084.665l-3.036 1.754c-.34.196-.86.218-1.154.048l-2.63-1.519c-.294-.17-.257-.47.083-.666l3.037-1.753M298.817 126.057c.34-.196.86-.218 1.154-.048l2.63 1.518c.294.17.257.47-.083.667l-3.037 1.753c-.34.196-.86.218-1.154.048l-2.63-1.519c-.294-.17-.257-.47.084-.666l3.036-1.753M294.445 123.533c.34-.197.86-.218 1.154-.048l2.63 1.518c.294.17.257.47-.083.666l-3.037 1.754c-.34.196-.859.218-1.153.048l-2.63-1.519c-.295-.17-.257-.47.082-.666l3.037-1.753M290.074 121.009c.34-.197.859-.218 1.153-.048l2.63 1.518c.295.17.257.47-.083.667l-3.036 1.753c-.34.196-.86.218-1.154.047l-2.63-1.518c-.295-.17-.257-.47.083-.666l3.037-1.753M286.366 122.375c-.34.196-.86.217-1.154.047l-10.482-6.052c-.295-.17-.258-.47.083-.666l3.036-1.753c.34-.196.86-.218 1.154-.048l10.482 6.052c.295.17.258.47-.083.666l-3.036 1.754M330.755 148.003c-.34.196-.378.496-.083.666l10.482 6.052c.295.17.814.148 1.154-.048l3.037-1.753c.34-.196.377-.496.083-.666l-10.483-6.052c-.294-.17-.813-.149-1.154.047l-3.036 1.754"/>
            <path fill="#F2F3F3" d="M342.832 124.574l-6.855-3.957 6.855 3.957"/>
            <path fill="#AFAFAF" d="M363.658 132.477l-6.518-3.764 6.518 3.764"/>
            <path fill="#3A4461" d="M363.658 132.477l-14.22-8.211V112.79l12.06-7.013a8.616 8.616 0 0 0 .159-.1l.06-.04.035-.026.03-.02a4.869 4.869 0 0 0 .151-.115l.054-.044.01-.008c.045-.038.088-.076.132-.116l.039-.036.01-.01.017-.015c.063-.062.125-.127.184-.194l.05-.058c.044-.05.086-.103.128-.156l.01-.013.043-.057c.044-.059.086-.12.128-.181l.033-.05.01-.016a3.844 3.844 0 0 0 .146-.245l.002-.003.031-.059a4.064 4.064 0 0 0 .1-.199l.006-.013c.057-.12.11-.246.159-.376l.013-.032.005-.013c.01-.026.017-.054.026-.08.027-.077.054-.154.078-.235l.021-.062.024-.093.04-.152.013-.051a2.033 2.033 0 0 1 .022-.082l.014-.074a.266.266 0 0 1 .004-.02l.009-.041.027-.137c.005-.031.012-.06.018-.091l.006-.036.009-.064.002-.01.01-.068.014-.094.006-.043.002-.011.004-.028c.005-.039.009-.08.012-.12l.003-.022.015-.153.005-.043.002-.019a3.651 3.651 0 0 0 .013-.21v-.002c.002-.031.005-.063.006-.096v-.014l.003-.027a6.095 6.095 0 0 0 .007-.283v-.033 31.39"/>
            <path fill="#3D6D7A" d="M307.893 165.889l-7.275-4.2 7.275 4.2"/>
            <path fill="#AFAFAF" d="M362.547 133.119l-14.221-8.211 1.111-.642 14.221 8.211-1.11.642"/>
            <path fill="#3A4461" d="M357.14 128.713l-7.703-4.447 7.703 4.447"/>
            <path fill="#9D9E9F" d="M307.893 165.889l-11.014-6.36v-2.036l11.014 6.359v2.037"/>
            <path fill="#B5B5B5" d="M307.893 163.852l-11.014-6.36s6.52-4.614 10.187-7.113l-.734-.424 2.146-1.239-.695-.401 5.167-2.983 14.222 8.21-5.168 2.984-.695-.401-2.146 1.239-.9-.52-10.37 7.008m48.46-27.157l-14.222-8.21 6.195-3.577 14.221 8.21-6.195 3.577"/>
            <path fill="#9D9E9F" d="M327.172 153.543l-14.222-8.211.923-.533 4.746 2.74c.134.077.313.115.5.115.228 0 .468-.055.654-.163l3.037-1.753c.34-.196.377-.496.083-.666l-4.747-2.74.775-.447 1.265.73c.134.077.313.115.5.115.228 0 .468-.055.654-.163l3.037-1.753c.34-.197.377-.496.083-.666l-1.266-.73 5.823-3.363.375.216c.133.077.313.115.5.115.228 0 .468-.055.653-.162l3.037-1.754c.34-.196.378-.495.083-.666l-.374-.216.775-.447 2.156 1.244c.133.078.312.115.5.115.228 0 .467-.055.653-.162l3.037-1.753c.34-.197.377-.496.083-.666l-2.156-1.245.775-.448 2.758 1.593c.134.077.313.115.501.115.227 0 .467-.055.653-.163l.9-.52c.34-.196.377-.496.083-.665l-2.759-1.593.88-.509 14.222 8.211-.88.509a1.038 1.038 0 0 0-.49-.109c-.227 0-.467.055-.653.163l-.9.519c-.336.194-.377.489-.094.66l-.775.448-1.58-.913a1.022 1.022 0 0 0-.5-.114c-.227 0-.467.055-.653.162l-3.037 1.753c-.34.197-.377.497-.083.667l1.58.912-5.823 3.361-.285-.164a1.021 1.021 0 0 0-.5-.115c-.228 0-.467.055-.654.163l-3.036 1.753c-.34.196-.378.496-.083.666l.285.165-.775.447-2.47-1.426a1.024 1.024 0 0 0-.501-.115c-.228 0-.467.055-.654.162l-3.036 1.754c-.34.196-.378.496-.083.666l2.47 1.426-5.97 3.448m-.803-3.823c-.228 0-.467.056-.653.163l-.9.52c-.34.196-.377.496-.083.666l2.63 1.518c.133.077.312.115.5.115.228 0 .468-.055.654-.163l.9-.52c.34-.196.377-.495.082-.665l-2.63-1.519a1.023 1.023 0 0 0-.5-.115m-2.236-3.757a1.34 1.34 0 0 0-.653.163l-3.036 1.752c-.34.197-.377.497-.083.667l2.63 1.518c.133.077.312.115.5.115.228 0 .467-.055.654-.163l3.036-1.753c.34-.196.378-.496.083-.666l-2.63-1.518a1.018 1.018 0 0 0-.5-.115m5.939-2.4c-.227 0-.467.055-.653.162l-3.037 1.753c-.34.197-.377.497-.083.667l2.63 1.518c.133.077.313.115.5.115.228 0 .468-.055.654-.163l3.036-1.753c.34-.196.378-.496.083-.666l-2.63-1.519a1.025 1.025 0 0 0-.5-.114m7.233-1.653c-.227 0-.466.055-.653.163l-3.036 1.753c-.34.196-.377.496-.083.666l2.63 1.518c.133.077.313.115.5.115.228 0 .468-.055.654-.162l3.036-1.754c.34-.196.378-.495.083-.665l-2.63-1.519a1.023 1.023 0 0 0-.5-.115m-11.606-.871c-.227 0-.467.055-.653.162l-3.037 1.753c-.34.197-.377.497-.082.667l2.63 1.518c.132.077.312.115.5.115.227 0 .467-.056.653-.163l3.036-1.753c.34-.196.378-.496.083-.666l-2.63-1.518a1.018 1.018 0 0 0-.5-.115m17.949-1.296c-.227 0-.467.055-.653.163l-3.037 1.753c-.34.196-.377.496-.083.666l2.63 1.519c.133.077.313.114.5.114.228 0 .468-.055.654-.162l3.036-1.753c.34-.197.378-.497.083-.667l-2.63-1.518a1.021 1.021 0 0 0-.5-.115m-10.715-.357c-.227 0-.467.055-.653.163l-3.037 1.753c-.34.196-.377.496-.083.666l2.63 1.518c.134.078.313.115.5.115.228 0 .468-.055.654-.163l3.037-1.753c.34-.196.377-.496.082-.666l-2.63-1.518a1.023 1.023 0 0 0-.5-.115m6.343-2.167c-.227 0-.467.056-.653.163l-3.037 1.753c-.34.197-.377.496-.083.666l2.63 1.519c.134.077.313.114.501.114.227 0 .467-.055.653-.162l3.037-1.754c.34-.196.377-.496.082-.666l-2.63-1.518a1.02 1.02 0 0 0-.5-.115m-10.715-.357c-.227 0-.467.055-.653.163l-3.036 1.753c-.34.196-.378.496-.083.666l2.63 1.518c.133.077.312.115.5.115.227 0 .467-.055.653-.163l3.037-1.753c.34-.196.377-.496.083-.666l-2.63-1.518a1.02 1.02 0 0 0-.5-.115m17.544-1.528c-.227 0-.467.055-.653.162l-3.037 1.753c-.34.197-.377.496-.082.667l2.63 1.518c.132.077.312.115.5.115.227 0 .467-.055.653-.163l3.037-1.753c.34-.197.377-.496.082-.666l-2.63-1.519a1.025 1.025 0 0 0-.5-.114m-11.202-.639c-.227 0-.467.056-.653.163l-3.036 1.753c-.34.196-.378.496-.083.666l2.63 1.518c.133.077.312.115.5.115.228 0 .467-.055.653-.162l3.037-1.754c.34-.196.377-.496.083-.666l-2.63-1.518a1.026 1.026 0 0 0-.5-.115m15.206-.41c-.227 0-.467.054-.653.162l-.9.519c-.34.197-.377.496-.083.666l3.133 1.809c.133.077.312.114.5.114.227 0 .467-.055.653-.162l.9-.52c.34-.196.378-.496.083-.666l-3.132-1.808a1.025 1.025 0 0 0-.5-.115m-8.378-1.474c-.227 0-.467.055-.653.162l-3.036 1.753c-.34.197-.378.496-.083.666l2.63 1.519c.133.077.312.114.5.114.227 0 .467-.055.653-.162l3.037-1.753c.34-.197.377-.496.083-.667l-2.63-1.518a1.022 1.022 0 0 0-.5-.114m3.508-1.337c-.228 0-.467.055-.654.163l-.9.52c-.34.196-.377.495-.082.665l3.132 1.809c.133.077.313.114.5.114.228 0 .468-.055.654-.162l.9-.52c.34-.196.377-.496.083-.666l-3.133-1.808a1.025 1.025 0 0 0-.5-.115"/>
            <path fill="#424344" d="M323.491 150.178a1.02 1.02 0 0 1-.5-.115l-2.63-1.518c-.294-.17-.257-.47.083-.667l3.036-1.752a1.34 1.34 0 0 1 .653-.163c.189 0 .368.038.501.115l2.63 1.518c.295.17.257.47-.083.666l-3.036 1.753a1.344 1.344 0 0 1-.654.163M319.12 147.654c-.188 0-.367-.038-.501-.115l-4.746-2.74 4.273-2.467 4.747 2.74c.294.17.256.47-.083.666l-3.037 1.753a1.341 1.341 0 0 1-.653.163M327.863 152.702c-.188 0-.367-.038-.5-.115l-2.63-1.518c-.294-.17-.257-.47.083-.666l.9-.52c.186-.107.425-.163.653-.163.188 0 .367.038.5.115l2.63 1.519c.295.17.258.47-.083.666l-.9.52a1.344 1.344 0 0 1-.653.162M342.373 131.934c-.188 0-.367-.038-.5-.115l-2.76-1.593 2.137-1.233 2.759 1.593c.294.17.257.47-.083.665l-.9.52a1.344 1.344 0 0 1-.653.163M347.242 134.744c-.188 0-.368-.037-.501-.114l-3.132-1.809c-.295-.17-.258-.47.083-.666l.9-.52c.186-.107.425-.162.653-.162.188 0 .367.038.5.115l3.133 1.808c.294.17.257.47-.083.666l-.9.52a1.344 1.344 0 0 1-.653.162M352.11 137.555c-.188 0-.367-.037-.5-.114l-3.133-1.809c-.294-.17-.257-.47.083-.666l.9-.52c.186-.107.426-.162.653-.162.188 0 .367.038.5.115l3.133 1.808c.295.17.257.47-.083.666l-.9.52a1.344 1.344 0 0 1-.653.162M353.335 138.437c-.283-.171-.242-.466.094-.66l.9-.52c.186-.107.426-.162.653-.162.183 0 .357.036.49.109l-2.137 1.233M336.722 134.5c-.188 0-.367-.037-.5-.115l-2.156-1.244 4.273-2.467 2.156 1.245c.294.17.257.47-.083.666l-3.037 1.753a1.34 1.34 0 0 1-.653.162M341.094 137.024c-.188 0-.367-.037-.5-.114l-2.63-1.519c-.295-.17-.258-.47.083-.666l3.036-1.753c.186-.107.426-.162.653-.162.188 0 .368.037.501.114l2.63 1.518c.294.17.257.47-.083.667l-3.037 1.753a1.344 1.344 0 0 1-.653.162M345.466 139.549c-.188 0-.368-.038-.5-.115l-2.63-1.518c-.295-.17-.258-.47.082-.667l3.037-1.753c.186-.107.426-.162.653-.162.188 0 .367.037.5.114l2.63 1.519c.295.17.258.47-.082.666l-3.037 1.753a1.341 1.341 0 0 1-.653.163M348.287 141.352l-1.58-.912c-.294-.17-.257-.47.083-.667l3.037-1.753c.186-.107.426-.162.653-.162.188 0 .367.037.5.114l1.58.913-4.273 2.467M343.008 143.958c-.188 0-.368-.037-.501-.114l-2.63-1.519c-.294-.17-.257-.47.083-.666l3.037-1.753c.186-.108.426-.163.653-.163.188 0 .367.038.5.115l2.63 1.518c.295.17.258.47-.083.667l-3.036 1.753a1.344 1.344 0 0 1-.653.162M338.636 141.434a1.02 1.02 0 0 1-.5-.114l-2.63-1.519c-.295-.17-.258-.47.082-.666l3.037-1.753c.186-.107.426-.163.653-.163.188 0 .367.038.5.115l2.63 1.518c.295.17.258.47-.082.666l-3.037 1.754a1.344 1.344 0 0 1-.653.162M334.264 138.91c-.188 0-.367-.038-.5-.115l-2.63-1.518c-.295-.17-.258-.47.083-.666l3.036-1.753c.186-.107.426-.163.653-.163.188 0 .368.038.501.115l2.63 1.518c.294.17.257.47-.083.666l-3.037 1.754a1.342 1.342 0 0 1-.653.162M329.892 136.386c-.187 0-.367-.038-.5-.115l-.375-.216 4.274-2.467.374.216c.295.17.257.47-.083.666l-3.037 1.754a1.342 1.342 0 0 1-.653.162M336.664 146.125a1.02 1.02 0 0 1-.5-.115l-2.63-1.518c-.294-.17-.257-.47.083-.666l3.036-1.753c.187-.108.426-.163.653-.163.189 0 .368.038.502.115l2.63 1.519c.294.17.256.47-.084.665l-3.036 1.754a1.344 1.344 0 0 1-.654.162M332.293 143.601c-.188 0-.367-.037-.5-.115l-2.63-1.518c-.295-.17-.258-.47.082-.666l3.037-1.753c.186-.108.426-.163.653-.163.188 0 .367.038.5.115l2.63 1.518c.295.17.258.47-.082.666l-3.037 1.753a1.341 1.341 0 0 1-.653.163M327.921 141.077c-.188 0-.367-.038-.5-.115l-2.63-1.518c-.295-.17-.258-.47.083-.666l3.036-1.753c.186-.108.426-.163.653-.163.188 0 .368.038.5.115l2.63 1.518c.295.17.258.47-.082.666l-3.037 1.753a1.344 1.344 0 0 1-.653.163M338.19 147.18l-.284-.164c-.295-.17-.257-.47.083-.666l3.036-1.753c.187-.108.426-.163.653-.163.188 0 .368.038.501.115l.285.164-4.273 2.468M329.43 147.778c-.187 0-.367-.038-.5-.115l-2.63-1.518c-.294-.17-.257-.47.083-.667l3.037-1.753c.186-.107.426-.162.653-.162.188 0 .367.038.5.114l2.63 1.519c.295.17.258.47-.083.666l-3.036 1.753a1.344 1.344 0 0 1-.653.163M325.059 145.254c-.188 0-.368-.038-.5-.115l-2.63-1.518c-.295-.17-.258-.47.082-.667l3.037-1.753c.186-.107.426-.162.653-.162.188 0 .367.037.5.115l2.63 1.518c.295.17.258.47-.083.666l-3.036 1.753a1.342 1.342 0 0 1-.653.163M320.687 142.73c-.188 0-.367-.038-.5-.115l-1.266-.73 4.273-2.468 1.266.73c.294.17.257.47-.083.667l-3.037 1.753a1.341 1.341 0 0 1-.653.163M333.143 150.095l-2.471-1.426c-.295-.17-.257-.47.083-.666l3.036-1.754c.187-.107.426-.162.654-.162.188 0 .367.038.5.115l2.47 1.426-4.272 2.467"/>
            <path fill="#20BCAC" d="M265.946 184.914l-41.862-24.17 9-5.195c-.048-.338.132-.737.6-1.198 2.645-2.608 6.396-5.51 10.166-8.193l22.096 12.757 9.351-5.4c.003 1.141.505 2.317 1.943 3.325.276.193.594.285.91.285a1.625 1.625 0 0 0 1.21-.541c.631-.703 1.55-1.687 2.557-2.619v-.001c.106-.1.214-.198.323-.295l23.234 13.414c-6.086 2.993-21.862 10.665-26.298 11.97-1.482.436-2.67 1.122-3.534 1.122-.335 0-.622-.104-.857-.364l-8.84 5.103"/>
            <path fill="#3D6D7A" d="M305.474 167.083L282.24 153.67c.381-.343.772-.674 1.16-.974a3.36 3.36 0 0 0 .885 1.398 1.619 1.619 0 0 0 2.415-.22 12.4 12.4 0 0 1 .115-.154l10.064 5.81 11.014 6.36s-.912.454-2.419 1.194"/>
            <path fill="#9D9E9F" d="M296.879 159.53l-10.064-5.81 10.064 5.81"/>
            <path fill="#2E525B" d="M307.893 165.889l-11.014-6.36 11.014 6.36"/>
            <path fill="#767677" d="M300.618 161.689l-3.74-2.16 3.74 2.16"/>
            <path fill="#2B3656" d="M318.684 106.51l-8.3-4.792V90.225l12.06-7.013.044-.026a3.444 3.444 0 0 0 .176-.114l.035-.026.029-.02a13.668 13.668 0 0 0 .152-.114l.063-.052.012-.01a3.26 3.26 0 0 0 .159-.143l.012-.012.015-.013c.063-.062.125-.126.185-.193l.05-.058.08-.097.026-.032.02-.027.015-.019.04-.05c.043-.06.086-.12.126-.183l.034-.05.01-.015a3.893 3.893 0 0 0 .146-.245l.002-.004.028-.052c.033-.06.064-.123.095-.187l.002-.004.007-.014.005-.013.029-.062c.046-.102.089-.207.13-.314l.013-.032c.008-.02.014-.042.02-.063a5.743 5.743 0 0 0 .07-.21c.008-.019.013-.037.02-.055l.009-.029.011-.033.024-.093c.015-.053.03-.107.043-.162l.01-.041.014-.054.008-.028.01-.055.008-.039.008-.04c.01-.046.02-.092.028-.139l.018-.09.001-.008c.006-.031.01-.063.014-.094l.001-.009a4.07 4.07 0 0 0 .024-.161l.006-.037.003-.02.004-.025.013-.122.002-.02.016-.154.003-.039.003-.022.008-.117.005-.092v-.003c.003-.035.006-.072.007-.109v-.002l.002-.027.001-.046c.005-.097.007-.196.007-.296v24.57l-5.921 3.443"/>
            <path fill="#B5B5B5" d="M311.403 110.744l-7.105-4.102v-1.101l2.783-1.607 8.045 4.645-3.723 2.165"/>
            <path fill="#9D9E9F" d="M304.5 113.709l-.202-.04v-.619l1.14-.658c.34-.196.377-.496.082-.666l-1.222-.706v-1.864l.679-.392c.34-.196.377-.496.083-.666l-.762-.44v-1.016l7.105 4.102-2.037 1.185c-.515.295-.955.72-1.303 1.265l-.8-.462a1.021 1.021 0 0 0-.501-.115c-.228 0-.467.055-.653.163l-1.61.929m1.796-4.723c-.227 0-.467.055-.653.162l-.9.52c-.34.196-.377.496-.083.666l3.133 1.809c.133.077.312.114.5.114.227 0 .467-.055.653-.162l.9-.52c.34-.196.378-.496.083-.666l-3.132-1.808a1.022 1.022 0 0 0-.501-.115"/>
            <path fill="#424344" d="M304.298 109.156v-1.498l.762.44c.294.17.257.47-.083.666l-.679.392M308.292 112.257c-.188 0-.367-.037-.5-.114l-3.133-1.809c-.294-.17-.257-.47.083-.666l.9-.52c.186-.107.426-.162.653-.162.188 0 .367.038.5.115l3.133 1.808c.295.17.257.47-.083.666l-.9.52a1.344 1.344 0 0 1-.653.162M304.298 113.05v-2.03l1.222.706c.295.17.258.47-.082.666l-1.14.658M307.221 114.188c-.883-.13-1.804-.3-2.722-.48l1.61-.928c.186-.108.425-.163.653-.163.188 0 .367.038.5.115l.801.462c-.133.21-.252.437-.357.681l-.117.068a3.25 3.25 0 0 0-.368.245"/>
            <path fill="#ACADAE" d="M317.576 107.154l-8.304-4.794 1.112-.642 8.3 4.792-1.108.644"/>
            <path fill="#2B3656" d="M318.684 106.51l-8.3-4.792 8.3 4.792"/>
            <path fill="#B5B5B5" d="M315.126 108.579l-8.045-4.645.727-.42v-.309l1.464-.845 8.304 4.794-2.45 1.425"/>
            <path fill="#B5B6B6" d="M315.126 108.579l-8.045-4.645 8.045 4.645"/>
            <path fill="#58595B" d="M275.566 89.89c4.092 2.363 7.398 8.09 7.385 12.79-.014 4.702-3.34 6.6-7.433 4.237-4.092-2.362-7.398-8.09-7.385-12.79.014-4.702 3.341-6.599 7.433-4.237"/>
            <path fill="#BCBEC0" d="M273.342 91.865c3.75 2.165 6.78 7.413 6.768 11.721-.013 4.308-3.062 6.047-6.812 3.882-3.75-2.165-6.78-7.413-6.767-11.721.012-4.308 3.062-6.047 6.811-3.882"/>
            <path fill="#FFC39E" d="M261.888 107.794c-3.443-4.28-2.257-10.624 2.501-13.372l13.53-7.81a8.959 8.959 0 1 1 8.96 15.517l-13.529 7.81c-6.487 3.93-11.462-2.145-11.462-2.145M260.624 112.294s-8.127 6.349-10.066 7.35c0 0-3.761 2.949-4.816 3.444 0 0-2.955 1.926-4.51 2.564-1.555.638-2.741 1.939-2.039 3.112.703 1.174 2.905 2.711 7.07.769 5.234-2.442 15.129-9.42 15.129-9.42l-.768-7.819"/>
            <path fill="#8C6239" d="M250.337 104.478s-9.328 8.19-11.59 9.527c0 0-4.317 3.803-5.55 4.471 0 0-3.418 2.519-5.243 3.393-1.825.873-3.16 2.518-2.236 3.88.925 1.362 3.846 3.306 8.42.196 4.575-3.11 19-13.628 19-13.628l-2.8-7.839"/>
            <path fill="#FFC39E" d="M254.939 108.44s-9.783 7.643-12.117 8.848c0 0-4.528 3.55-5.798 4.146 0 0-3.556 2.32-5.428 3.087-1.872.767-3.3 2.333-2.454 3.746.845 1.413 3.65 3.52 8.395.678 4.745-2.843 19.75-12.518 19.75-12.518l-2.348-7.986"/>
            <path fill="#FFC39E" d="M253.14 112.317s-14.427 10.519-19.001 13.628c-3.088 2.1-5.424 1.895-6.899 1.122-.71-.372-1.221-.876-1.522-1.318-.925-1.361.412-3.007 2.236-3.88 1.825-.874 5.243-3.393 5.243-3.393 1.233-.667 5.55-4.47 5.55-4.47 2.262-1.338 11.591-9.527 11.591-9.527l2.801 7.838"/>
            <path fill="#FFC39E" d="M246.284 101.12s-4.202 4.086-6.463 5.423c0 0-4.318 3.803-5.551 4.471 0 0-3.418 2.519-5.243 3.392-1.824.874-3.16 2.52-2.235 3.881.925 1.362 3.803 3.572 8.377.463 4.575-3.11 14.629-11.01 14.629-11.01l-3.514-6.62"/>
            <path fill="#FFC39E" d="M267.653 92.538l-21.37 8.582s5.491 11.924 11.598 21.4c0 0 13.255-6.436 19.56-14.943l-9.788-15.039"/>
            <path fill="#F2A789" d="M291.359 94.37a8.96 8.96 0 0 1-4.48 7.76l-9.438 5.447a27.022 27.022 0 0 1-1.595 1.954 33.633 33.633 0 0 1-1.056 1.13 62.588 62.588 0 0 1-.69.69 47.731 47.731 0 0 1-1.289 1.204c-.04.036-.08.073-.122.109a30.147 30.147 0 0 1-.567.497c-.132.114-.264.228-.398.34a51.121 51.121 0 0 1-1.208.99c-.136.109-.27.216-.406.321-.068.054-.136.106-.204.158l-.254.196a42.084 42.084 0 0 1-.917.69l-.05.037a71.264 71.264 0 0 1-2.61 1.831l-.197.131a77.53 77.53 0 0 1-3.133 1.979h-.002l-.336.2c-.332.198-.653.385-.959.56a74.803 74.803 0 0 1-1.988 1.107c-.146.08-.284.154-.413.221l-.094.05-.157.082-.095.05-.09.047c-.04.02-.076.04-.114.058l-.103.053c-.176.091-.311.158-.397.201l-.031.015-.085.042c-3.36 2.256-8.38 5.503-11.618 7.012-2.962 1.38-4.93 1.004-6.074.247.762.34 2.885.5 4.686-.524 1.446-.822 3.783-2.349 8.008-5.049a2.385 2.385 0 0 0 .74-3.266l-.025-.044c-.03-.05-.062-.1-.092-.152-.378-.625-.81-1.367-.813-1.369-4.371 2.81-11.552 7.41-15.156 9.57-2.68 1.607-4.743 1.631-6.182 1.095 0 0 2.196.221 4.794-1.288 2.157-1.254 8.843-5.68 14.713-9.568.376-.25 1.147-1.501.533-2.285l-1.68-2.097c-3.193 2.324-11.681 8.496-15.576 11.143-3.088 2.1-5.424 1.895-6.899 1.122.895.257 2.149.178 3.823-.826 3.093-1.856 11.759-8.203 16.923-12.069a2.262 2.262 0 0 0 .674-2.82 9.93 9.93 0 0 0-1.188-1.798l-.664.517c-2.579 2.006-5.838 4.511-8.911 6.744l-.37.268c-.37.267-.736.53-1.097.787l-.36.254a66.723 66.723 0 0 1-.796.554l-.104.071c-4.575 3.11-7.454.9-8.378-.462 0 0 2.906 1.883 5.78.328 1.452-.784 4.475-3.006 7.656-5.45 3.18-2.445 8.067-6.547 8.086-6.565.164-.16.287-.335.373-.518.504-1.064-.249-2.416-1.552-3.163a3.826 3.826 0 0 0-.258-.137c-.378-.184-1.143-.326-1.898-.431.779-.72 1.305-1.23 1.305-1.23l4.191-1.684.384-.154 15.113-6.07.018-.007c4.15 3.982 7.995 9.29 8.217 9.416l.013.006s.034 3.54-2.703 6.425c-1.147 1.21-2.452 3.01-3.648 4.706-.536.763.401 1.692 1.16 1.151 3.032-2.164 4.914-4.16 6.32-6.469.464-.762.93-1.41 1.377-1.963 1.063-1.31 2.029-2.071 2.654-2.481.004-.11.007-.22.007-.333.002-.116-.002-.233-.005-.35l-.006-.107a5.206 5.206 0 0 0-.015-.26l-.01-.126a6.733 6.733 0 0 0-.027-.263c-.004-.035-.007-.071-.012-.106a16.102 16.102 0 0 0-.05-.369l-.009-.048c-.019-.108-.037-.216-.058-.324a5.196 5.196 0 0 0-.027-.13 6.283 6.283 0 0 0-.053-.25l-.033-.142-.06-.242c-.013-.047-.024-.095-.039-.143a10.837 10.837 0 0 0-.109-.38c-.037-.126-.077-.252-.118-.376l-.01-.03c-.04-.115-.08-.231-.123-.346l-.042-.111-.1-.263c-.018-.04-.034-.083-.052-.124-.035-.09-.074-.18-.112-.27l-.042-.098a16.726 16.726 0 0 0-.165-.363l-.04-.083-.139-.284a15.436 15.436 0 0 0-.101-.196l-.097-.186c-.09-.17-.185-.337-.283-.503l-.1-.167c-.04-.067-.08-.136-.123-.203-.036-.06-.075-.119-.112-.178a14.819 14.819 0 0 0-.13-.198c-.076-.118-.16-.227-.206-.352-.047-.126-.152-.208-.248-.302l-.003-.004c-.09-.122-.182-.242-.275-.36-.072-.093-.146-.183-.22-.274l-.041-.051a14.613 14.613 0 0 0-.267-.311l-.079-.088-.193-.212-.112-.118-.17-.176c-.041-.04-.083-.08-.123-.121l-.166-.16c-.044-.043-.09-.083-.134-.125l-.166-.15-.135-.117a10.255 10.255 0 0 0-.303-.252c-.06-.049-.12-.095-.181-.142-.042-.032-.082-.064-.124-.094l-.202-.147-.105-.074c-.1-.07-.203-.138-.305-.204l-.022-.013a9.456 9.456 0 0 0-.316-.191c-.096-.056-2.335-1.219-2.923-.893-.038.02-.194.115-.378.228a.644.644 0 0 0-.107 1.014c1.579 1.505 2.207 2.954 2.228 3.005-1.78-2.373-4.057-3.223-4.057-3.223l10.268-5.926a8.96 8.96 0 0 1 8.958 0h.001a8.948 8.948 0 0 1 3.279 3.28 8.95 8.95 0 0 1 1.2 4.478"/>
            <path fill="#F2A789" d="M236.048 112.995s.973 2.393.247 4.561l.711-.856s.213-1.789-.958-3.705M242.886 108.013s.974 2.392.248 4.561l.71-.857s.213-1.788-.958-3.704M235.83 119.69s.975 2.392.248 4.561l.712-.857s.212-1.789-.96-3.705M242.886 114.367s.974 2.392.248 4.56l.71-.856s.213-1.789-.958-3.704M238.144 123.982s1.176 1.879.883 3.82l.474-.83s-.084-1.543-1.357-2.99M245.741 118.483s1.343 2.207.972 4.464l.565-.96s-.075-1.8-1.537-3.504M246.125 125.7s.769 1.89.196 3.6l.56-.676s.169-1.411-.756-2.923M250.457 123.067s.768 1.888.195 3.6l.561-.677s.168-1.411-.756-2.923"/>
            <path fill="#EB9A7F" d="M247.862 104.56c.298.244.543.548.764.867.22.32.408.662.578 1.014.167.353.307.72.436 1.09.123.363.265.719.433 1.06.168.344.36.66.573.988.207.333.391.682.551 1.043a7.413 7.413 0 0 1 .514 1.706c.038.188.08.374.13.558.191.74.484 1.44.879 2.094.385.681.71 1.403.926 2.164.194.754.442 1.477.813 2.148.09.169.19.327.292.496.1.168.192.34.275.517.166.352.297.722.385 1.103a6.067 6.067 0 0 0-.472-1.055 6.982 6.982 0 0 0-.303-.487c-.108-.155-.224-.316-.326-.48a7.667 7.667 0 0 1-.539-1.044 10.871 10.871 0 0 1-.388-1.108c-.24-.726-.56-1.423-.952-2.075a7.985 7.985 0 0 1-1.06-2.752 9.32 9.32 0 0 0-.119-.563 7.64 7.64 0 0 0-.36-1.08 8.122 8.122 0 0 0-.51-1.015c-.095-.16-.204-.33-.296-.503a8.251 8.251 0 0 1-.666-1.638c-.108-.37-.229-.736-.373-1.092a8.25 8.25 0 0 0-.503-1.034 5.737 5.737 0 0 0-.313-.482 3.254 3.254 0 0 0-.369-.44M264.77 115.036c-5.423-2.644-8.713-7.552-10.668-11.913a50.486 50.486 0 0 1-1.797-4.637l.407-.08c2.683 8.371 10.391 10.17 10.704 10.26-4.375-.597-7.797-4.01-7.797-4.01 2.092 6.19 8.676 10.103 9.151 10.38M251.225 107.106s2.37.847 6.37 6.609c3.048 4.392 3.44 5.974 3.44 5.974s-.377-1.917-2.463-5.326c-1.606-2.624-4.5-6.274-7.347-7.257"/>
            <path fill="#EB9A7F" d="M273.85 102.889s-9.984 8.185-17.12-2.069c0 0-7.384 1.405-10.776.84 0 0-.07-.013-.192-.042.328-.31.522-.498.522-.498l19.706-7.914.757-.305c.29.068.565.139.824.213l6.278 9.775"/>
            <path fill="#FFC39E" d="M241.89 94.917a8.94 8.94 0 0 1 .17-.445.737.737 0 0 1 .682-.456c2.834-.003 9.865-.221 15.04-1.533 4.154-1.053 7.623-.585 9.87.055l6.568 10.09s-10.271 7.87-17.407-2.384c0 0-7.384 1.405-10.776.84 0 0-5.976-1.035-4.147-6.167"/>
            <path fill="#9FD8E6" d="M243.07 94.015"/>
            <path fill="#FFD8C0" d="M245.639 96.066c-1.493 0-2.558-1.31-3.033-2.037a.752.752 0 0 1 .136-.013l.328-.001a92.028 92.028 0 0 0 4.418-.145c.402.347.687.785.881 1.17a.673.673 0 0 1-.57.978c-.453.02-1.125.033-2.121.048h-.04"/>
            <path fill="#F2A789" d="M274.217 102.63c-.191.145-10.336 7.77-17.404-2.387 0 0-7.385 1.406-10.777.84 0 0-4.706-.814-4.486-4.586.45 1.64.9 3.431 6.47 3.691 5.603.262 9.396-1.5 9.396-1.5s1.017-1.44.871-2.622c0 0 .609 1.548.014 4.335 0 0 4.762 9.077 15.916 2.229M252.34 95.634v.014-.014M253.16 95.761"/>
            <path fill="#FFF" d="M321.577 79.193l-.002-.058-.006-.124-.007-.146c-.002-.038-.006-.075-.009-.113l-.01-.131-.007-.087-.021-.187-.012-.11-.004-.035c-.015-.113-.03-.227-.049-.341l-.001-.008-.009-.05c-.015-.095-.031-.19-.05-.286l-.01-.05a7.076 7.076 0 0 0-.027-.137l-.034-.167c-.007-.03-.015-.061-.021-.092l-.035-.149-.027-.114-.036-.138-.04-.149-.018-.074-.058-.195-.037-.127-.01-.036a14.53 14.53 0 0 0-.113-.351l-.001-.004-.011-.031c-.035-.104-.07-.208-.108-.311l-.019-.049-.044-.117c-.02-.055-.04-.111-.062-.166l-.043-.106a24.389 24.389 0 0 0-.052-.13l-.038-.095-.08-.185-.044-.103-.015-.036a15.95 15.95 0 0 0-.15-.33l-.006-.012-.042-.087c-.041-.085-.082-.171-.125-.257l-.02-.038c-.034-.068-.07-.136-.105-.203l-.085-.165-.016-.03c-.095-.176-.193-.35-.294-.523l-.024-.044-.08-.13a14.07 14.07 0 0 0-.128-.211 18.024 18.024 0 0 0-.251-.392l-.045-.069-.044-.063c-.125-.186-.253-.37-.385-.55l-.003-.002c-.094-.128-.19-.253-.286-.377l-.013-.016a16.44 16.44 0 0 0-.216-.268l-.046-.056a14.083 14.083 0 0 0-.263-.307l-.013-.015-.082-.09c-.055-.063-.111-.126-.169-.188l-.032-.034-.116-.122-.13-.135-.048-.048c-.042-.043-.085-.085-.128-.126l-.11-.11-.063-.058a11.377 11.377 0 0 0-.138-.128c-.033-.03-.064-.061-.097-.09l-.077-.068a9.072 9.072 0 0 0-.14-.121l-.084-.075-.094-.076a12.283 12.283 0 0 0-.138-.112l-.07-.058-.118-.09-.129-.098-.052-.04c-.053-.039-.106-.075-.16-.113-.035-.026-.07-.052-.107-.076l-.028-.02a10.54 10.54 0 0 0-.289-.191l-.002-.002-.02-.012a9.795 9.795 0 0 0-.265-.162l-.067-.04a9.079 9.079 0 0 0-.215-.12l-.082-.042-.11-.057-.087-.045c-.045-.023-.09-.043-.136-.064l-.098-.046-.04-.02a6.779 6.779 0 0 0-.546-.218l-.035-.011c-.033-.012-.066-.022-.098-.032-.047-.015-.093-.032-.139-.045l-.068-.02a4.616 4.616 0 0 0-.12-.033c-.03-.008-.062-.018-.093-.025-.031-.008-.063-.014-.095-.021l-.12-.027-.063-.014-.111-.018-.137-.023-.049-.008c-.038-.005-.075-.007-.113-.011-.049-.006-.098-.012-.146-.015l-.043-.005-.098-.003a3.847 3.847 0 0 0-.172-.006l-.05-.001-.073.003a4.294 4.294 0 0 0-.213.01l-.065.003-.088.01-.066.009c-.08.01-.16.023-.237.038l-.008.002-.063.015c-.064.014-.129.03-.192.047l-.091.029c-.04.012-.081.024-.12.038l-.03.012c-.061.022-.12.047-.18.073l-.086.037c-.087.04-.172.084-.254.132L268.51 91.392c.083-.048.168-.091.254-.132l.087-.037c.06-.025.119-.05.18-.073.05-.018.1-.034.15-.05l.091-.029c.063-.017.128-.032.192-.047l.063-.015c.08-.016.162-.03.245-.04l.066-.008a3.985 3.985 0 0 1 .366-.023c.041-.001.081-.003.122-.002.057 0 .115.002.173.005.047.003.094.004.14.008.05.004.098.01.148.015.053.006.106.011.16.02.046.006.092.014.138.022.058.01.116.02.174.032a6.347 6.347 0 0 1 .635.17c.032.012.065.022.098.033a6.52 6.52 0 0 1 .62.249l.099.046a9.798 9.798 0 0 1 .63.33c.11.063.22.13.33.199l.022.013c.107.069.213.14.319.212l.108.077a11.819 11.819 0 0 1 .34.251 10.06 10.06 0 0 1 .505.41 17.521 17.521 0 0 1 .312.28l.14.128a11.719 11.719 0 0 1 .3.295 13.273 13.273 0 0 1 .495.525l.083.092c.093.106.186.214.278.324l.042.053a13.812 13.812 0 0 1 .516.66l.002.004c.133.18.26.364.386.55.03.043.06.086.088.13.046.069.09.138.134.207a15.508 15.508 0 0 1 .644 1.095l.101.193.105.204c.05.098.097.197.144.295.015.03.03.059.043.088.059.125.116.25.171.377l.044.103a12.436 12.436 0 0 1 .275.683l.045.117c.043.12.086.239.126.359l.01.031c.044.13.086.26.125.39l.038.129.076.268.039.15a13.275 13.275 0 0 1 .153.66l.027.135c.022.113.042.226.06.338l.009.05c.02.128.038.256.054.384l.012.11c.01.09.02.182.028.273l.01.132c.006.086.012.172.016.258l.006.124a9.61 9.61 0 0 1-.003.737c-.001.035-.004.07-.006.104a8.38 8.38 0 0 1-.018.248l-.014.14a8.847 8.847 0 0 1-.047.353 6.799 6.799 0 0 1-.15.696 4.247 4.247 0 0 1-.113.358l-.04.114a4.607 4.607 0 0 1-.272.592l-.001.003a4.188 4.188 0 0 1-.143.239l-.03.045a3.898 3.898 0 0 1-.118.167l-.048.064c-.038.05-.078.097-.117.144l-.046.052c-.055.062-.11.121-.169.178l-.025.023a3.36 3.36 0 0 1-.156.139l-.059.047a3.437 3.437 0 0 1-.139.106l-.059.042a3.093 3.093 0 0 1-.2.128L319.6 83.854a3.42 3.42 0 0 0 .202-.128l.058-.042.14-.105.058-.048c.053-.045.105-.091.156-.14l.025-.023c.058-.056.114-.115.17-.177l.045-.053c.04-.046.078-.094.117-.143l.049-.064c.04-.054.078-.11.116-.166l.031-.046.009-.013c.046-.073.09-.148.134-.226l.001-.003c.042-.076.083-.155.121-.236l.005-.012c.052-.11.1-.226.145-.344l.013-.03c.01-.027.018-.057.028-.085.025-.07.05-.142.072-.215l.019-.058.022-.084c.017-.062.033-.124.048-.187l.02-.075.017-.087c.012-.053.023-.107.033-.162l.017-.083.015-.101.022-.149.011-.075.014-.13.014-.14.006-.057c.005-.063.008-.127.012-.191l.006-.104.002-.025c.004-.108.007-.217.007-.328v-.02c0-.101 0-.204-.004-.306"/>
            <path fill="#AFB1B2" d="M279.164 107.614c.067-.057.135-.114.201-.172a9.162 9.162 0 0 1-.2.172m1.064-1.029c.062-.073.123-.146.184-.221h.001c-.06.074-.122.148-.185.22"/>
            <path fill="#E19B7F" d="M279.543 106.364l.05-.048c.116-.11.222-.226.322-.344l.015-.018-.015.018c-.1.119-.207.234-.321.345l-.05.047m.498-.556c.041-.055.083-.11.118-.166a.593.593 0 0 0 .002 0 3.385 3.385 0 0 1-.12.166M280.374 105.286a3.443 3.443 0 0 0 .139-.297l.047-.117a3.098 3.098 0 0 1-.185.414m.211-.489l.025-.07a2.683 2.683 0 0 1-.025.07m.078-.25l.023-.096.007-.028a.46.46 0 0 0-.006.028l-.024.097m.036-.15a3.434 3.434 0 0 0 .029-.136l-.01.049c-.005.03-.012.058-.019.088m.059-.337c.002-.026.006-.05.01-.076-.002.025-.007.05-.01.076m.027-.268"/>
            <path fill="#EDEDED" d="M279.163 106.998h.001l.061-.087.041-.06.03-.044.005-.01a4.465 4.465 0 0 0 .138-.23l.002-.003a4.234 4.234 0 0 0 .103-.2l.022-.047c.052-.111.1-.226.146-.345l.006-.018.035-.097.016-.049a4.651 4.651 0 0 0 .069-.214c.01-.031.018-.063.027-.094a5.734 5.734 0 0 0 .043-.165l.005-.02.007-.03a4.767 4.767 0 0 0 .063-.296 4.715 4.715 0 0 0 .044-.262 5.76 5.76 0 0 0 .01-.07l.014-.11.01-.096.004-.028a6.24 6.24 0 0 1 .011-.112l.004-.049c.006-.065.01-.132.014-.199v-.001l.005-.076.002-.027a27.407 27.407 0 0 0 .006-.196c.001-.058.003-.117.003-.177v-.014l2.335-1.345.007.105c.008.094.014.189.018.282l.007.136a10.259 10.259 0 0 1-.003.804l-.007.113a7.24 7.24 0 0 1-.063.649 6.253 6.253 0 0 1-.094.54 8.522 8.522 0 0 1-.093.38l-3.054 1.762"/>
            <path fill="#4F5052" d="M272.027 89.35l.762-.442-.762.442"/>
            <path fill="#E5E5E5" d="M282.445 102.227l-.003-.039a9.404 9.404 0 0 0-.031-.297c-.005-.04-.008-.08-.014-.12-.016-.14-.036-.28-.057-.42l-.01-.054c-.02-.122-.042-.245-.065-.368l-.03-.149a10.705 10.705 0 0 0-.061-.282c-.012-.055-.026-.108-.037-.162a11.884 11.884 0 0 0-.112-.438 17.636 17.636 0 0 0-.083-.293l-.042-.14a13.738 13.738 0 0 0-.135-.427l-.012-.033c-.044-.131-.09-.262-.138-.393l-.048-.127c-.038-.1-.075-.199-.114-.297l-.057-.142a22.911 22.911 0 0 0-.129-.306c-.017-.037-.032-.075-.048-.112-.06-.138-.123-.275-.187-.412l-.046-.095a22.032 22.032 0 0 0-.158-.323l-.114-.223-.111-.21c-.103-.192-.21-.382-.32-.571l-.114-.19a15.167 15.167 0 0 0-.14-.23c-.042-.07-.086-.137-.128-.203l-.146-.227-.097-.142a17.03 17.03 0 0 0-.42-.6l-.004-.004a15.825 15.825 0 0 0-.313-.41c-.08-.105-.165-.208-.249-.31l-.047-.058c-.1-.12-.2-.238-.303-.355l-.09-.098a17.526 17.526 0 0 0-.22-.242l-.126-.133c-.065-.068-.129-.135-.194-.2-.046-.047-.093-.091-.14-.138-.063-.061-.125-.123-.19-.182a6.26 6.26 0 0 0-.15-.141c-.063-.058-.126-.115-.19-.17-.05-.046-.1-.09-.152-.135l-.194-.163-.15-.123a10.732 10.732 0 0 0-.346-.268 9.811 9.811 0 0 0-.35-.251c-.114-.08-.23-.157-.347-.232l-.024-.014c-.119-.076-.24-.148-.36-.218-.109-.063-.216-.121-.324-.178l-.12-.063c-.082-.041-.163-.08-.243-.118l-.108-.05a8.586 8.586 0 0 0-.34-.147h-.001a8.101 8.101 0 0 0-.67-.23c-.043-.013-.086-.024-.13-.036a5.288 5.288 0 0 0-.335-.08 5.94 5.94 0 0 0-.191-.036l-.15-.024a4.838 4.838 0 0 0-.176-.022c-.053-.005-.107-.012-.16-.016l-.124-.007.762-.442c.055.006.11.012.165.02a6.823 6.823 0 0 1 .47.089 6.226 6.226 0 0 1 .562.157l.107.035a8.242 8.242 0 0 1 .678.271l.107.051a8.867 8.867 0 0 1 .688.36c.12.069.24.142.36.217l.024.015c.117.074.233.152.348.232l.118.083c.077.055.154.11.23.167l.14.107a11.98 11.98 0 0 1 .892.752c.051.047.102.093.152.141l.189.182.14.139c.065.065.129.132.193.2.042.043.085.087.127.133.074.079.147.16.22.24l.09.1c.102.117.203.234.303.355l.047.057a15.587 15.587 0 0 1 .563.72l.002.005c.145.195.284.396.42.6.033.047.066.094.097.142a23.008 23.008 0 0 1 .275.428l.14.23.114.191c.11.189.217.379.32.571l.11.211c.039.074.078.148.115.223.054.107.106.214.157.322.016.032.032.063.047.096.064.136.126.274.187.411l.048.112a19.61 19.61 0 0 1 .3.746l.048.127c.048.13.094.261.138.392l.012.034c.047.142.092.284.136.426l.04.14c.029.098.057.195.083.293.015.055.03.109.043.163.024.092.047.183.069.275l.038.162c.02.09.04.18.058.271h-.001l.003.012.016.076.014.073.013.067.045.256.008.045.009.054a8.73 8.73 0 0 1 .058.42l.003.02.01.099a12.566 12.566 0 0 1 .038.375l.003.039.001.028.006.084-.48.277"/>
            <path fill="#D5D5D5" d="M282.217 105.236c.018-.067.036-.134.053-.204.014-.058.028-.116.04-.177a4.761 4.761 0 0 0 .07-.378 4.936 4.936 0 0 0 .067-.539 7.24 7.24 0 0 0 .02-.271c.002-.037.005-.075.006-.113.007-.133.01-.268.011-.406 0-.132-.003-.265-.007-.398l-.007-.136a7.205 7.205 0 0 0-.025-.387l.48-.277.011.198.004.055a3.769 3.769 0 0 1 .005.155 9.308 9.308 0 0 1-.005.73v.003c-.001.037-.004.073-.007.11v.008c-.006.088-.011.175-.02.262-.004.052-.01.103-.015.153a9.388 9.388 0 0 1-.027.225l-.003.023a9.91 9.91 0 0 1-.02.138l-.013.072a6.022 6.022 0 0 1-.023.13l-.028.143-.007.034-.041.176-.008.032a5.322 5.322 0 0 1-.068.254l-.022.072a1.495 1.495 0 0 1-.026.084l-.395.229"/>
            <path fill="#414042" d="M324.6 78.126l-.003-.064a7.066 7.066 0 0 0-.006-.135l-.007-.16-.01-.123a12.38 12.38 0 0 0-.011-.143l-.008-.094-.023-.205-.013-.119-.005-.039a11.99 11.99 0 0 0-.052-.372l-.002-.008-.009-.055a15.321 15.321 0 0 0-.054-.312l-.011-.056-.03-.148-.038-.182-.023-.1a10.999 10.999 0 0 0-.038-.164l-.029-.124c-.012-.05-.027-.1-.04-.15a12.315 12.315 0 0 0-.042-.163l-.021-.08-.062-.213-.041-.14-.012-.039c-.039-.128-.08-.255-.122-.383l-.002-.004-.012-.034a13.458 13.458 0 0 0-.118-.34l-.02-.052-.048-.128-.068-.182-.047-.115c-.018-.048-.038-.095-.057-.142l-.041-.103c-.028-.068-.058-.135-.087-.202l-.048-.113-.017-.04c-.053-.12-.108-.24-.163-.359l-.007-.013-.046-.095c-.045-.094-.09-.188-.136-.28l-.021-.042-.115-.222c-.031-.06-.06-.12-.093-.18l-.018-.032c-.103-.192-.21-.383-.32-.571l-.027-.048-.086-.143-.14-.23-.13-.203-.145-.225-.048-.074-.049-.07a18.008 18.008 0 0 0-.42-.599l-.003-.003a16.818 16.818 0 0 0-.313-.41l-.014-.02a16.455 16.455 0 0 0-.236-.29l-.046-.059-.003-.003c-.094-.113-.19-.225-.287-.335l-.014-.016-.09-.1-.184-.204-.036-.037c-.041-.045-.084-.088-.126-.133l-.14-.147-.054-.053-.14-.137-.12-.12-.069-.063-.15-.14c-.036-.033-.07-.067-.106-.099l-.084-.073a8.163 8.163 0 0 0-.152-.133l-.093-.081-.102-.083-.15-.123-.078-.063c-.042-.034-.086-.065-.128-.098l-.14-.107-.057-.043c-.058-.043-.116-.083-.174-.124l-.118-.084-.03-.022c-.105-.071-.21-.14-.315-.208l-.003-.001-.023-.014c-.095-.06-.191-.12-.288-.177l-.073-.042c-.078-.046-.157-.09-.235-.132l-.089-.046-.121-.062c-.031-.016-.063-.034-.094-.049-.05-.025-.099-.047-.148-.07-.036-.017-.072-.035-.108-.05l-.044-.021a7.476 7.476 0 0 0-.595-.238l-.039-.013c-.035-.013-.07-.023-.106-.035l-.152-.05-.074-.02a5.938 5.938 0 0 0-.131-.036c-.034-.01-.067-.02-.1-.028-.036-.009-.07-.015-.105-.023a5.253 5.253 0 0 0-.13-.03l-.07-.014c-.04-.008-.08-.013-.12-.02-.051-.01-.101-.018-.15-.025l-.054-.009c-.041-.006-.082-.008-.123-.012-.053-.006-.107-.013-.16-.017l-.046-.005-.108-.003c-.063-.003-.126-.006-.187-.006l-.053-.002c-.028 0-.054.003-.08.004a4.406 4.406 0 0 0-.234.01l-.07.004c-.033.003-.064.008-.096.012l-.072.008a3.93 3.93 0 0 0-.26.042l-.007.002-.07.016c-.07.016-.14.032-.209.052l-.1.031c-.043.014-.088.026-.131.041l-.032.014c-.067.024-.132.052-.197.08-.03.013-.063.025-.094.04a3.465 3.465 0 0 0-.276.144h-.001l-41.655 24.221c.09-.052.183-.1.278-.144.03-.015.063-.027.094-.04a3.304 3.304 0 0 1 .36-.135l.1-.031c.069-.02.139-.036.21-.052l.068-.016c.088-.018.177-.032.267-.044l.072-.008a3.907 3.907 0 0 1 .4-.026c.044-.001.088-.003.133-.002.062 0 .125.003.188.006a4.46 4.46 0 0 1 .314.025c.058.006.117.012.176.021a6.823 6.823 0 0 1 .47.089 6.226 6.226 0 0 1 .562.157l.107.035a8.242 8.242 0 0 1 .678.271l.107.051a8.867 8.867 0 0 1 .688.36c.12.069.24.142.36.217l.024.015c.117.074.233.152.348.232l.118.083c.077.055.154.11.23.167l.14.107a11.98 11.98 0 0 1 .892.752c.051.047.102.093.152.141l.189.182.14.139c.065.065.129.132.193.2.042.043.085.087.127.133.074.079.147.16.22.24l.09.1c.102.117.203.234.303.355l.047.057a15.587 15.587 0 0 1 .563.72l.002.005c.145.195.284.396.42.6.033.047.066.094.097.142a23.008 23.008 0 0 1 .275.428l.14.23.114.191c.11.189.217.379.32.571l.11.211c.039.074.078.148.115.223.054.107.106.214.157.322.016.032.032.063.047.096.064.136.126.274.187.411l.048.112a19.61 19.61 0 0 1 .3.746l.048.127c.048.13.094.261.138.392l.012.034c.047.142.092.284.136.426l.04.14c.029.098.057.195.083.293.015.055.03.109.043.163.024.092.047.183.069.275l.038.162.06.283.03.149c.024.123.046.245.066.368l.009.054c.022.14.041.28.059.42l.013.119a11.986 11.986 0 0 1 .059.723l.006.136a9.352 9.352 0 0 1-.003.805c-.001.038-.004.075-.007.112a8.902 8.902 0 0 1-.019.272l-.016.153a10.115 10.115 0 0 1-.05.385 7.1 7.1 0 0 1-.21.914c-.024.08-.05.158-.077.235l-.045.125a5.15 5.15 0 0 1-.296.647l-.001.003a4.52 4.52 0 0 1-.156.26l-.034.05a4.428 4.428 0 0 1-.127.182l-.054.07a3.79 3.79 0 0 1-.127.156l-.05.058c-.06.067-.121.131-.185.193l-.026.025a3.652 3.652 0 0 1-.171.153l-.064.051c-.05.04-.1.079-.152.115l-.064.046a3.6 3.6 0 0 1-.219.14l41.654-24.221a3.4 3.4 0 0 0 .22-.14l.064-.046a3.59 3.59 0 0 0 .151-.115l.065-.052c.057-.049.114-.1.17-.152l.027-.025c.063-.062.125-.126.185-.193l.05-.058c.043-.051.086-.103.127-.156l.054-.07c.043-.06.085-.12.126-.182l.034-.05.01-.015c.05-.079.1-.16.146-.245l.002-.004c.046-.083.09-.169.132-.257l.005-.013c.057-.12.11-.247.159-.376l.013-.032c.011-.03.02-.063.03-.093.028-.077.055-.155.08-.235l.02-.063c.008-.03.015-.062.024-.092l.053-.203c.006-.028.015-.055.021-.083l.02-.094a6.41 6.41 0 0 0 .035-.178l.018-.09.016-.11c.01-.054.017-.108.024-.162.005-.028.01-.055.013-.083.006-.046.01-.094.015-.142l.016-.153.006-.061c.006-.069.009-.14.013-.21l.007-.113.002-.027c.004-.117.007-.237.008-.358v-.021c0-.111-.001-.223-.005-.334"/>
            <path fill="#AAA" d="M282.627 104.962l.045-.039c.028-.023.057-.047.083-.072-.026.025-.054.049-.082.073l-.046.038m.392-.365l.03-.032-.03.032m.215-.242c.038-.047.073-.095.108-.144a2.672 2.672 0 0 0 .001 0 3.4 3.4 0 0 1-.11.144m.325-.483l.012-.023c.038-.073.07-.148.103-.225.023-.05.045-.101.06-.153.033-.087.054-.174.076-.262a2.175 2.175 0 0 1-.073.263c-.018.051-.04.102-.06.153-.033.075-.066.15-.104.224l-.014.023m.278-.781c.002-.001.002-.003.002-.004 0 .002 0 .003-.002.004"/>
            <path fill="#B7B7B7" d="M282.925 101.95l-.006-.084a13.874 13.874 0 0 0 .006.084"/>
            <path fill="#AAA" d="M282.94 102.203l-.004-.055a11.645 11.645 0 0 1 0 0l.004.055"/>
            <path fill="#B7B7B7" d="M283.634 101.8l-.029-.078a2.641 2.641 0 0 0 .002 0l.027.077m-.206-.475l-.011-.02a4.06 4.06 0 0 0 .01.02m-.335-.538c-.062-.085-.128-.17-.194-.256.069.085.134.17.194.256m-.313-.396c-.024-.025-.047-.05-.069-.076l-.012-.012.014.012.067.076"/>
            <path fill="#2E3A5C" d="M307.808 91.723l2.576-1.498-2.576 1.498"/>
            <path fill="#222B45" d="M310.384 90.225l12.06-7.013a5.91 5.91 0 0 0 .044-.026l-.044.026-12.06 7.013m12.22-7.113l.06-.04.035-.026-.035.026-.06.04m.165-.116l.11-.085.065-.052.011-.01-.012.01-.063.053a2.914 2.914 0 0 1-.11.084m.286-.236l.058-.053.012-.012-.012.012a2.533 2.533 0 0 1-.058.053m.4-.426l.026-.032-.026.032m.06-.078l.04-.051c.044-.06.086-.12.127-.182l.034-.05.01-.015-.01.016-.034.049c-.04.062-.083.123-.126.182l-.04.051m.483-.79l.007-.014.005-.013-.005.013-.007.014m.205-.498a5.75 5.75 0 0 0 0 0m.098-.294l.01-.034c.01-.03.016-.062.025-.092l-.024.093-.011.033m.102-.383a.83.83 0 0 0 .018-.083l-.01.055-.008.028m.026-.122v-.001l.008-.04-.008.04v.001m.055-.277c.006-.031.01-.063.014-.094-.004.03-.008.063-.014.094m.025-.166a5.4 5.4 0 0 0 .014-.098l.006-.037-.006.037a3.835 3.835 0 0 1-.014.098m.023-.155l.004-.026.013-.121-.013.122c0 .008-.002.017-.004.025m.038-.36l.003-.022-.003.022m.016-.234l.007-.109c-.001.037-.004.074-.007.109"/>
            <path fill="#2E3A5C" d="M324.605 78.497v-.016.016"/>
            <path fill="#222B45" d="M324.598 78.793a8.236 8.236 0 0 1 0 0"/>
            <path fill="#2E3A5C" d="M325.29 78.126l-.015-.064a1.067 1.067 0 0 0 .002 0l.012.064m-.185-.688a.153.153 0 0 0-.011-.031l-.025-.056.026.055c.004.011.008.022.01.032m-.084-.184l-.025-.052a.105.105 0 0 0-.008-.016l.01.016.023.052m-.16-.315a5.528 5.528 0 0 0-.17-.267l-.006-.008-.04-.055a6.62 6.62 0 0 0-.234-.312l-.017-.02.019.02c.085.105.158.21.232.312l.043.055.006.007c.061.09.115.18.166.268"/>
            <path fill="#343335" d="M282.613 105.007l.014-.045.012-.038.021-.073a4.432 4.432 0 0 0 .068-.254l.008-.031a6.31 6.31 0 0 0 .04-.177l.008-.034a6.972 6.972 0 0 0 .051-.273l.012-.071a5.17 5.17 0 0 0 .021-.139l.004-.023c.01-.074.018-.149.026-.224l.016-.153c.008-.087.014-.175.019-.263v-.008c.003-.036.006-.073.007-.11v-.003a9.352 9.352 0 0 0 .005-.73c0-.025 0-.05-.002-.075 0-.027-.002-.053-.003-.08l-.003-.056a11.645 11.645 0 0 0-.012-.197l-.005-.084a.986.986 0 0 1-.002-.028l-.003-.039a6.372 6.372 0 0 0-.015-.17 12.832 12.832 0 0 0-.022-.205l-.011-.1a12.03 12.03 0 0 0-.06-.44l-.01-.054a11.567 11.567 0 0 0-.052-.3c-.005-.023-.01-.045-.013-.068a2.866 2.866 0 0 0-.015-.072l-.016-.076a.164.164 0 0 1-.002-.012l41.694-24.026.004.021c.02.104.037.209.054.312l.01.055v.008a14.898 14.898 0 0 1 .053.372l.005.04.011.102a.32.32 0 0 1 .002.016l.006.052.011.097.006.056.003.031.004.063.004.04.006.084.002.02c.002.04.007.082.01.122l.006.129v.03a2.712 2.712 0 0 1 .007.136l.003.064c.003.111.005.222.005.334V78.497c-.001.1-.003.198-.007.296l-.002.046-.001.027v.002l-.007.109v.002l-.005.093a5.08 5.08 0 0 1-.008.117l-.003.022-.004.039c-.004.052-.01.103-.016.153l-.001.02-.013.122c0 .01-.002.017-.004.026 0 .007-.002.013-.003.02l-.006.037a5.4 5.4 0 0 1-.024.16v.01l-.015.094-.001.008-.019.09c-.008.046-.017.093-.027.139l-.008.039v.001a1.594 1.594 0 0 1-.026.121l-.015.054-.01.042a8.806 8.806 0 0 1-.042.162c-.009.03-.016.062-.024.092l-.021.063-.017.055a5.75 5.75 0 0 1-.071.21l-.02.062-.015.032a5.942 5.942 0 0 1-.158.377l-.005.013-.007.014-.002.004a4.493 4.493 0 0 1-.124.24l-.001.003-.05.087a4.517 4.517 0 0 1-.096.158l-.01.015-.034.05a4.205 4.205 0 0 1-.126.182l-.04.051-.014.018-.021.028c-.01.01-.018.021-.026.032a4.45 4.45 0 0 1-.081.097l-.05.058c-.059.066-.121.13-.185.193l-.014.013-.012.012a2.495 2.495 0 0 1-.159.142l-.011.01-.065.052a3.838 3.838 0 0 1-.11.085l-.042.03-.028.02-.035.026a2.658 2.658 0 0 1-.176.114 5.91 5.91 0 0 1-.044.026l-14.636 8.51V90.46l-25.195 14.547"/>
            <path fill="#FFF" d="M304.298 92.487l-38.352 22.142-38.352-22.142 38.352-22.143 38.352 22.143"/>
            <path fill="#C7573E" d="M265.946 114.63v44.285l38.352-22.143V92.487l-38.352 22.142"/>
            <path fill="#DC6B4A" d="M227.594 92.487v44.285l38.352 22.143v-44.286l-38.352-22.142"/>
            <path fill="#FFF" d="M239.712 122.358l-2.766 6.886-2.06-1.19-2.579-9.97 1.905 1.099 1.004 4.147a49.96 49.96 0 0 1 .753 3.49c.242-.884.522-1.727.815-2.533l1.09-2.99 1.838 1.06M244.033 131.93c1.3.75 2.085-.009 2.09-1.633.004-1.537-.764-3.274-2.075-4.031-1.316-.76-2.094.064-2.099 1.653-.004 1.571.795 3.267 2.084 4.01m.05-7.198c2.423 1.399 3.898 4.098 3.892 6.575-.008 2.64-1.63 3.514-4.037 2.124-2.358-1.361-3.848-4.08-3.84-6.524.007-2.605 1.635-3.532 3.985-2.175M254.407 130.842l-.005 1.635-2.253-1.3-.019 6.833-1.743-1.007.02-6.833-2.219-1.28.005-1.635 6.214 3.587M260.318 134.255l-.005 1.615-3.242-1.872-.005 1.704 3.056 1.764-.005 1.614-3.056-1.764-.005 1.92 3.41 1.969-.004 1.615-5.153-2.975.024-8.468 4.985 2.878"/>
            <path fill="#FF9765" d="M307.808 90.46l-41.862 24.17-41.862-24.17 41.862-24.17 41.862 24.17"/>
            <path fill="#9F4632" d="M265.946 129.638v-1.954l14.974-8.645.088.096.078.08c.039.04.08.08.118.115.028.028.053.053.08.077.039.036.078.07.12.105l.082.07.115.096c.03.022.058.044.086.063.038.03.08.058.118.088l.083.058c.042.028.086.053.127.08l.077.05c.047.027.097.055.143.083l.061.035.057.03-16.407 9.473M296.158 112.194a13.252 13.252 0 0 0-1.779-.197 73.55 73.55 0 0 0-1.562.172l11.481-6.628v1.954l-8.14 4.7"/>
            <path fill="#B0563B" d="M265.946 129.638l-38.352-22.143v-1.954l38.352 22.143v1.954"/>
            <path fill="#D26646" d="M265.946 114.63v13.054l41.862-24.17V90.46l-41.862 24.17"/>
            <path fill="#E77B53" d="M224.084 90.46v13.054l41.862 24.17v-13.055L224.084 90.46"/>
            <path fill="#CD5940" d="M278.925 95.456l-21.632-12.49-4.326 2.499 21.632 12.489 4.326-2.498"/>
            <path fill="#B84735" d="M257.293 82.967v4.995l-4.326-2.497 4.326-2.498"/>
            <path fill="#9D9E9F" d="M301.299 138.505v-.001l.835-.483-.835.484m3-4.168v-.936.936m0-1.277v-.127.127"/>
            <path fill="#424344" d="M302.135 138.022l2.163-1.25v-2.436l.001.001v2.436l-2.164 1.249M304.3 133.402l-.002-.001v-.34l.001-.002v.343"/>
            <path fill="#95412E" d="M274.322 154.077c.003-.645.163-1.279.403-1.864h-.003l.014-.027c.052-.127.107-.254.168-.375a1.56 1.56 0 0 1-.513-.231c-2.967-2.08-1.944-4.873-.794-6.602l.025-.033.038-.055c-4.392-2.288-.849-7.312.124-8.25.436-.421 3.372-2.644 6.78-5.189 1.495-1.117 3.083-2.297 4.589-3.413 3.788-2.813 7.058-5.22 7.058-5.22s.025-.02.067-.044c-.017-.135-.042-.276-.067-.419l-.016-.105a8.793 8.793 0 0 0-.122-.543l-.005-.02a9.712 9.712 0 0 0-.4-1.215s-2.326.281-4.92.281h-.112a.979.979 0 0 0-.05-.001h-.134c-.044 0-.086.004-.133.004h-.025l-.57.016h-.036c-.044.003-.088.003-.13.003h-.055c-.042.003-.083.003-.124.003h-.251c-.039-.003-.077-.003-.119-.003l-.06-.003a7.93 7.93 0 0 1-.439-.022l-.068-.005-.114-.011c-.03-.003-.058-.006-.085-.011a1.26 1.26 0 0 1-.11-.014l-.091-.011a1.517 1.517 0 0 1-.108-.02.588.588 0 0 1-.096-.016c-.036-.006-.072-.011-.105-.02-.033-.005-.066-.013-.1-.019a4.096 4.096 0 0 1-.104-.025l-.102-.024c-.036-.009-.069-.02-.102-.028l-.105-.03a7.32 7.32 0 0 1-.102-.033c-.036-.011-.072-.022-.108-.036a1.417 1.417 0 0 1-.1-.036 2.215 2.215 0 0 1-.112-.044c-.03-.011-.06-.025-.091-.036l-.135-.06-.072-.034a6.285 6.285 0 0 1-.147-.072l.998-.576c.992.513 2.013.603 2.91.603.242 0 .475-.007.696-.013.22-.007.43-.013.624-.013h.166c2.585 0 4.9-.28 4.9-.28a9.26 9.26 0 0 1 .632 2.522l-.092-.177s-17.315 12.754-18.426 13.823c-.974.937-4.516 5.96-.126 8.249-1.175 1.719-2.287 4.574.734 6.689.159.11.33.189.509.235-.063.13-.123.264-.18.4h.001c-.242.592-.404 1.234-.402 1.887l-.975.563m26.977-15.573l-1.524-2.75c.463-.196.848-.343 1.129-.432l-4.068-7.343-.481.335-2.02-3.88 5.954-4.385c-1.904 3.105-1.817 7.238.653 10.31 0 0 1.267 1.547 3.356 2.574v3.84l-2.164 1.248-.835.483"/>
            <path fill="#773425" d="M282.353 120.165l-.057-.03-.06-.035-.144-.083-.077-.05c-.041-.027-.085-.052-.127-.08l-.083-.058c-.038-.03-.08-.058-.118-.088l-.086-.063c-.038-.03-.077-.064-.115-.097l-.083-.069c-.041-.036-.08-.069-.119-.105a2.461 2.461 0 0 1-.08-.077 2.329 2.329 0 0 1-.118-.116c-.025-.024-.053-.052-.078-.08l-.088-.095.989-.572c.461.506.948.866 1.442 1.122l-.998.576"/>
            <path fill="#9D4C34" d="M280.92 119.039l-.03-.034-.074-.083-.025-.03a7.379 7.379 0 0 1-.533-.714c-.862-1.327-1.51-3.345-.383-4.696a.523.523 0 0 1 .251-.163v-.002l.055-.011.05-.012a.472.472 0 0 1 .116-.002h.014l.025.002.184.018c-.715 1.325-.112 3.083.667 4.28.216.331.44.622.672.875l-.99.572"/>
            <path fill="#58595B" d="M314.62 112.455c4.092 2.362 7.398 8.089 7.384 12.79-.013 4.702-3.34 6.599-7.432 4.236-4.092-2.362-7.398-8.09-7.385-12.79.013-4.702 3.341-6.599 7.433-4.236"/>
            <path fill="#BCBEC0" d="M312.396 114.43c3.75 2.165 6.78 7.412 6.767 11.72-.012 4.31-3.06 6.048-6.811 3.882-3.75-2.164-6.78-7.413-6.767-11.72.012-4.31 3.062-6.047 6.811-3.883"/>
            <path fill="#FFC39E" d="M300.942 130.359c-3.443-4.281-2.257-10.625 2.501-13.372l13.53-7.81a8.96 8.96 0 0 1 8.96 15.517l-13.53 7.809c-6.486 3.93-11.461-2.144-11.461-2.144"/>
            <path fill="#F2A789" d="M330.412 116.935a8.963 8.963 0 0 1-4.48 7.759l-8.348 4.819c.036-.049.073-.102.108-.154l.028-.044a4.13 4.13 0 0 0 .139-.23l.001-.003a4.401 4.401 0 0 0 .261-.571l.04-.11c.024-.068.047-.137.068-.208.014-.044.027-.091.04-.136l.047-.18c.012-.051.025-.104.035-.156a4.854 4.854 0 0 0 .063-.334c.007-.048.015-.095.02-.143.01-.065.017-.132.025-.199l.014-.134c.007-.08.012-.16.017-.24l.006-.1a8.597 8.597 0 0 0 .003-.71l-.006-.12a18.128 18.128 0 0 0-.025-.376 7.318 7.318 0 0 0-.039-.368 10.183 10.183 0 0 0-.052-.37l-.008-.05a11.285 11.285 0 0 0-.084-.456l-.053-.248-.034-.145a18.55 18.55 0 0 0-.06-.242c-.013-.048-.025-.097-.039-.144a11.026 11.026 0 0 0-.073-.26c-.012-.04-.023-.082-.036-.122a16.65 16.65 0 0 0-.12-.377l-.01-.03a18.14 18.14 0 0 0-.122-.346c-.014-.038-.03-.075-.043-.113a10.227 10.227 0 0 0-.101-.262l-.05-.126-.114-.27c-.014-.033-.027-.066-.043-.099a12.388 12.388 0 0 0-.165-.363c-.012-.03-.026-.057-.04-.085l-.138-.284-.103-.197a11.537 11.537 0 0 0-.38-.69l-.1-.17-.124-.202-.113-.18a12.428 12.428 0 0 0-.13-.198c-.027-.043-.056-.085-.084-.126-.12-.18-.245-.357-.372-.53l-.002-.004a16.258 16.258 0 0 0-.497-.636l-.042-.051c-.088-.106-.177-.21-.268-.314l-.079-.087a12.506 12.506 0 0 0-.478-.507l-.123-.122c-.055-.055-.11-.108-.167-.161l-.133-.125-.166-.15-.135-.118c-.058-.049-.115-.098-.173-.145a7.588 7.588 0 0 0-.132-.108c-.06-.049-.121-.096-.182-.143l-.124-.094-.203-.148c-.035-.024-.07-.05-.105-.073a8.704 8.704 0 0 0-.307-.204l-.021-.014a12.895 12.895 0 0 0-.317-.193 11.412 11.412 0 0 0-.287-.157c-.036-.018-.07-.037-.107-.054a6.404 6.404 0 0 0-.215-.106l-.094-.044c-.1-.046-.2-.09-.3-.129v-.001c-.1-.04-.2-.076-.298-.11l-.095-.03a3.768 3.768 0 0 0-.2-.062c-.038-.012-.077-.022-.115-.033a5.922 5.922 0 0 0-.181-.045l-.115-.026-.169-.03c-.044-.008-.088-.016-.132-.022a2.394 2.394 0 0 0-.155-.018 3.355 3.355 0 0 0-.14-.016l-.137-.006c-.056-.003-.111-.006-.166-.006a4.354 4.354 0 0 0-.471.025l-.063.007-.023.004 8.453-4.88a8.958 8.958 0 0 1 13.438 7.759"/>
            <path fill="#FFC39E" d="M280.851 112.896a.557.557 0 0 1 .486-.19c3.403.327 7.223.059 7.42.037.918-.102 2.654-.45 5.622-.746 1.68.05 3.723.642 5.265.833 2.44.301 5.71 1.16 8.45 1.471l-15.208 11.2s1.115-2.22-.24-5.615c0 0-2.394.29-5.033.28-.203-.001-.423.006-.656.013-1.652.049-3.973.098-5.72-2.588-.863-1.326-1.511-3.343-.386-4.695"/>
            <path fill="#FFC39E" d="M308.095 114.301c-5.979 2.204-14.908 7.93-14.908 7.93s1.714 9.212 4.042 14.02c1.622 3.35 4.412 8.024 4.412 8.024 2.016-1.135 13.368-11.789 15.473-14.491l-9.02-15.483"/>
            <path fill="#E29B87" d="M285.107 112.867a40.29 40.29 0 0 1-3.83-.164.621.621 0 0 0 .06.003c1.268.122 2.596.161 3.77.161a55.28 55.28 0 0 1-.001 0"/>
            <path fill="#FFD8C0" d="M284.805 115.279c-1.468 0-3.175-1.783-3.702-2.548a.547.547 0 0 1 .234-.025 40.29 40.29 0 0 0 3.77.161c.463 0 .902-.006 1.305-.016.396.367.93 1.04 1.112 1.4.221.44-.08.96-.572.98-.452.02-1.124.032-2.12.048h-.027"/>
            <path fill="#FFC39E" d="M300.155 138.024s-13.963 8.815-15.315 10.239c-2.341 2.467-1.747 4.703-.555 5.83.706.668 1.84.562 2.415-.22 1.42-1.934 3.511-3.26 3.511-3.26l3.382-2.238s6.677-3.5 8.048-4.1l-1.486-6.251"/>
            <path fill="#EB9A7F" d="M300.393 142.131c-1.073.68-5.75 3.133-8.956 5.547a14.24 14.24 0 0 1-1.81 1.161c-2.047 1.102-3.684 2.094-4.856 3.227-.189.184-.395.345-.613.491-.21.141-.424.293-.638.457-.538-1.218-.417-2.92 1.32-4.751 1.19-1.252 12.129-8.22 14.751-9.883l.802 3.751"/>
            <path fill="#E1E2E3" d="M286.815 153.72"/>
            <path fill="#81A0A8" d="M286.615 153.978a1.603 1.603 0 0 1 0 0"/>
            <path fill="#BFC0C1" d="M286.815 153.72"/>
            <path fill="#FFD8C0" d="M285.96 154.43c-.155-.595-.109-1.452-.084-1.767a.72.72 0 0 1 .068-.256c.335-.694 1.202-1.468 1.701-1.876a.407.407 0 0 1 .614.124c.22.408.357.789.443 1.101a13.653 13.653 0 0 0-1.706 1.733 10.898 10.898 0 0 0-.296.383 1.599 1.599 0 0 1-.74.559"/>
            <path fill="#F2A789" d="M290.186 150.628c-.037.025-.112.074-.217.146a5.965 5.965 0 0 0-.56-1.47c.378.457.62.92.777 1.324M294.561 147.87c-.067.035-.13.069-.192.1-.178-.685-.437-1.172-.46-1.216.3.381.508.766.652 1.115"/>
            <path fill="#FFC39E" d="M298.707 133.826s-20.002 13.942-21.114 15.012c-.966.93-4.437 5.141-.353 8.002.666.466 1.578.35 2.12-.256 1.088-1.214 3.042-3.266 4.798-4.438.218-.146.424-.308.613-.49 1.171-1.135 3.755-2.708 5.803-3.81.632-.339 1.236-.729 1.809-1.16 3.207-2.413 8.56-4.937 10.392-5.517l-4.068-7.343"/>
            <path fill="#EB9A7F" d="M297.5 136.8c-.837.708-4.645 2.7-7.852 5.113-.573.43-1.177.82-1.809 1.16-2.047 1.102-3.686 2.095-4.857 3.228a4.337 4.337 0 0 1-.614.492c-1.754 1.171-3.709 3.223-4.797 4.437a1.615 1.615 0 0 1-1.872.397c.535-1.307 1.463-2.375 1.894-2.79.936-.9 15.255-10.92 19.765-14.069l.141 2.031"/>
            <path fill="#8EB8C3" d="M279.307 156.64a40.894 40.894 0 0 1 2.61-2.677v.002a40.666 40.666 0 0 0-2.61 2.676"/>
            <path fill="#FFD8C0" d="M279.091 156.824c-.411-.547-.425-1.924-.418-2.362a.82.82 0 0 1 .06-.288c.321-.787 1.225-1.7 1.747-2.186a.451.451 0 0 1 .685.095c.507.818.691 1.553.752 1.88a40.894 40.894 0 0 0-2.61 2.678c-.068.068-.14.13-.216.183"/>
            <path fill="#F2A789" d="M284.93 151.507c-.055.05-.109.1-.159.148-.1.098-.205.188-.315.273.167-1.731-.451-3.31-.486-3.397a6.605 6.605 0 0 1 .96 2.976M292.05 146.928v.002c-.183.128-.368.254-.556.375.374-1.97-.415-3.303-.415-3.303.956 1.564.99 2.438.97 2.926"/>
            <path fill="#FFC39E" d="M296.836 127.979s-20.003 13.942-21.114 15.011c-.966.93-4.438 5.142-.353 8.002.666.466 1.578.35 2.12-.255 1.088-1.215 3.042-3.266 4.797-4.439a4.33 4.33 0 0 0 .614-.49c1.171-1.134 2.81-2.127 4.857-3.228.632-.34 1.235-.73 1.809-1.161 3.207-2.413 9.506-5.518 11.338-6.097l-4.068-7.343"/>
            <path fill="#EB9A7F" d="M295.184 130.61c-.35.534-3.196 1.964-6.405 4.378-.575.432-1.18.823-1.814 1.164-2.043 1.1-3.524 2.09-4.694 3.22-.193.187-.4.353-.624.501-1.835 1.226-3.962 3.411-5.06 4.597a1.627 1.627 0 0 1-1.946.33 6.03 6.03 0 0 1-.242-.133 9.065 9.065 0 0 1 1.323-1.677c.908-.874 14.442-10.35 19.352-13.78l.11 1.4"/>
            <path fill="#F2BDAC" d="M278.19 149.97a37.557 37.557 0 0 0 0 0"/>
            <path fill="#FFD8C0" d="M277.05 151.08c-.26-.67-.27-1.756-.264-2.141a.847.847 0 0 1 .061-.3c.335-.82 1.275-1.77 1.82-2.276a.47.47 0 0 1 .714.1c.393.632.6 1.217.704 1.617a38.157 38.157 0 0 0-1.895 1.89c-.26.278-.496.538-.701.766a1.592 1.592 0 0 1-.438.344"/>
            <path fill="#F2A789" d="M289.04 141.797c.162-1.772-.491-3.375-.491-3.375a6.626 6.626 0 0 1 .965 3.035c-.155.117-.314.23-.475.34M282.91 145.797l-.011.01a4.03 4.03 0 0 1-.476.396c.199-1.77-.442-3.407-.478-3.495a6.601 6.601 0 0 1 .966 3.09"/>
            <path fill="#FFC39E" d="M293.187 122.231s-17.315 12.754-18.426 13.823c-.974.938-4.52 5.964-.12 8.251a1.626 1.626 0 0 0 1.945-.329c1.099-1.186 3.227-3.371 5.061-4.597.223-.148.431-.314.624-.5 1.171-1.13 2.652-2.121 4.694-3.22.634-.341 1.24-.733 1.814-1.166 3.209-2.412 6.532-4.089 8.363-4.668l-3.955-7.594"/>
            <path fill="#F2BDAC" d="M276.267 144.243c.115-.074.223-.163.32-.267a47.232 47.232 0 0 1 2.589-2.596v.001a47.552 47.552 0 0 0-2.59 2.595 1.605 1.605 0 0 1-.32.267"/>
            <path fill="#FFD8C0" d="M276.266 144.242c-.488-.509-.503-2.056-.496-2.533a.855.855 0 0 1 .061-.3c.335-.82 1.276-1.77 1.82-2.275a.469.469 0 0 1 .714.1c.705 1.135.808 2.117.811 2.146a47.232 47.232 0 0 0-2.59 2.596 1.618 1.618 0 0 1-.32.266"/>
            <path fill="#F2A789" d="M282.043 139.082a4.282 4.282 0 0 1-.396.298l-.162.11c.383-1.977-.413-3.929-.413-3.929.949 1.55.99 3.019.971 3.521M287.887 135.115c.175-1.743-.45-3.34-.484-3.427a6.585 6.585 0 0 1 .966 3.103c-.158.11-.32.219-.482.324M298.053 125.385s1.256 3.005-1.501 4.607c0 0 1.832-.507 2.264-1.878.332-1.052-.763-2.729-.763-2.729M301.535 132.597s.004 2.622-2.694 3.666c0 0 1.714-.303 2.43-1.303.545-.763.264-2.363.264-2.363M303.515 139.38s-.198 1.904-2.591 2.787c0 0 1.624-.384 2.213-1.034.45-.496.378-1.754.378-1.754M297.14 120.077c-.024.02-.977.634-1.682.989-.19 2.427-11.448 8.398-13.899 9.79l-.019.009c5.265-3.932 11.648-8.633 11.648-8.633s.023-.016.067-.043a9.407 9.407 0 0 0-.609-2.303s-2.394.289-5.033.28c-1.502-.006-3.923.408-5.85-1.866.889.722 2.158 1.263 3.945 1.189 2.303-.097 3.688-.215 5.081-.327.14-.297.26-.678.338-1.165 0 0 .182.446.085 1.133.425-.034.86-.067 1.328-.097 1.171-.076 2.183.87 2.672 1.365.207-.08 1.054-.26 1.27-.39 0 0-.16.171-.464.41.35-.064.73-.171 1.123-.34"/>
            <path fill="#FFF" d="M360.631 101.757l-.002-.058-.006-.124-.007-.146c-.002-.037-.006-.075-.01-.112-.002-.044-.006-.088-.01-.132l-.006-.087-.021-.187a4.812 4.812 0 0 0-.013-.109l-.003-.036c-.015-.113-.031-.227-.049-.341l-.001-.007-.009-.05c-.015-.095-.031-.19-.05-.286l-.01-.051c-.008-.046-.018-.09-.027-.137l-.034-.166-.022-.092c-.01-.05-.023-.1-.034-.15l-.027-.114-.036-.137-.04-.15-.019-.073-.057-.195-.037-.128-.01-.036a12.333 12.333 0 0 0-.113-.35l-.001-.004-.011-.032c-.035-.103-.07-.207-.109-.31l-.018-.05-.044-.116c-.02-.056-.04-.112-.063-.167l-.042-.106-.052-.13-.038-.094-.08-.186-.044-.102-.016-.037a15.94 15.94 0 0 0-.15-.329l-.005-.012-.042-.087c-.041-.086-.082-.172-.125-.257l-.02-.039c-.034-.068-.07-.135-.105-.203l-.085-.165-.016-.03c-.095-.175-.193-.35-.294-.522l-.025-.044c-.025-.044-.053-.087-.079-.131l-.128-.21-.118-.187c-.044-.069-.088-.138-.134-.206l-.044-.069-.044-.063c-.126-.185-.253-.37-.386-.549l-.002-.003c-.094-.127-.19-.253-.287-.376l-.012-.017a15.02 15.02 0 0 0-.217-.267l-.042-.053-.003-.004a15.054 15.054 0 0 0-.262-.307l-.014-.014-.081-.09c-.057-.064-.112-.127-.17-.188l-.032-.034c-.038-.042-.078-.082-.116-.122l-.13-.136-.048-.048a13.116 13.116 0 0 0-.128-.126l-.11-.109-.063-.058a14.315 14.315 0 0 0-.138-.13l-.097-.089-.077-.067a10.733 10.733 0 0 0-.14-.122l-.085-.074c-.03-.026-.062-.05-.093-.077a10.096 10.096 0 0 0-.138-.112l-.07-.058-.119-.09-.128-.098-.052-.04-.16-.113-.107-.076-.028-.02a9.907 9.907 0 0 0-.289-.19l-.002-.002-.02-.013a9.361 9.361 0 0 0-.265-.162l-.067-.039a12.774 12.774 0 0 0-.216-.12l-.081-.043a8.112 8.112 0 0 0-.11-.057l-.087-.044-.136-.065-.098-.046-.04-.019c-.092-.04-.182-.08-.272-.115a6.527 6.527 0 0 0-.274-.103l-.036-.012-.098-.032-.138-.045-.068-.019-.12-.033-.093-.026c-.032-.008-.063-.014-.095-.02-.04-.01-.08-.02-.12-.028l-.063-.013c-.037-.008-.074-.012-.11-.019l-.138-.023-.05-.007c-.037-.006-.074-.008-.112-.012l-.146-.015-.043-.004c-.033-.003-.066-.002-.098-.004-.058-.002-.116-.005-.173-.005l-.048-.002-.074.004a4.29 4.29 0 0 0-.214.01l-.064.003-.088.01-.066.008c-.08.01-.16.023-.237.038l-.008.002-.063.016c-.065.014-.129.029-.192.047-.03.008-.06.019-.091.028-.04.013-.081.024-.12.038l-.03.012c-.061.023-.12.048-.18.073-.029.013-.059.024-.087.037a3.33 3.33 0 0 0-.253.132l-41.473 24.088c.083-.048.168-.092.254-.132.029-.014.058-.025.087-.037.06-.026.119-.051.18-.073.049-.019.1-.034.15-.05l.091-.03c.063-.017.127-.032.192-.047l.063-.015c.08-.016.162-.029.245-.04l.066-.008a3.995 3.995 0 0 1 .366-.023l.122-.002c.057 0 .115.003.173.006l.14.007c.05.004.098.01.147.015.054.006.107.012.161.02.046.006.092.014.138.022.058.01.116.02.174.033l.12.026a5.41 5.41 0 0 1 .514.144l.099.032a6.617 6.617 0 0 1 .62.249l.099.046c.073.035.148.071.222.11a9.55 9.55 0 0 1 .408.22c.11.063.22.13.33.2l.022.013c.107.068.213.139.319.212l.108.077c.07.05.141.1.211.153l.128.098a9.213 9.213 0 0 1 .327.26l.178.15.14.122a10.917 10.917 0 0 1 .312.286l.173.167.128.127c.06.06.118.121.177.183l.117.122.201.22c.027.031.055.06.082.092.094.107.187.215.278.325l.043.052a16.671 16.671 0 0 1 .516.661l.002.003c.133.18.26.364.386.55a14.846 14.846 0 0 1 .34.524l.128.21.104.175c.101.173.2.347.294.523l.1.193.107.205c.049.098.096.196.144.295l.042.087c.059.126.116.252.171.377l.044.104a13.941 13.941 0 0 1 .275.682l.044.117c.044.12.086.24.127.36l.01.03c.044.13.085.26.125.391l.037.128c.027.09.052.18.077.269l.039.15c.022.083.043.167.063.25l.034.15c.02.086.038.173.056.259l.027.136c.022.113.042.225.06.338l.009.05c.02.128.038.255.053.383l.013.11a9.93 9.93 0 0 1 .054.663l.005.124a9.626 9.626 0 0 1-.002.737l-.007.104c-.004.084-.01.167-.017.248-.004.047-.01.094-.015.14a7.378 7.378 0 0 1-.078.539 7.005 7.005 0 0 1-.07.324 5.628 5.628 0 0 1-.049.186c-.013.048-.026.096-.04.142a5.537 5.537 0 0 1-.072.216l-.04.114a4.756 4.756 0 0 1-.272.593l-.002.003a4.196 4.196 0 0 1-.142.239l-.03.044a4.187 4.187 0 0 1-.118.168l-.048.064c-.039.049-.078.096-.118.143l-.045.053a3.78 3.78 0 0 1-.17.177l-.024.023a3.385 3.385 0 0 1-.156.14l-.059.047a3.437 3.437 0 0 1-.139.105l-.059.042a3.305 3.305 0 0 1-.2.128h-.001l41.472-24.087c.069-.04.136-.083.201-.128l.06-.042.138-.105.059-.048a3.36 3.36 0 0 0 .156-.14l.025-.022c.058-.057.114-.116.169-.178l.045-.053a3.79 3.79 0 0 0 .117-.142l.05-.065c.04-.054.078-.11.116-.166l.03-.046.01-.013c.046-.073.091-.148.134-.226l.001-.002c.042-.077.083-.156.121-.237l.005-.011c.052-.11.1-.226.145-.345l.013-.03.028-.084c.025-.07.05-.142.071-.216l.02-.057.022-.085a5.63 5.63 0 0 0 .048-.186l.02-.076c.006-.028.01-.058.017-.086a6.47 6.47 0 0 0 .033-.163c.005-.028.012-.054.016-.083l.016-.101.022-.148.011-.075.013-.13.015-.141.006-.056c.005-.063.008-.128.012-.192.002-.035.005-.069.006-.104l.002-.025c.004-.107.007-.217.008-.328v-.02c0-.101-.002-.203-.005-.306"/>
            <path fill="#AFB1B2" d="M317.247 130.467a3.58 3.58 0 0 0 .137-.09l.012-.008-.012.008c-.045.031-.09.061-.137.09"/>
            <path fill="#525355" d="M317.819 130.023l.001-.001.002-.002-.003.003"/>
            <path fill="#AFB1B2" d="M317.65 130.174c.05-.042.098-.086.146-.132l.024-.02h-.001l-.022.021c-.048.045-.097.09-.147.131"/>
            <path fill="#525355" d="M317.822 130.02l.018-.018.006-.006a1.846 1.846 0 0 1-.024.024"/>
            <path fill="#AFB1B2" d="M317.84 130.178a10.198 10.198 0 0 0 .01-.007l-.01.007m.16-.116l.089-.07.072-.058-.072.058a7.61 7.61 0 0 1-.09.07m.167-.133c.065-.053.129-.109.191-.165l.04-.037-.04.037a5.514 5.514 0 0 1-.19.165M318.655 129.47l.024-.025a6.567 6.567 0 0 0 .001-.001l-.025.026m.328-.392l.105-.149h.001l-.106.15"/>
            <path fill="#E19B7F" d="M318.597 128.928l.045-.042-.044.042h-.001m.48-.53c.048-.064.096-.127.137-.192a.883.883 0 0 0 .033-.046l-.03.046c-.044.065-.091.128-.14.191m.564-1.036l.022-.065-.022.065m.114-.404l.017-.083.01-.047-.008.048a3.11 3.11 0 0 1-.019.082m.059-.343l.008-.055-.008.055m.023-.216a3.94 3.94 0 0 0 .01-.247v-.014.014c0 .083-.004.166-.01.247"/>
            <path fill="#EDEDED" d="M317.205 130.493a3.278 3.278 0 0 0 .18-.116l.01-.008.049-.033c.047-.034.093-.069.138-.106l.06-.048.008-.008c.05-.042.1-.086.147-.131l.022-.02.003-.003a1.846 1.846 0 0 0 .063-.064c.018-.017.035-.036.052-.054l.054-.06.044-.05.001-.002.002-.002c.04-.046.078-.093.116-.141l.024-.032.025-.032a4.505 4.505 0 0 1 .07-.098l.047-.07.014-.022.016-.022a4.218 4.218 0 0 0 .143-.24l.001-.003a4.216 4.216 0 0 0 .104-.2l.02-.042.002-.006c.052-.11.1-.225.146-.344l.04-.114.009-.025c.021-.063.043-.126.063-.19l.014-.047.027-.095.048-.186.01-.038a5.23 5.23 0 0 0 .086-.435l.006-.036v-.009l.011-.065.011-.075c.008-.064.017-.13.023-.197l.001-.008v-.004a6.465 6.465 0 0 0 .014-.137c.003-.016.004-.032.005-.048.006-.066.01-.133.014-.2v-.013l.004-.055.003-.036.004-.125c.003-.081.004-.164.004-.247v-.014l2.336-1.346.007.106c.008.094.014.188.018.282l.007.136a10.274 10.274 0 0 1-.003.804l-.007.112c-.006.093-.011.182-.02.271a6.91 6.91 0 0 1-.043.378c-.007.055-.015.108-.024.161-.01.069-.022.135-.034.202-.011.06-.023.119-.036.177-.012.06-.027.118-.04.177-.017.069-.035.137-.054.203-.014.052-.028.104-.045.155-.024.08-.05.159-.078.236l-.005.015-3.937 2.287"/>
            <path fill="#4F5052" d="M321.142 128.207l.372-.217v.001l-.372.216"/>
            <path fill="#E5E5E5" d="M321.142 128.206l.372-.216-.372.216"/>
            <path fill="#4F5052" d="M311.081 111.915l.761-.443-.76.443"/>
            <path fill="#E5E5E5" d="M321.499 124.79l-.004-.037a10.135 10.135 0 0 0-.03-.297c-.005-.041-.008-.08-.014-.12-.016-.14-.036-.28-.058-.42l-.01-.054c-.02-.122-.041-.245-.065-.368l-.03-.15a9.268 9.268 0 0 0-.06-.281l-.038-.163a9.733 9.733 0 0 0-.112-.438 13.87 13.87 0 0 0-.082-.293l-.042-.14a14.828 14.828 0 0 0-.135-.426l-.012-.034a13.73 13.73 0 0 0-.138-.392l-.048-.127c-.038-.1-.075-.199-.115-.298l-.057-.141a17.2 17.2 0 0 0-.128-.306l-.048-.113c-.06-.138-.123-.275-.187-.411l-.046-.096a23.637 23.637 0 0 0-.158-.322l-.114-.223-.111-.21c-.104-.193-.21-.383-.32-.571l-.114-.192a16.726 16.726 0 0 0-.14-.229c-.042-.07-.086-.136-.129-.203a12.065 12.065 0 0 0-.146-.226c-.031-.047-.063-.096-.096-.143a16.653 16.653 0 0 0-.42-.599l-.004-.005a15.8 15.8 0 0 0-.562-.72l-.047-.057c-.1-.12-.2-.239-.303-.355l-.09-.099a14.685 14.685 0 0 0-.22-.241l-.127-.134c-.064-.067-.128-.134-.193-.199-.046-.047-.093-.092-.14-.138a10.137 10.137 0 0 0-.34-.324l-.19-.17c-.05-.045-.1-.09-.152-.134l-.194-.164a11.6 11.6 0 0 0-.727-.557l-.118-.085c-.116-.079-.23-.157-.348-.231l-.024-.015c-.119-.075-.24-.148-.36-.218a12.33 12.33 0 0 0-.445-.24c-.081-.042-.162-.08-.243-.119l-.107-.05a9.773 9.773 0 0 0-.34-.146l-.001-.001a7.704 7.704 0 0 0-.67-.23l-.13-.036a4.913 4.913 0 0 0-.335-.08 5.118 5.118 0 0 0-.341-.06 5.021 5.021 0 0 0-.176-.021l-.16-.017a8.32 8.32 0 0 1-.124-.006l.762-.443c.055.006.11.012.165.02.05.007.1.017.15.025a4.624 4.624 0 0 1 .32.065 5.713 5.713 0 0 1 .562.156l.107.036c.111.038.224.079.337.124.113.046.226.095.34.147l.108.05a8.459 8.459 0 0 1 .363.182 9.067 9.067 0 0 1 .685.396l.024.015c.116.074.232.151.348.23l.118.085c.077.054.154.11.23.167a9.871 9.871 0 0 1 .496.39 14.6 14.6 0 0 1 .688.61c.064.06.126.12.189.182l.14.138c.064.066.129.132.193.2l.127.133.22.241.09.1c.102.116.203.234.303.354l.046.058a17.455 17.455 0 0 1 .563.72l.003.004c.144.196.284.397.421.6.032.047.065.095.096.143.05.074.098.15.146.225l.129.203.14.23.113.19c.11.19.218.38.32.572l.111.21c.038.075.078.149.115.223.054.107.106.215.157.322l.047.096c.064.137.126.274.186.412l.049.112a13.92 13.92 0 0 1 .185.447c.04.1.077.198.115.298l.047.127c.048.13.095.261.139.392l.012.035c.047.142.092.284.136.426l.04.14a16.516 16.516 0 0 1 .126.456 14.024 14.024 0 0 1 .165.708h-.001l.003.011a7.391 7.391 0 0 0 .03.149l.012.063.034.188.02.117.009.055.015.101c.016.106.03.212.043.317l.004.032a24038.01 24038.01 0 0 0 .04.386l.003.036.007.088.001.02.006.084-.48.277"/>
            <path fill="#D5D5D5" d="M321.142 128.206l.005-.015c.028-.077.054-.155.078-.236.017-.05.03-.103.045-.155.02-.066.037-.134.054-.203.013-.059.028-.117.04-.177.013-.058.025-.118.036-.177.012-.067.024-.133.034-.202a4.589 4.589 0 0 0 .051-.385 6.91 6.91 0 0 0 .016-.154c.009-.089.014-.178.02-.27.002-.038.005-.075.006-.114.007-.133.01-.268.011-.406 0-.132-.003-.265-.007-.397l-.007-.136a7.836 7.836 0 0 0-.025-.388l.48-.277a7.853 7.853 0 0 1 .018.334l.002.07a9.27 9.27 0 0 1-.005.733v.004c-.001.037-.005.073-.007.11v.01a8.331 8.331 0 0 1-.02.26c-.004.052-.01.103-.015.154-.009.076-.017.15-.027.224-.007.055-.016.108-.024.162l-.005.034a6.48 6.48 0 0 1-.03.167l-.022.112-.011.055-.002.01a6.286 6.286 0 0 1-.114.452 6.96 6.96 0 0 1-.103.319l-.018.052a5.615 5.615 0 0 1-.083.215l-.37.215"/>
            <path fill="#414042" d="M363.654 100.69l-.003-.064-.006-.135-.007-.16-.01-.122a23.849 23.849 0 0 0-.012-.143l-.007-.095c-.006-.068-.015-.136-.023-.204l-.013-.119-.004-.04a12.917 12.917 0 0 0-.053-.372l-.002-.008-.01-.054a13.554 13.554 0 0 0-.053-.312l-.012-.056-.03-.149c-.012-.06-.023-.121-.037-.182l-.023-.1a11.887 11.887 0 0 0-.038-.163l-.03-.125-.038-.15a11.27 11.27 0 0 0-.043-.163l-.021-.08-.063-.213-.04-.14-.012-.038c-.039-.128-.08-.256-.122-.383l-.002-.005-.012-.034a16.827 16.827 0 0 0-.118-.339l-.02-.053-.048-.127-.068-.183-.046-.115-.058-.142-.041-.103-.087-.202-.048-.113-.017-.04c-.053-.12-.108-.239-.164-.358l-.006-.013-.046-.096-.136-.28-.022-.042-.114-.222-.093-.18-.018-.032c-.103-.192-.21-.382-.32-.57l-.027-.049-.087-.142a15.197 15.197 0 0 0-.414-.658l-.049-.075-.048-.07a18.315 18.315 0 0 0-.42-.598l-.003-.004a17.414 17.414 0 0 0-.313-.41l-.014-.019a16.48 16.48 0 0 0-.236-.291l-.047-.058-.003-.004c-.094-.113-.19-.225-.286-.335l-.014-.016-.09-.099c-.06-.068-.122-.137-.184-.204l-.036-.037-.126-.133-.141-.148-.053-.052-.14-.138-.12-.119-.069-.064-.15-.14-.106-.099-.084-.073a16.08 16.08 0 0 0-.152-.132l-.093-.082-.103-.083c-.05-.041-.099-.082-.15-.122l-.077-.064-.128-.098-.14-.107-.057-.043c-.058-.043-.117-.083-.174-.124l-.118-.083-.03-.022a11.13 11.13 0 0 0-.315-.208l-.003-.002-.023-.013a9.738 9.738 0 0 0-.288-.177l-.073-.043a9.719 9.719 0 0 0-.235-.131l-.09-.046a6.903 6.903 0 0 0-.12-.063l-.094-.049-.149-.07-.107-.05-.044-.02a7.753 7.753 0 0 0-.595-.238l-.039-.014-.107-.035-.15-.05-.075-.02-.131-.036c-.034-.009-.068-.02-.1-.027-.036-.01-.07-.016-.105-.024a5.26 5.26 0 0 0-.13-.029l-.07-.015c-.04-.008-.08-.013-.121-.02-.05-.009-.1-.018-.15-.025l-.053-.008c-.041-.006-.082-.009-.123-.013a4.963 4.963 0 0 0-.16-.016l-.047-.005c-.036-.003-.07-.002-.107-.004a4.595 4.595 0 0 0-.188-.006l-.053-.002c-.027 0-.053.004-.08.004a4.404 4.404 0 0 0-.233.011l-.07.004-.096.01-.073.01a3.921 3.921 0 0 0-.259.042l-.008.001-.068.017c-.071.015-.141.032-.21.051l-.1.032c-.043.013-.088.026-.131.041l-.033.013a3.515 3.515 0 0 0-.196.08c-.03.014-.063.026-.094.04a3.667 3.667 0 0 0-.277.144l-41.655 24.222c.09-.053.183-.1.277-.145l.095-.04a3.595 3.595 0 0 1 .36-.134c.033-.01.066-.022.1-.031.069-.02.139-.036.21-.052l.068-.016c.087-.018.177-.032.267-.044l.072-.009a5.153 5.153 0 0 1 .4-.026l.133-.002c.062 0 .125.004.188.007.051.002.102.004.154.008.053.004.106.01.16.016l.176.021c.05.007.1.017.15.025a4.624 4.624 0 0 1 .32.065 5.713 5.713 0 0 1 .562.156l.107.036c.111.038.224.079.337.124.113.046.226.095.34.147l.108.05a8.459 8.459 0 0 1 .363.182 9.067 9.067 0 0 1 .685.396l.024.015c.116.074.232.151.348.23l.118.085c.077.054.154.11.23.167a9.871 9.871 0 0 1 .496.39 14.6 14.6 0 0 1 .688.61c.064.06.126.12.189.182l.14.138c.064.066.129.132.193.2l.127.133.22.241.09.1c.102.116.203.234.303.354l.046.058a17.455 17.455 0 0 1 .563.72l.003.004c.144.196.284.397.421.6.032.047.065.095.096.143.05.074.098.15.146.225l.129.203.14.23.113.19c.11.19.218.38.32.572l.111.21c.038.075.078.149.115.223.054.107.106.215.157.322l.047.096c.064.137.126.274.186.412l.049.112a13.92 13.92 0 0 1 .185.447c.04.1.077.198.115.298l.047.127c.048.13.095.261.139.392l.012.035c.047.142.092.284.136.426l.04.14a16.516 16.516 0 0 1 .126.456 14.024 14.024 0 0 1 .167.72l.03.148c.024.123.045.245.065.368l.01.055c.022.14.041.28.058.419l.014.12.03.297.011.144.018.282.006.136a10.169 10.169 0 0 1-.003.804c-.001.038-.004.075-.007.113a8.883 8.883 0 0 1-.019.27c-.004.052-.01.103-.016.154-.008.076-.017.15-.027.224-.007.055-.016.108-.024.162a6.925 6.925 0 0 1-.208.913c-.025.08-.051.159-.079.236l-.044.124a5.197 5.197 0 0 1-.296.647l-.002.003c-.05.09-.102.177-.155.261l-.034.05a4.163 4.163 0 0 1-.127.181l-.053.07a4 4 0 0 1-.128.157l-.05.057c-.06.067-.12.132-.185.194l-.027.024a3.645 3.645 0 0 1-.17.153l-.064.052c-.05.04-.1.078-.152.115l-.064.046a3.403 3.403 0 0 1-.22.139l41.655-24.22c.075-.044.148-.092.22-.14l.064-.046c.05-.037.102-.076.151-.115l.064-.052c.058-.05.115-.1.17-.153l.028-.024c.063-.062.125-.127.184-.194l.05-.058c.044-.05.086-.103.128-.156l.053-.07a4.12 4.12 0 0 0 .127-.181l.034-.05.01-.015c.05-.08.099-.161.146-.246l.002-.003c.045-.084.09-.17.132-.258l.005-.013c.057-.12.11-.246.159-.376l.013-.032c.011-.03.02-.062.03-.092.028-.078.054-.156.079-.236l.02-.062c.01-.03.016-.062.025-.093l.053-.203c.006-.028.015-.054.021-.083.007-.03.012-.063.02-.093l.035-.178c.005-.031.012-.06.018-.091.006-.036.01-.074.017-.11l.024-.162c.003-.028.008-.054.012-.082.006-.047.01-.095.015-.142l.015-.153.007-.062.013-.21.007-.112.002-.027c.004-.118.007-.237.008-.359v-.02c0-.112-.001-.223-.005-.335"/>
            <path fill="#B8B9BA" d="M338.427 119.192h-.001l1.108-.644-1.107.644"/>
            <path fill="#2E3A5C" d="M339.534 118.548l2.188-1.272-2.188 1.272"/>
            <path fill="#3E4967" d="M341.722 117.276l7.715-4.487-7.715 4.487"/>
            <path fill="#C1C2C2" d="M332.254 122.782l3.722-2.166-3.722 2.166m3.723-2.165l2.449-1.425-2.449 1.425"/>
            <path fill="#A7A9AA" d="M323.445 127.904l5.802-3.374-5.802 3.374m7.931-4.612l.877-.51-.877.51"/>
            <path fill="#464749" d="M329.247 124.53l2.129-1.238-2.129 1.238M319.869 129.983a.522.522 0 0 0 .021-.012l3.554-2.067h.001l-3.576 2.08"/>
            <path fill="#C2C2C2" d="M335.977 120.617"/>
            <path fill="#2E364E" d="M349.437 112.79l12.06-7.013c.019-.01.036-.022.054-.032l-.053.032-12.06 7.013"/>
            <path fill="#464749" d="M320.083 130.048l.054-.038-.054.038m.287-.21l.035-.027c.072-.06.144-.12.212-.182l.033-.03c.079-.073.156-.151.23-.232l.06-.07c.055-.06.11-.122.16-.186l.042-.053-.042.053a4.826 4.826 0 0 1-.159.187l-.061.07a4.45 4.45 0 0 1-.23.23l-.033.03c-.069.064-.14.125-.211.183l-.036.028M321.232 128.57a4.33 4.33 0 0 0 .042-.075l-.002.003a2.873 2.873 0 0 1-.04.072M321.167 129.241c.13-.107.257-.215.379-.328l.005-.005.114-.105-.07.066a8.827 8.827 0 0 1-.428.372m1.068-1.034c.062-.07.121-.143.18-.215l.002-.001c-.06.073-.12.145-.182.216"/>
            <path fill="#3F4042" d="M321.513 127.991h.001"/>
            <path fill="#B7B7B7" d="M321.514 127.99"/>
            <path fill="#AAA" d="M321.514 127.99a5.013 5.013 0 0 0 .001 0h-.001m.378-.406l.077-.096a4.781 4.781 0 0 0-.077.096m.296-.407l.028-.047c.037-.058.073-.117.105-.177l.006-.01-.006.01a3.704 3.704 0 0 1-.133.224m.168-.289l.055-.112a3.207 3.207 0 0 0-.055.112m.205-.475c.026-.073.047-.148.07-.224.013-.051.028-.102.039-.154-.01.052-.026.103-.04.154-.02.076-.043.15-.069.224m.177-.758v-.004.004"/>
            <path fill="#B7B7B7" d="M321.979 124.514a8.117 8.117 0 0 0-.006-.084l-.001-.02.001.02.006.084"/>
            <path fill="#AAA" d="M321.993 124.761a7.853 7.853 0 0 0-.014-.248l.012.199.002.05"/>
            <path fill="#B7B7B7" d="M322.673 124.322l-.014-.036a3.028 3.028 0 0 0 .001 0l.013.036m-.185-.422l-.018-.032a4.624 4.624 0 0 0 .018.032m-.654-.944a3.923 3.923 0 0 1-.07-.078l-.012-.011c.007.003.01.008.013.011l.07.078"/>
            <path fill="#2E364E" d="M361.657 105.677l.06-.04.035-.026-.034.026-.061.04m.172-.12l.104-.081.054-.044-.054.044-.104.08m.3-.248l.039-.037.01-.009-.01.01-.04.036m.439-.482l.043-.057a4.12 4.12 0 0 0 .127-.181l.034-.05.01-.015-.01.015-.033.05a4.522 4.522 0 0 1-.128.181l-.043.057M363.243 103.582l.026-.08c.027-.077.053-.155.078-.235l.02-.062c.01-.03.016-.062.025-.093l.04-.152-.04.152-.024.093-.021.062c-.024.08-.051.158-.078.236-.01.025-.017.053-.026.079m.214-.718a.795.795 0 0 0 .01-.038l.014-.073-.014.074a1.138 1.138 0 0 1-.01.037m.028-.131l.009-.041-.009.04m.06-.304l.009-.064-.01.064m.022-.142l.014-.094.006-.043-.006.043-.014.094m.022-.148l.004-.028.012-.12c-.003.04-.007.081-.012.12l-.004.028m.039-.366l.002-.019-.002.019m.015-.23l.006-.097c-.001.033-.004.065-.006.096m.012-.241"/>
            <path fill="#3E4967" d="M364.298 100.467c-.009-.045-.015-.09-.028-.135a.65.65 0 0 1 .028.135m-.076-.279l-.043-.122-.001-.003.001.002c.015.041.031.082.043.123m-.063-.182a.43.43 0 0 0-.035-.086l.024.05a.2.2 0 0 1 .011.036m-.077-.174l-.034-.065-.018-.039.02.038c.01.022.02.044.032.066m-.188-.36a4.113 4.113 0 0 0-.15-.236l-.006-.008-.04-.054a5.856 5.856 0 0 0-.234-.312l-.017-.021h.001l.017.021c.087.104.16.209.233.312l.042.055.007.007c.053.079.102.157.147.236"/>
            <path fill="#343335" d="M319.89 129.97c.059-.036.116-.074.173-.112l.02-.015.044-.031.06-.045c.032-.023.062-.046.092-.07l.035-.029.029-.023c.058-.049.115-.1.17-.153l.027-.024c.064-.062.125-.127.185-.194l.05-.057a4 4 0 0 0 .128-.157l.033-.044.02-.026c.04-.054.08-.11.118-.168l.01-.014.006-.01.027-.039a7.513 7.513 0 0 0 .155-.26l.002-.004a.493.493 0 0 1 .012-.021l.02-.036a4.887 4.887 0 0 0 .208-.447 5.553 5.553 0 0 0 .203-.586l.02-.072a5.539 5.539 0 0 0 .094-.38l.002-.01.011-.055a4.51 4.51 0 0 0 .052-.28l.005-.032c.008-.054.017-.108.024-.163.01-.073.019-.148.027-.224a8.246 8.246 0 0 0 .035-.424c.003-.036.006-.073.007-.11v-.003a9.793 9.793 0 0 0 .005-.733c0-.024 0-.048-.002-.072 0-.028-.002-.057-.004-.086l-.002-.05-.012-.197-.006-.084-.001-.02a4.472 4.472 0 0 0-.007-.088l-.003-.036a12.97 12.97 0 0 0-.087-.735l-.015-.101-.01-.055a8.099 8.099 0 0 0-.053-.305l-.011-.064a3.04 3.04 0 0 0-.015-.07l-.016-.078-.002-.011 41.694-24.026.004.02c.02.105.037.21.054.313l.01.054v.008a11.006 11.006 0 0 1 .053.372l.004.04.01.08.004.039.008.065.01.088.005.051.003.035.004.057v.003l.01.122.002.02c.002.042.007.083.01.124l.006.135v.024l.003.044a9.79 9.79 0 0 1 .004.092l.003.063c.003.111.004.223.004.334v.097a9.042 9.042 0 0 1-.008.283l-.001.027-.001.014-.006.096v.003l-.006.095a4.69 4.69 0 0 1-.007.114l-.002.019-.005.042a5.109 5.109 0 0 1-.018.176l-.012.12-.004.028a.896.896 0 0 1-.002.01l-.006.044a8.094 8.094 0 0 1-.014.094l-.01.067-.002.01-.01.065a.727.727 0 0 1-.005.036c-.006.032-.013.06-.018.091-.01.045-.018.091-.027.137l-.009.04a.266.266 0 0 0-.004.021l-.015.073a.795.795 0 0 1-.01.038l-.012.045a5.827 5.827 0 0 1-.052.203c-.009.03-.016.063-.024.093l-.021.062c-.025.08-.051.158-.078.236-.01.025-.017.053-.026.079l-.005.013-.014.032c-.05.13-.102.255-.158.376l-.006.013a4.05 4.05 0 0 1-.1.2l-.032.058-.001.003a5.37 5.37 0 0 1-.146.246l-.01.014-.034.05a4.12 4.12 0 0 1-.127.182l-.043.057-.01.012c-.041.054-.085.106-.128.157l-.05.058c-.059.066-.121.131-.185.193l-.016.016-.01.01-.04.036c-.043.04-.087.078-.131.116l-.01.008-.054.044a3.994 3.994 0 0 1-.152.114l-.029.021-.035.025-.06.041-.106.068-.053.032-21.964 12.771-1.108.644-18.536 10.779"/>
        </g>
    </g>
</svg>
