<svg xmlns="http://www.w3.org/2000/svg" xmlns:xlink="http://www.w3.org/1999/xlink" width="382" height="217" viewBox="0 0 382 217">
    <defs>
        <filter id="prefix__a" width="126.3%" height="149.2%" x="-13.1%" y="-24.6%" filterUnits="objectBoundingBox">
            <feOffset dy="8" in="SourceAlpha" result="shadowOffsetOuter1"/>
            <feGaussianBlur in="shadowOffsetOuter1" result="shadowBlurOuter1" stdDeviation="8"/>
            <feColorMatrix in="shadowBlurOuter1" result="shadowMatrixOuter1" values="0 0 0 0 0.988235294 0 0 0 0 0.203921569 0 0 0 0 0.443137255 0 0 0 0.301136364 0"/>
            <feMerge>
                <feMergeNode in="shadowMatrixOuter1"/>
                <feMergeNode in="SourceGraphic"/>
            </feMerge>
        </filter>
        <filter id="prefix__c" width="135.1%" height="147.7%" x="-17.6%" y="-23.8%" filterUnits="objectBoundingBox">
            <feOffset dy="8" in="SourceAlpha" result="shadowOffsetOuter1"/>
            <feGaussianBlur in="shadowOffsetOuter1" result="shadowBlurOuter1" stdDeviation="8"/>
            <feColorMatrix in="shadowBlurOuter1" result="shadowMatrixOuter1" values="0 0 0 0 0.207843137 0 0 0 0 0.109803922 0 0 0 0 0.270588235 0 0 0 0.404419799 0"/>
            <feMerge>
                <feMergeNode in="shadowMatrixOuter1"/>
                <feMergeNode in="SourceGraphic"/>
            </feMerge>
        </filter>
        <filter id="prefix__h" width="117.3%" height="123.3%" x="-8.6%" y="-11.7%" filterUnits="objectBoundingBox">
            <feOffset dy="2" in="SourceAlpha" result="shadowOffsetOuter1"/>
            <feGaussianBlur in="shadowOffsetOuter1" result="shadowBlurOuter1" stdDeviation="2"/>
            <feColorMatrix in="shadowBlurOuter1" result="shadowMatrixOuter1" values="0 0 0 0 0.196078431 0 0 0 0 0.105882353 0 0 0 0 0.262745098 0 0 0 0.29564576 0"/>
            <feMerge>
                <feMergeNode in="shadowMatrixOuter1"/>
                <feMergeNode in="SourceGraphic"/>
            </feMerge>
        </filter>
        <rect id="prefix__b" width="350" height="185" x="0" y=".768" rx="10"/>
        <rect id="prefix__i" width="350" height="185" x="0" y=".768" rx="10"/>
        <linearGradient id="prefix__g" x1="6.146%" x2="100%" y1="37.236%" y2="72.088%">
            <stop offset="0%" stop-color="#160F31"/>
            <stop offset="100%" stop-color="#472350"/>
        </linearGradient>
        <path id="prefix__e" d="M94.34 177.258c38.456-11.653 36.263-12.15 67.98 1.95 19.93 8.862 50.715-5.51 92.354-43.115-26.518-76.062-52.961-116.251-79.331-120.569-60.228-9.86-93.029-2.823-130.593 18.91C7.187 56.167 4.073 80.36 10.58 109.206c6.506 28.846 45.304 79.705 83.76 68.052z"/>
    </defs>
    <g fill="none" fill-rule="evenodd" filter="url(#prefix__a)" transform="translate(16 7)">
        <g transform="translate(0 .232)">
            <mask id="prefix__d" fill="#fff">
                <use xlink:href="#prefix__b"/>
            </mask>
            <use fill="#FC3471" fill-rule="nonzero" xlink:href="#prefix__b"/>
            <g filter="url(#prefix__c)" mask="url(#prefix__d)">
                <g transform="rotate(30 280.842 416.867)">
                    <mask id="prefix__f" fill="#fff">
                        <use xlink:href="#prefix__e"/>
                    </mask>
                    <g mask="url(#prefix__f)">
                        <g>
                            <path fill="url(#prefix__g)" d="M44.967 35H261.967V234H44.967z" transform="translate(-38.22 -17)"/>
                            <g fill="#FFF">
                                <path d="M229.424 140.66c-.289 0-.566-.164-.7-.443-.184-.388-.021-.854.365-1.04.108-.051.222-.076.334-.076.289 0 .566.163.7.443.184.388.021.853-.365 1.04-.107.051-.221.075-.334.075" transform="translate(-38.22 -17) translate(0 .913)"/>
                                <path d="M0 148.977v-2.822c.36.127.673.392.85.766.355.744.043 1.636-.697 1.992-.05.024-.101.046-.153.064M26.285 208.646c-.554 0-1.085-.313-1.34-.849-.355-.744-.042-1.636.697-1.992.207-.1.426-.147.64-.147.555 0 1.086.313 1.341.849.355.744.042 1.635-.697 1.992-.207.1-.426.147-.641.147M23.295 190.776c-.602 0-1.18-.34-1.457-.922-.385-.808-.046-1.778.758-2.166.225-.108.463-.16.697-.16.602 0 1.18.341 1.457.923.385.809.045 1.778-.759 2.166-.225.108-.462.16-.696.16M191.561 92.052c-.434 0-.85-.245-1.049-.664-.277-.583-.033-1.28.546-1.56.162-.078.333-.114.501-.114.434 0 .85.245 1.05.663.277.583.032 1.28-.547 1.56-.162.078-.332.115-.5.115M241.175 178.507c-.217 0-.425-.122-.525-.332-.138-.29-.016-.64.273-.78.081-.038.167-.057.251-.057.217 0 .424.123.525.333.138.29.016.64-.274.779-.08.039-.166.057-.25.057M283.636 212.41h-2.45c.028-.431.28-.836.696-1.036.17-.082.351-.121.529-.121.457 0 .896.258 1.107.7.07.149.109.304.118.457M157.665 184.611c-.433 0-.849-.245-1.049-.664-.277-.582-.032-1.28.546-1.559.162-.078.333-.115.502-.115.433 0 .849.245 1.049.664.277.582.033 1.28-.546 1.559-.162.078-.333.115-.502.115M118.102 168.651c-.35 0-.697-.16-.926-.462-.388-.514-.288-1.247.223-1.637.21-.161.457-.238.702-.238.35 0 .698.159.926.462.389.514.289 1.247-.222 1.637-.21.16-.458.238-.703.238M136.786 92.305c-.48 0-.88-.379-.902-.865-.025-.501.36-.927.859-.952l.044-.001c.48 0 .879.379.902.865.024.501-.36.928-.859.952l-.044.001M80.462 93.095c-.41 0-.754-.324-.773-.741-.021-.43.309-.796.736-.816l.038-.001c.41 0 .754.324.773.742.021.43-.308.794-.736.815l-.038.001M126.204 101.792c-.308 0-.565-.244-.58-.557-.015-.322.232-.596.552-.611l.029-.001c.308 0 .565.243.58.556.016.322-.232.596-.552.612h-.029M85.01 108.746c-.19 0-.383-.045-.564-.139-.602-.314-.836-1.059-.524-1.664.218-.423.647-.665 1.09-.665.19 0 .383.044.564.138.601.314.836 1.059.524 1.664-.218.423-.647.666-1.09.666M105.502 95.891c-.18 0-.363-.042-.535-.131-.57-.298-.792-1.003-.496-1.576.207-.4.613-.63 1.032-.63.181 0 .364.042.535.13.57.298.792 1.003.497 1.576-.208.401-.613.631-1.033.631M137.261 151.197c-.032 0-.064 0-.097-.003-.818-.053-1.439-.763-1.387-1.586.051-.79.704-1.398 1.481-1.398l.097.003c.818.053 1.44.764 1.386 1.587-.05.79-.704 1.397-1.48 1.397M81.76 192.29c-.038 0-.077 0-.117-.003-.996-.064-1.752-.93-1.688-1.931.061-.963.857-1.702 1.802-1.702.04 0 .078.002.118.004.996.065 1.752.929 1.688 1.93-.061.963-.856 1.703-1.802 1.703M105.851 204.779l-.096-.003c-.818-.053-1.44-.763-1.387-1.586.05-.791.704-1.399 1.48-1.399.032 0 .065.002.097.004.819.053 1.44.763 1.387 1.586-.05.79-.704 1.398-1.48 1.398M28.784 169.35c-.03 0-.059-.002-.088-.003-.748-.049-1.314-.697-1.266-1.45.046-.72.642-1.275 1.351-1.275.03 0 .059 0 .089.003.747.048 1.314.696 1.266 1.448-.046.722-.643 1.276-1.352 1.276M119.268 90.942l-.105-.003c-.89-.058-1.565-.83-1.507-1.724.054-.86.764-1.52 1.608-1.52l.106.003c.889.058 1.564.83 1.507 1.725-.055.859-.765 1.52-1.61 1.519M11.408 180.46l-.05-.001c-.427-.028-.75-.398-.723-.828.026-.412.367-.729.772-.729.017 0 .033 0 .05.002.427.027.751.398.724.827-.026.412-.367.73-.773.73M94.964 153.064l-.075-.003c-.64-.041-1.127-.597-1.086-1.241.04-.619.551-1.094 1.159-1.094.025 0 .05 0 .076.003.64.04 1.126.597 1.085 1.241-.04.618-.55 1.094-1.159 1.094M17.677 189.018c-.634 0-1.188-.47-1.278-1.12-.098-.71.395-1.367 1.101-1.465.06-.009.12-.013.18-.013.634 0 1.187.47 1.277 1.12.099.71-.394 1.366-1.1 1.465-.06.009-.12.013-.18.013M132.643 196.714c-.286 0-.535-.212-.575-.504-.045-.32.177-.615.495-.66.027-.003.054-.005.08-.005.286 0 .535.211.576.504.044.32-.178.614-.496.659-.027.004-.054.006-.08.006M68.15 153.13c-.674 0-1.32-.38-1.631-1.033-.432-.906-.051-1.991.85-2.426.25-.12.517-.179.779-.179.674 0 1.321.381 1.631 1.033.432.906.052 1.992-.849 2.426-.252.121-.517.179-.78.179M58.822 114.202c-.602 0-1.18-.34-1.457-.922-.386-.81-.046-1.779.758-2.166.225-.108.462-.16.696-.16.602 0 1.18.34 1.457.923.385.808.046 1.778-.758 2.165-.225.109-.462.16-.696.16M212.595 189.284c-.602 0-1.18-.34-1.457-.922-.385-.809-.046-1.778.758-2.165.225-.109.463-.16.697-.16.602 0 1.179.34 1.456.922.386.81.046 1.779-.758 2.166-.225.108-.462.16-.696.16M178.96 34.633c-.433 0-.849-.244-1.049-.664-.277-.582-.033-1.28.546-1.559.162-.078.334-.115.502-.115.433 0 .849.245 1.049.664.277.583.033 1.28-.546 1.56-.162.078-.333.114-.502.114M244.44 185.892c-.176 0-.35-.079-.463-.231-.194-.257-.144-.623.11-.819.106-.08.23-.118.352-.118.176 0 .349.08.463.23.194.257.145.624-.111.82-.105.08-.228.118-.351.118M217.52 103.045c-.017 0-.034 0-.051-.002-.427-.027-.75-.397-.723-.827.026-.412.367-.729.772-.729l.05.001c.428.028.751.398.724.828-.026.412-.367.73-.772.73M73.803 116.286c-.635 0-1.188-.47-1.278-1.12-.099-.71.394-1.366 1.1-1.465.061-.009.121-.013.18-.013.634 0 1.188.47 1.278 1.12.099.71-.395 1.367-1.101 1.466-.06.008-.12.012-.18.012M266.53 186.223c-.505 0-.99-.286-1.223-.775-.324-.679-.039-1.494.637-1.82.188-.09.388-.133.584-.133.506 0 .991.285 1.224.775.324.679.039 1.493-.636 1.818-.19.092-.389.135-.586.135" opacity=".401" transform="translate(-38.22 -17) translate(0 .913)"/>
                                <path d="M231.62 205.986c-.289 0-.566-.163-.7-.443-.184-.388-.021-.854.364-1.04.109-.052.223-.076.335-.076.289 0 .566.163.7.442.184.389.021.854-.365 1.04-.108.052-.221.077-.334.077M206.93 212.41h-2.594c.14-.135.304-.25.488-.34.26-.125.536-.185.808-.185.481 0 .949.188 1.298.525M49.872 158.729c-.698 0-1.368-.394-1.69-1.07-.447-.938-.053-2.062.88-2.512.26-.125.536-.185.807-.185.698 0 1.369.394 1.69 1.07.447.938.053 2.062-.88 2.512-.26.126-.536.185-.807.185M184.248 48.386c-.506 0-.99-.285-1.223-.774-.324-.68-.04-1.494.636-1.82.19-.09.389-.134.585-.134.506 0 .991.286 1.224.775.324.68.038 1.494-.637 1.82-.19.09-.388.133-.585.133M42.06 205.18c-.698 0-1.368-.396-1.69-1.07-.446-.939-.053-2.063.88-2.512.261-.126.536-.186.808-.186.698 0 1.368.395 1.69 1.07.446.938.053 2.062-.88 2.512-.261.126-.536.185-.808.185M93.002 87.018c-.264 0-.519-.15-.64-.406-.17-.355-.021-.782.333-.952.099-.048.204-.07.306-.07.265 0 .52.15.641.405.17.356.02.783-.334.953-.099.048-.203.07-.306.07M97.82 127.874c-.675 0-1.322-.38-1.632-1.033-.432-.906-.051-1.991.849-2.425.252-.122.518-.18.78-.18.674 0 1.32.382 1.632 1.034.431.906.05 1.992-.85 2.425-.252.121-.518.18-.78.18M62.58 138.877c-.096 0-.189-.055-.233-.148-.061-.13-.007-.284.121-.347.037-.017.075-.025.112-.025.096 0 .189.054.233.148.062.129.007.284-.121.346-.036.017-.074.026-.112.026M256.22 159.088c-.401 0-.796-.188-1.049-.54-.417-.58-.286-1.392.291-1.812.23-.166.494-.246.755-.246.401 0 .796.187 1.048.539.418.58.287 1.393-.29 1.813-.23.166-.494.246-.755.246M184.255 179.254c-.389 0-.724-.293-.77-.69-.048-.428.257-.814.682-.864.03-.003.06-.005.09-.005.388 0 .723.293.768.69.049.428-.256.815-.681.864-.03.003-.06.005-.09.005" opacity=".66" transform="translate(-38.22 -17) translate(0 .913)"/>
                                <path d="M241.633 138.764c-.4 0-.796-.187-1.048-.538-.418-.581-.287-1.394.29-1.814.23-.165.494-.245.756-.245.4 0 .795.187 1.048.538.417.582.287 1.394-.291 1.814-.23.165-.493.245-.755.245M23.847 128.858c-.674 0-1.321-.381-1.632-1.033-.432-.906-.051-1.992.85-2.426.251-.121.517-.178.78-.178.673 0 1.32.38 1.63 1.033.432.905.052 1.991-.849 2.425-.252.12-.517.179-.78.179M112.563 75.51c-.433 0-.85-.245-1.049-.664-.277-.582-.032-1.28.547-1.56.161-.077.332-.114.5-.114.434 0 .85.245 1.05.664.277.582.032 1.28-.547 1.56-.162.077-.332.114-.5.114M9.389 200.293c-.458 0-.897-.258-1.108-.7-.292-.615-.034-1.352.577-1.646.17-.083.351-.122.529-.122.457 0 .896.259 1.107.701.293.615.035 1.352-.576 1.646-.171.082-.352.121-.53.121M116.938 185.81c-.626 0-1.227-.353-1.515-.959-.401-.84-.048-1.85.788-2.252.234-.113.481-.166.724-.166.626 0 1.227.354 1.515.96.401.84.048 1.848-.788 2.251-.234.113-.481.167-.724.166M213.018 110.55c-.313 0-.613-.178-.758-.48-.2-.42-.024-.925.394-1.126.118-.057.241-.083.363-.083.313 0 .613.176.757.479.2.42.024.925-.394 1.126-.117.057-.24.083-.362.083M174.066 88.689c-.625 0-1.226-.354-1.515-.96-.4-.84-.047-1.848.789-2.251.234-.113.481-.166.724-.166.626 0 1.227.353 1.515.959.4.84.048 1.849-.788 2.252-.234.113-.481.166-.725.166M118.962 135.806c-.433 0-.849-.245-1.048-.665-.278-.582-.033-1.28.546-1.559.162-.078.333-.115.501-.115.433 0 .85.245 1.05.665.276.581.032 1.28-.547 1.558-.162.078-.333.116-.502.116M193.59 184.857c-.264 0-.518-.15-.64-.406-.17-.356-.02-.782.333-.953.1-.047.204-.07.307-.07.265 0 .519.15.64.406.17.356.02.782-.333.953-.099.048-.203.07-.306.07M26.287 152.43c-.794 0-1.557-.45-1.923-1.218-.508-1.067-.06-2.347 1.001-2.858.297-.143.61-.211.92-.211.794 0 1.556.449 1.922 1.217.509 1.068.06 2.347-1 2.859-.298.143-.611.21-.92.21M211.486 127.913c-.554 0-1.085-.313-1.34-.848-.355-.744-.043-1.636.697-1.993.207-.1.425-.146.64-.146.554 0 1.086.312 1.34.848.355.744.043 1.636-.697 1.992-.207.1-.426.147-.64.147M214.204 164.022c-.626 0-1.226-.353-1.515-.96-.4-.84-.048-1.848.789-2.25.234-.114.48-.167.723-.167.626 0 1.227.354 1.516.96.4.84.047 1.848-.789 2.251-.234.113-.48.166-.724.166M128.862 117.606c-.487 0-.954-.279-1.173-.754-.3-.651-.017-1.423.63-1.724.176-.081.36-.12.541-.12.489 0 .956.28 1.174.754.299.651.017 1.423-.63 1.724-.176.081-.36.12-.542.12M97.79 70.664c-.512 0-1.002-.293-1.23-.792-.315-.683-.019-1.494.661-1.81.184-.085.377-.126.568-.126.512 0 1.003.294 1.232.792.314.684.017 1.494-.662 1.81-.185.085-.378.126-.568.126M187.522 148.912c-.02 0-.04 0-.061-.002-.427-.034-.746-.409-.712-.838.032-.408.371-.718.772-.718.02 0 .04 0 .06.002.427.034.746.409.713.837-.032.41-.372.72-.772.719M159.053 201.39c-.031 0-.062-.002-.092-.004-.64-.051-1.118-.613-1.069-1.257.048-.612.557-1.078 1.158-1.078.03 0 .061.002.092.004.64.05 1.118.613 1.068 1.256-.048.613-.557 1.078-1.157 1.078M225.307 176.01c-.25 0-.502-.058-.738-.181-.793-.411-1.104-1.39-.695-2.187.287-.56.851-.88 1.436-.88.25 0 .502.059.739.182.792.41 1.103 1.39.694 2.187-.286.558-.85.879-1.436.879M136.793 185.303c-.03 0-.06-.001-.092-.004-.64-.05-1.118-.613-1.068-1.256.048-.613.557-1.078 1.158-1.078.03 0 .06.001.091.004.64.05 1.119.613 1.069 1.256-.048.613-.557 1.078-1.158 1.078M194.689 193.904c-.043 0-.085-.002-.128-.006-.888-.069-1.553-.85-1.484-1.744.067-.85.774-1.497 1.608-1.497.042 0 .085.002.127.005.89.07 1.554.85 1.484 1.745-.066.85-.773 1.497-1.607 1.497M181.816 204.697c-.043 0-.088-.002-.132-.005-.924-.072-1.615-.885-1.543-1.815.069-.885.804-1.557 1.672-1.557.044 0 .088.002.132.006.925.072 1.616.885 1.543 1.815-.069.884-.804 1.557-1.672 1.556M181.245 28.627c-.122 0-.247-.03-.363-.092-.378-.202-.521-.674-.32-1.053.14-.264.407-.414.685-.414.122 0 .247.03.363.092.378.202.521.674.32 1.053-.14.264-.407.414-.685.414M81.262 169.623c-.286-.001-.577-.07-.848-.214-.881-.472-1.216-1.573-.747-2.46.326-.613.95-.964 1.598-.964.287 0 .577.069.848.214.88.471 1.216 1.572.747 2.459-.325.614-.951.965-1.598.965M62.852 194.45c-.204 0-.412-.05-.605-.153-.63-.336-.869-1.123-.533-1.756.232-.439.679-.689 1.14-.689.206 0 .413.05.606.152.63.337.869 1.124.533 1.757-.232.439-.678.689-1.14.689M83.284 141.598c-.215 0-.433-.051-.636-.16-.66-.353-.912-1.18-.56-1.844.244-.461.713-.724 1.198-.724.215 0 .433.052.636.16.661.354.912 1.18.56 1.845-.243.46-.713.723-1.198.723M207.513 142.83c-.214 0-.432-.052-.635-.16-.66-.354-.912-1.18-.56-1.845.244-.46.713-.723 1.198-.723.215 0 .433.052.635.16.662.354.913 1.18.56 1.844-.243.462-.712.724-1.198.724M40.444 113.04c-.131 0-.264-.02-.395-.063-.68-.22-1.053-.95-.835-1.633.176-.551.683-.902 1.23-.902.13 0 .263.02.394.062.679.219 1.053.95.835 1.633-.176.552-.683.903-1.23.903M135.25 61.331c-.058 0-.118-.01-.177-.028-.306-.099-.474-.428-.376-.735.08-.248.308-.406.553-.406.06 0 .119.009.178.028.306.098.474.427.376.735-.08.248-.308.406-.553.406" transform="translate(-38.22 -17) translate(0 .913)"/>
                            </g>
                        </g>
                    </g>
                    <g mask="url(#prefix__f)">
                        <g>
                            <g>
                                <path fill="#F92360" d="M17.951 67.603c.816-1.527.653-4.52-.927-5.965-4.455-4.643-10.424-9.534-7.158-15.643 3.017-5.2 8.56-8.09 11.26-13.579 1.884-3.963-.208-9.287.129-14.096.239-6.604 7.645-8.358 12.556-11.825 1.688-1.106 3.137-2.341 4.286-3.734-8.804 2.587-17.002 7.508-23.61 14.732-19.62 21.451-17.78 55.071 4.11 75.092 2.569 2.35 5.303 4.403 8.154 6.171-7.499-8.145-13.501-20.113-8.8-31.153" transform="translate(83.37 -8.482)"/>
                                <path fill="#FC3471" d="M89.5 86.426c-1.079-3.261 1.502-5.448 3.767-7.925-1.546-.846-.098-1.796-.131-2.394-3.823-4.066-10.141-9.844-8.007-14.715 1.568-4.251 6.861-6.232 9.028-10.504 2.7-5.49-1.57-12.238-.416-18.574.518-2.967 1.525-6.465 4.06-8.063-1.807-2.619-3.87-5.112-6.182-7.446-.257.127-.529.237-.823.319-5.012 1.923-16.885 2.452-18.316 8.464-1.507 4.315 5.136 10.392 4.958 15.923-.065 8.075-13.596 9.528-13.217 18.009.264 5.936 10.187 9.317 7.794 12.823-10.481 12.463-3.915 21.322 5.523 29.578 5.269-2.467 10.19-5.845 14.511-10.145-1.12-1.446-1.998-3.205-2.549-5.35" transform="translate(83.37 -8.482)"/>
                                <path fill="#FC3471" d="M63.435 106.232c-3.29-3.262-9.437-5.918-11.402-10.02-1.816-3.792-.575-8.511-1.529-12.514-1.103-4.629-5.636-6.648-6.866-11.143-1.559-5.691 4.306-7.815 6.045-12.293 2.473-6.372-1.963-12.803 1.718-18.532 2.656-4.132 3.307-5.606 1.815-10.67-1.488-5.047.289-8.627 5.086-10.563 3.753-1.515 6.823-1.905 7.696-6.025.508-2.401.966-4.464 2.515-6.454.508-.653 3.444-3.985 4.401-3.606C61.698-.033 49.398-.56 38.097 2.761c-1.149 1.393-2.598 2.628-4.286 3.734C28.9 9.962 21.494 11.716 21.255 18.32c-.337 4.809 1.755 10.133-.129 14.096-2.7 5.489-8.243 8.379-11.26 13.579-3.266 6.109 2.703 11 7.158 15.643 1.58 1.445 1.743 4.438.927 5.965-4.701 11.04 1.301 23.008 8.8 31.153 11.213 6.951 24.285 9.417 36.684 7.476" transform="translate(83.37 -8.482)"/>
                                <path fill="#FC3471" d="M72.015 72.343c2.393-3.506-7.53-6.887-7.794-12.823-.379-8.481 13.152-9.934 13.217-18.009.178-5.531-6.465-11.608-4.958-15.923 1.431-6.012 13.304-6.541 18.316-8.464.294-.082.566-.192.823-.319-.639-.645-1.293-1.281-1.971-1.9-5.056-4.625-10.74-8.117-16.733-10.492-1.813.946-3.726.477-5.274 1.995-1.459 1.431-1.929 3.705-2.805 5.486-2.764 5.627-9.953 5.646-13.971 9.683-4.047 4.067-2.245 8.701-1.205 13.728.5 2.413.903 3.417-.931 5.194-1.372 1.329-3.175 2.165-4.549 3.361-1.251 1.088-2.504 2.566-3.492 3.887-2.07 2.768-1.526 5.69-.963 8.975.406 2.365 1.037 4.274-.088 6.514-.824 1.642-2.168 2.89-2.613 4.736-.889 3.683.789 6.442 3.17 9.071 2.07 2.285 4.53 4.221 6.298 6.776.855 1.235 1.67 2.63 1.842 4.153.221 1.962-.997 6.317.283 8.126 3.877 5.335 11.603 8.459 14.818 10.134 4.856-.761 9.606-2.205 14.103-4.311-9.438-8.256-16.004-17.115-5.523-29.578" transform="translate(83.37 -8.482)"/>
                            </g>
                            <path fill="#FF5F90" d="M94.157 50.888c-2.167 4.272-7.46 6.253-9.028 10.504-2.134 4.871 4.184 10.649 8.007 14.715.033.598-1.415 1.548.131 2.394-2.265 2.477-4.846 4.664-3.767 7.925.551 2.145 1.429 3.904 2.549 5.35.58-.577 1.151-1.169 1.709-1.779 16.815-18.384 17.866-45.706 4.043-65.746-2.535 1.598-3.542 5.096-4.06 8.063-1.154 6.336 3.116 13.084.416 18.574" transform="translate(83.37 -8.482)"/>
                            <path fill="#FF6393" d="M61.242 94.731c.061.273-.209.652-.239.986-.04.44.04.459.159.82.23.695.664 1.489 1.212 1.893.64.472 1.349.347 1.998.824.603.442.86.575 1.601.55.834-.028 1.497.479 2.345.375.664-.081.855-.127 1.534.017.787.166 2.014.006 2.014.006.336.024 3.24-1.201 4.466-1.766 1.221-.562 1.89-1.511 2.792-2.502 1.23-1.35.668-2.23 1.281-3.735.157-.386.435-.575.659-.895-.373-.307-1.102.192-1.236-.241-.083-.266.317-.555.424-.82-.441-.37-.805-.653-1.149-1.095-.414-.532-.425-.254-.924-.256-.298-.001-.33.212-.662.117-.252-.072-.494-.502-.711-.657-.827-.592-1.605-.082-2.532-.264-.439-.086-.901-.402-1.319-.458-.448-.06-.759.161-1.219.318-.634.216-.427.201-.983-.115-.364-.207-.367-.371-.765-.215-.111.043-.144.395-.247.449-.289.153-.407-.026-.706.074-.109.037-.24-.095-.372-.056-.135.039-.175.291-.256.32-.187.068-.384.225-.597.275-.508.117-.933-.291-1.491-.12-.292.089-.938.499-1.223.662-.554.317-.748.702-1.211 1.123-.345.315-.741.364-1.101.687-.665.597-1.175 1.554-1.597 2.317-1.354-.265.025 1.246.055 1.382" transform="translate(83.37 -8.482)"/>
                            <path fill="#FC3471" d="M65.749 96.028c.536-.182 1.183.777 1.866.842.683.064 1.808.284 2.594-.082 1.182-.303 2.326-.792 3.545-.91.754-.058 2.115-.422 2.424-1.715.287.001.754-.059.932-.12.597-.572 1.204-1.306 1.098-1.85-.071-.369-.581-.642-1.212-.753-.393-.07-.975.259-.973-.346-.423-.347-.813-.308-1.302-.371-.551-.071-1.055-.351-1.615-.43-.458-.066-1.173.134-1.675.136-.58.003-1.111.059-1.695.214-.724.192-1.447.036-2.139.261-.438.142-.979.573-1.435.764-.804.338-2.945 1.013-3.106 2.054-.221 1.424 1.55 2.64 2.693 2.306" transform="translate(83.37 -8.482)"/>
                            <path fill="#E0175A" d="M62.512 95.374c.005.306-.049.64.062.899.082.193.449.529.603.755.218.321.142.431.52.651.285.165.612.1.894.237.266.13.46.389.684.518.417.241 1.018.394 1.524.432.546.042 1.067.281 1.599.297.22.007.243-.362.485-.359.136.002.227.187.355.188.378.003.351.143.785.039.481-.115.542-.217.978-.218.482-.002.431.196 1.035.025.558-.159 1.574-.234 1.813-.857.656.789 2.558-.759 3.226-1.34.958-.832 1.17-1.915 1.746-2.951-.291-.175-.274-1.113-.613-1.497-.109.706-.646 1.417-1.098 1.85-.178.061-.645.121-.932.12-.309 1.293-1.67 1.657-2.424 1.715-1.219.118-2.363.607-3.545.91-.786.366-1.869-.256-2.551-.321-.683-.064-1.361-.485-1.909-.439-.922.077-2.342-1.123-2.72-2.423-.213.366-.451.825-.662 1.233.115.148.143.336.145.536" transform="translate(83.37 -8.482)"/>
                            <path fill="#FF6393" d="M20.331 89.581c.545.577.026 1.491.309 2.198.332.831.996 1.464 1.637 2.117.281.286.527.557.868.805.148.108.334.171.487.305.132.116.174.23.27.339.439.5 1.856 1.168 2.049 1.279.218.125 1.369.842 1.675.996.29.145.37.125.629.304.349.24 1.595.6 1.989.704.403.106.772.312 1.178.393.299.06.601.059.911.149.203.059.361.218.568.202.225-.017.381-.309.572-.381.141-.053.521.067.685-.083.318-.292.038-.685.367-.98.289-.26.774-.289 1.16-.246-.301-.394-.712-.348-1.106-.481.104-.068.17-.221.273-.29-.404-.182-.823-.103-1.259-.069.22-.285.407-.778.474-1.187-.159.063-.223.005-.381-.01.068-.102.188-.35.119-.507-.14-.319-.42-.177-.582-.342-.578-.587-.331-1.831-1.234-2.228-.054.174-.199.298-.344.416-.145-.155-.215-.538-.396-.626-.271-.131-.614.243-.938.159-.594-.155-.582-.815-.936-1.297-.283-.385-.714-.822-1.133-1.038-.286.186-.218.614-.413.837-.046-.442-.238-.741-.659-.846-.22-.055-.927-.195-1.096-.094-.342-.115-.707-.131-1.07-.266-.24-.089-.482-.368-.731-.445-.288-.088-.562.077-.816.055-.397-.034-.65-.238-1.106-.163-.567.094-.547.242-1.118-.092-.488.207-.685.002-1.232-.096.188.15.381.304.33.509" transform="translate(83.37 -8.482)"/>
                            <path fill="#FC3471" d="M22.343 91.477c.429.5.881.969 1.356 1.405.591.544 1.218 1.037 1.879 1.478.667.443 1.37.834 2.108 1.167.658.297 1.345.549 2.059.753.556.135.909.638 1.393.843.265.027 1.04.161 1.147-.188-.338-.359-.432-.801-.856-1.088-.333-.226-.593-.491-.882-.778-.35-.347-.766-.525-1.139-.835-.126-.105-.256-.197-.393-.288-.251-.167-.544-.227-.812-.383-.158-.092-.278-.242-.434-.339-.171-.108-.377-.168-.553-.277-.437-.272-.884-.463-1.332-.696-.17-.088-.288-.22-.449-.323-.216-.136-.429-.183-.654-.261-.519-.18-1.013-.44-1.536-.459-.361-.013-.708-.164-1.047-.188-.003.16.039.315.145.457" transform="translate(83.37 -8.482)"/>
                            <path fill="#E0175A" d="M31.138 97.123c-.272-.115-.503-.325-.752-.51-.193-.145-.398-.274-.641-.333-.296-.084-.586-.177-.872-.278-.604-.212-1.186-.46-1.746-.742-.992-.499-1.916-1.104-2.772-1.808-.719-.59-1.39-1.25-2.012-1.975-.106-.142-.148-.297-.145-.457-.152-.01-.303.006-.452.071-.125.055-.236.154-.309.273l-.061.131c-.074.224.03.274.155.486.149.253.138.554.451.794.345-.103.568.746.721.921.223.253.455.237.693.348.113.053.179.1.3.144.143.051.18-.032.266.11.071.119-.026.167.059.286.118.167.455.312.616.44.181.143.357.252.533.383.223.165.273.315.537.385.14.037.344.085.478.096l-.064.002c.085.342.622.52.906.654.388.182.722.489 1.111.635.204.076.264.163.449.274.125.075.277.087.405.159.262.147.685.25.899.45.067-.14.189-.252.272-.384.083.247.033.239.248.433.201.182.259.301.514.324.158.014.293-.053.46-.016l.165.07c.153.033.323.021.471-.004.329.276.749.193.982-.005.291-.249.053-.506-.11-.858-.138-.298-.37-.436-.606-.685l-.001-.002c-.108.349-.883.215-1.148.188" transform="translate(83.37 -8.482)"/>
                            <path fill="#FF6393" d="M54.581 79.122l-.261.178c.079-.081.168-.137.261-.178zM42.579 60.187c.106.575.825.847 1.091 1.378.114 1.047-1.177.362-1.716.067.021.827.491 1.923-.233 2.602-.042-.181-.207-.531-.22-.717-.516.613-.538 1.562-.866 2.247-.177.369-.44.69-.557 1.072-.207.672.13 1.327.074 1.935-.032.344-.256.603-.262.93-.007.347.232.755.275 1.061.086.608-.152 1.314.07 1.907.231.619.621.654 1.084 1.051.389.333.498.66.819 1.068.316.401.75.599 1.164.925.849.668 1.181 1.677 2.168 2.204.446.238.934.257 1.368.45.352.157.505.415.765.544.769.385 1.754.6 2.616.588 1.476-.022 3.314.569 4.551-.442.276-.071.578-.071.84-.188.378-.17.693-.459 1.084-.632 1.093-.484 1.484-1.432 2.09-2.432.968-1.597 1.838-3.43 1.181-5.278-.153-.43-.41-.656-.472-1.137-.04-.316.267-.415.175-.735-.092-.32-.584-.509-.735-.751-.324-.52-.331-1.158-.624-1.744-.369-.736-.871-.941-1.57-1.375-1.298-.802-1.706-2.014-3.314-2.227-.425-.056-.794-.025-1.189-.297-.345-.238-.338-.623-.626-.779-.252-.138-.839-.129-1.186-.215-.289-.073-.526-.241-.829-.308-.774-.171-1.322.349-2.08.235-.235-.035-.692-.465-.883-.446-.537.053-.451.69-.929.8-.629.144-2.435-1.238-3.124-1.361z" transform="translate(83.37 -8.482)"/>
                            <path fill="#FC3471" d="M42.883 65.819c.076.664-1.055 1.217-.746 2.023.213.438.933.564.913.861.831 2.048 2.141 3.305 3.753 4.589.117.07.33.509.494.763.193.735 1.351.662 2.119.972.302.028.926-.214 1.296-.299 1.158-.072 2.256.746 3.249.419 1.55-.455 2.749-1.121 4.249-1.759l.146-.031c.123-.667.153-1.349.092-2.033-.152-1.714-.856-3.496-2.211-4.658l-.046-.042c-.705-.897-1.594-1.666-2.716-2.345-1.389-.84-2.863-1.348-4.297-1.542l-.15-.032c-.902-.17-1.744-.215-2.67.066-.541.092-1.06.237-1.548.431-.179-.032-.366-.063-.632.033-.211.075-.841.385-1.006.485l-.007.004c-.409.65-.392 1.345-.282 2.095" transform="translate(83.37 -8.482)"/>
                            <path fill="#E0175A" d="M42.481 64.612c-.071.149-.146.283-.224.41-.182.22-.351.453-.502.702l-.131.233-.105.166c-.133.219-.179.361-.205.501-.171.439-.287.893-.351 1.359-.081.286-.121.559-.063.911.003.897.187 1.815.532 2.712.092.472.457 1.107.859 1.686.641.999 1.49 1.931 2.524 2.727.204.176.4.335.574.465 1.07.798 1.566 1.344 2.96 1.411.78.037 1.229.521 1.928.654.765.146 2.023-.115 2.782-.207.836-.102 1.743-.614 2.594-.426.501-.677 1.624-1.184 2.028-1.843.361-.588.435-1.66.597-2.34.03-.125.055-.25.078-.376l-.146.031c-1.5.638-2.699 1.304-4.249 1.759-.993.327-2.091-.491-3.249-.419-.37.085-.994.327-1.296.299-.768-.31-1.926-.237-2.119-.972-.164-.254-.377-.693-.494-.763-1.612-1.284-2.922-2.541-3.753-4.589.02-.297-.7-.423-.913-.861-.309-.806.822-1.359.746-2.023-.11-.75-.127-1.445.282-2.095-.554.336-.387.268-.684.888" transform="translate(83.37 -8.482)"/>
                            <path fill="#FF6393" d="M14.183 58.337c-.193.171-.558-.165-.663-.073-.226.197-.02.218-.135.463-.222.473-.12.651-.607 1.008-.467.343-.905.483-1.212 1.033-.582 1.04-.38 2.272-.49 3.327-.117 1.132.343 1.81 1.028 2.847-.776.975.816 1.797 1.321 2.48.315.426.522.801 1.036.96.189.059.561.073.917.038.211.179.371.44.596.57.403.233.517.196.945.188.551-.01.687.101 1.219.17.704.091 1.021-.559 1.697-.344.75.237.961 1.304 1.657 1.568.019-.602-.698-1.09-.578-1.693.136-.678 1.154.176 1.439.61.535-.864-1.77-2.259-.159-2.514-.517-.701-.305-.665.189-1.173-.112-.238-.294-.497-.363-.743-.14-.504-.021-.272.046-.758.132-.965-.45-.9-.682-1.737-.12-.431.404-.949.292-1.428-.184-.782-.601-.333-1.019-.741-.619-.606.443-1.267.177-1.983-.615.371-.937 1.185-1.562 1.503-.523-.306-.413-.888-.439-1.393-.287.121-.59.315-.653.646-.904-.107-.296-1.138-.376-1.67-.083-.554-.603-1.098-.967-1.549-.063.444-.305.724-.452 1.099.014-.555-.333-.972-.673-1.228-.074-.055-.482-.158-.614-.238-.232-.141-.515-.5-.709-.709-.222.321.045 1.24-.206 1.464" transform="translate(83.37 -8.482)"/>
                            <path fill="#E0175A" d="M16.902 68.512c-2.376-1.189-4.102-4.198-3.418-6.31.121-.513.299-.993.518-1.449-.339.088-.663.2-.866.49-.092.133-.201.196-.323.307-.134.124-.22.273-.289.444-.093.23-.249.437-.254.691-.006.28-.043.504-.176.754-.114.215-.223.242-.191.511.047.402.237.785.332 1.183.042.181.009.299.103.464.128.228.346.404.475.634.15.268.379.406.459.694.103.374.36.836.679 1.081.232.179.374.277.55.517.114.154.211.273.377.377.258.162.446.151.625.396.096.131.174.206.296.304.206.167.342.327.608.361.313.04.616-.064.934-.027.297.034.577.152.851.017.128-.063.126-.092.277-.092l.198.024c.218-.012.409-.236.573-.357.276-.204.501-.456.679-.744-.921.636-2.294.124-3.017-.27" transform="translate(83.37 -8.482)"/>
                            <g>
                                <path fill="#FC3471" d="M.484 56.202c-.684 2.112 1.042 5.121 3.418 6.31.723.394 2.096.906 3.017.27.211-.145.291-.594.385-.819.068-.164.13-.21.122-.389-.01-.242-.05-.491-.033-.747.02-.291.052-.562-.055-.851-.095-.253-.297-.503-.354-.768-.062-.283-.015-.452-.187-.707-.149-.22-.368-.443-.453-.686-.152-.43-.211-.589-.535-.89-.134-.125-.384-.631-.564-.54-.32-.34-.581-.623-.971-.871-.138-.088-.197-.234-.325-.325-.227-.159-.578-.169-.83-.31-.325-.183-.465-.251-.854-.245-.167.002-1.188-.035-1.263.119-.219.456-.397.936-.518 1.449" transform="translate(83.37 -8.482) translate(13 6)"/>
                                <path fill="#FF5B87" d="M41.245 8.515c-.029-.296.304-.641.379-.984.098-.45.017-.485-.063-.883-.152-.766-.509-1.672-1.035-2.194-.614-.609-1.378-.609-2.002-1.224-.579-.572-.833-.758-1.618-.867-.885-.124-1.518-.773-2.427-.82-.71-.037-.918-.025-1.616-.299C32.055.927 30.74.87 30.74.87c-.352-.088-3.573.657-4.939 1.02-1.361.362-2.189 1.228-3.267 2.095-1.471 1.182-.992 2.201-1.832 3.657-.215.374-.533.519-.81.812.354.388 1.187.002 1.273.477.053.292-.406.52-.553.777.418.466.766.827 1.072 1.351.368.63.416.342.941.436.315.056.376-.16.714-.001.257.121.456.614.665.816.797.767 1.683.379 2.637.738.453.171.9.584 1.334.719.464.145.822-.028 1.326-.107.697-.11.477-.132 1.023.299.357.282.34.454.779.364.123-.025.203-.385.319-.423.324-.106.426.103.754.053.12-.018.241.142.385.127.148-.017.222-.272.312-.287.206-.036.434-.164.664-.177.552-.029.947.473 1.558.398.32-.039 1.055-.348 1.376-.465.625-.229.879-.595 1.421-.949.405-.265.829-.243 1.25-.514.779-.5 1.439-1.404 1.983-2.12 1.395.523.134-1.304.12-1.451" transform="translate(83.37 -8.482) translate(13 6)"/>
                            </g>
                            <path fill="#FF5B87" d="M14.013 43.121l-.169-.195.169.195zm14.309-11.99c-.458.151-.614.773-1.022 1.051-.841.211-.402-.927-.211-1.404-.671.11-1.52.619-2.139.099.144-.054.414-.229.564-.261-.546-.356-1.32-.267-1.907-.461-.317-.104-.602-.284-.923-.338-.566-.095-1.068.256-1.568.277-.283.013-.514-.143-.781-.111-.283.033-.593.275-.837.345-.487.138-1.084.022-1.546.271-.482.259-.475.584-.756 1.009-.235.357-.491.484-.794.793-.297.305-.418.684-.646 1.061-.466.773-1.257 1.159-1.595 2.03-.153.393-.124.797-.241 1.175-.096.307-.292.462-.373.69-.243.676-.328 1.511-.239 2.218.152 1.212-.16 2.79.775 3.695.083.218.11.467.229.669.173.293.437.519.614.821.493.845 1.3 1.061 2.169 1.447 1.388.618 2.958 1.129 4.402.381.336-.174.496-.41.882-.515.254-.068.362.174.614.062.252-.112.36-.537.544-.689.394-.325.911-.401 1.361-.709.566-.385.687-.821.976-1.445.534-1.157 1.483-1.628 1.509-2.974.007-.356-.052-.656.133-1.012.162-.311.476-.347.577-.602.089-.222.028-.704.067-.999.032-.246.147-.46.174-.716.069-.657-.405-1.049-.381-1.686.007-.196.315-.62.282-.775-.092-.436-.602-.294-.735-.675-.175-.501.784-2.142.822-2.722z" transform="translate(83.37 -8.482)"/>
                            <path fill="#FC3471" d="M23.768 32.011c-.534.136-1.087-.732-1.714-.388-.337.224-.374.831-.618.847-1.59.913-2.493 2.131-3.39 3.601-.047.104-.384.328-.576.492-.58.24-.415 1.185-.598 1.852.005.251.259.737.362 1.032.165.945-.401 1.939-.044 2.72.511 1.223 1.163 2.135 1.819 3.298l.039.117c.553.026 1.111-.026 1.662-.152 1.381-.317 2.766-1.096 3.588-2.34l.029-.043c.666-.68 1.211-1.497 1.661-2.496.556-1.236.835-2.506.862-3.707l.012-.126c.056-.762.016-1.459-.297-2.19-.125-.434-.291-.845-.493-1.225.01-.151.018-.308-.084-.516-.081-.165-.39-.649-.487-.774l-.004-.005c-.566-.264-1.129-.171-1.729.003" transform="translate(83.37 -8.482)"/>
                            <path fill="#E0175A" d="M24.712 31.545c-.127-.042-.243-.089-.354-.138-.195-.126-.4-.239-.617-.335l-.201-.081-.144-.068c-.191-.085-.31-.107-.427-.113-.372-.091-.753-.136-1.137-.137-.241-.034-.467-.036-.747.05-.729.103-1.46.357-2.159.741-.375.129-.859.5-1.293.896-.754.639-1.434 1.442-1.988 2.38-.124.188-.236.367-.325.524-.552.97-.951 1.44-.878 2.594.041.645-.312 1.069-.356 1.659-.049.645.278 1.65.422 2.265.159.676.659 1.365.584 2.086.596.337 1.112 1.204 1.684 1.462.512.231 1.391.172 1.959.23.104.01.208.017.313.022l-.039-.117c-.656-1.163-1.308-2.075-1.819-3.298-.357-.781.209-1.775.044-2.72-.103-.295-.357-.781-.362-1.032.183-.667.018-1.612.598-1.852.192-.164.529-.388.576-.492.897-1.47 1.8-2.688 3.39-3.601.244-.016.281-.623.618-.847.627-.344 1.18.524 1.714.388.6-.174 1.163-.267 1.729-.003-.324-.418-.252-.288-.785-.463" transform="translate(83.37 -8.482)"/>
                            <path fill="#FF76A0" d="M84.297 33.47l.191.351c-.088-.12-.147-.236-.191-.351zm-21.653 2.855c.648.175.978-.418 1.583-.427 1.178.398.365 1.365.015 1.766.929.383 2.174.444 2.911 1.508-.205-.047-.603-.052-.813-.129.67.82 1.733 1.306 2.49 1.973.408.359.758.781 1.183 1.086.747.538 1.492.517 2.173.872.384.2.667.553 1.034.72.389.176.854.134 1.198.24.686.211 1.469.796 2.142.862.702.069.755-.307 1.217-.581.386-.229.757-.179 1.226-.304.46-.122.697-.464 1.078-.723.779-.529 1.922-.371 2.547-1.11.282-.334.321-.817.552-1.16.188-.279.483-.307.638-.506.457-.589.734-1.478.75-2.354.027-1.501.754-3.068-.337-4.811-.07-.313-.059-.618-.181-.939-.177-.465-.49-.924-.671-1.404-.505-1.34-1.555-2.198-2.654-3.298-1.758-1.759-3.783-3.534-5.878-3.774-.488-.055-.75.093-1.292-.08-.356-.114-.456-.472-.818-.535-.362-.064-.591.34-.868.374-.595.073-1.31-.232-1.977-.222-.839.012-1.087.417-1.597.912-.946.918-2.319.737-2.614 2.255-.078.402-.055.79-.374 1.056-.279.232-.711.036-.896.25-.163.188-.173.785-.283 1.092-.091.257-.288.414-.373.687-.22.697.345 1.505.19 2.215-.048.219-.545.471-.531.672.041.569.759.793.865 1.329.139.706-1.473 1.853-1.635 2.488z" transform="translate(83.37 -8.482)"/>
                            <path fill="#FC3471" d="M68.97 38.773c.748.248 1.328 1.66 2.242 1.742.499 0 .666-.666.998-.5 2.327.163 3.781-.545 5.278-1.544.083-.083.582-.084.872-.126.831.165.791-1.04 1.165-1.664.042-.29-.207-1.038-.29-1.453-.041-1.205.915-1.913.584-3.076-.456-1.786-1.162-3.322-1.825-5.15l-.03-.162c-.743-.45-1.507-.814-2.277-1.087-1.927-.685-3.95-.845-5.301-.046l-.048.026c-1.031.273-1.925.794-2.725 1.595-.991.991-1.612 2.231-1.879 3.583l-.041.136c-.223.827-.302 1.655-.02 2.728.085.591.23 1.185.43 1.774-.043.164-.083.337.014.653.077.25.403 1.038.509 1.253l.005.009c.714.731 1.494 1.053 2.339 1.309" transform="translate(83.37 -8.482)"/>
                            <path fill="#E0175A" d="M67.603 38.589c.164.145.312.286.452.427.24.291.495.576.77.85l.256.245.182.187c.242.242.399.358.555.453.486.387.992.726 1.512 1.019.318.221.623.395 1.019.509 1.006.435 2.042.699 3.061.789.532.138 1.257.08 1.921-.043 1.142-.158 2.216-.56 3.146-1.213.204-.121.389-.24.541-.352.933-.691 1.562-.924 1.686-2.299.068-.769.627-.986.801-1.626.19-.701-.058-2.098-.135-2.91-.085-.893-.627-2.06-.388-2.826-.741-.838-1.271-2.219-1.995-2.949-.648-.652-1.847-1.251-2.604-1.747-.139-.091-.279-.178-.419-.263l.03.162c.663 1.828 1.369 3.364 1.825 5.15.331 1.163-.625 1.871-.584 3.076.083.415.332 1.163.29 1.453-.374.624-.334 1.829-1.165 1.664-.29.042-.789.043-.872.126-1.497.999-2.951 1.707-5.278 1.544-.332-.166-.499.5-.998.5-.914-.082-1.494-1.494-2.242-1.742-.845-.256-1.625-.578-2.339-1.309.358.724.286.521.972 1.125" transform="translate(83.37 -8.482)"/>
                            <path fill="#FF6393" d="M71.043 70.647c.251.055.233.446.369.478.29.066.175-.082.432-.111.494-.055.563-.201 1.14-.029.554.166.937.401 1.544.369 1.148-.06 1.941-.73 2.799-1.114.921-.412 1.135-1.016 1.472-1.928 1.223.1.823-1.329 1.011-1.965.118-.397.266-.699.058-1.115-.077-.152-.304-.409-.556-.633-.002-.22.091-.441.045-.649-.082-.372-.183-.433-.461-.718-.359-.366-.363-.506-.651-.894-.38-.514-1.068-.445-1.339-.994-.3-.607.362-1.212.116-1.796-.462.249-.37.944-.896 1.124-.593.203-.605-.853-.462-1.233-.987.014-.56 2.172-1.778 1.198-.193.652-.302.493-.996.381-.106.179-.184.414-.325.567-.287.313-.19.132-.595.298-.806.33-.386.694-.863 1.214-.246.267-.967.138-1.254.422-.467.463.135.549.096 1.007-.058.68-1.229.253-1.594.742.669.253 1.482.117 2.118.399.105.485-.4.664-.761.901.274.14.612.26.899.159.497.655-.662.694-1.008.978-.361.296-.436.882-.541 1.323.371-.15.735-.109 1.109-.173-.423.232-.514.647-.489.986.006.074.19.394.214.517.043.218-.045.564-.078.785.381.01.898-.568 1.225-.496" transform="translate(83.37 -8.482)"/>
                            <path fill="#E0175A" d="M76.914 64.4c.626 2.116-.522 4.584-2.536 5.04-.461.141-.933.23-1.413.28.281.19.571.36.918.37.157.005.274.051.435.084.177.037.344.031.516.003.231-.037.485-.023.678-.129.213-.118.405-.19.676-.209.233-.016.323.045.504-.093.269-.206.435-.5.673-.737.107-.107.217-.135.281-.27.088-.186.08-.409.17-.596.104-.217.062-.431.226-.609.214-.232.395-.606.376-.927-.015-.234-.032-.372.035-.594.043-.144.069-.261.041-.418-.043-.244-.172-.366-.102-.592.036-.122.042-.207.038-.332-.007-.211.027-.372-.117-.566-.17-.228-.441-.387-.616-.617-.164-.215-.254-.455-.53-.58-.129-.059-.15-.045-.245-.147l-.108-.144c-.149-.141-.437-.173-.633-.23-.328-.098-.66-.14-.989-.135 1.063.344 1.555 1.491 1.722 2.148" transform="translate(83.37 -8.482)"/>
                            <path fill="#FF436C" d="M74.378 69.44c2.014-.456 3.162-2.924 2.536-5.04-.167-.657-.659-1.804-1.722-2.148-.242-.079-.629.062-.857.096-.166.025-.239.004-.368.086-.175.112-.336.248-.538.347-.23.113-.453.209-.6.407-.129.173-.187.418-.348.571-.173.165-.329.207-.41.433-.069.196-.097.44-.223.603-.225.288-.307.397-.325.746-.007.145-.226.532-.044.614-.05.363-.095.662-.032 1.032.022.131-.049.234-.035.36.026.222.242.463.297.693.071.298.109.422.361.682.108.111.732.815.895.798.48-.05.952-.139 1.413-.28" transform="translate(83.37 -8.482)"/>
                        </g>
                    </g>
                </g>
            </g>
            <g filter="url(#prefix__h)" mask="url(#prefix__d)">
                <g>
                    <path fill="#383768" d="M74.748 36.06s-1.603-1.402-2.996-3.38c-1.392-1.977-3.25-2.111-5.253-1.03-2.003 1.082-14.579 13.591-19.105 18.026-4.526 4.436-7.268 8.476-8.847 9.312-.708.375-1.441-.178-2.034-.9-1.222 1.953-1.896 3.655-1.413 4.752 1.959 4.449 4.836 10.612 5.513 11.447L85.352 44.65s-5.341-7.325-9.058-12.46l-1.546 3.87" transform="translate(159 42.768)"/>
                    <path fill="#646296" d="M38.547 58.988c1.579-.836 4.321-4.876 8.847-9.312 4.526-4.435 17.102-16.944 19.105-18.026 2.003-1.081 3.861-.947 5.253 1.03 1.393 1.978 2.996 3.38 2.996 3.38l1.546-3.87c-.745-1.03-1.427-1.973-1.985-2.75-3.344-4.65-7.13-2.821-10.394-.401-3.264 2.421-18.321 17.536-21.989 21.964-1.947 2.35-4.031 4.878-5.413 7.085.593.722 1.326 1.275 2.034.9" transform="translate(159 42.768)"/>
                    <path fill="#403E9C" d="M19.606 68.78l-4.817-6.541s-2.804-.916-8.642 4.527C.31 72.209-.705 75.368.813 77.917c1.518 2.549 11.903-3.157 11.903-3.157l6.89-5.98" transform="translate(159 42.768)"/>
                    <path fill="#FFFFFE" d="M120.496 34.104s-13.158 5.934-17.076 6.203c-3.918.27-28.7-3.298-28.7-3.298-4.042.015-12.363-1.103-13.117-1.843-1.021-1.987.228-4.611.191-8.359-.037-3.749-.119-10.159-.119-10.159l-6.05-.095c-.475 2.249-1.715 7.796-2.999 10.816-1.634 3.846-2.114 6.881-2.263 8.845-.148 1.964-.017 4.691 1.562 4.247 1.579-.444 4.599-.974 4.855-.052.255.922.349 1.177-1.629 1.325-1.978.146-2.723 1.847-.275 1.903 2.447.056 5.414.562 3.785 1.886-1.629 1.325-2.509 1.299-.983 2.292 1.526.992 9.535.664 9.535.664s-.433 3.626-6.369 5.017c.094-.067-8.005 4.049-13.987 8.708-7.561 5.887-17.518 15.802-17.518 15.802l-10.18-10.44s-2.134-.629-5.307 2.585c-1.484 1.503-2.336 2.908-2.826 4.01 3.957 5.188 14.518 18.834 17.477 20.631 4.019 2.442 7.129-.154 10.457-1.874 5.259-2.719 7.536-4.665 10.162-7.59 2.626-2.925.385-3.486-1.556-5.537-1.941-2.051-2.583-4.728-.036-2.906 2.096 1.499 2.039 2.757 4.677 4.835 1.408 1.11.309-2.944-.365-5.963-.675-3.018 2.265-2.72 2.94.298.674 3.018 1.252 4.983.622 6.231-1.017 2.015-1.104 1.93-4.043 5.189-2.939 3.258-7.476 6.602-7.476 6.602s2.484 3.508 5.375 4.478c2.89.971 7.527-1.971 12.286-7.858 4.759-5.888 6.909-9.146 13.149-15.361 6.241-6.214 11.932-10.906 13.99-14.653 2.059-3.747 4.733-4.11 8.286-5.297 3.553-1.187 7.622-3.747 8.017-4.328.395-.581.181-2.696.191-3.336.026-1.63.965-1.734 1.507-.458.349.823 1.195 2.658 2.234 1.622 1.04-1.035 1.237-1.261-.017-2.897-1.255-1.635.038-1.867.933-1.107.896.759 1.579 2.216 1.689 3.699.11 1.484 4.988-3.213 8.017-5.634 1.79-1.43 3.499-2.69 4.947-3.822l-3.993-5.021" transform="translate(159 42.768)"/>
                    <path fill="#E4E6EB" d="M67.213 48.479s-8.009.328-9.535-.664c-1.526-.993-.646-.967.983-2.292 1.629-1.324-1.338-1.83-3.785-1.886-2.448-.056-1.703-1.757.275-1.903 1.978-.148 1.884-.403 1.629-1.325-.256-.922-3.276-.392-4.855.052-1.579.444-1.71-2.283-1.562-4.247.149-1.964.629-4.999 2.263-8.845 1.284-3.02 2.524-8.567 2.999-10.816l-2.053-.032S49.36 27.17 48.758 32.638c-.364 3.307-1.153 10.32 2.3 13.359 1.774 1.562 9.786 7.499 9.786 7.499 5.936-1.391 6.369-5.017 6.369-5.017M30.144 99.296c5.807 1.017 11.287-3.161 11.287-3.161s2.169 6.11 8.655 6.073c6.897-.038 21.631-18.216 23.348-20.802 3.33-5.016 11.735-13.105 13.777-15.19 2.744-2.802 4.096-5.754 8.7-7.827 2.81-1.266 13.209-6.979 16.865-8.381 3.655-1.401 12.722-9.614 12.722-9.614l-1.009-1.269c-1.448 1.132-3.157 2.392-4.947 3.822-3.029 2.421-7.907 7.118-8.017 5.634-.11-1.483-.793-2.94-1.689-3.699-.895-.76-2.188-.528-.933 1.107 1.254 1.636 1.057 1.862.017 2.897-1.039 1.036-1.885-.799-2.234-1.622-.542-1.276-1.481-1.172-1.507.458-.01.64.204 2.755-.191 3.336s-4.464 3.141-8.017 4.328c-3.553 1.187-6.227 1.55-8.286 5.297-2.058 3.747-7.749 8.439-13.99 14.653-6.24 6.215-8.39 9.473-13.149 15.361-4.759 5.887-9.396 8.829-12.286 7.858-2.891-.97-5.375-4.478-5.375-4.478s4.537-3.344 7.476-6.602c2.939-3.259 3.026-3.174 4.043-5.189.63-1.248.052-3.213-.622-6.231-.675-3.018-3.615-3.316-2.94-.298.674 3.019 1.773 7.073.365 5.963-2.638-2.078-2.581-3.336-4.677-4.835-2.547-1.822-1.905.855.036 2.906s4.182 2.612 1.556 5.537c-2.626 2.925-4.903 4.871-10.162 7.59-3.328 1.72-6.438 4.316-10.457 1.874-2.959-1.797-13.52-15.443-17.477-20.631-.622 1.401-.659 2.314-.659 2.314s13.97 21.804 19.777 22.821" transform="translate(159 42.768)"/>
                    <path fill="#FFFFFE" d="M98.901 38.051s3.675-7.614-5.079-12.315c-8.754-4.7-14.078-1.918-16.337.315-4.613 4.559-4.217 10.139-2.762 14.08.787 2.131 3.692 7.435 9.178 6.386 5.485-1.049 15-8.466 15-8.466" transform="translate(159 42.768)"/>
                    <path fill="#92938F" d="M99.14 38.439c.552-1.782.511-4.624.511-4.624s-.894-4.854-7.07-6.845c-6.547-2.111-11.165.282-13.938 4.582-2.088 3.236-1.106 7.585.521 10.151 1.96 3.089 8.142 5.245 11.786 4.939 3.166-.265 6.777-5.292 6.777-5.292s1.182-2.168 1.413-2.911" transform="translate(159 42.768)"/>
                    <path fill="#0B0E16" d="M81.049 42.18c1.947 1.85 4.861 2.856 8.337 3.288 6.034.751 9.009-4.018 9.515-7.417.592-3.966-.966-6.912-3.932-8.831-8.942 2.624-12.526 8.24-13.92 12.96" transform="translate(159 42.768)"/>
                    <path fill="#14142F" d="M91.311 27.564c-6.37-1.945-13.312 3.403-12.816 9.046.211 2.392 1.122 4.209 2.554 5.57 1.394-4.72 4.978-10.336 13.92-12.96-1.053-.681-2.28-1.236-3.658-1.656" transform="translate(159 42.768)"/>
                    <path fill="#403E9C" d="M48.473 60.677s6.584 13.462 14.813 17.186c6.558 2.968 11.287 1.957 11.287 1.957l4.413-5.076s-9.592-.107-15.06-5.5c-5.294-5.222-10.535-11.905-10.535-11.905l-4.918 3.338" transform="translate(159 42.768)"/>
                    <path fill="#646296" d="M50.932 59.295s4.551 7.801 7.115 11.626c4.359 6.503 17.362 7.843 17.362 7.843l1.55-1.846s-10.503-.274-16.741-6.803c-4.282-4.483-7.499-11.976-7.499-11.976l-1.787 1.156" transform="translate(159 42.768)"/>
                    <path fill="#403E9C" d="M53.572 16.521s.432-4.414 1.45-8.128C56.04 4.68 56.857 1.376 59.421.847c2.563-.53 4.456 1.066 4.267 5.288-.189 4.222-2.013 10.513-2.013 10.513s-5.047.682-8.103-.127M120.496 34.104s5.84-3.667 8.486-5.55c2.647-1.882 8.513-2.733 9.556-.068 1.043 2.664-2.964 3.78-5.171 5.675-1.551 1.333-7.869 6.233-7.869 6.233s-4.775-2.308-5.002-6.29M32.576 74.858s3.417 7.454 7.04 10.912c3.622 3.458 6.759 6.348 6.759 6.348l1.639-1.395s-3.314-2.681-7.256-6.129c-3.941-3.448-7.42-10.464-7.42-10.464l-.762.728M49.663 89.213s3.408 3.453 5.58 4.673c2.172 1.22 5.736 1.55 5.736 1.55l1.234-1.183s-4.321-.269-6.699-1.999c-2.379-1.73-4.989-3.894-4.989-3.894l-.862.853" transform="translate(159 42.768)"/>
                    <path fill="#FFFFFE" d="M3.444 76.262c.362 1.6 3.83-.678 6-1.519.194-1.27 2.488-4.485 3.157-5.822-2.733 1.059-9.896 4.077-9.157 7.341" transform="translate(159 42.768)"/>
                    <path fill="#383768" d="M73.656 36.991s.813 6.84 3.899 8.624c3.085 1.784 7.904 4.323 10.384 3.171 2.479-1.152 4.49-2.547 4.49-2.547s-3.108 3.541-4.596 4.233c-1.487.692-6.927-1.468-9.851-3.103-2.923-1.634-3.8-3.344-4.708-5.947-.594-1.7-.855-4.505-.855-4.505l1.237.074" transform="translate(159 42.768)"/>
                </g>
            </g>
            <path stroke="#FFF" stroke-width="3" d="M234.266 185.768v-9.857c0-10.865 7.514-34.405 32.611-31.317 16.732 2.059 24.49-6.353 23.276-25.236" mask="url(#prefix__d)" transform="matrix(-1 0 0 1 524.542 0)"/>
            <use fill="#000" fill-rule="nonzero" opacity=".2" xlink:href="#prefix__i"/>
        </g>
    </g>
</svg>
