<svg xmlns="http://www.w3.org/2000/svg" xmlns:xlink="http://www.w3.org/1999/xlink" width="382" height="217" viewBox="0 0 382 217">
    <defs>
        <filter id="a" width="126.3%" height="149.7%" x="-13.1%" y="-24.9%" filterUnits="objectBoundingBox">
            <feOffset dy="8" in="SourceAlpha" result="shadowOffsetOuter1"/>
            <feGaussianBlur in="shadowOffsetOuter1" result="shadowBlurOuter1" stdDeviation="8"/>
            <feColorMatrix in="shadowBlurOuter1" result="shadowMatrixOuter1" values="0 0 0 0 0.384313725 0 0 0 0 0.211764706 0 0 0 0 1 0 0 0 0.301081731 0"/>
            <feMerge>
                <feMergeNode in="shadowMatrixOuter1"/>
                <feMergeNode in="SourceGraphic"/>
            </feMerge>
        </filter>
        <rect id="b" width="350" height="185" rx="10"/>
        <rect id="d" width="350" height="185" rx="10"/>
    </defs>
    <g fill="none" fill-rule="evenodd" filter="url(#a)" transform="translate(16 8)">
        <mask id="c" fill="#fff">
            <use xlink:href="#b"/>
        </mask>
        <use fill="#6236FF" fill-rule="nonzero" xlink:href="#b"/>
        <g mask="url(#c)">
            <path fill="#565A7A" d="M209.135 133.413h7.06a.788.788 0 0 0 0-1.576h-7.06a.788.788 0 1 0 0 1.576M209.135 113.954h7.06a.788.788 0 1 0 0-1.576h-7.06a.788.788 0 0 0 0 1.576M209.135 95.179h7.06a.788.788 0 1 0 0-1.576h-7.06a.788.788 0 1 0 0 1.576M209.135 76.062h7.06a.788.788 0 1 0 0-1.576h-7.06a.788.788 0 0 0 0 1.576"/>
            <path fill="#FFF" d="M209.775 81.808c.112-.076.815.11 1.196.117.38.007.851-.037 1.062.102.21.14-.295.832-1.136.814-.841-.019-1.52-.76-1.122-1.033"/>
            <path fill="#F0805B" d="M208.769 86.245a6.041 6.041 0 0 0-.066.251.596.596 0 0 1-.389-.269c-.33-.495-.85-.992-1.354-1.598-.503-.602.06-1.005.318-.899.257.11 1.873 1.276 1.873 1.276-.065.21-.155.467-.215.674-.06.193-.118.383-.167.565"/>
            <path fill="#FFA37A" d="M205.928 77.096c.005-.057-.079-.895-.518-1.039-.439-.143-1.31.508-1.14 2.015.066.595.715 1.236.746 1.252l.912-2.228"/>
            <path fill="#FFF" d="M231.961 85.327a1.262 1.262 0 0 1-1.262-1.263v-5.306c0-.118.095-.214.214-.214h2.097c.118 0 .214.096.214.214v5.306c0 .697-.566 1.263-1.263 1.263"/>
            <path fill="#FFF" d="M231.719 89.891h.485v-5.549h-.485z"/>
            <path fill="#FFCF87" d="M232.06 84.851h-.197a.836.836 0 0 1-.836-.835v-2.733c0-.095.077-.172.171-.172h1.527c.094 0 .17.077.17.172v2.733a.836.836 0 0 1-.835.835"/>
            <path fill="#FFA37A" d="M188.743 164.116s-.618.518-1.455 4.042c-.322 1.355-.314 2.08-.434 2.383-.12.304-1.001-.587-2.228-2.582-1.226-1.995-1.508-3.977-.792-4.914.716-.936 3.552-2.646 3.552-2.646l1.619 1.556-.262 2.161"/>
            <path fill="#2B1E18" d="M185.748 161.46s-1.17 1.616-1.256 3.071c-.087 1.455 2.575 4.912 2.554 5.045-.02.133.158 2.254-.1 2.553-.257.3-.749.642-1.087.44-.338-.201-3.099-4.389-3.295-4.723-.197-.334.913-2.635.772-2.823-.14-.189-2.008 1.102-2.008 1.102l-.371-.497s1.528-1.065 2.038-1.954c.51-.89 2.753-2.213 2.753-2.213"/>
            <path fill="#FFA37A" d="M210.985 146.72c-.228-2.91-.328-4.496-.5-4.695-.17-.2-6.793 1.351-7.106 2.036-.314.685-.07 4.013-.214 4.893-.19 1.146-2.076 1.754-3.103 2.375-2.37 1.432-1.99 2.109-12.58 9.008-1.746 1.138-1.79 2.94-1.845 3.82-.054.879 1.27 1.03 3.106-.04 1.836-1.07 18.173-7.988 20.797-11.07 1.154-1.354 1.673-3.417 1.445-6.327M219.012 149.168s-5.428 26.075-5.672 28.186c-.244 2.111-1.158 3.08-1.83 2.51-.67-.57-2.152-1.692-1.951-3.766 1.342-13.807.06-17.402.915-20.483.854-3.081 1.83-6.79 1.83-6.79l6.708.343M197.644 97.313s-5.135 7.179-5.691 7.735c-.556.557-1.455 3.766.385 4.494 1.84.727 2.975-.728 4.697-2.61 1.722-1.884 4.632-5.607 4.632-5.607l-4.023-4.012M224.53 96.243s5.135 7.18 5.691 7.736c.557.556 1.455 3.765-.385 4.493-1.84.727-2.975-.728-4.697-2.61-1.722-1.883-4.632-5.606-4.632-5.606l4.023-4.013"/>
            <path fill="#DB2E2E" d="M201.382 122.579s-.856 6.676-.799 11.411c.057 4.736-.231 10.442.398 11.126.629.685 4.634 4.622 11.304 5.079 6.67.456 7.526-.457 7.697-.856.171-.4 2.209-11.917 2.625-18.259.456-6.96-.228-10.384-.228-10.384l-20.997 1.883"/>
            <path fill="#54230C" d="M207.381 69.725s1.723-1.245 4.029-.821c2.305.424 3.872.742 6.069 2.411 1.987 1.511 1.011 4.825 1.713 5.53 1.59 1.6 1.785 3.56.3 5.018-1.116 1.096-.556 4.505-3.27 4.627-1.644.073-2.196-1.146-2.345-2.03-.201-1.193-5.33-1.804-5.992-2.108-.663-.304-2.209-1.628-2.72-3.908-.513-2.279-.593-5.485.123-7.049.715-1.564 2.093-1.67 2.093-1.67"/>
            <path fill="#FFA37A" d="M215.57 70.759s1.353.715 1.352 4.532c-.001 3.465-.141 4.796-.53 5.962-.389 1.167-2.058 3.601-3.154 3.814-.577.111-4.717-1.455-5.636-2.232-.918-.778-2.155-4.594-2.155-7.067 0-2.474 2.314-5.937 4.293-6.573 1.979-.636 5.83 1.564 5.83 1.564"/>
            <path fill="#FFA37A" d="M217.456 89.308l-5.53 7.607-1.632.397-8.668-5.645s2.232-1.246 2.763-1.694c.523-.452 1.985-1.75 2.184-3.79.198-2.044 0-6.176 0-6.176s4.248.74 4.337.818c.09.082 1.948 2.071 1.948 2.071s-.02.428-.041 1.03c-.014.33-.024.706-.03 1.093-.004.219-.008.438-.008.654-.003.201-.007.4-.003.589 0 .089.003.178.007.26.007.342.02.633.051.825.15.979 4.622 1.961 4.622 1.961"/>
            <path fill="#2B1E18" d="M215.729 77.462c-.04-.031-.093-.043-.161-.025-.25.067-.245.56-.147.74.13.24.384.067.419-.183.017-.127.018-.43-.111-.532M210.133 77.306c-.043-.034-.098-.047-.17-.027-.265.071-.26.594-.157.785.139.254.407.07.444-.195.02-.133.02-.455-.117-.563"/>
            <path fill="#F0805B" d="M214.341 79.598c-.11-.469-.363-.956-.56-1.393-.11-.249-.476-.034-.366.214.157.35.298.713.432 1.071.061.164.1.252.032.423-.057.14-.144.263-.215.395-.155.115-.04.423.194.372.173-.037.285-.362.356-.495.107-.198.182-.359.127-.587"/>
            <path fill="#FFF" d="M212.094 81.422c.06-.05.328-.03.615-.01.208.015.427.03.586.018.38-.028.844-.114 1.066.006.223.12-.218.855-1.058.913-.839.058-1.581-.62-1.21-.927"/>
            <path fill="#54230C" d="M211.024 76.18c-.12-.28-.193-.23-1.03-.213-.839.015-1.162.49-.985.513.177.023 1.167.052 1.617.05.45-.001.45-.227.398-.35M214.723 76.2c.13-.275.2-.223 1.037-.18.837.044 1.145.529.967.546-.178.018-1.168.014-1.618-.002-.45-.016-.443-.243-.386-.363"/>
            <path fill="#54230C" d="M207.673 72.031s1.475 1.608 4.36 2.058c2.22.347 3.422.583 4.36 1.22.455.309.529 1.307.529 1.307s.344-3.101.318-3.18c-.027-.08-.98-2.412-.98-2.412s-2.141-1.378-2.383-1.405c-.241-.026-3.618-.9-3.618-.9l-2.586 1.536-.848 1.22.848.556"/>
            <path fill="#54230C" d="M209.21 72.738s.371.283-.424 1.484c-.795 1.201-1.166 1.837-1.626 2.933-.459 1.095-.547 3.994-.547 3.994l-.83-1.759-.619-3.532.601-2.944 1.148-1.749s1.326.318 1.379.354c.052.035.918 1.219.918 1.219"/>
            <path fill="#FFA37A" d="M207.885 77.864c0-.058-.159-.884-.61-.988-.45-.103-1.258.624-.954 2.11.12.586.825 1.166.856 1.18.032.012.708-2.302.708-2.302"/>
            <path fill="#54230C" d="M210.676 69.522s1.958-2.553-1.38-3.675c-1.568-.527-2.383-1.325-3.85-1.077-1.466.247-2.56 1.342-2.738 2.756-.176 1.413-1.166 1.926-.918 3.763.247 1.837 1.305 2.374 2.562 2.385 1.256.011 5-1.855 5.105-1.926.106-.07 1.22-2.226 1.22-2.226"/>
            <path fill="#DB2E2E" d="M204.23 90.094s2.395 3.057 6.813 2.156c4.046-.826 4.835-3.349 4.835-3.349s2.938.027 3.786.451c.848.424 1.46 2.987 1.59 5.177.09 1.515.22 5.627-.36 10.134-.573 4.47-1.73 10.026-2.367 12.093-.636 2.067-12.379.846-13.81.582 0 0 1.333-3.381-.151-7.197-1.484-3.816-5.043-16.248-4.884-17.255.159-1.008 4.549-2.792 4.549-2.792"/>
            <path fill="#DB2E2E" d="M207.793 109.674l-.558.09c-.257.341-2.701 3.597-5.012 6.992-2.31 3.395-2.81 6.48-2.125 7.078.684.6.941.314 2.71.827 1.769.514 2.54 1.341 4.764 1.17 2.226-.17 1.74-1.769 5.963-.827 4.222.941 4.65.941 6.219.314 1.569-.628.4-.657 2.34-.6 1.94.058 2.224-.142 2.567-.598.342-.457-.2-3.452-1.17-6.334-.97-2.881-3.413-5.69-3.394-6.333.053-1.922.153-2.594.153-2.594s-7.431-1.23-7.772-1.2c-.341.028-4.685 2.015-4.685 2.015M199.814 92.597s-1.613 2.823-2.426 4.192c-.813 1.37-.141 2.012 1.213 3.894 1.354 1.883 1.477 3.895 2.592 3.723 1.116-.17 2.228-3.765 2.228-3.765l-3.607-8.044M219.586 89.317s.755.13 2.194 2.123c1.924 2.667 2.97 4.33 2.984 4.793.05 1.669-.374 2.525-.93 4.836-.557 2.31-.834 3.215-1.788 2.688-.987-.543-2.706-.937-2.834-1.447-.128-.51.374-12.993.374-12.993"/>
            <path fill="#FFA37A" d="M193.964 104.663s-.3-.085-3.98-2.653-5.905-4.388-6.461-4.697c-.557-.31-1.947.953-1.819 1.68 0 0 4.892 6.19 6.682 8.038 1.784 1.84 4.169 2.587 4.169 2.587l2.522-2.687-1.113-2.268"/>
            <path fill="#FFA37A" d="M183.523 97.313s.257-.48.364-1.422c.106-.942-.214-1.776-.364-2.525-.15-.749-.064-1.476-.45-1.091-.385.385-.278 1.883-.427 2.204-.15.32-.899-.514-1.99-1.69-1.091-1.178-2.59-1.156-2.803-.835-.214.32 0 1.412.663 2.781.663 1.37 3.188 4.258 3.188 4.258l1.584-.77.235-.91M226.362 102.912s.207-.233 1.933-4.375c1.727-4.142 2.626-6.872 2.93-7.432.303-.56 2.154-.241 2.436.441 0 0-.816 7.844-1.504 11.363-.589 3.01-1.458 4.75-1.458 4.75l-4.058-2.236-.279-2.51"/>
            <path fill="#FFA37A" d="M231.224 91.105s-.183-.276-.779-1.013c-.596-.736-.945-1.184-.899-1.947.065-1.048 1.43-2.14 1.974-2.145.723-.008 2.151-.05 2.327 1.46.176 1.512-.186 4.086-.186 4.086l-1.75.2-.687-.64M213.34 177.354s.043.805 2.363 3.588c.892 1.07 1.476 1.497 1.648 1.775.17.279-1.07.45-3.403.236-2.332-.214-4.087-1.177-4.408-2.311-.32-1.134.01-4.43.01-4.43l2.216-.363 1.574 1.505"/>
            <path fill="#2B1E18" d="M209.419 178.16s.592 1.904 1.705 2.846c1.113.941 5.476.882 5.57.979.093.096 1.897 1.225 1.983 1.61.086.385.064.984-.3 1.134-.363.15-5.37-.15-5.755-.193-.385-.043-1.562-2.31-1.797-2.31-.236 0-.322 2.267-.322 2.267h-.62s.063-1.861-.343-2.803c-.406-.941-.121-3.53-.121-3.53M204.936 111.292s4.548.24 8.057.118c3.473-.12 7.07-.942 7.128-.742.057.2.386 1.68.386 1.68s-3.463.731-7.742.788c-4.28.057-8.138.185-8.074.097.063-.088.245-1.94.245-1.94M185.959 98.678c-.167.272-.16.663-.442 1.819-.356 1.464-1.2 2.71-.913 3.023.288.314.869-.198 1.347-2.085s.644-2.335.534-2.655c-.047-.137-.443-.239-.526-.102"/>
            <path fill="#2B1E18" d="M186.333 98.95c-.166.272-.16.663-.442 1.819-.356 1.464-1.2 2.71-.912 3.023.287.314.869-.198 1.347-2.085.477-1.888.644-2.335.533-2.655-.047-.137-.442-.24-.526-.102"/>
            <path fill="#2B1E18" d="M185.582 98.47c-.166.272-.16.663-.442 1.819-.357 1.463-1.2 2.71-.913 3.023.288.314.869-.198 1.347-2.085.477-1.888.644-2.335.533-2.656-.046-.136-.442-.238-.525-.1"/>
            <path fill="#BF0000" d="M222.12 124.91c-.522.157-.935.606-1.5.643-.53.034-.844-.382-1.3-.565-.667-.27-1.548-.292-2.218-.007-.45.19-.665.458-1.173.48-.679.028-1.27-.074-1.882-.374-.544-.265-1.069-.648-1.693-.697-.9-.07-1.775.492-2.61.733-.756.218-1.256.114-1.962-.228-.42-.204-.821-.475-1.271-.617-.765-.241-1.661-.073-2.4.18-.553.187-1.154.309-1.738.16-.352-.09-.486-.267-.791-.418-.197-.098-.37.198-.173.296.241.12.415.346.681.435.345.115.804.098 1.159.068 1.076-.09 2.05-.736 3.171-.39.94.289 1.732 1.118 2.772 1.01.967-.1 1.801-.76 2.768-.859.879-.089 1.623.528 2.401.828.671.259 1.683.423 2.33.043.52-.304.985-.534 1.612-.514.687.022 1.084.375 1.666.65.918.436 1.42-.28 2.241-.527.21-.063.121-.394-.09-.33M221.258 92.988c-.144-.805-.252-1.692-.77-2.353-.135-.174-.376.07-.241.242.59.753.655 1.98.804 2.89.191 1.162.187 2.325.174 3.499-.01.911.027 1.824-.043 2.734-.068.895-.3 1.749-.301 2.652 0 .22.342.22.342 0 .002-.972.258-1.911.308-2.878.06-1.151.049-2.31.05-3.465.002-1.126-.124-2.216-.323-3.32M200.58 92.425a.18.18 0 0 0-.154-.129l-.026-.003c-.125-.015-.218.158-.148.258 2.087 2.956 1.971 6.427 1.971 9.887 0 .22.343.22.343 0 0-3.5.097-7.02-1.987-10.013"/>
            <path fill="#F0805B" d="M212.776 86.262c0 .089.003.178.007.26a.595.595 0 0 1-.449-.15c-.455-.384-1.092-.716-1.746-1.158-.65-.438-.222-.982.055-.952.277.035 2.143.757 2.143.757-.003.219-.007.438-.007.654-.003.201-.007.4-.003.589"/>
            <path fill="#FFF" d="M231.961 90.131l-1.022.731c-.07.05-.034.159.05.159h1.944c.085 0 .12-.11.05-.159l-1.022-.73"/>
            <path fill="#FFF" d="M231.719 90.718h.485v-.813h-.485z"/>
            <path fill="#FFA37A" d="M253.25 53.648c.882-.75 1.293-1.764 1.786-2.557.492-.793.87-1.253.342-1.498-.604-.282-1.653 1.596-2.055 1.758-.402.16-.373-1.21-.363-3.172.01-1.963-1.419-2.711-1.878-2.604-.459.108-1.51.511-1.927 2.508-.382 1.821-.446 6.51-.446 6.51l1.926 1.519s1.733-1.713 2.615-2.464M286.66 57.28c-.173-1.146.18-2.18.328-3.102.15-.922.165-1.516.725-1.356.64.184.201 2.29.399 2.675.198.386 1.074-.669 2.354-2.157 1.279-1.488 2.848-1.117 3.124-.734.276.382.805 1.375-.189 3.157-.906 1.625-3.931 5.207-3.931 5.207l-2.45-.115s-.185-2.43-.36-3.575M258.065 77.42l.48 7.028 2.62 3.274 4.059-2.969.218-6.33-7.377-1.004"/>
            <path fill="#FFA37A" d="M268.372 70.824c-.031.352-.065.693-.1 1.028-.017.15-.032.303-.05.449-.314 2.804-1.4 5.472-1.754 6.007-.328.494-2.993 2.693-4.605 2.735-.605.017-3.723-2.443-4.342-3.521-.83-1.445-.865-5.592-.635-8.136.233-2.544 2.572-5.035 4.667-5.503 2.093-.471 5.85 2.151 5.85 2.151s1.325.862.97 4.79M277.71 176.066s.829 2.549.829 2.81c0 .262-1.18 1.136-1.747 1.223-.567.087-1.528.044-1.877-.35-.35-.392-1.091-2.75-1.091-2.75l3.885-.933"/>
            <path fill="#2B1E18" d="M278.243 177.763s-.556.97-1.71 1.225c-1.152.257-2.037-.079-2.058-.13-.02-.052-.2.412-1.233 1.279-.33.276-3.293 2.28-4.122 2.614-.992.4-.536 1.842-.304 2.002.158.109 10.13-.314 10.483-.603.102-.083.121-2.366-.171-3.865-.385-1.97-.885-2.522-.885-2.522"/>
            <path fill="#FFA37A" d="M253.754 176.677s-.266 2.668-.371 2.907c-.105.24-1.535.565-2.09.417-.555-.148-1.785-.754-1.785-.754l.313-3.277 3.933.707"/>
            <path fill="#2B1E18" d="M253.524 178.658s-.744.074-1.897.33c-1.152.257-2.037-.079-2.058-.13-.021-.052-.2.412-1.234 1.279-.33.276-3.293 2.28-4.121 2.614-.993.4-.537 1.842-.304 2.002.158.109 10.13-.314 10.483-.603.102-.083.1-1.767-.192-3.265-.384-1.97-.677-2.227-.677-2.227"/>
            <path fill="#99390E" d="M260.815 70.377c-.097-.298-.174-.289-1.038-.315-1.457-.043-1.238.395-1.058.436.18.04 1.193.162 1.655.202.462.04.484-.192.441-.323M264.663 70.894c.172-.262.245-.233 1.085-.029 1.415.345 1.088.71.904.7-.184-.008-1.193-.16-1.649-.243-.456-.084-.416-.313-.34-.428"/>
            <path fill="#2B1E18" d="M260.074 72.2c.107.039.013.005-.025-.024-.038-.028-.057-.048-.102-.067a1.823 1.823 0 0 0-.28-.086.86.86 0 0 0-.555.031c-.21.084-.057.398.151.315.15-.06.273-.02.418.023a.69.69 0 0 1 .168.071c.038.022.064.051.106.066.212.076.331-.253.12-.328M264.778 72.746c-.113.004-.014 0 .031-.016.045-.015.07-.029.118-.034a1.83 1.83 0 0 1 .294.004c.2.014.361.069.519.198.173.143-.067.396-.24.254-.124-.102-.254-.102-.406-.105a.684.684 0 0 0-.181.017c-.043.01-.076.03-.121.03-.225.008-.239-.34-.014-.348"/>
            <path fill="#F0805B" d="M262.98 73.664c-.046-.284-.055-.598-.162-.867-.082-.209-.406-.077-.322.133.15.381.17.886.226 1.292.071.501-.008.98-.517 1.225-.201.097-.07.421.133.323.384-.184.77-.543.787-.983.013-.374-.086-.757-.145-1.123"/>
            <path fill="#FFA37A" d="M267.865 72.434s.524-.06.677.76c.153.82-.317 1.633-.677 2.064-.359.432-.786.53-.786.53l.786-3.354M257.254 71.601s-.496-.178-.831.587c-.334.764-.06 1.662.192 2.164.252.501.645.694.645.694l-.006-3.445"/>
            <path fill="#99390E" d="M256.768 71.71s-.095 3.264 0 3.68c.096.414.478 1.81.583 2.291.107.48.866 1.637 1.325 1.877.458.24.988.906 1.28 1.194.621.61 1.732.826 2.343.738.611-.087.895-.455 1.79-.695.895-.24 1.463-1.455 1.877-1.76.415-.306 1.026-1.332 1.223-1.943.196-.611 1.004-4.555 1.004-4.555s-.11-.887-.546-.545c0 0-1.083 2.649-1.375 3.288-.472 1.033-3.289.604-3.987.626-.699.021-3.158.087-3.93-.99-.304-.425-.908-3.108-1.101-3.315-.194-.206-.486.109-.486.109"/>
            <path fill="#FFF" d="M260.989 76.81c.112-.078.83.112 1.219.119.388.007.868-.038 1.083.104.215.142-.3.848-1.159.83-.858-.018-1.55-.775-1.143-1.053"/>
            <path fill="#99390E" d="M257.382 71.891s.224-3.312.399-3.749c.174-.436.873-.698 1.724-.458.851.24 1.772.109 2.6.13.827.023 2.202 1.158 3.337 1.07 1.136-.087 1.987-.152 2.205.459.218.61 0 2.649 0 2.649l.546.545s.436-.885.59-1.832c.152-.948.632-3.043.654-3.72.022-.676-.48-1.31-1.113-2.204-.633-.895-.633-2.03-1.66-2.118-1.025-.087-1.374.218-2.662-.087-1.288-.306-2.641-1.113-3.624-.611-.982.502-1.79 1.157-2.532 1.266-.742.109-1.606 1.484-1.578 2.313.028.83.5 6.166.5 6.166l.314.282.3-.1"/>
            <path fill="#FFF" d="M254.487 82.57s5.698 1.18 7.267 1.223c1.099.03 7.247-.699 7.409-.393.16.306 5.112 4.713 5.435 6.315 0 0-1.818 10.548-1.777 12.032.04 1.485-.445 6.354-.635 8.85-.239 3.144-1.095 7.488-2.367 7.924-.956.328-14.864.272-16.031-.109-2.141-.698-1.983-9.473-2.033-11-.05-1.529-2.885-18.045-2.926-19.093-.04-1.047 5.658-5.749 5.658-5.749"/>
            <path fill="#FFF" d="M267.826 83.35s3.845-3.896 5.722-6.559c1.877-2.663 4.73-6.06 5.166-6.732.436-.673 6.343-10.62 7.16-10.888 3.187-1.048 4.299 1.213 4.3 2.139.002 2.838-4.606 11.407-6.047 13.736-1.44 2.33-7.32 11.657-8.542 13.229-1.222 1.572-3.143 5.166-3.143 5.166s-3.928-2.314-3.87-2.75c.057-.437-.746-7.342-.746-7.342M256.267 83.618s-7.574-11.915-8.156-12.913c-.582-.998 5.035-14.066 3.725-15.522-.644-.716-1.222-1.018-2.561-1.367-1.339-.35-1.57.169-3.609 3.143-1.798 2.622-5.588 14.294-5.53 15.733.059 1.438 4.948 10.278 7.335 13.568 1.028 1.417 2.823 4.474 2.823 4.474s4.453-1.834 4.57-1.855c.115-.022 1.403-5.26 1.403-5.26"/>
            <path fill="#99390E" d="M252.334 115.649s-1.026 3.855-2.215 11.014c-1.189 7.16-1.746 25.147-1.92 26.631-.175 1.484-.874 22.23-.7 22.772.175.54 1.943 1.792 3.46 1.821 1.518.03 3.613-1.402 3.613-1.821 0-.42 1.223-20.764 1.92-23.82.7-3.056 4.854-23.05 5.221-25.408.368-2.357 0-10.74 0-10.74l-9.38-.449"/>
            <path fill="#99390E" d="M261.713 116.099l9.657-.45s1.625 6.038 1.45 11.975c-.174 5.937-1.273 24.797-1.03 26.543.245 1.746 7.055 20.763 7.055 20.955 0 .733-1.66 1.903-3.929 2.087-2.27.183-3.948-.375-4.244-1.143-.296-.769-6.67-17.795-7.194-21.9-.524-4.103-2.707-29.161-2.707-29.161l.942-8.906"/>
            <path fill="#FFE6D9" d="M246.976 70.39a7.414 7.414 0 0 0-3.144.723c-.204.095-.026.397.176.301a7 7 0 0 1 2.968-.674c.225 0 .225-.35 0-.35M251.604 56.662c-.315-.223-.483-.453-.83-.644a6.976 6.976 0 0 0-1.262-.545c-.69-.225-1.542-.126-2.186-.426-.203-.094-.38.207-.176.302.598.279 1.34.197 1.972.365.51.136 1.029.324 1.475.606.298.188.54.438.83.644.185.13.36-.173.177-.302M248.348 54.218c-.206-.106-.39.115-.308.313.05.118.19.178.292.077l.014-.02c.134-.083.186-.275.002-.37M289.735 62.008c-.395-.525-.921-.909-1.5-1.217-.883-.47-1.832-.479-2.752-.784-.213-.072-.305.266-.092.336.788.262 1.594.294 2.37.632.632.276 1.25.648 1.673 1.209.133.177.437.003.301-.176M289.362 60.432c-.343.013-.336.525-.007.522l.018.003.015-.003h.025l.026-.01c.27-.067.234-.524-.077-.512M263.407 102.453c-.233-1.277-.593-2.546-.895-3.807-.35-1.464-.6-2.934-.759-4.434-.262-2.463-.126-5.073.066-7.538.018-.224-.332-.223-.35 0-.183 2.358-.33 4.867-.098 7.227.242 2.477.76 4.89 1.391 7.292.664 2.526.641 5.086.676 7.673.018 1.28-.262 2.504-.463 3.759-.086.537-.128 1.1-.335 1.607-.114.28-.353.941-.595 1.132-.177.139.072.384.247.247.222-.175.386-.615.516-.86.23-.433.331-.88.41-1.36.194-1.174.492-2.384.561-3.576.14-2.412.06-4.98-.372-7.362"/>
            <path fill="#802D08" d="M272.42 124.619c-.426-.331-.864-.65-1.276-1.007-.452-.394-.752-.898-1.156-1.34-1.07-1.173-1.614-2.882-1.577-4.47a.154.154 0 0 0-.036-.105l.472-.087c.41-.077.817-.158 1.225-.242.359-.074.725-.245 1.09-.265.223-.013.224-.362 0-.35-.548.032-1.107.275-1.65.383-.97.193-1.963.423-2.944.518-1.57.152-3.13.271-4.716.19a120.39 120.39 0 0 1-4.332-.303 63.94 63.94 0 0 1-2.666-.274c-.835-.109-1.638-.438-2.465-.513-.223-.021-.222.328 0 .349.776.07 1.536.395 2.32.495.882.112 1.767.195 2.651.28 1.486.143 3 .242 4.492.316 1.53.075 3.071.023 4.585-.177a33.944 33.944 0 0 0 1.636-.265l-.011.05c-.031 1.345.35 3.067 1.171 4.17.417.56.912 1.16 1.39 1.672.444.474 1.04.824 1.55 1.222.175.136.424-.109.247-.247"/>
            <path fill="#802D08" d="M261.575 116.583c-.28.043-.363.315-.31.56a.168.168 0 0 0 .109.115.33.33 0 0 0 .199.106c.247.046.525-.171.514-.43-.01-.246-.292-.385-.512-.351M261.053 129.195c-.488-.847-1.644-1.31-2.413-1.844-1.242-.863-2.651-1.665-3.757-2.705l-.048-.054-.098-.074c-.16-.121-.351.139-.212.274.919.894 2.085 1.582 3.143 2.304.565.385 1.115.767 1.703 1.112.385.225 1.16.779 1.38 1.163.113.195.415.019.302-.176"/>
            <path fill="#FFF" d="M257.26 83.458l1.137-1.178 3.357 1.513s-.756.585-.924.628c-.167.043-3.57-.963-3.57-.963M266.076 83.865l-.766-1.585-3.556 1.513 3.965.542.357-.47"/>
            <path fill="#FFE6D9" d="M261.226 84.386c-.443.365-1.513 1.676-2.089 1.401-.327-.156-.535-.734-.738-1.019-.286-.401-.615-.725-.78-1.205-.072-.208-.403-.119-.33.09.195.57.58.944.91 1.425.231.335.56 1.096.954 1.232.38.132.754-.336 1.016-.539.46-.357.85-.773 1.3-1.143.17-.14-.074-.381-.243-.242M265.591 83.958c-.291.311-.585.626-.886.932-.284.289-.956 1.11-1.352 1.159h-.006c.01-.007.007-.027-.07-.07-.223-.124-.432-.47-.57-.689-.193-.307-.309-.649-.575-.904-.16-.153-.402.089-.242.242.528.505.692 1.317 1.283 1.791a.18.18 0 0 0 .208.027c.492-.229.933-.698 1.323-1.057.4-.37.759-.793 1.13-1.19.15-.16-.092-.403-.243-.241"/>
            <path fill="#FFA37A" d="M375.946 70.934c-.03.352-1.24 6.541-2.054 7.559-.37.463-2.694 2.656-4.306 2.698-.605.018-3.356-2.198-3.974-3.276-.83-1.445-.979-5.886-.749-8.43.233-2.544 2.319-4.986 4.414-5.454 2.092-.471 5.85 2.151 5.85 2.151s1.175.824.82 4.752M360.35 177.156s-.447 2.643-.569 2.876c-.121.232-1.57.459-2.114.273-.543-.186-1.73-.874-1.73-.874l.537-3.249 3.875.974"/>
            <path fill="#2B1E18" d="M359.985 179.118s-.747.022-1.915.2c-1.168.176-2.028-.219-2.045-.272-.017-.053-.228.397-1.318 1.192-.347.253-3.44 2.05-4.29 2.327-1.018.332-.662 1.8-.44 1.976.15.12 10.128.379 10.499.115.108-.076.221-1.756.032-3.271-.249-1.991-.523-2.267-.523-2.267"/>
            <path fill="#FFA37A" d="M364.978 71.75s-.497-.178-.831.586c-.335.764-.06 1.662.192 2.164.252.501.645.694.645.694l-.006-3.445"/>
            <path fill="#2B1E18" d="M362.21 82.719s5.699 1.18 7.267 1.222c.465.013 1.834-.11 3.27-.234 1.96-.167 4.046-.335 4.14-.159.16.306 5.11 4.713 5.436 6.315 0 0-1.818 10.548-1.777 12.032.037 1.484-.445 6.354-.637 8.851-.24 3.143-1.095 7.487-2.366 7.923-.956.328-14.864.272-16.031-.108-2.141-.699-1.983-9.474-2.033-11.002-.05-1.528-2.886-18.044-2.927-19.091-.04-1.048 5.659-5.75 5.659-5.75"/>
            <path fill="#DB2E2E" d="M359.885 114.82s-1.214 5.56-1.741 12.798c-.981 13.445-1.417 24.963-1.591 26.447-.175 1.484-1.504 21.608-1.33 22.148.175.541 1.942 1.793 3.46 1.822 1.517.03 3.327-.386 3.327-.805 0-.42 3.595-21.01 4.08-24.107.625-3.992 3.353-19.552 3.72-21.91.369-2.357-.132-14.966-.132-14.966l-9.793-1.428"/>
            <path fill="#2B1E18" d="M363.202 83.182s-7.431-8.465-7.867-9.138c-.437-.672-6.854 2.658-5.414 4.987 1.44 2.33 4.299 7.505 5.521 9.077 1.223 1.572 3.144 5.166 3.144 5.166s3.928-2.314 3.87-2.75c-.058-.437.746-7.342.746-7.342M364.45 83.615l1.653-1.442 2.997 1.744-4.65-.302"/>
            <path fill="#54230C" d="M364.767 71.714s.417-.325.588-1.652c.172-1.326.778-2.182 1.669-2.503.891-.32 1.982.47 3.826.578 1.844.107 2.636.059 3.577.7.942.643 1.201 3.762 1.201 3.762s.964-2.177 1.174-3.05c.278-1.156.185-2.677.343-3.21.214-.727.107-1.477-.728-2.365-.834-.887-1.872-1.871-3.25-1.557-.913.209-1.723-.015-3.73-.357-2.006-.342-2.114-.342-3.033.257-.92.599-1.42.877-1.733 2.503-.237 1.227.096 6.894.096 6.894"/>
            <path fill="#BF0000" d="M380.416 122.226c-.178-.294-.47-.402-.723-.63-.4-.36-.852-.702-1.222-1.096-.407-.44-.582-.992-.876-1.502-.287-.491-.515-.981-.579-1.564a.178.178 0 0 0-.13-.154c.215-.054.43-.106.647-.151.582-.123 1.164-.39 1.753-.471.219-.03.127-.36-.09-.33-.564.078-1.15.314-1.707.44-.745.166-1.483.414-2.233.587-1.842.423-3.74.797-5.64.684-1.494-.09-2.997-.497-4.481-.694-.821-.11-1.608-.213-2.413-.429-.303-.08-.593-.095-.897-.15-.56-.099-.79-.4-1.281-.524-.214-.054-.305.276-.091.33.341.086.574.389.91.487.405.119.853.085 1.268.187l.11.027-.018.075c-.017 1.02-.552 1.976-1.072 2.824-.246.4-.594.807-1.008 1.057-.388.235-.796.334-1.173.593-.18.125-.009.421.173.296.435-.3.973-.42 1.391-.743.41-.315.728-.69.997-1.124.541-.873 1.016-1.852 1.035-2.9.596.14 1.176.26 1.8.333 1.575.185 3.166.632 4.75.697 1.8.073 3.525-.227 5.277-.595.608-.128 1.208-.301 1.81-.458a.138.138 0 0 0-.03.106c.11.994.622 1.935 1.137 2.774.281.458.685.79 1.093 1.129.253.21.469.472.725.67.182.14.37.186.493.392.113.188.411.016.295-.173"/>
            <path fill="#FFA37A" d="M322.47 144.43c0 .17 1.178 6.53 1.178 6.53l6.362-2.055s-.3-3.207-.212-6.923c.089-3.715.212-4.514.212-4.514l-7.54 6.961"/>
            <path fill="#FFA37A" d="M332.379 176.384v.004c.014.356-.02.684-.093.982a3.478 3.478 0 0 1-.3.795c-.456.876-1.202 1.438-1.624 1.786-.65.538-1.51-.342-1.763-2.283-.013-.082-.02-.168-.03-.253a9.882 9.882 0 0 0-.08-.579c-.69-4.399-5.189-27.685-5.189-27.685l6.71-.246s.924 3.721 1.736 6.816c.807 3.09-.524 6.668.623 20.492.003.038.006.076.006.113 0 0 .004.021.004.058"/>
            <path fill="#FFA37A" d="M332.32 180.756c-.335 1.13-2.105 2.068-4.44 2.25-2.334.178-3.574-.01-3.399-.285.175-.277.767-.695 1.674-1.752 1.643-1.918 2.17-2.89 2.335-3.3a.869.869 0 0 0 .079-.254l.653-.61.942-.872 2.211.393s.004.021.004.058v.004c.014.147.044.544.068 1.054.014.253.024.538.031.832.02.928 0 1.948-.157 2.482"/>
            <path fill="#2B1E18" d="M332.478 178.276s-.62 1.896-1.746 2.822c-1.126.925-5.488.804-5.583.9-.095.094-1.915 1.197-2.006 1.58-.09.384-.078.984.284 1.139.36.155 5.371-.073 5.757-.11.386-.038 1.595-2.29 1.83-2.286.235.004.289 2.273.289 2.273l.62.009s.405-1.775.565-2.787c.244-1.551-.01-3.54-.01-3.54M332.478 178.274l-.493-.11c-.732-.16-2.106-.448-2.763-.479a12.007 12.007 0 0 0-.623-.017h-.11a.869.869 0 0 0 .08-.253 9.882 9.882 0 0 0-.08-.579 10.118 10.118 0 0 1 1.951.038 6.773 6.773 0 0 1 2.007.568c.014.253.024.538.031.832"/>
            <path fill="#FFE6D9" d="M311.767 67.505s-1.993 1.26-2.62 3c-.628 1.74-.407 4.395.813 5.572.931.899 1.718 3.785 1.24 5.069-.477 1.283-1.246 2.402-1.27 3.887-.025 1.485.638 2.568.869 2.682.23.114 3.478.827 4.05.599.574-.229 1.249-.713 1.41-1.085.163-.37 2.188-4.165 2.131-4.764-.057-.6.57-11.297.57-11.297l-7.193-3.663"/>
            <path fill="#FFA37A" d="M316.86 176.384v.004c.014.356-.02.684-.093.982a3.478 3.478 0 0 1-.3.795c-.456.876-1.202 1.438-1.624 1.786-.65.538-1.51-.342-1.763-2.283-.013-.082-.02-.168-.03-.253a9.882 9.882 0 0 0-.08-.579c-.69-4.399-5.19-27.685-5.19-27.685l6.71-.246s.925 3.721 1.736 6.816c.808 3.09-.523 6.668.624 20.492.003.038.006.076.006.113 0 0 .004.021.004.058"/>
            <path fill="#FFA37A" d="M316.802 180.756c-.336 1.13-2.106 2.068-4.44 2.25-2.335.178-3.575-.01-3.4-.285.175-.277.767-.695 1.674-1.752 1.643-1.918 2.17-2.89 2.335-3.3.075-.179.079-.254.079-.254l.653-.61.942-.872 2.211.393s.004.021.004.058v.004c.014.147.044.544.069 1.054.013.253.023.538.03.832.02.928 0 1.948-.157 2.482"/>
            <path fill="#2B1E18" d="M316.959 178.276s-.62 1.896-1.746 2.822c-1.126.925-5.488.804-5.583.9-.095.094-1.915 1.197-2.006 1.58-.091.384-.078.984.284 1.139.361.155 5.371-.073 5.757-.11.386-.038 1.595-2.29 1.83-2.286.235.004.289 2.273.289 2.273l.62.009s.367-1.321.562-2.773c.136-1.016-.007-3.554-.007-3.554"/>
            <path fill="#FFF" d="M290.497 93.803l-1.05.69a.087.087 0 0 0 .045.16l1.942.076c.085.004.124-.104.057-.156l-.994-.77"/>
            <path fill="#FFF" d="M290.717 94.398l-.485-.019.032-.812.484.019-.031.812M290.628 89.07a1.262 1.262 0 0 1-1.23-1.294l.14-5.304a.213.213 0 0 1 .218-.209l2.096.055a.214.214 0 0 1 .209.22l-.138 5.304a1.262 1.262 0 0 1-1.295 1.229"/>
            <path fill="#FFF" d="M290.752 93.64l-.485-.013.144-5.547.485.013-.144 5.547"/>
            <path fill="#FFCF87" d="M290.739 88.598l-.197-.005a.836.836 0 0 1-.814-.857l.071-2.732a.172.172 0 0 1 .176-.167l1.525.04c.095.002.17.081.167.175l-.071 2.733a.836.836 0 0 1-.857.813"/>
            <path fill="#FFA37A" d="M309.777 86.635s-8.492 14.731-8.69 15.493c-.198.761.65 3.984 2.606 3.68 1.955-.304 2.769-2.5 4.084-4.685a199.786 199.786 0 0 0 4.57-8.017l-2.57-6.471"/>
            <path fill="#FFA37A" d="M303.875 99.255s-.296-.096-3.88-2.795c-3.586-2.699-5.744-4.599-6.288-4.928-.545-.329-1.98.882-1.879 1.614 0 0 4.673 6.352 7.048 9.039 2.031 2.297 3.661 3.358 3.661 3.358l2.368-3.98-1.03-2.308"/>
            <path fill="#FFA37A" d="M292.45 90.331c-.715-.622-1.15-.988-1.913-.969-1.05.026-1.969 1.139-2.217 1.894-.225.686-.129 2.148 1.375 2.379 1.504.23 4.09-.036 4.09-.036l.485-1.652s-1.106-.993-1.82-1.616M327.933 87.458s1.498.342 2.268.813c.77.47 10.998 13.693 11.212 14.891.214 1.199-2.74 1.199-4.108.985-1.37-.214-7.019-7.318-7.318-7.403-.3-.086-.87.499-.87.499l-7.076-3.195s-1.896-1.687-1.896-1.956c0-.27 7.788-4.634 7.788-4.634M311.849 69.827s-1.694.025-1.316 3.823c.342 3.449.613 4.76 1.115 5.882.502 1.122 2.403 3.38 3.514 3.483.585.055 4.55-1.912 5.389-2.776.837-.864 1.692-4.783 1.448-7.245-.244-2.461-2.904-4.74-4.935-5.178-2.032-.438-5.215 2.01-5.215 2.01"/>
            <path fill="#FFA37A" d="M311.462 85.882l6.173 8.795 1.663.235 8.635-7.454s-3.193-.762-3.766-1.156c-.565-.398-1.863-.822-2.262-2.833-.399-2.014-.609-6.145-.609-6.145s-4.155 1.154-4.235 1.241c-.08.09-1.735 2.253-1.735 2.253a90.264 90.264 0 0 0 .28 2.105c.026.218.051.436.072.65.023.201.047.398.062.586.008.089.014.178.019.26.026.341.053.438.042.632-.054.99-4.34.83-4.34.83"/>
            <path fill="#2B1E18" d="M311.934 75.694c.037-.036.088-.053.158-.041.254.042.298.532.22.72-.107.253-.376.106-.436-.14-.03-.124-.06-.425.058-.54M317.072 74.986c.04-.037.093-.056.167-.044.27.046.317.566.233.766-.113.268-.399.11-.462-.149-.031-.131-.064-.452.062-.573"/>
            <path fill="#F0805B" d="M313.525 77.683c.064-.478.268-.987.42-1.442.086-.259.471-.08.386.177-.122.363-.226.739-.324 1.108-.045.17-.075.26.01.424.07.134.168.247.252.372.166.1.081.417-.156.39-.176-.02-.32-.333-.404-.458-.125-.187-.215-.34-.184-.571"/>
            <path fill="#FFF" d="M315.942 79.275c-.112-.075-.814.118-1.195.127-.082.002-.168.002-.255.002-.316-.001-.641-.002-.805.109-.21.141.301.83 1.142.804.841-.025 1.513-.772 1.113-1.042"/>
            <path fill="#FFE6D9" d="M316.074 73.954c.092-.29.17-.247 1.005-.314.836-.067 1.204.373 1.03.414-.174.04-1.156.167-1.604.21-.448.042-.471-.183-.43-.31M312.81 74.339c-.155-.262-.22-.202-1.049-.077-.83.126-1.087.639-.909.638.18 0 1.164-.101 1.61-.162.445-.06.417-.284.349-.4"/>
            <path fill="#F0805B" d="M315.74 84.16c.008.088.014.177.019.259a.595.595 0 0 0 .43-.194c.416-.427 1.017-.82 1.625-1.324.603-.5.124-1-.149-.942-.272.062-2.058.964-2.058.964.025.218.05.436.071.65.023.201.047.398.062.586"/>
            <path fill="#1D3059" d="M314.138 85.762s5.237 5.204 7.326 6.488c2.09 1.284 7.596 4.736 7.653 4.993.057.257-.999 3.994-1.683 5.99-.685 1.998-1.77 6.106-1.598 7.304.171 1.198 2.23 7.988 3.283 14.435 1.053 6.448 2.538 13.324 2.538 16.833 0 1.712-3.938 4.06-6.106 6.223-2.169 2.164-3.823 6.329-5.306 8.497-1.484 2.168-5.706 3.766-7.874 5.763-2.169 1.997-3.994 6.333-5.934 5.363-1.94-.97-2.397-17.402-1.997-24.021.4-6.618.199-17.567 1.483-23.792 1.683-8.16 3.766-11.469 3.823-13.751.057-2.282-1.37-7.294-.97-11.064.4-3.771.296-7.67 1.001-8.388 1.146-1.167 4.36-.873 4.36-.873"/>
            <path fill="#FFA37A" d="M335.284 102.487s-.087.298-2.677 3.964c-2.589 3.665-4.422 5.88-4.735 6.434-.313.554.942 1.952 1.67 1.828 0 0 6.208-4.863 8.821-7.318 2.236-2.1 3.015-3.89 3.015-3.89l-3.82-2.118-2.274 1.1"/>
            <path fill="#FFA37A" d="M327.872 112.885s-.331-.009-1.272-.122c-.941-.112-1.506-.17-2.127.275-.854.612-1.052 2.348-.767 2.813.378.615 1.102 1.848 2.475 1.193 1.374-.655 3.36-2.33 3.36-2.33l-.76-1.589-.91-.24"/>
            <path fill="#FFE6D9" d="M312.228 70.711c.028.143 2.787 2.39 4.788 2.964 2.002.574 3.129 1.544 3.129 2.942 0 1.003-.813 2.64-.842 4.878-.026 2.017.656 3.338 1.512 5.021.856 1.683-1.79 1.72-1.54 5.576.17 2.64 2.21 3.227 2.425 4.637.912 6.02 5.05.57 5.277-1.817.228-2.389-1.492-4.668-.95-5.81.543-1.14 2.2-1.644 2.197-4.683-.003-4.24-2.259-5.7-2.759-7.095-1.255-3.502-.528-4.879-1.298-7.161s-3.648-4.658-6.376-4.644c-2.322.012-6.105 1.55-6.19 2.244-.086.695.627 2.948.627 2.948"/>
            <path fill="#FFE6D9" d="M312.85 70.49s-1.358 1.157-1.82 2.332c-.462 1.177-.642 2.078-.642 2.078s-.514-3.19-.514-3.447c0-.257.437-1.819.604-1.883.167-.064 1.084-.663 1.62-.513.23.064.37.057.468.05.13-.008.187-.017.284.142.17.278 0 1.241 0 1.241"/>
            <path fill="#2B1E18" d="M316.96 178.274l-.494-.11c-.732-.16-2.105-.448-2.763-.479a11.987 11.987 0 0 0-.623-.017h-.11c.076-.178.08-.253.08-.253a9.882 9.882 0 0 0-.08-.579 10.12 10.12 0 0 1 1.951.038 6.773 6.773 0 0 1 2.008.568c.013.253.023.538.03.832"/>
            <path fill="#6681BA" d="M312.65 94.516c-.278-1.143-.8-2.29-.936-3.464-.025-.216-.367-.219-.342 0 .14 1.208.662 2.38.947 3.555.053.214.383.123.33-.091M319.524 99.995c-.111-.266-.285-.487-.402-.75-.133-.302-.22-.56-.413-.833-.126-.179-.423-.008-.296.173.177.249.265.518.389.794.127.285.324.527.436.818.192.504.457 1.195.521 1.724.026.216.37.22.343 0-.073-.603-.344-1.364-.578-1.926M314.618 106.07c-.04-.216-.37-.125-.33.09.24 1.27 1.068 2.34 1.192 3.636.021.217.364.219.343 0-.128-1.337-.96-2.43-1.205-3.726M322.154 121.587a14.012 14.012 0 0 1-.775-1.909c-.068-.209-.398-.12-.33.09.162.497.281 1.03.527 1.492.266.5.68 1.138.751 1.715.026.216.37.22.342 0-.056-.462-.308-.969-.515-1.388M313.06 122.12c-.362-.529-.59-1.233-.85-1.82-.263-.59-.63-1.279-.759-1.906-.044-.215-.374-.124-.33.09.133.648.5 1.347.767 1.95.27.609.497 1.306.877 1.857.124.181.42.01.296-.172M318.71 131.106c-.09-.202-.385-.028-.297.172.332.753.709 1.478.997 2.249.26.698.64 1.449.692 2.2.015.22.358.221.342 0-.112-1.591-1.102-3.185-1.735-4.621M310.767 133.457c-.403-1.27-1.53-2.37-1.706-3.72-.028-.215-.37-.218-.342 0 .082.633.387 1.13.66 1.7.327.68.83 1.396 1.058 2.111.066.21.397.12.33-.09M316.073 148.35c-.474-1.3-1.298-2.57-1.449-3.978-.023-.217-.365-.22-.342 0 .155 1.454.971 2.727 1.46 4.068.076.205.407.117.331-.09M310.346 156.035c-.332-.16-.381-.641-.517-.944-.177-.399-.45-.745-.635-1.14-.33-.701-.903-1.435-1.08-2.178-.051-.215-.382-.124-.33.09.093.39.288.744.505 1.074.314.478.484 1.017.77 1.509.258.44.455.863.661 1.323.107.24.21.444.453.562.197.095.371-.2.173-.296M328.002 137.221c-.284-.564-.862-1.155-.988-1.78a.167.167 0 0 0-.12-.12l-.071-.015c-.215-.043-.307.287-.091.33-.04-.008.252.52.264.54.155.281.333.533.5.808.386.637.956 1.477 1.085 2.213.038.216.368.125.33-.091-.121-.69-.599-1.27-.909-1.885"/>
            <path fill="#FD4F4F" d="M184.871 12.57c.234.581.967 1.01 1.022 2.026.056 1.017.116 1.181 1.21.73 1.084-.449.111-1.766-.5-2.73-.612-.962-1.982-.648-1.732-.026"/>
            <path fill="#6236FF" d="M181.65 45.778c.019.664.573 1.346.264 2.387-.31 1.04-.31 1.226.909 1.148 1.208-.077.738-1.735.491-2.913-.247-1.178-1.683-1.334-1.664-.622"/>
            <path fill="#E2E2E2" d="M260.652.058c-.572-.338-1.445-.23-2.162-1.046-.717-.815-.874-.914-1.456.16-.576 1.064 1.078 1.548 2.208 1.964 1.128.417 2.023-.717 1.41-1.078"/>
            <path fill="#FFD89E" d="M209.607 26.939c.08.66.696 1.287.485 2.352-.211 1.065-.194 1.25 1.012 1.06 1.196-.19.573-1.798.217-2.948-.355-1.15-1.8-1.17-1.714-.464M322.88 40.362c-.616-.249-1.463-.014-2.292-.714-.83-.7-1-.775-1.417.373-.413 1.138 1.295 1.372 2.474 1.617 1.178.245 1.895-1.01 1.236-1.276"/>
            <path fill="#FD4F4F" d="M157.192 12.369c.6.238 1.427.023 2.23.685.804.663.97.734 1.383-.34.41-1.064-1.252-1.295-2.399-1.532-1.147-.238-1.854.933-1.214 1.187"/>
            <path fill="#6236FF" d="M336.495 10.073c-.24.62-.992 1.077-1.05 2.16-.056 1.085-.118 1.26-1.24.778-1.113-.478-.114-1.883.513-2.91.628-1.027 2.033-.691 1.777-.028"/>
            <path fill="#FD4F4F" d="M330.213 72.491c-.019.665-.573 1.347-.263 2.388.31 1.04.31 1.226-.91 1.148-1.208-.077-.738-1.736-.49-2.914.247-1.178 1.683-1.333 1.663-.622"/>
            <path fill="#6236FF" d="M277.918-3.023c.573-.338 1.446-.23 2.163-1.046.717-.815.874-.914 1.456.16.576 1.064-1.078 1.548-2.207 1.964-1.13.417-2.024-.717-1.412-1.078"/>
            <path fill="#FFD89E" d="M260.129 35.11c-.615.255-1.464.026-2.288.732-.825.706-.994.782-1.419-.363-.421-1.135 1.285-1.38 2.461-1.634 1.177-.254 1.903.994 1.246 1.266"/>
            <path fill="#FD4F4F" d="M312.19 15.917c-.081.66-.697 1.287-.486 2.352.211 1.065.194 1.25-1.011 1.059-1.197-.19-.574-1.797-.218-2.947.355-1.15 1.8-1.17 1.714-.464"/>
            <path fill="#98B4EF" d="M198.915 37.281c.617-.249 1.464-.014 2.294-.714.83-.7 1-.775 1.416.373.412 1.138-1.295 1.371-2.473 1.617-1.18.245-1.896-1.01-1.237-1.276"/>
            <path fill="#FD4F4F" d="M231.364 67.731c-.008-.665.519-1.37.168-2.396-.352-1.027-.36-1.213.861-1.184 1.21.029.808 1.705.608 2.892-.2 1.186-1.628 1.399-1.637.688"/>
            <path fill="#E2E2E2" d="M283.57 23.481c.593-.302 1.458-.14 2.224-.91.765-.77.929-.858 1.443.25.51 1.098-1.172 1.478-2.325 1.824-1.152.346-1.975-.841-1.341-1.164M239.32 80.074c-.63.215-1.462-.066-2.329.588-.866.654-1.04.72-1.393-.45-.35-1.158 1.367-1.298 2.557-1.479 1.19-.18 1.838 1.11 1.165 1.341"/>
            <path fill="#6236FF" d="M298.6 47.532c-.12.654-.774 1.242-.629 2.318.145 1.076.117 1.26-1.075.995-1.182-.264-.461-1.83-.035-2.955.426-1.126 1.869-1.057 1.74-.358"/>
            <path fill="#FD4F4F" d="M217.075 4.898c.63-.21 1.461.077 2.333-.57.871-.649 1.045-.713 1.39.459.342 1.161-1.377 1.289-2.569 1.46-1.19.173-1.83-1.123-1.154-1.349M215.22 86.33c.033-.665.602-1.335.315-2.382-.287-1.047-.283-1.233.934-1.128 1.206.103.7 1.751.428 2.924-.273 1.172-1.712 1.296-1.677.585M220.6 47.935c.034-.664.603-1.334.316-2.38-.287-1.048-.284-1.234.933-1.13 1.207.104.7 1.752.428 2.924-.272 1.173-1.712 1.297-1.676.586"/>
            <path fill="#6236FF" d="M173.03 21.825c.2.634.922 1.136.912 2.222-.01 1.085.041 1.264 1.19.852 1.14-.408.23-1.872-.332-2.936-.563-1.063-1.986-.816-1.77-.138M249.045 13.408c-.55-.373-1.429-.32-2.094-1.177-.665-.858-.816-.966-1.463.07-.64 1.026.98 1.611 2.082 2.096 1.101.486 2.064-.59 1.475-.99"/>
            <path fill="#E2E2E2" d="M308.633 58.515c-.6-.286-1.46-.104-2.245-.854-.785-.75-.95-.835-1.436.285-.483 1.11 1.207 1.449 2.368 1.766 1.162.317 1.955-.89 1.313-1.197"/>
            <path fill="#32C5FF" d="M209.607 26.939c.08.66.696 1.287.485 2.352-.211 1.065-.194 1.25 1.012 1.06 1.196-.19.573-1.798.217-2.948-.355-1.15-1.8-1.17-1.714-.464M243.404 17.326c.08.66.696 1.287.484 2.352-.21 1.065-.194 1.25 1.012 1.06 1.196-.19.574-1.798.218-2.948s-1.8-1.17-1.714-.464M322.88 40.362c-.616-.249-1.463-.014-2.292-.714-.83-.7-1-.775-1.417.373-.413 1.138 1.295 1.372 2.474 1.617 1.178.245 1.895-1.01 1.236-1.276M277.572 46.575c-.616-.249-1.463-.014-2.293-.714-.83-.7-1-.775-1.416.373-.413 1.138 1.295 1.371 2.473 1.617 1.179.245 1.896-1.01 1.236-1.276M340.772 3.225c-.616-.249-1.463-.014-2.293-.714-.83-.7-1-.775-1.416.373-.413 1.138 1.295 1.371 2.473 1.617 1.179.245 1.896-1.01 1.236-1.276M164.772 51.225c-.616-.249-1.463-.014-2.293-.714-.83-.7-1-.775-1.416.373-.413 1.138 1.295 1.371 2.473 1.617 1.179.245 1.896-1.01 1.236-1.276M290.772 7.225c-.616-.249-1.463-.014-2.293-.714-.83-.7-1-.775-1.416.373-.413 1.138 1.295 1.371 2.473 1.617 1.179.245 1.896-1.01 1.236-1.276"/>
            <path fill="#FD4F4F" d="M260.129 35.11c-.615.255-1.464.026-2.288.732-.825.706-.994.782-1.419-.363-.421-1.135 1.285-1.38 2.461-1.634 1.177-.254 1.903.994 1.246 1.266"/>
            <path fill="#E2E2E2" d="M184.251 43.225c.617-.249 1.464-.014 2.294-.714.83-.7 1-.775 1.416.373.412 1.138-1.295 1.371-2.474 1.617-1.178.245-1.895-1.01-1.236-1.276M196.02 68.165c-.614.254-1.463.024-2.288.73-.824.707-.994.783-1.418-.362-.421-1.135 1.285-1.38 2.461-1.635 1.177-.253 1.903.996 1.246 1.267"/>
            <path fill="#6236FF" d="M233.687 33.557c-.579-.327-.923-1.136-1.988-1.348-1.065-.212-1.23-.299-.591-1.34.632-1.032 1.88.157 2.806.926.926.769.393 2.11-.227 1.762"/>
            <path fill="#FD4F4F" d="M344.615 43.291c-.277.604-1.056 1.014-1.18 2.093-.123 1.078-.196 1.25-1.286.699-1.081-.546.002-1.887.692-2.873.69-.986 2.072-.565 1.774.081M361.436 3.252c.6.238 1.427.023 2.23.686.804.662.97.733 1.383-.34.41-1.065-1.252-1.295-2.4-1.533-1.146-.238-1.854.933-1.213 1.187"/>
            <path fill="#FFD89E" d="M350.418-2.584c-.058.62-.639 1.227-.4 2.219.238.991.227 1.165-.953 1.022-1.171-.143-.614-1.668-.303-2.756.312-1.088 1.718-1.15 1.656-.485"/>
            <path fill="#98B4EF" d="M343.75 20.279c.582.273 1.422.108 2.182.816.76.709.92.79 1.402-.257.478-1.038-1.167-1.367-2.296-1.672-1.13-.306-1.911.82-1.288 1.113"/>
            <path fill="#FFF" d="M231.719 85.303a1.263 1.263 0 0 1-1.02-1.239v-5.306c0-.118.095-.214.214-.214h2.097c.118 0 .214.096.214.214v5.306a1.263 1.263 0 0 1-1.02 1.24v-.465a.836.836 0 0 0 .692-.823v-2.733a.171.171 0 0 0-.171-.172h-1.527a.171.171 0 0 0-.171.172v2.733c0 .412.299.755.692.823v.464"/>
            <path fill="#FFF" d="M232.204 86.015a5.28 5.28 0 0 0-.458-.017h-.027v-1.16a.832.832 0 0 0 .144.013h.197c.049 0 .097-.004.144-.012v1.176"/>
            <path fill="#FFD391" d="M232.06 84.851h-.197a.836.836 0 0 1-.836-.836v-2.732c0-.095.077-.172.171-.172h1.527c.094 0 .17.077.17.172v2.733a.836.836 0 0 1-.835.835"/>
            <path fill="#FFAB86" d="M195.259 161.04l-.678-5.537c3.52-2.558 3.847-3.186 5.481-4.174 1.027-.62 2.914-1.23 3.103-2.375a2.22 2.22 0 0 0 .016-.129c.026-.246.034-.609.035-1.027 0-.25-.002-.52-.004-.798a18.027 18.027 0 0 0 7.657 3.042c-.226 1.245-.675 2.239-1.329 3.005-1.658 1.947-8.79 5.426-14.281 7.993M213.34 177.354l-1.574-1.505-2.216.363-.002.027.01-.14c1.343-13.808.062-17.403.916-20.484a582.618 582.618 0 0 0 1.474-5.446 47.828 47.828 0 0 0 3.572.151c1.628 0 2.658-.125 3.314-.293-.94 4.524-5.276 25.445-5.494 27.327M193.269 109.733c-.145 0-.293-.015-.446-.046a2.795 2.795 0 0 1-.268-.07l2.522-2.686-1.113-2.268s-.12-.034-1.145-.713l.004-.005c.206-.275.438-.586.685-.921a529.86 529.86 0 0 0 3.55-4.893c.119.686.698 1.378 1.543 2.552.701.975 1.072 1.984 1.422 2.707-.948 1.173-2.12 2.591-2.988 3.541-.366.4-.705.78-1.03 1.125-.235.25-.463.48-.688.685-.593.54-1.168.905-1.81.978a2.112 2.112 0 0 1-.238.014M228.905 108.663c-.568 0-1.078-.227-1.585-.607-.687-.513-1.369-1.306-2.181-2.195a66.22 66.22 0 0 1-2.048-2.388c.257-.45.465-1.252.743-2.404.517-2.148.92-3.04.933-4.495.483.674 1.628 2.269 2.75 3.81-1.014 2.37-1.155 2.528-1.155 2.528l.28 2.511 4.057 2.235.015-.03a1.72 1.72 0 0 1-.277.428 1.559 1.559 0 0 1-.6.416c-.332.13-.64.19-.932.19"/>
            <path fill="#DF4140" d="M215.52 150.32a47.828 47.828 0 0 1-3.572-.151 18.027 18.027 0 0 1-8.736-3.169c-1.228-.856-1.986-1.617-2.231-1.884-.629-.684-.341-6.39-.398-11.126-.024-1.99.113-4.322.28-6.358l.059-.685c.088-1.008.18-1.918.26-2.643l.145.024a.144.144 0 0 0 .082.168c.241.12.415.346.681.435.206.068.452.09.692.09.163 0 .323-.01.467-.022.13-.01.26-.03.388-.054 1.108.43 1.899.91 3.361.91.181 0 .371-.008.574-.024a3.475 3.475 0 0 0 1.063-.239 1.93 1.93 0 0 0 .557.027c.967-.1 1.801-.76 2.768-.859.038-.003.076-.006.114-.007.198.021.412.05.643.09.57.169 1.099.535 1.644.745.387.15.888.267 1.366.267.343 0 .674-.06.944-.212.489.076.875.112 1.21.112.567 0 .988-.104 1.509-.296.183.1.369.21.579.309.206.097.391.137.564.137.596 0 1.04-.473 1.677-.665.192-.057.134-.338-.038-.338a.187.187 0 0 0-.053.008c-.521.157-.934.606-1.5.643a.942.942 0 0 1-.061.002c-.282 0-.503-.128-.722-.27 1.143-.47.7-.586 1.403-.586.187 0 .455.008.854.02.216.006.411.01.589.01h.053a55.097 55.097 0 0 1 .018 2.903 72.404 72.404 0 0 1-.146 3.448c-.33 5.026-1.678 13.3-2.308 16.718-.078.421-.145.769-.197 1.027-.06.292-.101.47-.12.514-.078.182-.298.471-1.148.688-.656.168-1.686.293-3.315.293m.167-24.855a3.642 3.642 0 0 1-1.518-.32 75.85 75.85 0 0 0 1.518.32m-6.284-.262c.37-.202.76-.391 1.365-.463-.347.138-.688.286-1.024.383-.119.035-.232.061-.34.08m-6.52-.519a2.185 2.185 0 0 1-.51-.067 1.294 1.294 0 0 1-.38-.164 12.409 12.409 0 0 1 .89.231"/>
            <path fill="#653721" d="M216.082 86.493c-1.388 0-1.95-.96-2.152-1.778 1.005-.761 2.149-2.523 2.462-3.462.338-1.014.488-2.153.522-4.714l.008.077s.344-3.101.318-3.18c-.027-.08-.98-2.412-.98-2.412s-2.141-1.378-2.383-1.405c-.167-.018-1.846-.445-2.856-.705l.027-.064c.119.013.24.031.362.054 1.715.315 3.02.572 4.482 1.37.354.194.717.419 1.098.685.16.112.322.23.489.356 1.987 1.511 1.011 4.825 1.713 5.53 1.59 1.6 1.785 3.56.3 5.018-1.116 1.096-.556 4.505-3.27 4.627a3.259 3.259 0 0 1-.14.003m-9.46-5.173a6.511 6.511 0 0 1-1.458-2.876c-.326-1.452-.477-3.28-.358-4.821a7.39 7.39 0 0 0 .863-.237l-.505 2.472.619 3.532.821 1.74.013.032.005.158"/>
            <path fill="#FFAB86" d="M213.167 85.072c-.09 0-.22-.02-.38-.054.006-.387.016-.763.03-1.091.02-.603.041-1.03.041-1.03s-1.859-1.99-1.948-2.072c-.067-.06-2.525-.499-3.71-.708.123-.33.685-2.253.685-2.253 0-.057-.158-.88-.606-.987.409-.933.781-1.559 1.507-2.655.317-.478.448-.81.492-1.038a8.749 8.749 0 0 0 2.755.905c2.22.347 3.422.583 4.36 1.22.378.257.493.991.521 1.23-.034 2.56-.184 3.7-.522 4.714-.313.94-1.457 2.7-2.462 3.462-.243.184-.478.31-.692.352a.383.383 0 0 1-.071.005m-.876-3.682c-.097 0-.17.008-.197.032-.357.295.312.93 1.108.93.034 0 .068 0 .101-.003.84-.058 1.28-.794 1.058-.913a.755.755 0 0 0-.347-.062c-.221 0-.486.039-.72.056a1.73 1.73 0 0 1-.13.004c-.138 0-.3-.01-.455-.022-.155-.01-.304-.022-.418-.022m1.333-3.296c-.136 0-.284.155-.209.325.157.35.298.713.432 1.071.061.164.1.252.032.423-.057.14-.144.263-.215.395-.143.106-.055.378.144.378a.238.238 0 0 0 .05-.006c.173-.037.285-.362.356-.495.107-.198.182-.359.127-.587-.11-.469-.363-.956-.56-1.393-.034-.078-.094-.11-.157-.11m2.005-.666a.237.237 0 0 0-.061.008c-.25.067-.245.56-.147.74.044.08.102.114.16.114.116 0 .235-.132.259-.297.017-.127.018-.43-.111-.532a.156.156 0 0 0-.1-.033m-5.602-.16a.254.254 0 0 0-.065.01c-.264.071-.26.594-.156.785.047.085.108.121.17.121.123 0 .25-.14.274-.316.02-.133.02-.455-.117-.563a.167.167 0 0 0-.106-.037m5.058-1.283c-.226 0-.283.045-.362.215-.057.12-.063.347.386.363.245.009.648.014.994.014.292 0 .543-.004.624-.012.178-.017-.13-.502-.967-.545-.324-.017-.533-.035-.675-.035m-4.49-.033c-.14 0-.33.008-.602.014-.838.015-1.16.49-.984.513.173.022 1.113.05 1.579.05h.038c.45-.001.45-.227.398-.35-.081-.189-.14-.227-.43-.227m-3.977 5.21l-.013-.032.01.018v-.054l.003.067m.476-1.064l-.417-.073.026-.328c.147.178.3.322.391.401"/>
            <path fill="#FFAB86" d="M209.442 92.416c-3.362 0-5.179-2.281-5.211-2.322a2.69 2.69 0 0 0 .298-.244c.184-.164.428-.392.683-.685.586-.67 1.233-1.673 1.36-2.982.128-1.31.092-3.475.05-4.863l-.005-.158-.002-.067c.005-.144.022-.555.061-1.07l.417.073c.047.04.078.064.084.067.004 0 .012-.017.023-.048 1.185.21 3.643.649 3.71.708.09.082 1.948 2.071 1.948 2.071s-.02.428-.041 1.03c-.014.33-.024.705-.03 1.092 0 0-1.867-.721-2.144-.756a.172.172 0 0 0-.023-.001c-.276 0-.664.526-.032.953.654.442 1.291.774 1.746 1.157a.605.605 0 0 0 .449.15 6.727 6.727 0 0 0 .051.825c.09.589 1.741 1.179 3.044 1.555-.01.034-.816 2.529-4.835 3.349a8 8 0 0 1-1.601.166"/>
            <path fill="#41332C" d="M215.581 78.291c-.058 0-.116-.034-.16-.114-.098-.18-.102-.673.147-.74a.237.237 0 0 1 .06-.008c.04 0 .074.012.1.033.13.102.129.405.112.532-.024.165-.143.297-.259.297M209.977 78.185c-.063 0-.124-.036-.17-.121-.105-.191-.11-.714.155-.785a.254.254 0 0 1 .065-.01c.042 0 .077.014.106.037.137.108.136.43.117.563-.024.176-.15.316-.273.316"/>
            <path fill="#F28C69" d="M213.808 80.686c-.2 0-.287-.272-.144-.378.071-.132.158-.255.215-.395.068-.17.029-.259-.032-.423a18.566 18.566 0 0 0-.432-1.071c-.075-.17.073-.325.21-.325.062 0 .122.033.157.11.196.438.449.925.56 1.394.054.228-.021.39-.128.587-.07.133-.183.458-.356.495a.238.238 0 0 1-.05.006"/>
            <path fill="#FFF" d="M213.202 82.352c-.796 0-1.465-.635-1.108-.93.027-.024.1-.032.197-.032.114 0 .263.011.418.022.156.011.317.022.455.022.047 0 .09 0 .13-.004.234-.017.499-.056.72-.056.14 0 .261.015.347.062.223.12-.218.855-1.058.913a1.438 1.438 0 0 1-.1.003"/>
            <path fill="#653721" d="M210.588 76.53c-.466 0-1.406-.028-1.579-.05-.177-.023.146-.498.984-.513.271-.006.463-.014.601-.014.29 0 .349.038.43.227.053.123.051.349-.398.35h-.038M216.103 76.578c-.346 0-.75-.005-.994-.014-.45-.016-.443-.243-.386-.363.08-.17.136-.215.362-.215.142 0 .351.018.675.035.837.043 1.145.528.967.545-.081.008-.332.012-.624.012"/>
            <path fill="#653721" d="M216.922 76.616l-.008-.077c-.028-.239-.143-.973-.522-1.23-.937-.637-2.14-.873-4.359-1.22a8.749 8.749 0 0 1-2.755-.905c.067-.344-.068-.446-.068-.446s-.235-.321-.467-.634c.412-.197.687-.337.714-.356.106-.07 1.22-2.226 1.22-2.226s.184-.24.344-.608c1.01.26 2.689.687 2.856.705.242.027 2.383 1.405 2.383 1.405s.953 2.332.98 2.411c.026.08-.318 3.18-.318 3.18"/>
            <path fill="#653721" d="M206.613 81.15l-.009-.02-.821-1.74-.619-3.532.505-2.472c1.035-.342 2.299-.912 3.074-1.282.232.313.467.634.467.634s.135.102.068.446c-.044.227-.175.56-.492 1.038-.726 1.096-1.098 1.722-1.507 2.655h-.004a.39.39 0 0 0-.088-.01c-.459 0-1.151.725-.866 2.119.052.253.213.505.381.71a32.017 32.017 0 0 0-.087 1.399l-.002.054"/>
            <path fill="#FFAB86" d="M207.178 80.165a.797.797 0 0 1-.085-.067 3.395 3.395 0 0 1-.39-.401c-.169-.206-.33-.458-.382-.711-.285-1.394.407-2.12.866-2.12a.39.39 0 0 1 .092.011c.448.107.606.93.606.987 0 0-.562 1.923-.685 2.253-.011.031-.02.048-.022.048"/>
            <path fill="#653721" d="M204.363 73.674h-.011c-1.257-.01-2.315-.548-2.562-2.385a4.648 4.648 0 0 1-.033-.33 3.503 3.503 0 0 1 .023-.685c.147-1.082.79-1.636.928-2.748.177-1.414 1.272-2.51 2.739-2.756.189-.032.367-.047.537-.047 1.151 0 1.946.665 3.313 1.124 2.252.758 2.093 2.167 1.75 3.003l-.026.064c-.16.367-.345.608-.345.608s-1.113 2.155-1.219 2.226c-.027.019-.302.159-.714.356-.775.37-2.039.94-3.074 1.282a7.39 7.39 0 0 1-.863.237 2.38 2.38 0 0 1-.443.051"/>
            <path fill="#DF4140" d="M206.064 111.343c-.684-.027-1.111-.05-1.127-.05-.098-.378-.22-.763-.371-1.152-.15-.386-.321-.86-.507-1.4a69.942 69.942 0 0 1-.233-.685 161.039 161.039 0 0 1-1.503-4.798c.632-1.11 1.098-2.617 1.098-2.617l-.931-2.078c-.152-2.164-.6-4.256-1.91-6.138a.18.18 0 0 0-.154-.129l-.026-.003h-.015c-.118 0-.2.162-.133.258 1.105 1.565 1.593 3.275 1.807 5.051l-2.242-5c.765-1.024 4.414-2.508 4.414-2.508.032.04 1.849 2.322 5.21 2.322a8 8 0 0 0 1.602-.166c4.02-.82 4.825-3.315 4.835-3.349 0 0 2.006.019 3.181.264.207.044.387.093.527.152 0 .015-.502 12.483-.374 12.993.09.36.977.663 1.838 1.002-.045.445-.097.896-.155 1.351a89.96 89.96 0 0 1-.625 4.078l-.02.118c-.018-.003-7.26-1.2-7.758-1.2h-.014c-.341.028-4.685 2.015-4.685 2.015l-.558.09c-.1.133-.538.716-1.171 1.579m-6.342-18.585a.815.815 0 0 1 .065-.114l-.065.114"/>
            <path fill="#DF4140" d="M206.998 125.854c-1.462 0-2.253-.48-3.361-.91.708-.135 1.383-.436 2.101-.436.223 0 .45.029.682.1.765.236 1.432.83 2.215.984a3.475 3.475 0 0 1-1.063.24 7.408 7.408 0 0 1-.574.022m10.884-.099c-.336 0-.722-.036-1.21-.112a.611.611 0 0 0 .02-.012c.498-.292.946-.515 1.535-.515l.076.001c.44.014.76.164 1.087.342-.521.192-.942.296-1.508.296m-2.166-.29h-.03a75.85 75.85 0 0 1-1.518-.32 3.837 3.837 0 0 1-.121-.058c-.544-.265-1.069-.648-1.693-.697a1.991 1.991 0 0 0-.156-.006c-.486 0-.963.169-1.431.356-.606.072-.995.26-1.365.463a2.256 2.256 0 0 1-.386.034c-.408 0-.779-.122-1.234-.342-.42-.204-.821-.475-1.271-.617a2.71 2.71 0 0 0-.816-.117c-.541 0-1.097.13-1.583.296-.381.13-.784.227-1.188.227h-.04a12.409 12.409 0 0 0-.89-.23c-.129-.08-.245-.17-.412-.254a.177.177 0 0 0-.08-.02c-.087 0-.158.07-.175.148a24.92 24.92 0 0 0-.146-.024c-.452-.076-.701-.135-1.083-.47-.685-.599-.186-3.683 2.125-7.078a172.998 172.998 0 0 1 2.468-3.523c-.015.022.201.03.598.03 1.238 0 4.236-.084 7.476-.127 4.26-.057 7.712-.781 7.742-.787.735 1.203 2.265 3.3 2.984 5.437.97 2.882 1.512 5.877 1.17 6.334-.3.4-.557.603-1.926.608h-.053c-.178 0-.373-.003-.589-.01-.4-.011-.667-.02-.854-.02-.704 0-.26.116-1.403.587-.165-.107-.328-.222-.515-.297a3.1 3.1 0 0 0-1.14-.211c-.377 0-.753.065-1.08.204-.449.19-.664.458-1.172.48a4.972 4.972 0 0 1-.213.004m-2.999-.622a11.01 11.01 0 0 0-.643-.09l.06-.001c.2 0 .394.034.583.09m-1.94-13.397c-1.812 0-3.602-.058-4.713-.102.633-.863 1.07-1.446 1.171-1.58l.558-.089s4.344-1.987 4.685-2.015h.014c.498 0 7.74 1.197 7.758 1.2 0 0-.072.487-.127 1.818l-.002-.01c-.007-.02-.054-.03-.137-.03-.692 0-3.891.666-6.991.773-.712.025-1.466.035-2.216.035M201.064 104.417c-.46 0-.743-.409-1.041-1.027-.35-.723-.721-1.732-1.422-2.707-.845-1.174-1.424-1.866-1.543-2.552-.072-.414.024-.826.33-1.342.696-1.173 1.98-3.413 2.334-4.03l.065-.115.027-.047.003.006 2.242 5c.19 1.577.164 3.207.164 4.835 0 .11.086.165.171.165.086 0 .172-.054.172-.165 0-1.298.013-2.6-.076-3.875l.931 2.078s-.466 1.508-1.098 2.617c-.344.603-.737 1.088-1.13 1.148a.854.854 0 0 1-.129.01M222.51 103.903c-.135 0-.289-.049-.464-.146a8.866 8.866 0 0 0-.996-.445c-.86-.339-1.747-.642-1.838-1.002-.128-.51.373-12.978.374-12.993 0 0 .28.048.82.533.35.313.81.808 1.374 1.59 1.924 2.667 2.97 4.33 2.984 4.793.003.118.005.231.003.341-.014 1.456-.416 2.347-.933 4.495-.278 1.152-.486 1.954-.743 2.404-.163.286-.347.43-.58.43m-2.133-13.328c-.12 0-.234.172-.131.302.59.753.655 1.98.804 2.89.191 1.162.187 2.325.174 3.499-.01.911.027 1.824-.043 2.734-.068.895-.3 1.749-.301 2.652 0 .11.085.165.171.165.085 0 .17-.054.171-.165.002-.972.258-1.911.308-2.878.06-1.151.049-2.31.05-3.465.002-1.126-.124-2.216-.323-3.32-.144-.806-.252-1.693-.77-2.354a.138.138 0 0 0-.11-.06"/>
            <path fill="#FFAB86" d="M192.555 109.618s-.067-.021-.187-.065a11.625 11.625 0 0 1-2.796-1.497 9.57 9.57 0 0 1-.886-.73l-.836-6.835c.645.468 1.357.977 2.134 1.52 1.348.94 2.242 1.547 2.835 1.94 1.025.678 1.145.712 1.145.712l1.113 2.268-2.522 2.687M230.699 107.658l-4.058-2.235-.279-2.51s.14-.158 1.155-2.53c.217-.507.474-1.115.778-1.846 1.727-4.142 2.626-6.872 2.93-7.432l.687.642 1.75-.2s-.059.558-.157 1.444c-.214 1.926-.618 5.402-1.027 8.046a49.706 49.706 0 0 1-.321 1.872c-.543 2.775-1.325 4.471-1.443 4.718l-.015.031"/>
            <path fill="#FFAB86" d="M231.912 91.747l-.688-.642s-.017-.026-.059-.084h1.768c.085 0 .12-.11.05-.159l-.78-.557v-.4h-.484v.4l-.709.506a28.87 28.87 0 0 0-.565-.719 25.324 25.324 0 0 1-.194-.242 4.924 4.924 0 0 1-.476-.685 1.794 1.794 0 0 1-.229-1.02c.065-1.048 1.43-2.14 1.974-2.145l.199-.002h.027c.14 0 .297.003.458.017.09.008.182.02.274.036.38.066.76.213 1.027.535.173.21.298.492.342.875.176 1.51-.186 4.085-.186 4.085l-1.75.2M216.64 181.97c-.512-.078-4.465-.075-5.516-.964-1.113-.942-1.705-2.847-1.705-2.847.036-.928.114-1.762.129-1.92l.002-.027 2.216-.363 1.574 1.505s.043.805 2.363 3.588c.367.44.682.771.937 1.028"/>
            <path fill="#41332C" d="M217.759 184.77h-.138c-1.505-.006-4.695-.2-5-.234-.384-.043-1.56-2.31-1.796-2.31s-.322 2.267-.322 2.267h-.62s.063-1.861-.343-2.803c-.403-.935-.125-3.496-.121-3.53 0 0 .592 1.904 1.705 2.846 1.051.889 5.004.886 5.516.964.03.005.048.01.054.015.093.096 1.897 1.225 1.983 1.61.086.385.064.984-.3 1.134-.067.027-.293.04-.618.04M205.289 113.263c-.397 0-.613-.008-.598-.03.063-.088.245-1.94.245-1.94.017 0 .444.023 1.128.05 1.11.044 2.9.102 4.713.102.75 0 1.504-.01 2.216-.035 3.1-.107 6.299-.774 6.99-.774.084 0 .131.01.138.032l.002.009c.064.232.384 1.671.384 1.671-.03.007-3.482.731-7.742.788-3.24.043-6.238.127-7.476.127"/>
            <path fill="#C61716" d="M220.533 125.905c-.173 0-.358-.04-.564-.137-.21-.1-.396-.209-.58-.31-.326-.177-.647-.327-1.086-.34a2.85 2.85 0 0 0-.076-.002c-.59 0-1.037.223-1.536.515a.611.611 0 0 1-.02.012c-.27.152-.601.212-.944.212-.478 0-.979-.118-1.366-.267-.545-.21-1.074-.576-1.644-.745a2.046 2.046 0 0 0-.643-.09 1.855 1.855 0 0 0-.114.007c-.967.099-1.801.76-2.768.86a1.797 1.797 0 0 1-.557-.028c-.783-.154-1.45-.748-2.215-.984-.233-.071-.46-.1-.682-.1-.718 0-1.393.301-2.101.437a3.671 3.671 0 0 1-.388.054 5.658 5.658 0 0 1-.467.022c-.24 0-.486-.022-.692-.09-.266-.09-.44-.316-.68-.435a.144.144 0 0 1-.083-.168c.017-.077.088-.148.175-.148.026 0 .053.007.08.02.167.083.283.174.412.253.106.066.22.124.38.164.169.044.34.064.51.067h.04c.404 0 .807-.097 1.188-.227.486-.166 1.042-.296 1.583-.296.28 0 .556.035.816.117.45.142.85.413 1.271.617.455.22.826.342 1.234.342.124 0 .252-.011.386-.034.109-.019.222-.045.341-.08.336-.097.677-.245 1.024-.383.468-.187.945-.356 1.43-.356.053 0 .105.002.157.006.624.049 1.149.432 1.693.697l.12.057c.496.223.983.318 1.52.321h.029c.07 0 .14-.001.213-.004.508-.022.723-.29 1.173-.48a2.792 2.792 0 0 1 1.08-.204 3.1 3.1 0 0 1 1.139.21c.187.076.35.191.515.298.219.142.44.27.722.27.02 0 .04 0 .061-.002.566-.037.979-.486 1.5-.643a.187.187 0 0 1 .053-.008c.172 0 .23.28.038.338-.636.192-1.081.665-1.677.665M221.052 102.817c-.086 0-.171-.055-.171-.165.002-.903.233-1.757.301-2.652.07-.91.034-1.823.043-2.734.013-1.174.017-2.337-.174-3.499-.149-.91-.215-2.137-.804-2.89-.103-.13.011-.302.131-.302.038 0 .077.018.11.06.518.66.626 1.548.77 2.353.199 1.105.325 2.195.323 3.321-.001 1.154.01 2.314-.05 3.465-.05.967-.306 1.906-.308 2.878 0 .11-.086.165-.171.165M202.394 102.603c-.085 0-.17-.055-.17-.165 0-1.628.025-3.258-.165-4.836-.214-1.776-.702-3.486-1.807-5.051-.067-.096.015-.259.133-.259l.015.001.026.003a.18.18 0 0 1 .153.13c1.311 1.881 1.759 3.973 1.91 6.137.09 1.276.077 2.577.077 3.875 0 .11-.086.165-.172.165"/>
            <path fill="#F28C69" d="M212.728 86.525a.605.605 0 0 1-.394-.154c-.455-.383-1.092-.715-1.746-1.157-.632-.427-.244-.953.032-.953l.023.001c.277.035 2.143.757 2.143.757-.003.219-.007.438-.007.654-.002.145-.004.288-.004.427a8.345 8.345 0 0 0 .008.422.568.568 0 0 1-.055.003"/>
            <path fill="#FFF" d="M232.933 91.02h-1.943c-.085 0-.12-.109-.051-.158l.071-.051.709-.507v.414h.485v-.413l.78.557c.069.05.034.159-.051.159"/>
            <path fill="#FFF" d="M231.719 90.718h.485v-.813h-.485z"/>
            <path fill="#FD5F5E" d="M312.307-1.027c-.293 0-.52-.15-.506-.438.033-.664.602-1.334.315-2.381-.242-.884-.277-1.154.449-1.154.134 0 .294.01.484.025 1.207.104.7 1.752.428 2.924-.162.698-.738 1.024-1.17 1.024"/>
            <path fill="#3F4057" d="M366.818 148.825h-.016l.016-.092v.092m-8.562-22.613c-.678-.921-1.388-1.716-2.122-2.344h1.452c.276.285.545.586.806.9-.047.471-.093.953-.136 1.444"/>
            <path fill="#FFAB86" d="M369.58 81.19c-.267 0-.924-.407-1.636-.956a27.76 27.76 0 0 0-.568-.46c-.45-.38-.885-.789-1.225-1.161a4.288 4.288 0 0 1-.54-.698c-.32-.56-.54-1.571-.675-2.748.03.019.048.027.048.027l-.006-3.445s-.05-.017-.13-.017a.518.518 0 0 0-.082.006v-.027.003s.418-.325.59-1.652c.17-1.326.777-2.182 1.668-2.503.149-.053.303-.076.465-.076.81 0 1.824.565 3.36.654 1.845.107 2.637.059 3.578.7.934.638 1.197 3.714 1.201 3.762a.472.472 0 0 0-.123-.017h-.025l-.785 3.355s.063-.015.16-.058c-.322 1.201-.669 2.246-.963 2.614a7.553 7.553 0 0 1-.749.744c-.185.165-.395.343-.621.521-.793.483-1.614 1.037-2.489 1.373a2.27 2.27 0 0 1-.447.06h-.007m-.762-4.252c-.05 0-.086.005-.105.019-.406.278.286 1.035 1.144 1.053h.033c.839 0 1.338-.69 1.126-.83-.14-.092-.39-.105-.654-.105h-.167l-.166.002h-.096c-.323-.007-.874-.139-1.115-.139m1.575-4.099c-.111 0-.226.103-.173.238.151.382.17.886.227 1.292.07.502-.008.98-.517 1.225-.176.084-.1.342.058.342a.171.171 0 0 0 .075-.019c.384-.184.77-.543.787-.983.013-.374-.086-.757-.145-1.123-.046-.284-.055-.597-.162-.867a.156.156 0 0 0-.15-.105m2.746.076h-.011c-.274.011-.386.522-.328.731.032.113.1.16.177.161.113 0 .243-.102.3-.25.048-.127.12-.44.011-.577a.18.18 0 0 0-.149-.065m-5.96-.675a.266.266 0 0 0-.054.006c-.268.058-.29.58-.196.776.044.092.107.13.173.13.12 0 .248-.13.28-.3.027-.134.043-.455-.088-.57a.17.17 0 0 0-.115-.042m5.5-1.388c-.144 0-.205.058-.292.188-.075.116-.115.345.34.429.457.084 1.466.235 1.65.244h.006c.185 0 .488-.36-.91-.7-.42-.103-.649-.161-.794-.161m-5.008-.538l-.392.003c-1.457.015-1.221.445-1.04.478.181.033 1.198.114 1.662.136l.058.002c.406 0 .415-.218.37-.342-.09-.242-.158-.277-.658-.277M357.47 179.362c-.852 0-1.43-.272-1.445-.316 0-.003-.002-.004-.005-.004-.004 0-.01.005-.02.016l.301-1.832c.675.423 1.564.793 2.382.809l.154.001c.458 0 .936-.038 1.377-.103-.065.368-.145.81-.22 1.194l-.009-.01s-.747.023-1.915.2a4.035 4.035 0 0 1-.6.045"/>
            <path fill="#41332C" d="M357.967 184.77h-.198c-3.08-.003-7.69-.148-7.792-.23-.222-.174-.578-1.643.44-1.975.85-.277 3.943-2.074 4.29-2.327.916-.668 1.211-1.093 1.292-1.18.01-.01.017-.016.021-.016.003 0 .004.001.005.004.014.044.593.316 1.444.316.188 0 .39-.013.601-.045 1.168-.177 1.915-.2 1.915-.2l.008.01c.048.065.292.47.515 2.258.19 1.515.076 3.195-.032 3.27-.114.082-1.14.114-2.509.115"/>
            <path fill="#FFAB86" d="M364.984 75.194s-.018-.008-.048-.027a1.662 1.662 0 0 1-.597-.667 3.437 3.437 0 0 1-.218-.549c-.145-.483-.208-1.082.026-1.615.195-.446.445-.57.62-.598a.518.518 0 0 1 .21.011l.007 3.445"/>
            <path fill="#41332C" d="M369.678 116.247l-9.793-1.428v.001c-.421-2.823-.376-6.344-.406-7.26-.042-1.278-2.029-13.019-2.704-17.457a73.678 73.678 0 0 1 1.81 3.17s3.929-2.313 3.87-2.75c-.057-.436.747-7.341.747-7.341l-.28-.32c.49.1 1.187.237 1.954.381l-.426.372 4.639.301.012.001 3.508.994 1.54-.941-.246-.36c.967-.077 1.86-.137 2.413-.137.125 0 .233.003.32.01h-.007s-.717 6.681-1.037 6.984c-.32.302 1.266 4.576 1.266 4.576s2.88-1.207 4.896-1.808c-.527 3.223-1.236 7.728-1.208 8.66.037 1.484-.445 6.354-.637 8.851a31.073 31.073 0 0 1-.633 4.318l-9.598 1.183m-1.844-10.662c.13.438.257.857.368 1.22.06.193.247.292.435.292.175 0 .35-.086.42-.261l1.673-4.17a2.431 2.431 0 0 0 .17-1.079l-.107-1.475-.027-.382-.289-3.998-.025-.343-.593-8.218c.286-.095.485-.326.479-.59v-.001-.007-.005-.002l-.001-.006v-.001-.004-.002l-.001-.006v-.002-.004-.002l-.002-.005v-.002-.005-.001l-.001-.006v-.002l-.001-.005-.198-1.261a.553.553 0 0 0-.1-.24.724.724 0 0 0-.284-.227.9.9 0 0 0-.366-.081l-.18-.002h-.019c-.363 0-.674.21-.748.497a.386.386 0 0 0-.004.02l-.002.009-.193.965-.059.29v.005c-.053.282.131.543.422.659l.004.001-.011.032c-.044.351-.144 1.092-.275 2.063l-.06.439a1684.19 1684.19 0 0 0-.467 3.46 508.067 508.067 0 0 0-.542 4.175l-.05.403c-.24 1.937-.412 3.515-.412 4.052v.01c0 .045.023.158.062.324l.087.342c.178.68.49 1.766.797 2.8l.1.337"/>
            <path fill="#DF4140" d="M358.837 178.036l-.154-.001c-.818-.016-1.707-.386-2.382-.809-.577-.362-.997-.763-1.078-1.013-.174-.54 1.155-20.664 1.33-22.148.063-.542.162-2.42.309-5.24.256-4.908.659-12.668 1.282-21.207a103.934 103.934 0 0 1 .343-3.75 108.94 108.94 0 0 1 .707-5.25c.372-2.326.681-3.754.69-3.798h.001l9.793 1.427-.027.566a.515.515 0 0 0-.353-.082c-.279.043-.363.315-.31.56a.17.17 0 0 0 .11.116c.043.05.106.089.199.106a.459.459 0 0 0 .327-.08l-.027.604c-1.487-.091-2.984-.496-4.462-.692-.821-.11-1.608-.213-2.413-.429-.303-.08-.593-.095-.897-.15-.56-.099-.79-.4-1.281-.524a.186.186 0 0 0-.046-.006c-.18 0-.243.286-.045.336.341.086.574.389.91.487.405.119.853.085 1.268.187l.11.027-.018.075c-.017 1.02-.552 1.976-1.072 2.824-.246.4-.594.807-1.008 1.057-.388.235-.796.334-1.173.593-.15.103-.057.326.084.326.028 0 .058-.01.089-.03.435-.3.973-.42 1.391-.743.41-.315.728-.69.997-1.124.541-.873 1.016-1.852 1.035-2.9.596.14 1.176.26 1.8.333 1.565.183 3.144.626 4.717.695-.133 3.244-.332 9.218-.068 10.909.054.345.156 1.028.292 1.95-.293 1.87-1.948 11.357-2.99 17.495l-.015.092a413.575 413.575 0 0 0-.712 4.298c-.485 3.097-4.08 23.687-4.08 24.107 0 .28-.807.558-1.796.703-.441.065-.92.103-1.377.103"/>
            <path fill="#41332C" d="M358.586 93.274s-.87-1.627-1.811-3.17c-.458-.751-.933-1.482-1.333-1.996-1.222-1.572-4.08-6.747-5.521-9.077-.297-.48-.26-1.004-.01-1.525.686-1.43 2.97-2.85 4.354-3.356.34-.124.627-.194.82-.194.125 0 .211.029.25.088.385.595 6.23 7.271 7.587 8.819l.28.319s-.804 6.905-.746 7.342c.058.436-3.87 2.75-3.87 2.75M369.1 83.917h-.011l-4.64-.302 1.654-1.442.011.007 2.986 1.737"/>
            <path fill="#FFAB86" d="M275.668 179.084c-.703 0-1.177-.189-1.193-.227v-.001a30.196 30.196 0 0 1-.573-1.613h.162c.273 0 .558-.01.852-.034 1.17-.095 2.178-.451 2.88-.875.105.328.29.906.448 1.43h-.001s-.556.968-1.71 1.224c-.311.07-.604.096-.865.096"/>
            <path fill="#41332C" d="M269.268 184.77h-.133c-.19 0-.303-.007-.319-.017-.232-.16-.688-1.602.304-2.002.829-.334 3.792-2.338 4.122-2.614.98-.824 1.192-1.283 1.229-1.283.001 0 .002 0 .003.002l.001.001c.016.038.49.227 1.193.227.261 0 .554-.026.866-.096 1.153-.256 1.709-1.225 1.709-1.225.02.022.508.591.885 2.522.292 1.499.273 3.782.17 3.865-.309.254-8.057.611-10.03.62"/>
            <path fill="#FFAB86" d="M250.761 179.084c-.702 0-1.177-.189-1.192-.227-.001-.002-.003-.003-.005-.003-.004 0-.01.005-.02.017l.12-1.255c.424.158.87.263 1.295.27l.046.001c.9 0 1.99-.497 2.726-.987-.038.374-.12 1.145-.198 1.768l-.009-.01s-.744.074-1.897.33c-.312.07-.604.096-.866.096"/>
            <path fill="#41332C" d="M244.362 184.77h-.134c-.19 0-.303-.007-.318-.017-.233-.16-.689-1.602.304-2.002.828-.334 3.792-2.338 4.12-2.614.87-.73 1.136-1.175 1.21-1.266.01-.012.016-.017.02-.017.002 0 .004 0 .005.003.015.038.49.227 1.192.227.262 0 .554-.026.866-.096 1.153-.256 1.897-.33 1.897-.33l.009.01c.052.06.323.449.668 2.217.292 1.498.294 3.182.192 3.265-.31.254-8.058.611-10.031.62"/>
            <path fill="#A34B23" d="M251.005 177.887h-.046a4.003 4.003 0 0 1-1.295-.27c-1.088-.405-2.038-1.163-2.164-1.551-.086-.267.04-5.453.211-10.816l8.871-13.402-.09.398c-.697 3.056-1.92 23.4-1.92 23.82 0 .168-.338.5-.84.834-.737.49-1.827.987-2.727.987M274.064 177.244l-.162-.001c-1.745-.03-2.98-.528-3.23-1.177-.296-.769-6.67-17.795-7.194-21.9-.117-.912-.315-2.862-.554-5.341-.165-1.717-.349-3.687-.538-5.744l10.442-15.775a33.19 33.19 0 0 1-.007.318c-.123 4.164-.7 14.686-.95 21.2-.106 2.774-.153 4.822-.08 5.343.244 1.746 7.054 20.763 7.054 20.955 0 .355-.39.813-1.05 1.212-.701.424-1.709.78-2.879.875-.294.024-.58.035-.852.035"/>
            <path fill="#3F4057" d="M308.933 73.951h-.788l.668-1.009c.015.342.055.681.12 1.009"/>
            <path fill="#653721" d="M375.628 72.6c-.004-.049-.267-3.125-1.2-3.762-.942-.642-1.734-.594-3.578-.701-1.537-.09-2.55-.654-3.361-.654-.162 0-.316.023-.465.076-.891.32-1.497 1.177-1.669 2.503-.171 1.327-.588 1.652-.588 1.652v-.003c-.003-.037-.024-.404-.051-.954-.083-1.67-.221-5.027-.045-5.937.302-1.566.776-1.882 1.633-2.438l.1-.065c.524-.341.784-.488 1.281-.488.369 0 .868.08 1.7.223l.052.008c1.47.251 2.299.438 2.995.438.254 0 .49-.025.734-.08.18-.041.354-.06.522-.06 1.124 0 2.003.845 2.73 1.616.834.888.94 1.638.727 2.364-.158.534-.065 2.055-.343 3.21-.208.867-1.158 3.014-1.174 3.051"/>
            <path fill="#C61716" d="M380.258 122.48a.156.156 0 0 1-.137-.081c-.123-.206-.311-.253-.493-.392-.256-.198-.472-.46-.725-.67-.408-.34-.812-.67-1.093-1.129-.515-.839-1.028-1.78-1.136-2.774a.138.138 0 0 1 .029-.106c-.602.157-1.202.33-1.81.458-1.573.33-3.123.606-4.725.606-.183 0-.368-.004-.552-.011l-.033-.002c-1.573-.07-3.152-.512-4.717-.695a15.724 15.724 0 0 1-1.8-.333c-.02 1.048-.494 2.027-1.035 2.9-.269.433-.587.809-.997 1.124-.418.322-.956.443-1.391.743-.03.02-.06.03-.09.03-.14 0-.232-.223-.083-.326.377-.26.785-.358 1.173-.593.414-.25.762-.657 1.008-1.057.52-.848 1.055-1.804 1.072-2.824l.019-.075-.111-.027c-.415-.102-.863-.068-1.267-.187-.337-.098-.57-.401-.911-.487-.198-.05-.135-.336.045-.336.014 0 .03.002.046.006.492.124.722.425 1.281.525.304.054.594.068.897.15.805.215 1.592.318 2.413.428 1.478.196 2.975.6 4.462.692l.019.002c.234.014.467.02.701.02 1.665 0 3.324-.333 4.939-.704.75-.173 1.488-.42 2.233-.588.558-.125 1.143-.361 1.708-.44a.154.154 0 0 1 .027-.001c.195 0 .27.303.062.332-.589.081-1.17.348-1.753.47-.217.046-.432.098-.647.152.065.02.121.07.13.154.064.583.292 1.073.579 1.564.294.51.469 1.063.876 1.502.37.394.822.735 1.222 1.096.254.228.545.336.723.63.078.132-.038.254-.158.254"/>
            <path fill="#FFAB86" d="M324.624 149.102c.299-.393.607-.755.927-1.074 1.194-1.192 2.925-2.44 4.24-3.605a65.706 65.706 0 0 0 .219 4.482l-5.386.197"/>
            <path fill="#FFAB86" d="M328.49 176.836c-.586-3.725-3.902-20.998-4.903-26.199.332-.541.677-1.06 1.037-1.535l5.386-.197s.924 3.721 1.736 6.816c.807 3.09-.524 6.668.623 20.492.003.038.006.076.006.113 0 0 .004.021.004.058 0-.037-.004-.058-.004-.058l-2.211-.393-.942.873c-.297.003-.55.016-.732.03"/>
            <path fill="#FFAB86" d="M325.203 181.983c.26-.253.58-.58.952-1.014 1.643-1.918 2.17-2.89 2.335-3.3a.869.869 0 0 0 .079-.254s-.004.075-.08.253h.11c.154 0 .356.003.623.017.657.031 2.03.319 2.763.48.298.065.493.11.493.11a26.438 26.438 0 0 0-.031-.833 6.773 6.773 0 0 0-2.006-.568c-.452-.055-.87-.068-1.219-.068l.942-.873 2.211.393s.004.021.004.058v.004c.014.147.044.544.068 1.054.014.253.024.538.031.832v.002s-.62 1.896-1.746 2.822c-1.063.874-5.015.814-5.529.885"/>
            <path fill="#41332C" d="M324.49 184.77h-.15c-.482-.001-.828-.016-.913-.053-.362-.155-.375-.755-.284-1.138.09-.384 1.911-1.487 2.006-1.582.006-.005.024-.01.054-.014.514-.07 4.466-.011 5.53-.885 1.125-.926 1.745-2.822 1.745-2.822v.004c.013.103.248 2.026.01 3.536-.16 1.012-.565 2.787-.565 2.787l-.62-.01s-.054-2.268-.289-2.272c-.237 0-1.444 2.248-1.83 2.285-.285.028-3.1.16-4.693.164M332.478 178.274l-.493-.11c-.732-.16-2.106-.448-2.763-.479a12.007 12.007 0 0 0-.623-.017h-.11a.869.869 0 0 0 .08-.253 9.882 9.882 0 0 0-.08-.579 10.118 10.118 0 0 1 1.951.038 6.773 6.773 0 0 1 2.007.568c.014.253.024.538.031.832"/>
            <path fill="#FFAB86" d="M312.97 176.836c-.292-1.864-1.269-7.12-2.297-12.559.546-.733 1.11-1.447 1.698-1.989 1.065-.982 2.628-1.867 4.117-2.77-.079 3.006-.388 7.663.362 16.695.003.038.006.076.006.113 0 0 .004.021.004.058 0-.037-.004-.058-.004-.058l-2.211-.393-.942.873c-.297.003-.55.016-.732.03"/>
            <path fill="#FFAB86" d="M309.684 181.983c.26-.253.579-.58.952-1.014 1.643-1.918 2.17-2.89 2.335-3.3.075-.179.079-.254.079-.254s-.004.075-.08.253h.11c.154 0 .356.003.623.017.658.031 2.03.319 2.763.48.298.065.493.11.493.11a28.805 28.805 0 0 0-.03-.833 6.773 6.773 0 0 0-2.006-.568 10.12 10.12 0 0 0-1.22-.068l.942-.873 2.211.393s.004.021.004.058v.004c.014.147.044.544.069 1.054a28.805 28.805 0 0 1 .03.834s-.62 1.896-1.746 2.822c-1.064.874-5.015.814-5.529.885"/>
            <path fill="#41332C" d="M308.972 184.77h-.15c-.483-.001-.829-.016-.914-.053-.362-.155-.375-.755-.284-1.138.09-.384 1.911-1.487 2.006-1.582.005-.005.024-.01.054-.014.514-.07 4.465-.011 5.53-.885 1.125-.926 1.745-2.822 1.745-2.822v.013c.011.2.137 2.568.007 3.541-.195 1.452-.562 2.773-.562 2.773l-.62-.01s-.054-2.268-.289-2.272c-.237 0-1.444 2.248-1.83 2.285-.285.028-3.1.16-4.693.164"/>
            <path fill="#FFAB86" d="M303.437 105.829a1.594 1.594 0 0 1-.9-.286l2.368-3.98-1.03-2.308s-.103-.033-.93-.62c2.214-3.968 5.721-10.07 6.618-11.628-.474 1.247-.434 4.681-.787 8.016-.14 1.316-.056 2.785.109 4.235-.354.603-.724 1.228-1.108 1.865-1.315 2.186-2.129 4.381-4.084 4.685-.088.014-.173.02-.256.02"/>
            <path fill="#FFAB86" d="M302.537 105.543l-.028-.018c-.223-.151-1.757-1.218-3.633-3.34-1.39-1.573-3.567-4.4-5.133-6.475l1.808-2.732c1.069.865 2.559 2.063 4.443 3.482 1.465 1.103 2.38 1.77 2.951 2.176.827.586.93.62.93.62l1.03 2.306-2.368 3.981M341.36 103.544c.013-.025.018-.038.018-.038l-3.82-2.119-2.274 1.1s-.004.012-.03.06c-2.158-2.16-5.055-5.743-5.267-5.803a.224.224 0 0 0-.065-.009c-.31 0-.805.508-.805.508-.024-.108-1.007-.778-2.294-1.614.08-.257.133-.5.154-.717.228-2.389-1.491-4.668-.95-5.809l1.906-1.645s1.498.342 2.268.813c.77.47 10.998 13.693 11.212 14.891a.585.585 0 0 1-.052.382M315.188 83.016h-.026c-1.111-.104-3.012-2.362-3.514-3.484-.478-1.068-.746-2.307-1.066-5.395.103-.354.25-.81.448-1.315.292-.743.942-1.479 1.38-1.92.641.575 2.832 2.23 4.525 2.749-.701.051-.774.03-.86.303-.038.116-.021.315.325.315.032 0 .067-.002.105-.006.434-.04 1.368-.16 1.585-.205 1.326.587 2.055 1.435 2.055 2.559 0 .302-.074.663-.178 1.08-1.224.345-2.856.814-2.906.868-.08.09-1.735 2.253-1.735 2.253a90.264 90.264 0 0 0 .28 2.104 1.59 1.59 0 0 1-.418.094m-.777-3.613c-.29 0-.574.009-.724.11-.206.138.283.805 1.098.805h.044c.841-.026 1.513-.773 1.113-1.043-.018-.012-.052-.017-.097-.017-.234 0-.779.136-1.098.144a6.768 6.768 0 0 1-.168.002H314.41m-.302-3.29c-.07 0-.134.038-.164.127-.152.455-.356.964-.42 1.442-.031.232.06.384.184.57.084.126.228.438.404.459l.028.001c.216 0 .287-.296.128-.391-.084-.125-.182-.238-.252-.372-.085-.163-.055-.255-.01-.424.098-.37.202-.745.324-1.108.055-.169-.09-.304-.222-.304m-2.059-.465a.16.16 0 0 0-.116.045c-.118.114-.087.415-.058.54.038.155.16.27.271.27.064 0 .125-.038.164-.13.08-.189.035-.679-.22-.721a.222.222 0 0 0-.04-.004m5.144-.71a.172.172 0 0 0-.123.047c-.126.121-.093.442-.062.573.04.165.17.288.288.288.068 0 .133-.04.174-.139.084-.2.037-.72-.233-.766a.288.288 0 0 0-.044-.003m-4.666-.784c-.14 0-.363.046-.768.107-.83.126-1.087.639-.909.638.18 0 1.164-.101 1.61-.162.445-.06.417-.284.349-.4-.08-.133-.136-.183-.282-.183"/>
            <path fill="#FFAB86" d="M319.334 90.606c-2.222-1.903-4.917-4.567-5.176-4.823.87-.11 1.62-.322 1.643-.732.011-.194-.016-.29-.042-.632a.595.595 0 0 0 .43-.194c.416-.427 1.017-.82 1.625-1.324.571-.473.172-.946-.104-.946a.215.215 0 0 0-.045.004c-.272.062-2.058.964-2.058.964a90.264 90.264 0 0 0-.28-2.104s1.653-2.163 1.734-2.254c.05-.054 1.682-.523 2.906-.868-.241.965-.644 2.236-.664 3.798-.026 2.017.656 3.338 1.512 5.021.728 1.433-1.08 1.673-1.48 4.09m6.692-1.503c.29-.61.899-1.039 1.402-1.77.306.078.504.125.504.125l-1.906 1.645"/>
            <path fill="#41332C" d="M312.147 76.505c-.111 0-.233-.116-.27-.272-.03-.124-.061-.425.057-.54a.16.16 0 0 1 .116-.044c.013 0 .027.001.042.004.254.042.298.532.22.72-.04.093-.1.132-.165.132M317.298 75.847c-.118 0-.247-.123-.288-.288-.031-.131-.064-.452.062-.573a.172.172 0 0 1 .123-.047l.044.003c.27.046.317.566.233.766-.041.098-.106.14-.174.14"/>
            <path fill="#F28C69" d="M314.14 78.713l-.027-.001c-.176-.02-.32-.333-.404-.458-.125-.187-.215-.34-.184-.571.064-.478.268-.987.42-1.442.03-.09.095-.127.164-.127.132 0 .277.135.222.304-.122.363-.226.739-.324 1.108-.045.17-.075.26.01.424.07.134.168.247.252.372.16.095.088.391-.128.391"/>
            <path fill="#FFF" d="M314.785 80.318c-.815 0-1.304-.667-1.098-.805.15-.101.434-.11.724-.11H314.747c.32-.009.864-.145 1.098-.145.045 0 .079.005.097.017.4.27-.272 1.017-1.113 1.042h-.044"/>
            <path fill="#FFE8DC" d="M316.4 74.269c-.346 0-.363-.199-.326-.315.087-.273.16-.252.861-.303l.081.024c.392.112.751.24 1.074.383-.217.044-1.151.164-1.585.205a1.066 1.066 0 0 1-.105.006M310.852 74.9c-.178 0 .08-.512.909-.638.405-.061.628-.107.768-.107.146 0 .202.05.282.184.068.115.096.339-.349.4-.446.06-1.43.161-1.61.161"/>
            <path fill="#F28C69" d="M315.759 84.419a6.222 6.222 0 0 0-.02-.26c-.014-.188-.038-.385-.06-.585-.022-.215-.047-.433-.072-.65 0 0 1.786-.903 2.058-.965a.215.215 0 0 1 .045-.004c.276 0 .675.473.104.946-.608.504-1.209.897-1.624 1.324a.595.595 0 0 1-.431.194"/>
            <path fill="#344367" d="M307.006 167.79c-.19 0-.378-.043-.57-.139-1.535-.767-2.14-11.218-2.129-18.826.003-2.006.05-3.814.133-5.195.323-5.352.254-13.534.894-19.762.152-1.474.343-2.84.589-4.03l.064-.307c1.671-7.936 3.702-11.19 3.759-13.444.037-1.485-.554-4.126-.861-6.829-.165-1.45-.249-2.919-.109-4.235.353-3.335.313-6.769.787-8.016.062-.163.133-.289.214-.372.094-.096.201-.181.32-.258.844-.547 2.244-.648 3.154-.648.525 0 .887.033.887.033l.02.02c.259.257 2.954 2.92 5.176 4.824-.07.423-.097.912-.06 1.486.172 2.64 2.212 3.227 2.426 4.637.303 2.001.963 2.735 1.717 2.735 1.307 0 2.898-2.206 3.406-3.835 1.287.836 2.27 1.506 2.294 1.614.057.257-.999 3.994-1.683 5.99-.685 1.998-1.77 6.106-1.598 7.304.048.336.245 1.113.526 2.198a6.562 6.562 0 0 0-.725-.052c-.432 0-.788.085-1.164.355-.854.612-1.052 2.348-.767 2.813.302.492.826 1.38 1.726 1.38.226 0 .474-.056.75-.187a9.746 9.746 0 0 0 1.117-.65c.243.981.497 2.038.745 3.137.316 1.4.623 2.869.886 4.337.066.369.129.737.19 1.104 1.052 6.448 2.537 13.324 2.537 16.833 0 .769-.795 1.666-1.867 2.618-1.314 1.166-3.045 2.413-4.24 3.605-.319.32-.627.681-.926 1.074-.36.475-.705.994-1.037 1.535-1.263 2.053-2.341 4.425-3.342 5.888-.755 1.102-2.217 2.057-3.757 2.992-1.49.904-3.052 1.79-4.117 2.771-.588.542-1.152 1.256-1.698 1.989-1.271 1.704-2.455 3.514-3.667 3.514m.955-16.141c-.101 0-.208.084-.178.213.094.39.289.744.506 1.074.314.478.484 1.017.77 1.509.258.44.455.863.661 1.323.107.24.21.444.453.562a.176.176 0 0 0 .079.018c.16 0 .265-.23.094-.314-.332-.16-.381-.641-.517-.944-.177-.399-.45-.745-.635-1.14-.33-.701-.903-1.435-1.08-2.178a.15.15 0 0 0-.153-.123m6.474-7.441c-.085 0-.165.054-.153.163.155 1.454.971 2.727 1.46 4.068.03.081.1.117.17.117.104 0 .207-.083.161-.208-.474-1.3-1.298-2.568-1.449-3.977-.011-.109-.103-.163-.189-.163m12.296-8.573c-.034 0 .254.52.265.54.155.281.333.533.5.808.386.637.956 1.477 1.085 2.213.015.086.077.124.143.124.1 0 .21-.086.187-.215-.121-.69-.599-1.27-.909-1.885-.284-.564-.862-1.155-.988-1.78a.167.167 0 0 0-.12-.12l-.071-.015a.188.188 0 0 0-.038-.004c-.187 0-.256.294-.053.334m-8.15-4.62c-.11 0-.23.125-.169.262.332.753.709 1.478.997 2.249.26.698.64 1.449.692 2.2.007.11.097.165.183.165s.167-.054.16-.164c-.113-1.592-1.103-3.186-1.736-4.622-.028-.064-.076-.09-.127-.09m-9.714-1.442c-.085 0-.163.054-.15.163.083.633.388 1.13.661 1.7.327.68.83 1.396 1.058 2.111.026.083.094.12.162.12.104 0 .208-.084.168-.21-.403-1.27-1.53-2.37-1.706-3.721-.014-.108-.107-.163-.193-.163m12.348-10.015c-.104 0-.208.083-.167.21.162.496.281 1.03.527 1.491.266.5.68 1.138.751 1.715.013.109.106.164.192.164.085 0 .164-.054.15-.164-.056-.462-.308-.969-.515-1.388a14.012 14.012 0 0 1-.775-1.909.166.166 0 0 0-.163-.119m-9.912-1.288c-.1 0-.21.085-.183.214.133.647.5 1.346.767 1.95.27.608.497 1.305.877 1.856.037.055.09.077.142.077.122 0 .241-.122.154-.249-.363-.528-.59-1.232-.852-1.82-.262-.59-.63-1.278-.758-1.905a.144.144 0 0 0-.147-.123m3.17-12.325c-.1 0-.21.085-.186.215.24 1.269 1.068 2.338 1.192 3.635.01.108.102.163.188.163.085 0 .165-.054.155-.163-.128-1.337-.96-2.43-1.205-3.726a.14.14 0 0 0-.145-.124m4.093-7.61c-.123 0-.242.122-.153.249.177.249.265.518.389.794.127.285.324.527.436.818.192.504.457 1.195.521 1.724.013.109.106.164.192.164.085 0 .164-.054.15-.164-.072-.603-.343-1.364-.577-1.926-.111-.266-.285-.487-.402-.75-.133-.302-.22-.56-.413-.833a.173.173 0 0 0-.143-.076m-7.043-7.447c-.085 0-.164.054-.15.163.139 1.208.661 2.38.946 3.555.021.085.086.122.153.122.102 0 .21-.084.178-.213-.278-1.143-.8-2.29-.936-3.464-.012-.108-.105-.163-.19-.163"/>
            <path fill="#FFAB86" d="M329.542 114.713l-.761-1.588-.91-.24c.314-.555 2.147-2.77 4.736-6.434 2.071-2.931 2.541-3.71 2.647-3.904a.487.487 0 0 0 .03-.06l2.274-1.1 3.82 2.119-.017.038c-.127.27-.954 1.931-2.998 3.851-2.613 2.455-8.821 7.318-8.821 7.318"/>
            <path fill="#FFAB86" d="M325.432 117.23c-.9 0-1.424-.887-1.726-1.38-.285-.464-.087-2.2.767-2.812.376-.27.732-.355 1.164-.355.219 0 .456.022.725.052l.238.028c.94.113 1.272.122 1.272.122l.909.24.76 1.588s-1.108.936-2.242 1.682c-.384.252-.77.483-1.118.649a1.735 1.735 0 0 1-.749.187"/>
            <path fill="#FFE8DC" d="M323.417 99.464c-.754 0-1.414-.734-1.717-2.735-.214-1.41-2.254-1.997-2.426-4.637a6.476 6.476 0 0 1 .06-1.486c.4-2.417 2.21-2.657 1.48-4.09-.855-1.683-1.537-3.004-1.51-5.02.019-1.563.422-2.834.663-3.8.104-.416.178-.777.178-1.08 0-1.123-.729-1.97-2.055-2.558a8.287 8.287 0 0 0-1.074-.383l-.08-.024c-1.694-.518-3.885-2.174-4.525-2.748.255-.256.439-.413.439-.413s.17-.963 0-1.24c-.075-.123-.126-.146-.205-.146-.023 0-.05.002-.08.004a1.325 1.325 0 0 1-.468-.051.71.71 0 0 0-.19-.024c-.044 0-.09.003-.136.01a11.774 11.774 0 0 1-.091-.432l1.198-1.81c1.33-.638 3.422-1.274 4.913-1.282h.024c1.155 0 2.335.427 3.37 1.091a8.167 8.167 0 0 1 2.255 2.148 5.643 5.643 0 0 1 .9 1.999c.271 1.095.232 2.025.348 3.194.09.914.276 1.974.777 3.373.5 1.394 2.756 2.856 2.759 7.095 0 1.414-.357 2.279-.795 2.914-.503.731-1.112 1.16-1.402 1.77-.541 1.141 1.178 3.42.95 5.809-.02.217-.074.46-.154.717-.508 1.629-2.099 3.836-3.406 3.835"/>
            <path fill="#FFE8DC" d="M310.388 74.9s-.514-3.19-.514-3.447a.94.94 0 0 1 .017-.14l1.422-2.147a2.04 2.04 0 0 1 .458-.124c.046-.006.092-.01.137-.01a.71.71 0 0 1 .19.025c.16.044.276.055.365.055.04 0 .073-.002.103-.004s.056-.004.079-.004c.08 0 .13.023.205.145.17.278 0 1.241 0 1.241s-.184.157-.44.413c-.438.44-1.088 1.176-1.38 1.92-.199.505-.345.96-.448 1.314-.136.47-.194.763-.194.763"/>
            <path fill="#41332C" d="M316.96 178.274l-.494-.11c-.732-.16-2.105-.448-2.763-.479a11.987 11.987 0 0 0-.623-.017h-.11c.076-.178.08-.253.08-.253a9.882 9.882 0 0 0-.08-.579 10.12 10.12 0 0 1 1.951.038 6.773 6.773 0 0 1 2.008.568c.013.253.023.538.03.832"/>
            <path fill="#768DC0" d="M312.472 94.729a.151.151 0 0 1-.153-.122c-.285-1.175-.807-2.347-.947-3.555-.013-.109.066-.163.151-.163.086 0 .179.055.191.163.136 1.175.658 2.321.936 3.464.031.129-.076.213-.178.213M319.951 102.085c-.086 0-.179-.055-.192-.164-.064-.529-.33-1.22-.52-1.724-.113-.291-.31-.533-.437-.818-.124-.276-.212-.545-.389-.794-.089-.127.03-.249.153-.249.052 0 .105.023.143.076.193.272.28.531.413.832.117.264.291.485.402.751.234.562.505 1.323.578 1.926.013.11-.066.164-.15.164M315.668 109.96c-.086 0-.178-.056-.188-.164-.124-1.297-.953-2.366-1.192-3.635-.024-.13.085-.215.185-.215a.14.14 0 0 1 .145.124c.244 1.296 1.077 2.389 1.205 3.726.01.11-.07.163-.155.163M322.519 123.139c-.086 0-.179-.055-.192-.164-.07-.577-.485-1.215-.751-1.715-.246-.462-.365-.995-.527-1.491-.041-.127.063-.21.167-.21.068 0 .136.036.163.119.222.676.46 1.272.775 1.909.207.42.459.926.515 1.388.014.11-.065.164-.15.164M312.907 122.368a.169.169 0 0 1-.142-.077c-.38-.551-.607-1.248-.877-1.856-.267-.604-.634-1.303-.767-1.95-.026-.13.083-.214.183-.214.067 0 .13.037.147.123.129.627.496 1.316.758 1.905.262.588.489 1.292.852 1.82.087.127-.032.25-.154.25M320.285 135.892c-.086 0-.176-.055-.183-.164-.053-.752-.432-1.503-.692-2.201-.288-.771-.665-1.496-.997-2.25-.06-.136.06-.261.17-.261.05 0 .098.026.126.09.633 1.436 1.623 3.03 1.735 4.622.008.11-.073.164-.159.164M310.6 133.667a.164.164 0 0 1-.163-.119c-.228-.715-.731-1.43-1.058-2.112-.273-.57-.578-1.066-.66-1.7-.014-.108.064-.162.149-.162.086 0 .18.055.193.163.177 1.35 1.303 2.45 1.706 3.72.04.127-.064.21-.168.21M315.911 148.557a.173.173 0 0 1-.168-.117c-.49-1.341-1.306-2.614-1.461-4.068-.012-.11.068-.163.153-.163.086 0 .178.054.19.163.15 1.409.974 2.678 1.448 3.977.046.125-.057.208-.162.208M310.252 156.35a.176.176 0 0 1-.079-.02c-.243-.117-.346-.321-.453-.56-.206-.461-.403-.884-.66-1.324-.287-.492-.457-1.03-.771-1.51-.217-.329-.412-.682-.506-1.073-.03-.129.077-.213.178-.213a.15.15 0 0 1 .153.123c.177.743.75 1.477 1.08 2.179.185.394.458.74.635 1.139.136.303.185.783.517.944.171.083.065.314-.094.314M328.724 139.32c-.066 0-.128-.037-.143-.123-.13-.736-.699-1.576-1.085-2.213-.167-.275-.345-.527-.5-.809-.011-.02-.3-.539-.265-.539-.202-.04-.133-.334.054-.334.012 0 .025.001.038.004l.071.014a.167.167 0 0 1 .12.12c.126.626.704 1.217.988 1.781.31.614.788 1.194.909 1.885.023.13-.087.215-.187.215"/>
            <path fill="#FD5F5E" d="M329.454 76.043c-.119 0-.256-.006-.413-.016-.939-.06-.865-1.074-.67-2.076.057-.288.123-.575.178-.838.15-.711.732-1.05 1.166-1.05.285 0 .506.146.498.428-.012.445-.265.898-.338 1.46-.036.278-.028.583.075.928.269.906.304 1.164-.496 1.164M342.987 46.388c-.179 0-.44-.105-.838-.305-1.081-.546.002-1.887.692-2.873a1.313 1.313 0 0 1 1.077-.586c.487 0 .868.297.697.667-.277.604-1.056 1.014-1.18 2.093-.078.685-.136 1.004-.448 1.004M364.457 4.422c-.186 0-.42-.18-.79-.484-.804-.663-1.632-.448-2.23-.686-.583-.23-.052-1.219.91-1.219.097 0 .198.01.303.032 1.147.238 2.81.468 2.4 1.533-.224.578-.375.825-.593.824"/>
            <path fill="#E2E2E2" d="M346.707 21.627c-.189 0-.415-.195-.775-.532-.76-.708-1.6-.543-2.182-.816a.55.55 0 0 1-.056-.031l.738-1.116a1.461 1.461 0 0 1 .606.034c.673.182 1.53.372 2.011.717.325.233.478.536.285.955a5.995 5.995 0 0 1-.177.358c-.162.298-.294.43-.45.43"/>
        </g>
        <use fill="#000" fill-rule="nonzero" opacity=".2" xlink:href="#d"/>
    </g>
</svg>
