<svg xmlns="http://www.w3.org/2000/svg" xmlns:xlink="http://www.w3.org/1999/xlink" width="320" height="200" viewBox="0 0 320 200">
    <defs>
        <path id="a" d="M0 0h320v200H0z"/>
    </defs>
    <g fill="none" fill-rule="evenodd">
        <mask id="b" fill="#fff">
            <use xlink:href="#a"/>
        </mask>
        <use fill="#2C294C" xlink:href="#a"/>
        <g mask="url(#b)">
            <path fill="#262725" d="M315.936 206.63c-.243.421-.683.63-.98.456l-83.58-47.708c-.297-.17-.341-.647-.096-1.075.244-.421.684-.624.98-.456l83.581 47.713c.297.169.339.648.095 1.07"/>
            <path fill="#737067" d="M231.256 171.875c-.123.883-.796 1.527-1.505 1.437-.707-.088-1.183-.873-1.06-1.756l3.02-62.394c.123-.883.797-1.526 1.505-1.438.708.085 1.182.875 1.06 1.756l-3.02 62.395"/>
            <path fill="#262725" d="M315.625 219.384c.136.883.776 1.518 1.43 1.41.654-.107 1.075-.91.938-1.795l-8.825-70.499c-.138-.884-.777-1.514-1.433-1.41-.653.106-1.072.91-.937 1.795l8.827 70.499"/>
            <path fill="#737067" d="M231.672 155.648c.258.431.1.97-.356 1.215l-25.592 13.218c-.455.241-1.037.093-1.293-.333-.262-.427-.103-.97.35-1.215l25.593-13.214c.455-.244 1.037-.097 1.298.329"/>
            <path fill="#BEBBB0" d="M203.9 186.851c-.128.895-.836 1.547-1.583 1.456-.745-.088-1.245-.884-1.116-1.78l11.007-67.972c.13-.893.837-1.548 1.582-1.459.745.089 1.244.887 1.116 1.781l-11.005 67.974"/>
            <path fill="#262725" d="M285.625 237.452c.114.899.74 1.556 1.397 1.465.658-.087 1.104-.892.988-1.79l-1.952-76.08c-.114-.9-.74-1.554-1.399-1.464-.658.091-1.1.891-.986 1.79l1.952 76.08"/>
            <path fill="#E0E3E8" d="M199.606 120.212l.022 10.388 83.613 48.4.001-10.374-83.636-48.414"/>
            <path fill="#D4D8DF" d="M283.242 179l36.364-20.567-.069-10.342-36.293 20.602-.002 10.307M212.427 129.584l.01 7.282 17.485 10.213v-7.275l-17.495-10.22"/>
            <path fill="#3A3228" d="M219.644 137.807a.625.625 0 1 1-1.251-.002.625.625 0 0 1 1.25.002"/>
            <path fill="#D4D8DF" d="M231.727 140.818l.013 7.278 17.482 10.217v-7.273l-17.495-10.222"/>
            <path fill="#3A3228" d="M241.168 147.705a.624.624 0 1 1-1.249-.002.624.624 0 0 1 1.25.002"/>
            <path fill="#D4D8DF" d="M252.333 152.333l.01 7.282 17.485 10.213v-7.273l-17.495-10.222"/>
            <path fill="#3A3228" d="M260.856 160.836a.625.625 0 1 1-1.25.001.625.625 0 0 1 1.25 0"/>
            <path fill="#EDF2F6" d="M198.681 120.576l36.182-20.72 84.424 48.374-36.179 20.717-84.427-48.371"/>
            <path fill="#FC3471" d="M233.606 121.788h8.242v-6.667h-8.242z"/>
            <path fill="#FC3471" d="M234.817 123.249c1.607.802 4.233.799 5.834-.005 1.603-.805 1.596-2.118-.015-2.917-1.612-.8-4.238-.8-5.836.003-1.598.803-1.591 2.116.017 2.919"/>
            <path fill="#C60640" d="M231.733 116.233c.958-.644 2.153-.637 2.458-.623.083.04.934.48-.009 1.086l-.077-.005c-.009-.002-.807-.055-1.407.348-.487.328-.737.887-.737 1.657 0 .766.245 1.322.726 1.65.597.409 1.416.358 1.418.358l.077-.007s1.017.465.007 1.088l-.167.003c-.453 0-1.459-.07-2.289-.627-.807-.543-1.218-1.37-1.218-2.465 0-1.092.411-1.921 1.218-2.463"/>
            <path fill="#DF1D58" d="M234.817 116.46c1.607.803 4.233.8 5.834-.004 1.603-.804 1.596-2.117-.015-2.917-1.612-.8-4.238-.8-5.836.004-1.598.803-1.591 2.116.017 2.917"/>
            <path fill="#C60640" d="M235.544 116.185c1.204.603 3.174.601 4.376-.002 1.203-.603 1.196-1.588-.012-2.189-1.208-.6-3.178-.598-4.377.004-1.198.601-1.192 1.586.013 2.187"/>
            <path fill="#84837E" d="M271.25 150.717c-1.622.957-4.24.984-5.808.057-.703-.413-1.125-.946-1.142-1.506-.026-.838-.008-.505-.008-1.529l4.132-2.096c1.622-.957 7.106-1.835 7.106.045 0 .797-.061.812-.005 1.374.067.657-.34 1.334-1.215 1.85l-3.06 1.805"/>
            <path fill="#BAB9B4" d="M271.248 148.805c-1.623 1.006-4.241 1.033-5.81.062-1.574-.971-1.529-2.585.095-3.592l2.888-1.78c1.622-1.007 4.277-1.058 5.897-.114 1.623.94 1.618 2.531-.009 3.534l-3.061 1.89"/>
            <path fill="#F1F0ED" d="M233.046 132.5l12.286-7.29 24.577 14.58-12.291 7.289-24.572-14.58"/>
            <path fill="#5D5E5B" d="M232.94 132.333l24.848 14.465v1.293l-24.849-14.835v-.923"/>
            <path fill="#777874" d="M257.532 146.947l12.36-7.34.054 1.121-12.352 7.412-.062-1.193"/>
            <path fill="#989994" d="M257.618 146.334l-1.643-.977 1.608-.943 1.636.973-1.601.947zm11.031-6.543l-1.389.826-1.587-.943 1.397-.82 1.58.937zm-23.317-13.84l1.46.866-1.387.812-1.449-.859 1.376-.819zm-3.3 1.962l1.597-.948 1.443.86-1.609.94-1.431-.852zm-1.926 1.144l1.592-.948 1.432.853-1.605.938-1.419-.843zm-1.93 1.143l1.598-.946 1.418.842-1.604.942-1.412-.838zm-1.923 1.146l1.594-.947 1.407.835-1.605.94-1.396-.828zm-.565 1.978l-1.382-.824 1.614-.96 1.396.83-1.628.954zm1.796 1.062l-1.461-.866 1.626-.952 1.458.869-1.623.95zm1.831 1.088l-1.496-.89 1.62-.951 1.497.89-1.62.95zm1.86 1.103l-1.527-.906 1.623-.951 1.522.907-1.619.95zm1.782 1.055l-1.448-.856 1.617-.953 1.45.863-1.619.946zm1.813 1.075l-1.48-.875 1.618-.95 1.48.88-1.618.945zm1.813 1.08l-1.48-.881 1.618-.949 1.474.88-1.612.95zm1.807 1.074l-1.48-.881 1.62-.946 1.479.88-1.619.947zm1.812 1.076l-1.478-.88 1.617-.947 1.476.879-1.615.948zm1.814 1.074l-1.48-.878 1.614-.948 1.48.88-1.614.946zm1.813 1.072l-1.48-.875 1.614-.948 1.48.882-1.614.941zm3.421.135l-1.61.942-1.479-.876 1.61-.947 1.479.881zm.333-.196l-1.48-.88 1.607-.94 1.48.877-1.607.943zm3.56.22l-1.596.947-1.631-.97 1.606-.941 1.622.964zm1.93-1.144l-1.596.946-1.622-.96 1.605-.942 1.614.956zm1.925-1.142l-1.596.946-1.61-.956 1.605-.943 1.601.953zm.342-2.087l1.588.944-1.598.946-1.599-.952 1.609-.938zm-.334-.2l-1.604.943-1.479-.879 1.605-.94 1.478.876zm.252-1.89l1.48.876-1.398.818-1.48-.875 1.398-.82zm-1.812-1.077l1.48.877-1.398.819-1.476-.876 1.394-.82zm-1.814-1.075l1.48.878-1.392.819-1.48-.88 1.392-.817zm-1.812-1.076l1.48.879-1.393.817-1.479-.879 1.392-.817zm-1.808-1.075l1.478.88-1.393.815-1.48-.878 1.395-.817zm-1.813-1.073l1.48.876-1.394.816-1.479-.877 1.393-.815zm-1.813-1.077l1.48.878-1.389.815-1.48-.877 1.39-.816zm-1.783-1.057l1.45.859-1.389.816-1.448-.862 1.387-.813zm-1.859-1.103l1.527.904-1.389.813-1.523-.905 1.385-.812zm-1.83-1.087l1.5.887-1.387.814-1.497-.889 1.383-.812zm-3.178-.252l1.387-.812 1.463.866-1.39.814-1.46-.868zm-1.94 1.135l1.605-.94 1.463.87-1.604.94-1.464-.87zm-1.938 1.139l1.605-.944 1.461.867-1.603.944-1.463-.867zm-1.938 1.133l1.605-.94 1.463.87-1.606.943-1.462-.873zm-.476 2.006l-1.463-.867 1.607-.943 1.461.869-1.605.941zm1.827 1.089l-1.497-.89 1.605-.942 1.495.889-1.603.943zm1.855 1.103l-1.523-.908 1.604-.942 1.529.907-1.61.943zm1.782 1.059l-1.45-.864 1.606-.94 1.449.861-1.605.943zm1.813 1.075l-1.48-.88 1.605-.938 1.48.875-1.605.943zm1.808 1.076l-1.475-.88 1.605-.938 1.48.874-1.61.944zm1.812 1.076l-1.48-.88 1.606-.939 1.48.877-1.606.942zm1.81 1.075l-1.478-.88 1.607-.939 1.48.877-1.61.942zm1.812 1.077l-1.48-.881 1.604-.937 1.48.874-1.604.944zm3.416.134l-1.604.942-1.48-.882 1.604-.94 1.48.88zm.334-.196l-1.48-.877 1.606-.943 1.479.88-1.605.94zm3.412.136l-1.603.94-1.48-.876 1.608-.942 1.475.878zm.465-2.017l1.48.88-1.61.943-1.475-.88 1.605-.943zm-.333-.195l-1.607.943-1.48-.882 1.607-.941 1.48.88zm.458-2.015l1.48.876-1.605.944-1.481-.88 1.606-.94zm-1.808-1.077l1.48.878-1.607.941-1.478-.878 1.605-.941zm-1.813-1.075l1.48.876-1.606.942-1.48-.878 1.606-.94zm-1.809-1.076l1.48.876-1.61.943-1.474-.878 1.604-.94zm-1.811-1.076l1.48.875-1.607.943-1.48-.878 1.607-.94zm-1.81-1.077l1.48.877-1.608.943-1.477-.879 1.605-.94zm-1.782-1.058l1.45.859-1.605.943-1.45-.863 1.605-.94zm-1.855-1.104l1.522.905-1.605.942-1.528-.906 1.611-.94zm-3.435-.145l1.604-.942 1.498.889-1.606.943-1.496-.89zm-1.938 1.137l1.606-.94 1.495.889-1.604.94-1.497-.89zm-.447 2.026l-1.496-.89 1.61-.943 1.496.889-1.61.944zm1.86 1.101l-1.526-.904 1.605-.94 1.527.904-1.605.94zm1.78 1.059l-1.45-.86 1.61-.942 1.449.865-1.61.937zm1.812 1.075l-1.48-.874 1.605-.944 1.48.881-1.605.937zm1.813 1.078l-1.48-.877 1.604-.942 1.48.88-1.604.939zm1.808 1.075l-1.48-.877 1.604-.942 1.48.878-1.604.94zm1.812 1.075l-1.48-.874 1.605-.944 1.481.878-1.606.94zm3.414.136l-1.607.94-1.478-.875 1.61-.943 1.475.878zm.462-2.016l1.48.88-1.61.942-1.474-.88 1.604-.942zm-1.812-1.077l1.48.881-1.605.943-1.48-.88 1.605-.944zm-1.809-1.076l1.475.882-1.605.942-1.475-.88 1.605-.944zm-1.811-1.072l1.479.877-1.606.942-1.48-.879 1.607-.94zm-1.809-1.077l1.476.878-1.607.943-1.478-.88 1.61-.94zm-3.72-.315l-1.528-.905 1.605-.943 1.528.907-1.605.94zm1.937-.746l1.449.864-1.604.943-1.45-.864 1.605-.943zm-15.898.088l24.572 14.579 12.291-7.288-24.577-14.58-3.928 2.328-.004-.002-.005.01-1.921 1.135-.025-.017-.031.052-1.868 1.111-.05-.032-.054.096-1.82 1.08-.079-.046-.078.134-2.423 1.44z"/>
            <path fill="#181917" d="M318.02 138.956v7.942L294.9 160.824v-8.03l23.118-13.838"/>
            <path fill="#EAE9E4" d="M318.02 145.308v-3.853l-20.62 12.312v3.933l20.62-12.392"/>
            <path fill="#2E2F2C" d="M213.384 115.838c-.12 0-.239-.006-.352-.019-1.086-.121-1.994-.753-2.553-1.784a4.393 4.393 0 0 1-.39-3.31c.936-3.421 5.857-5.782 6.412-6.041.587-.27 1.244.076 1.472.77.227.69-.06 1.473-.646 1.743-1.848.857-4.648 2.778-5.077 4.361-.098.358-.058.664.133 1.016.382.702 1.216.592 1.447.498.433-.412 1.07-.392 1.489.075.453.512.473 1.366.04 1.906-.442.554-1.256.785-1.975.785"/>
            <path fill="#E88584" d="M246.77 108.848c-.044.113-.14.15-.217.087l-.932-.783c-.075-.063-.102-.206-.058-.318.043-.113.14-.15.216-.088l.932.782c.077.066.103.207.06.32"/>
            <path fill="#2E2F2C" d="M215.702 113.34l-.122-.097c-.049-.102-.035-.246.033-.316.024-.028.584-.66.6-2.056.017-1.407.13-1.608.325-1.843l.049-.062.214.018-.015.324-.059.077c-.11.131-.194.233-.21 1.494-.02 1.636-.699 2.386-.725 2.418l-.09.042"/>
            <path fill="#000" d="M222.608 192.462s-.414 6.583 0 8.66c0 0 3.625 1.5 6.91.572v-1.933s5.596 2.753 11.902 2.236c0 0 3.476-.375 4.055-3.094.579-2.72-2.702-2.862-5.535-3.578-2.83-.715-6.371-2.863-6.886-4.51l-10.446 1.647"/>
            <path fill="#EED7D2" d="M233.277 191.658c0 3.358-11.247 3.358-11.247 0V159.02c0-3.358 2.516-6.08 5.624-6.08 3.104 0 5.623 2.722 5.623 6.08v32.638"/>
            <path fill="#1B1C1A" d="M231.978 200.587s-.41 6.58 0 8.653c0 0 3.628 1.506 6.912.573v-1.93s5.596 2.755 11.903 2.236c0 0 3.475-.376 4.054-3.093.579-2.72-2.702-2.862-5.534-3.58-2.832-.714-6.372-2.86-6.886-4.508l-10.449 1.649"/>
            <path fill="#F7E7E4" d="M244.292 200.795c0 3.355-11.246 3.355-11.246 0v-32.64c0-3.36 2.52-6.081 5.627-6.081 3.102 0 5.62 2.722 5.62 6.08v32.64"/>
            <path fill="#1E1E1E" d="M213.623 212.376a2.813 2.813 0 0 1-5.623 0v-11.88a2.806 2.806 0 0 1 2.809-2.808 2.811 2.811 0 0 1 2.814 2.807v11.881"/>
            <path fill="#000" d="M212.427 197.494c0 .796-.976 1.444-2.188 1.444-1.206 0-2.186-.648-2.186-1.444v-10.857c0-.798.98-1.445 2.186-1.445 1.212 0 2.188.647 2.188 1.445v10.857"/>
            <path fill="#221B1A" d="M186.284 189.605s-.983 3.259 3.247 5.76c4.23 2.502 7.876.097 10.26-1.824l5.763-4.847-9-6.001-10.27 6.912"/>
            <path fill="#BEDCE0" d="M187.506 185.09c-1.588-.943-2.43-2.17-2.522-3.416-.104-1.398-.008-1.242-.003-3.558l16.96-8.912c3.374-2.009 8.894-2.009 12.268 0l16.962 8.767c0 2.737-.002 2.142 0 3.46.005 1.326-.838 2.655-2.53 3.66l-14.432 8.592c-3.374 2.008-8.894 2.008-12.267 0l-14.436-8.592"/>
            <path fill="#D0EBEF" d="M187.469 181.968c-3.378-2.008-3.378-5.29 0-7.298l14.448-8.59c3.376-2.008 8.901-2.008 12.277-.003l14.444 8.593c3.377 2.007 3.377 5.29 0 7.298l-14.444 8.592c-3.376 2.006-8.9 2.006-12.277 0l-14.448-8.592"/>
            <path fill="#EA9A73" d="M245.542 147.85l2.086-.654s5.3-2.74 7.442-2.612c2.146.13 7.938 2.034 4.287 3.026-3.65.992-2.457.112-5.14 1.62-2.686 1.512-3.183 2.114-4.512 1.766l-2.237.456-1.926-3.602M235.298 138.956l1.777-.489s3.181.406 5.018-.147c0 0 3.865.058 1.313-1.221 0 0-.311-.127-1.753-.338 0 0 3.879-1.476 5.83-.713 1.95.762 2.351-.208 1.063-1.519-1.287-1.32-3.602-3.157-7.655-2.162-4.052 1-3.943 1.763-5.021 2.6l-1.575.437 1.003 3.552M204.354 124.186s.708-5.329-.777-10.071c-1.487-4.745.518-13.455 8.531-13.845 8.013-.39 11.568 4.871 11.633 7.149.065 2.272-1.68 7.995-2.133 10.787-.453 2.798-2.586 12.547-8.176 8.256l-1.582 2.529-7.496-4.805"/>
            <path fill="#000" d="M209.674 122.118l-5.508-1.82s-2.657-7.121-4.166-9.18c0 0-.087-11.708 11.804-12.106 11.893-.391 18.343 8.812 11.88 10.936 0 0-3.977 3.944-4.424 5.524 0 0 .179-6.195-3.283-1.158-3.46 5.035-6.303 7.804-6.303 7.804"/>
            <path fill="#DAEEE8" d="M229.922 134.422l3.912-1.089s1.914.797 1.693 4.052l-4.172 1.571s1.503-2.778-1.433-4.534"/>
            <path fill="#5F5E91" d="M219.32 143.45c-1.64 1.502-4.301 1.507-5.948.009l-15.04-11.03c-1.647-1.494-.83-5.836.81-7.34 1.643-1.498 4.306-1.508 5.95-.008l14.22 12.942c1.649 1.497 1.649 3.925.008 5.426"/>
            <path fill="#FFF" d="M232.05 140.467l-12.162 5.244c-2.116.633-3.68-1.383-4.215-3.432-.535-2.05.742-4.223 2.862-4.856l11.922-2.792c2.113-.634 3.705 5.2 1.594 5.836"/>
            <path fill="#EED7D2" d="M231.102 156.201c1.58 3.162.371 7.052-2.698 8.682l-27.48 14.594c-3.07 1.629-6.84.387-8.42-2.78-1.58-3.163-.375-7.053 2.696-8.683l27.478-14.593c3.07-1.634 6.843-.389 8.424 2.78"/>
            <path fill="#212221" d="M192.599 167.697s-3.494 9.256 4.212 14.596c7.708 5.339 8.827 7.544 15.616 4.911v-11.416l-19.828-8.09"/>
            <path fill="#F7E7E4" d="M242.88 164.688a6.272 6.272 0 0 1-2.453 8.53l-28.179 15.427c-3.037 1.681-8.737 1.018-9.993-1.653-1.684-3.028-1.536-7.632 1.503-9.313l29.625-16.225c3.037-1.678 7.812.202 9.496 3.234"/>
            <path fill="#FFF" d="M203.072 122.711s-10.963 5.866-9.76 20.727c1.202 14.862-1.504 26.56-1.504 26.56s10.362 14.79 19.985 12.442c0 0 5.179-1.582 6.783-6.145l.669-30.12s1.87-16.684-16.173-23.464"/>
            <path fill="#DAEEE8" d="M241.168 147.232l4.17-1.403s3.326 1.692 2.6 5.408l-4.348 1.465s.884-3.82-2.422-5.47"/>
            <path fill="#FFF" d="M234.055 158.136c-1.989 1.911-5.213 1.92-7.21.014l-18.735-13.035c-1.993-1.9-1.863-6.953 1.488-10.345 1.992-1.912 5.221-1.917 7.216-.009l17.231 16.466c1.998 1.907 1.998 5.003.01 6.909"/>
            <path fill="#FFF" d="M245.88 152.804l-13.63 6.497c-2.385.889-4.991-.457-5.823-3.006-.827-2.545.428-5.333 2.814-6.223l13.87-4.164c2.38-.887 5.15 6.008 2.77 6.896"/>
            <path fill="#D0EBEF" d="M183.85 146.29c-.204-3.029-1.177-6.827-1.177-6.827-1.813-6.502 7.13-6.337 15.641-.517 5.991 4.097 10.293 6.06 10.94 15.413l1.825 10.92c1.104 5.223-7.288 4.545-13.958.002-7.702-5.247-12.407-6.107-13.27-18.991"/>
            <path fill="#BEDCE0" d="M180.724 146.29c-.2-3.027-1.176-6.829-1.176-6.829-1.811-6.498 7.132-6.336 15.64-.519 5.994 4.1 10.296 6.065 10.942 15.417l1.825 10.92c1.102 5.224-7.288 4.545-13.956 0-7.703-5.248-12.41-6.103-13.275-18.99"/>
            <path fill="#1E1E1E" d="M186.185 189.634s3.461-14.397 4.87-19.726c1.407-5.332-.17-21.147-.93-25.328l5.231 2.873s1.195 17.258 1.054 18.905c0 0 .53 14.952 1.022 25.284 0 0-1.623 1.088-3.466 2.297l-7.78-4.305"/>
            <path fill="#1E1E1E" d="M196.182 166.154l-.887-17.371-4.736-2.954.96 18.48 3.347 2.139 1.316-.294"/>
            <path fill="#DADAEA" d="M262.858 133.333l-11.856-6.704 23.298-13.296 11.854 6.704-23.296 13.296"/>
            <path fill="#DADAEA" d="M244.13 59.222c-.584.221-1.376.271-1.712 1.93l.978 41.692c0 2.325 1.657 5.18 3.682 6.342l36.186 21.648c1.123-.705 1.123-.705 1.788-1.079.68-.38 1.102-1.202 1.102-2.376l-.002-40.626c.002-2.9.23-4.117-3.684-6.34l-35.39-20.31c-1.06-.61-2.364-1.103-2.948-.881z"/>
            <path fill="#C4C4DA" d="M242.418 62.246v41.114c0 2.354 1.645 5.242 3.66 6.417l35.168 20.555c2.01 1.176 3.658.212 3.658-2.142V86.623c.003-3.401.146-3.783-2.262-5.17l-36.565-21.345c-2.014-1.176-3.66-.214-3.66 2.138z"/>
            <path fill="#DADAEA" d="M242.418 100.843v2.9c0 2.32 1.645 5.168 3.66 6.327l35.168 20.27c2.01 1.16 3.658.208 3.658-2.113v-2.893l-42.486-24.49"/>
            <path fill="#EFEFEF" d="M245.542 62.105v36.15l38.113 22.582V84.844l-38.113-22.739"/>
            <path fill="#FC3471" d="M268.212 93.269c-.295.084-.62.118-.97.099v5.527c0 .453-.38.615-.848.362-.469-.254-.849-.827-.849-1.28v-5.052a6.995 6.995 0 0 1-.474-.234l-.02-.011a7.868 7.868 0 0 1-.475-.28v5.053c0 .453-.38.615-.849.362-.468-.253-.848-.826-.848-1.28V91.01a10.74 10.74 0 0 1-.97-1.148v6.15c0 .453-.38.615-.848.362-.469-.253-.849-.826-.849-1.28v-8.42c0-.135.033-.244.093-.324a5.331 5.331 0 0 1-.093-.966c0-2.585 2.166-3.509 4.839-2.064l.02.01c2.672 1.445 4.838 4.712 4.838 7.297 0 .314-.032.603-.092.866.059.144.092.289.092.423v8.421c0 .454-.38.616-.848.363-.469-.254-.849-.827-.849-1.28v-6.15zm-5.576-4.043c.335.163.606.059.606-.233 0-.293-.27-.662-.606-.825-.334-.163-.606-.059-.606.233 0 .292.272.662.606.825zm5.455 3.03c.335.163.606.059.606-.233 0-.292-.271-.661-.606-.825-.335-.163-.606-.058-.606.234 0 .292.271.66.606.824z"/>
            <path fill="#6236FF" d="M271.209 129.728l8.122 5.302v-8.444l-8.122-5.302v8.444"/>
            <path fill="#3A76FF" d="M246 114.444l8.122 5.302V111.3L246 106v8.444"/>
            <path fill="#FC3471" d="M258.496 122.566l8.123 5.302v-8.445l-8.123-5.3v8.443M283.655 126.782l8.122 5.301v-8.445l-8.122-5.3v8.444"/>
        </g>
    </g>
</svg>
