<svg xmlns="http://www.w3.org/2000/svg" xmlns:xlink="http://www.w3.org/1999/xlink" width="320" height="200" viewBox="0 0 320 200">
    <defs>
        <path id="a" d="M0 0h320v200H0z"/>
    </defs>
    <g fill="none" fill-rule="evenodd">
        <mask id="b" fill="#fff">
            <use xlink:href="#a"/>
        </mask>
        <use fill="#3AD4C3" xlink:href="#a"/>
        <g mask="url(#b)">
            <path fill="#5192A3" d="M285.127 155.275c-1.023 0-1.99-.247-2.799-.712l-12.014-6.926c1.262-.62 2.027-.999 2.027-.999l11.386 6.563c.084.048.174.09.268.128l.016.005.046.016c.054.02.108.04.164.055.03.009.062.015.094.023l.053.013.046.012c.06.012.122.023.184.031l.068.008.047.005c.021.002.043.006.066.007.06.006.121.009.182.01h.19c.07-.003.138-.008.206-.014l.025-.004.056-.008c.052-.006.105-.012.156-.021.024-.004.045-.012.068-.017.064-.013.125-.03.186-.047.032-.009.067-.014.098-.024l.041-.018c.13-.045.255-.096.366-.16l42.44-24.622.024-.013c.035-.021.06-.046.091-.068.046-.032.095-.064.133-.098l.013-.01c.044-.04.082-.082.116-.124l.02-.03.02-.03.035-.052a.756.756 0 0 0 .05-.105l.004-.016.006-.02c.007-.023.015-.046.02-.069a.635.635 0 0 0 .012-.106v-.017l.004-1.397.06.035c.211.122.412.18.59.18a.683.683 0 0 0 .355-.095l-.008.005.972-.564c.118.36.18.738.18 1.125.002 1.363-.76 2.618-2.037 3.359l-41.524 24.09c-.808.468-1.777.716-2.802.716m45.596-29.542v-.027.027"/>
            <path fill="#D1D3D4" d="M332 75.98l-.004-.063-.005-.065-.007-.065-.01-.066v-.003l-.011-.065a2.488 2.488 0 0 0-.03-.138l-.018-.07-.016-.055-.002-.005-.003-.01a3.234 3.234 0 0 0-.045-.137l-.025-.065-.026-.065-.02-.048-.002-.004-.005-.012-.029-.064a2.622 2.622 0 0 0-.074-.15l-.046-.08-.009-.017-.01-.019a3.312 3.312 0 0 0-.18-.273v-.002l-.002-.001a3.056 3.056 0 0 0-.058-.077l-.051-.064-.051-.06-.051-.056-.009-.01-.004-.003-.041-.044-.055-.055-.058-.054-.058-.05-.029-.024-.006-.005-.023-.02-.058-.043-.057-.041-.055-.037-.055-.034-.013-.007-63.043-36.572-.042-.024-.054-.028-.054-.025-.052-.023-.054-.02-.01-.003-.004-.002-.038-.012-.055-.015-.054-.012-.058-.01-.039-.004h-.006l-.014-.002-.062-.002a.705.705 0 0 0-.144.014l-.002.001h-.002a.66.66 0 0 0-.195.075l-.982.572a.65.65 0 0 1 .195-.073l.003-.001a.767.767 0 0 1 .222-.011h.006c.078.007.16.025.244.054h.003c.086.03.176.07.267.124l63.043 36.572c.09.051.176.113.26.182l.007.005c.084.068.164.145.241.227l.004.004c.078.083.152.173.221.267l.001.002c.068.093.132.191.19.292l.009.016c.057.1.109.203.154.308l.002.003c.046.107.086.216.119.325l.002.005c.032.11.058.22.075.328.017.11.026.217.026.323l-.14 49.265a1.5 1.5 0 0 1-.026.284l-.002.008a1.045 1.045 0 0 1-.074.233l-.002.003c-.021.045-.05.08-.077.119a.672.672 0 0 1-.203.2l.982-.574a.667.667 0 0 0 .203-.199l.026-.025a.873.873 0 0 0 .05-.091v-.003l.002-.003a.983.983 0 0 0 .07-.206l.005-.027.001-.008.006-.03.01-.062.006-.063.004-.062.001-.063v-.004L332 76.041v-.06"/>
            <path fill="#E6E7E8" d="M329.66 74.253c.73.42 1.323 1.445 1.32 2.286l-.14 49.25c-.002.837-.6 1.176-1.329.756l-63.48-36.56c-.735-.423-1.328-1.448-1.325-2.285l.14-49.25c.002-.842.6-1.181 1.333-.758l63.481 36.56"/>
            <path fill="#394873" d="M329.451 76.556c.001-.27-.286-.769-.521-.904l-61.578-35.55a.315.315 0 0 0-.473.271l-.134 47.311c0 .269.289.765.526.902l61.574 35.548c.21.12.471-.03.472-.272l.134-47.306"/>
            <path fill="#E9E9EA" d="M330.106 126.725c-.178 0-.378-.057-.59-.18l-.06-.034v-.305.03c.014-.287-.168-.577-.548-.796l-10.665-6.159.933-.539-5.473-3.16 15.082 8.71a.317.317 0 0 0 .474-.273l.135-47.471c0-.271-.288-.771-.523-.908l-47.104-27.2-.747-2.264 48.644 28.09c.726.42 1.316 1.441 1.316 2.281v.005l-.14 49.238V125.829c-.01.39-.152.667-.377.802a.683.683 0 0 1-.357.094m-23.802-14.338l-4.237-2.447-.44-1.331 5.61 3.239-.933.539"/>
            <path fill="#4D5B81" d="M329.002 124.176a.31.31 0 0 1-.157-.042l-9.566-5.555V92.2v-.053c0-.094 0-.187-.003-.281l-.003-.054v-.001l-.003-.076-.002-.036-.001-.021a2.234 2.234 0 0 0-.005-.113l-.008-.104-.002-.017-.008-.103v-.002l-.004-.048a.635.635 0 0 0-.007-.072 6.907 6.907 0 0 0-.008-.074l-.006-.056-.004-.031-.007-.068-.004-.033a9.29 9.29 0 0 0-.044-.314l-.001-.005-.008-.047-.045-.261-.004-.018-.006-.03-.025-.125-.031-.153-.02-.084-.031-.137-.025-.105-.032-.126a9.518 9.518 0 0 0-.036-.137l-.018-.067c-.016-.06-.035-.12-.052-.179l-.034-.117-.01-.033a13.37 13.37 0 0 0-.102-.322l-.001-.004-.01-.028-.099-.285-.017-.045-.04-.107-.057-.153-.038-.097-.048-.119-.035-.087-.072-.17-.04-.094-.015-.034c-.044-.1-.09-.201-.137-.301l-.005-.011c-.012-.027-.026-.054-.039-.08-.037-.079-.074-.158-.113-.236l-.018-.035c-.031-.063-.064-.125-.096-.187-.026-.05-.05-.1-.078-.151l-.015-.027a15.704 15.704 0 0 0-.267-.48l-.023-.04-.072-.12a12.784 12.784 0 0 0-.346-.553l-.04-.062-.041-.059c-.115-.17-.231-.338-.352-.503l-.002-.003a14.626 14.626 0 0 0-.261-.345l-.012-.015c-.065-.083-.13-.165-.197-.246l-.04-.048-.002-.003a13.399 13.399 0 0 0-.239-.282l-.012-.013-.075-.083c-.05-.058-.102-.116-.154-.172l-.03-.032-.105-.111-.118-.124-.044-.044-.117-.116-.1-.1-.058-.054a9.565 9.565 0 0 0-.126-.118l-.088-.082-.07-.062a13.452 13.452 0 0 0-.128-.111l-.077-.068c-.028-.025-.057-.047-.086-.07l-.125-.104-.065-.053-.107-.082-.117-.09-.048-.036c-.048-.036-.097-.07-.145-.104-.033-.024-.065-.048-.098-.07l-.026-.019a9.296 9.296 0 0 0-.263-.175l-.003-.001-.018-.012a8.13 8.13 0 0 0-.241-.148l-.061-.036a8.108 8.108 0 0 0-.197-.11l-.074-.04a5.76 5.76 0 0 0-.101-.052l-.078-.04-.125-.06-.09-.042-.036-.017a6.457 6.457 0 0 0-.498-.2l-.032-.011-.09-.03c-.042-.013-.084-.029-.126-.041l-.062-.017-.11-.03-.084-.024c-.029-.008-.058-.013-.087-.02l-.109-.024-.057-.013c-.035-.007-.068-.01-.102-.017l-.125-.02-.044-.008-.103-.01a4.126 4.126 0 0 0-.134-.014l-.039-.004-.09-.003a3.819 3.819 0 0 0-.156-.005l-.045-.002c-.022 0-.044.003-.067.003a3.66 3.66 0 0 0-.195.01l-.059.003c-.027.002-.053.006-.08.01l-.06.006a3.26 3.26 0 0 0-.217.036l-.006.001-.058.014a3.123 3.123 0 0 0-.175.043c-.028.008-.055.018-.083.027l-.11.034-.027.011c-.056.02-.11.044-.164.068l-.08.033a3.058 3.058 0 0 0-.23.121l-13.35 7.806-13.314-40.553L328.93 75.44c.235.136.522.637.521.908l-.134 47.513a.316.316 0 0 1-.315.315m-15.17-8.76l-12.022-6.979-.864-2.632 6.448-3.77v9.644l6.438 3.738"/>
            <path fill="#D1D3D4" d="M220.358 114.49c0 .279.182.558.55.77l63.009 36.465c.088.051.183.096.283.134l.047.016c.083.03.168.057.256.078l.053.013c.097.022.197.04.299.051l.045.006c.102.01.204.016.308.016h.05c.104 0 .208-.006.31-.017l.057-.008a2.923 2.923 0 0 0 .549-.128 2.08 2.08 0 0 0 .364-.16l42.37-24.682c.044-.025.076-.055.114-.081.046-.033.095-.065.133-.1.059-.052.107-.106.148-.162l.021-.031a.78.78 0 0 0 .089-.174l.006-.02a.649.649 0 0 0 .032-.192l-.005 1.706v.016a.639.639 0 0 1-.012.107c-.005.023-.013.046-.02.069l-.006.02-.004.015a.76.76 0 0 1-.05.106l-.035.052-.02.03-.02.03a1.143 1.143 0 0 1-.115.125l-.013.01c-.039.034-.087.065-.133.098-.031.022-.056.047-.092.068l-.023.013-42.37 24.682a2.078 2.078 0 0 1-.365.16l-.041.019c-.031.01-.065.015-.098.024a2.692 2.692 0 0 1-.185.047c-.023.004-.045.012-.068.016-.052.01-.104.016-.156.022l-.056.008-.025.004a3.225 3.225 0 0 1-.205.013h-.131l-.059.001a3.037 3.037 0 0 1-.182-.01c-.023-.001-.045-.005-.066-.007l-.047-.005-.068-.008a3.05 3.05 0 0 1-.183-.032l-.047-.011-.053-.013-.093-.023c-.056-.016-.11-.036-.164-.056l-.046-.015-.015-.005a2.063 2.063 0 0 1-.268-.13l-63.01-36.464c-.367-.213-.55-.492-.55-.77l.006-1.706"/>
            <path fill="#F1F2F2" d="M328.904 125.517c.729.425.728 1.11.005 1.535l-42.373 24.846c-.72.422-1.893.425-2.621 0l-63.012-36.709c-.73-.424-.733-1.112-.014-1.534l42.373-24.847c.724-.424 1.901-.424 2.63 0l63.012 36.71"/>
            <path fill="#D1D3D4" d="M296.819 141.51l24.475-14.115-58.622-33.807-24.476 14.115 58.623 33.807M246.863 126.38l16.586 9.522 10.943-6.282-16.586-9.522-10.943 6.282"/>
            <path fill="#58595B" d="M243.572 108.745c-.285.166-.72.184-.967.04l-2.203-1.285c-.247-.144-.216-.398.07-.564l2.544-1.484c.285-.167.72-.185.967-.041l2.203 1.285c.247.144.216.398-.069.564l-2.545 1.485M247.141 111.294c-.285.166-.72.184-.967.04l-2.204-1.285c-.246-.144-.215-.398.07-.564l2.545-1.485c.285-.166.72-.184.966-.04l2.204 1.285c.247.144.216.398-.07.564l-2.544 1.485M250.71 113.333c-.285.166-.72.184-.967.04l-2.204-1.285c-.247-.144-.215-.398.07-.564l2.544-1.484c.285-.167.72-.185.967-.04l2.204 1.285c.247.144.215.397-.07.564l-2.544 1.484M285.886 133.725c-.285.166-.72.185-.967.04l-2.203-1.285c-.247-.144-.216-.398.069-.564l2.544-1.484c.286-.167.72-.185.967-.04l2.204 1.285c.247.144.216.398-.07.564l-2.544 1.484M256.94 116.906c-.273.161-.69.179-.927.04l-4.912-2.89c-.237-.14-.207-.385.067-.546l2.44-1.436c.274-.16.691-.178.928-.039l4.912 2.89c.237.139.207.384-.066.545l-2.441 1.436M282.43 131.69c-.272.161-.69.179-.927.04l-4.912-2.89c-.237-.139-.207-.384.067-.545l2.44-1.436c.274-.161.692-.179.928-.04l4.913 2.89c.236.14.206.385-.067.546l-2.441 1.435M275.673 127.612c-.287.16-.725.178-.973.039l-16.964-9.516c-.248-.14-.217-.385.07-.546l2.56-1.436c.287-.161.725-.179.974-.04l16.963 9.517c.248.14.217.385-.07.545l-2.56 1.437M289.656 135.763c-.302.168-.763.186-1.025.04l-2.337-1.297c-.261-.146-.228-.402.074-.57l.8-.444c.302-.168.763-.186 1.025-.04l2.336 1.297c.262.146.229.402-.073.57l-.8.444M293.734 137.802c-.301.168-.763.187-1.025.04l-2.336-1.297c-.262-.145-.229-.402.073-.57l.8-.444c.302-.168.763-.186 1.025-.04l2.337 1.297c.261.146.228.402-.074.57l-.8.444"/>
            <path fill="#58595B" d="M295.264 136.783c-.302.168-.764.186-1.025.04l-2.337-1.298c-.262-.145-.228-.401.074-.57l.8-.444c.301-.167.763-.186 1.025-.04l2.336 1.298c.262.145.229.401-.073.57l-.8.444M297.303 140.351c-.302.168-.764.187-1.025.041l-2.337-1.298c-.261-.145-.228-.402.074-.57l.8-.444c.302-.168.763-.186 1.025-.04l2.336 1.297c.262.146.229.402-.073.57l-.8.444M265.279 97.03c-.276.153-.696.17-.935.037l-2.536-1.408c-.239-.133-.208-.367.067-.52l.729-.404c.275-.154.696-.17.934-.038l2.536 1.41c.239.132.209.365-.067.518l-.728.405M269.357 99.07c-.275.152-.696.17-.934.037l-2.537-1.41c-.238-.132-.208-.365.068-.518l.728-.405c.276-.153.696-.17.935-.037l2.536 1.408c.238.133.208.367-.067.52l-.729.404M273.435 101.619c-.275.152-.695.17-.934.037l-2.536-1.41c-.239-.132-.209-.365.067-.518l.729-.405c.275-.153.695-.17.934-.037l2.536 1.408c.239.133.209.367-.067.52l-.729.405M277.514 104.168c-.276.152-.696.17-.935.037l-2.536-1.41c-.238-.132-.208-.365.067-.518l.73-.405c.274-.153.695-.17.933-.037l2.537 1.409c.238.132.208.366-.067.519l-.73.405M281.592 106.207c-.275.153-.695.17-.934.037l-2.536-1.409c-.239-.132-.209-.366.067-.52l.728-.404c.276-.153.696-.17.935-.037l2.536 1.409c.239.132.208.366-.067.519l-.729.405M285.67 108.756c-.275.153-.695.17-.933.037l-2.537-1.41c-.238-.132-.208-.365.067-.518l.729-.405c.275-.153.696-.17.934-.037l2.537 1.409c.238.132.208.366-.067.519l-.73.405M289.75 111.305c-.276.153-.697.17-.935.037l-2.537-1.41c-.238-.132-.208-.365.068-.518l.728-.405c.276-.153.696-.17.935-.037l2.536 1.409c.239.132.208.366-.067.519l-.729.405M293.828 113.344c-.276.153-.696.17-.935.037l-2.536-1.409c-.239-.132-.208-.366.067-.519l.729-.405c.275-.153.696-.17.934-.037l2.537 1.409c.238.132.208.366-.068.519l-.728.405M297.906 115.893c-.275.153-.696.17-.934.037l-2.537-1.409c-.238-.132-.208-.366.067-.519l.73-.405c.274-.153.695-.17.934-.037l2.536 1.409c.238.132.208.366-.067.519l-.729.405M301.985 118.442c-.276.153-.696.17-.935.037l-2.536-1.409c-.239-.132-.209-.366.067-.52l.729-.404c.275-.153.695-.17.934-.037l2.536 1.41c.239.131.209.365-.067.518l-.728.405M306.063 120.481c-.275.153-.696.17-.934.037l-2.537-1.409c-.238-.132-.208-.366.067-.519l.729-.405c.276-.153.696-.17.934-.037l2.537 1.41c.238.132.208.365-.067.518l-.73.405M310.141 123.03c-.275.153-.696.17-.934.037l-2.537-1.409c-.238-.132-.208-.366.068-.519l.729-.405c.275-.152.695-.17.934-.037l2.536 1.41c.239.132.208.365-.067.518l-.729.405M314.22 125.07c-.275.152-.696.17-.935.037l-2.536-1.41c-.238-.132-.208-.365.067-.519l.729-.404c.275-.153.696-.17.934-.038l2.537 1.41c.238.132.208.366-.067.519l-.729.404M318.298 127.618c-.275.153-.696.17-.934.038l-2.536-1.41c-.239-.132-.209-.365.067-.518l.728-.405c.276-.153.696-.17.935-.038l2.536 1.41c.239.132.208.366-.067.519l-.729.404M260.396 99.058c-.285.167-.72.185-.967.041l-2.204-1.286c-.246-.144-.215-.397.07-.564l2.544-1.484c.285-.166.72-.184.967-.04l2.204 1.285c.247.144.216.398-.07.564l-2.544 1.484M263.965 101.608c-.285.166-.72.184-.967.04l-2.204-1.285c-.247-.144-.216-.398.07-.565l2.544-1.484c.285-.166.72-.184.967-.04l2.203 1.285c.247.144.216.398-.069.564l-2.544 1.485"/>
            <path fill="#58595B" d="M267.533 103.137c-.285.166-.72.184-.967.04l-2.203-1.285c-.247-.144-.216-.398.069-.564l2.544-1.485c.286-.166.72-.184.968-.04l2.203 1.285c.247.144.216.398-.07.564l-2.544 1.485M271.612 105.686c-.285.166-.72.184-.968.04l-2.203-1.285c-.247-.144-.216-.398.07-.564l2.544-1.484c.285-.167.72-.185.967-.04l2.204 1.285c.246.143.215.397-.07.563l-2.544 1.485M275.18 107.725c-.285.166-.72.185-.967.04l-2.203-1.285c-.247-.144-.216-.398.07-.564l2.544-1.484c.285-.167.72-.185.967-.04l2.203 1.285c.247.144.216.398-.07.564l-2.544 1.484M278.749 109.764c-.285.167-.72.185-.967.04l-2.204-1.285c-.247-.144-.215-.397.07-.563l2.544-1.485c.285-.166.72-.185.967-.04l2.204 1.285c.247.144.216.398-.07.564l-2.544 1.484M282.318 111.804c-.285.166-.72.184-.968.04l-2.203-1.285c-.247-.144-.216-.398.07-.565l2.544-1.484c.285-.166.72-.184.967-.04l2.204 1.285c.246.144.215.398-.07.564l-2.544 1.485M286.396 113.843c-.285.166-.72.184-.967.04l-2.204-1.285c-.247-.144-.215-.398.07-.564l2.544-1.485c.285-.166.72-.184.967-.04l2.204 1.285c.247.144.215.398-.07.564l-2.544 1.485M289.965 116.392c-.285.166-.72.184-.967.04l-2.204-1.285c-.247-.144-.216-.398.07-.564l2.544-1.484c.285-.167.72-.185.967-.04l2.204 1.284c.246.144.215.398-.07.564l-2.544 1.485"/>
            <path fill="#58595B" d="M293.023 117.921c-.285.166-.72.185-.967.04l-2.203-1.285c-.247-.144-.216-.398.07-.564l2.544-1.484c.285-.166.72-.185.967-.04l2.203 1.285c.247.144.216.398-.07.564l-2.544 1.484M297.102 120.47c-.285.167-.72.185-.967.04l-2.204-1.285c-.247-.144-.215-.398.07-.564l2.544-1.484c.285-.166.72-.185.967-.04l2.204 1.285c.247.144.216.398-.07.564l-2.544 1.484M300.67 122.51c-.285.166-.72.184-.966.04l-2.204-1.286c-.247-.143-.216-.397.07-.564l2.544-1.484c.285-.166.72-.184.967-.04l2.204 1.285c.246.144.215.398-.07.564l-2.544 1.484M304.239 125.058c-.285.167-.72.185-.967.041l-2.204-1.285c-.246-.145-.215-.398.07-.565l2.544-1.484c.285-.166.72-.184.967-.04l2.204 1.285c.247.144.216.398-.07.564l-2.544 1.484M308.317 126.588c-.284.166-.72.184-.967.04l-2.203-1.285c-.247-.144-.216-.398.07-.564l2.544-1.484c.285-.167.72-.185.967-.04l2.204 1.285c.246.143.215.397-.07.563l-2.545 1.485M313.97 130.163c-.281.158-.71.176-.952.039l-4.305-2.421c-.243-.137-.212-.378.068-.536l2.505-1.409c.28-.157.708-.175.951-.038l4.305 2.421c.243.137.212.378-.068.536l-2.505 1.408M309.29 129.412c.286-.166.72-.184.967-.04l2.204 1.285c.247.144.215.398-.07.564l-2.544 1.485c-.285.166-.72.184-.967.04l-2.204-1.285c-.247-.145-.215-.398.07-.565l2.544-1.484M305.212 126.863c.285-.166.72-.184.967-.04l2.204 1.285c.246.144.215.398-.07.564l-2.545 1.484c-.285.167-.72.185-.966.04l-2.204-1.285c-.247-.143-.216-.397.07-.563l2.544-1.485M301.643 124.824c.285-.166.72-.185.967-.04l2.204 1.285c.247.144.215.398-.07.564l-2.544 1.484c-.285.167-.72.185-.967.041l-2.204-1.286c-.247-.144-.215-.398.07-.564l2.544-1.484M298.075 122.785c.285-.167.72-.185.966-.04l2.204 1.285c.247.144.216.397-.07.564l-2.544 1.484c-.285.166-.72.184-.966.04l-2.205-1.285c-.246-.144-.215-.397.07-.564l2.545-1.484M294.506 120.745c.285-.166.72-.184.967-.04l2.204 1.285c.246.144.215.398-.07.564l-2.545 1.485c-.284.166-.72.184-.966.04l-2.204-1.285c-.247-.144-.216-.398.07-.564l2.544-1.485M290.938 118.706c.284-.166.72-.184.966-.04l2.204 1.285c.247.144.216.398-.07.564L291.495 122c-.285.166-.72.184-.967.04l-2.204-1.285c-.246-.144-.215-.398.07-.564l2.545-1.485M287.369 116.667c.285-.166.72-.184.967-.04l2.203 1.285c.247.144.216.398-.07.564l-2.544 1.484c-.285.167-.72.185-.967.04l-2.204-1.285c-.246-.143-.215-.397.07-.563l2.545-1.485M283.29 114.628c.285-.166.72-.185.967-.04l2.204 1.285c.247.144.215.397-.07.564l-2.544 1.484c-.285.166-.72.185-.967.04l-2.204-1.285c-.247-.144-.215-.398.07-.564l2.544-1.484M279.722 112.079c.285-.166.72-.185.967-.04l2.203 1.285c.247.144.216.398-.069.564l-2.545 1.484c-.285.166-.72.185-.967.04l-2.203-1.285c-.247-.144-.216-.397.07-.564l2.544-1.484"/>
            <path fill="#58595B" d="M276.153 110.55c.285-.167.72-.185.967-.041l2.204 1.285c.247.144.215.398-.07.564l-2.544 1.485c-.285.166-.72.184-.967.04l-2.204-1.285c-.247-.144-.215-.398.07-.564l2.544-1.485M272.075 108c.285-.166.72-.184.967-.04l2.204 1.285c.246.144.215.398-.07.565l-2.545 1.484c-.285.166-.72.184-.967.04l-2.203-1.285c-.247-.144-.216-.398.07-.564l2.544-1.485M269.016 105.961c.285-.166.72-.184.967-.04l2.203 1.285c.247.144.216.398-.069.564l-2.544 1.485c-.286.166-.72.184-.967.04l-2.204-1.285c-.247-.144-.216-.398.07-.565l2.544-1.484M265.447 103.922c.285-.166.72-.184.967-.04l2.204 1.285c.247.144.215.398-.07.564l-2.544 1.484c-.285.166-.72.185-.967.041l-2.204-1.286c-.247-.144-.215-.398.07-.564l2.544-1.484M261.369 101.883c.285-.167.72-.185.967-.04l2.204 1.285c.246.144.215.398-.07.564l-2.545 1.484c-.285.166-.72.185-.967.04l-2.203-1.285c-.247-.144-.216-.398.07-.564l2.544-1.484M255.717 98.307c.28-.158.709-.175.952-.038l4.304 2.421c.243.137.213.378-.068.535l-2.504 1.409c-.28.158-.71.175-.952.038l-4.305-2.42c-.243-.138-.212-.378.069-.536l2.504-1.41M296.545 126.863c.285-.166.72-.184.967-.04l2.204 1.285c.247.144.215.398-.07.564l-2.544 1.484c-.285.167-.72.185-.967.04l-2.204-1.285c-.247-.143-.215-.397.07-.564l2.544-1.484M292.467 124.824c.285-.166.72-.185.967-.04l2.203 1.285c.247.144.216.398-.07.564l-2.544 1.484c-.284.167-.72.185-.967.04l-2.203-1.285c-.247-.144-.216-.398.07-.564l2.544-1.484M288.898 122.785c.285-.167.72-.185.967-.04l2.204 1.285c.247.144.215.398-.07.564l-2.544 1.484c-.285.166-.72.184-.967.04l-2.204-1.285c-.247-.144-.216-.398.07-.564l2.544-1.484M285.84 120.236c.284-.167.72-.185.966-.04l2.204 1.285c.247.144.215.397-.07.564l-2.544 1.484c-.285.166-.72.184-.967.04l-2.204-1.285c-.247-.144-.215-.398.07-.564l2.544-1.484M281.761 118.706c.285-.166.72-.184.967-.04l2.204 1.285c.246.144.215.398-.07.564L282.318 122c-.285.166-.72.184-.968.04l-2.203-1.285c-.247-.144-.216-.398.07-.564l2.544-1.485M278.192 116.157c.285-.166.72-.184.967-.04l2.204 1.286c.247.143.216.397-.07.563l-2.544 1.485c-.285.166-.72.184-.967.04l-2.204-1.285c-.247-.144-.215-.398.07-.564l2.544-1.485M274.624 114.118c.285-.166.72-.184.967-.04l2.203 1.285c.247.144.216.398-.07.564l-2.544 1.484c-.285.167-.72.185-.967.04l-2.203-1.285c-.247-.144-.216-.397.07-.564l2.544-1.484M271.055 112.079c.285-.167.72-.185.967-.04l2.204 1.285c.246.144.215.398-.07.564l-2.545 1.484c-.284.166-.72.185-.967.04l-2.203-1.285c-.247-.144-.216-.398.07-.564l2.544-1.484M266.977 110.04c.285-.167.72-.185.966-.04l2.204 1.285c.247.143.216.397-.07.564l-2.544 1.484c-.285.166-.72.185-.967.04l-2.204-1.285c-.246-.144-.215-.398.07-.564l2.545-1.484M263.408 108c.285-.166.72-.184.967-.04l2.204 1.285c.246.144.215.398-.07.564l-2.544 1.485c-.285.166-.72.184-.967.04l-2.204-1.285c-.247-.144-.216-.398.07-.564l2.544-1.485M259.84 105.451c.284-.166.72-.184.966-.04l2.204 1.285c.247.144.216.398-.07.564l-2.544 1.485c-.285.166-.72.184-.967.04l-2.204-1.285c-.246-.144-.215-.398.07-.564l2.544-1.485M256.868 106.71c-.28.16-.709.178-.952.04l-6.85-3.915c-.243-.139-.212-.384.069-.544l2.506-1.433c.281-.16.71-.178.953-.039l6.85 3.914c.243.14.212.384-.069.545l-2.507 1.432M297.566 130.33c-.281.16-.312.406-.068.545l6.85 3.914c.242.139.671.12.952-.04l2.507-1.432c.28-.16.311-.405.068-.544l-6.85-3.915c-.243-.138-.671-.121-.952.04l-2.507 1.432M290.428 128.392c.285-.166.72-.184.967-.04l2.203 1.286c.247.144.216.397-.07.563l-2.544 1.485c-.285.166-.72.184-.967.04l-2.204-1.285c-.246-.144-.215-.398.07-.564l2.545-1.485M286.859 125.844c.285-.167.72-.185.967-.04l2.204 1.285c.246.144.215.397-.07.564l-2.545 1.484c-.284.166-.72.184-.966.04l-2.204-1.285c-.247-.144-.216-.398.07-.564l2.544-1.484"/>
            <path fill="#58595B" d="M283.29 124.314c.285-.166.72-.184.967-.04l2.204 1.285c.247.144.215.398-.07.564l-2.544 1.484c-.285.167-.72.185-.967.041l-2.204-1.286c-.246-.144-.215-.397.07-.564l2.544-1.484M279.212 121.765c.285-.166.72-.184.967-.04l2.203 1.285c.247.144.216.398-.069.564l-2.545 1.485c-.284.166-.72.184-.967.04l-2.203-1.285c-.247-.144-.216-.398.07-.565l2.544-1.484M275.643 119.726c.285-.166.72-.185.967-.04l2.204 1.285c.247.144.215.397-.07.564l-2.544 1.484c-.285.167-.72.185-.967.04l-2.204-1.285c-.247-.144-.215-.398.07-.564l2.544-1.484M272.075 117.686c.285-.166.72-.184.967-.04l2.203 1.286c.247.144.216.398-.07.564l-2.544 1.484c-.285.166-.72.184-.967.04l-2.203-1.285c-.247-.144-.216-.398.069-.564l2.545-1.485M268.506 115.648c.285-.167.72-.185.967-.04l2.203 1.285c.248.144.216.397-.069.563l-2.544 1.485c-.285.166-.72.184-.967.04l-2.204-1.285c-.247-.144-.216-.398.07-.564l2.544-1.484M264.937 113.608c.286-.166.72-.184.967-.04l2.204 1.285c.247.144.215.398-.07.564l-2.544 1.484c-.285.167-.72.185-.967.041l-2.204-1.285c-.246-.145-.215-.398.07-.564l2.544-1.485M261.369 111.06c.285-.167.72-.185.967-.041l2.203 1.285c.247.144.216.398-.069.564l-2.545 1.485c-.285.166-.72.184-.966.04l-2.204-1.286c-.247-.143-.216-.397.07-.563l2.544-1.485M257.29 109.02c.285-.166.72-.185.967-.04l2.204 1.285c.247.144.216.398-.07.564l-2.544 1.484c-.285.167-.72.185-.967.04l-2.204-1.285c-.247-.144-.215-.397.07-.564l2.544-1.484M254.268 110.27c-.286.171-.723.19-.97.042l-8.817-5.29c-.248-.15-.217-.411.07-.583l2.554-1.532c.286-.172.722-.19.97-.042l8.817 5.29c.247.149.216.41-.07.582l-2.554 1.533M291.453 131.969c-.287.171-.318.433-.07.582l8.816 5.29c.248.149.685.13.97-.042l2.555-1.532c.286-.172.317-.434.07-.583l-8.817-5.29c-.248-.148-.684-.13-.97.042l-2.554 1.533"/>
            <path fill="#F2F3F3" d="M301.412 111.941l-5.608-3.568 5.608 3.568"/>
            <path fill="#AFAFAF" d="M319.255 119.078l-5.608-3.568 5.608 3.568"/>
            <path fill="#3A4461" d="M318.745 118.569l-11.725-6.935v-9.692l9.943-5.923.044-.027.088-.057.05-.034.029-.022.024-.017a4.02 4.02 0 0 0 .125-.097l.044-.037.009-.007a3.38 3.38 0 0 0 .108-.098l.032-.03.008-.009.014-.013c.053-.052.103-.107.152-.163l.042-.05c.035-.042.07-.086.105-.131l.008-.011.036-.048c.036-.05.07-.101.105-.153l.028-.042.008-.013a3.261 3.261 0 0 0 .12-.208l.001-.002.026-.05c.017-.03.032-.062.048-.094l.035-.074.005-.01c.046-.103.09-.21.13-.318l.012-.028a.32.32 0 0 0 .003-.011l.022-.067c.022-.065.044-.13.064-.198l.018-.053.02-.079.032-.128a1.747 1.747 0 0 1 .02-.081c.004-.01.006-.02.009-.031.005-.02.008-.042.012-.062a.23.23 0 0 1 .003-.018l.007-.034a7.61 7.61 0 0 0 .022-.116l.016-.077a.997.997 0 0 0 .004-.03l.008-.055a.622.622 0 0 0 .01-.065l.011-.08a1.712 1.712 0 0 1 .007-.045l.004-.024.01-.1.001-.02c.005-.043.01-.086.013-.13l.004-.035.002-.016.006-.096.004-.081v-.002c.002-.027.005-.054.006-.082v-.011l.002-.023a5.288 5.288 0 0 0 .006-.239v-.028 26.51"/>
            <path fill="#3D6D7A" d="M272.353 147.118l-6.118-3.569 6.118 3.568"/>
            <path fill="#AFAFAF" d="M318.294 119.588L306 112.495l.961-.554 12.294 7.093-.96.554"/>
            <path fill="#3A4461" d="M313.137 115.51l-6.117-3.569 6.117 3.569"/>
            <path fill="#9D9E9F" d="M272.353 147.117l-9.177-5.405v-1.732l9.177 5.406v1.732"/>
            <path fill="#B5B5B5" d="M272.411 145.078l-9.235-5.327v-.002s5.467-3.864 8.542-5.958l-.615-.355 1.799-1.038-.583-.337 4.332-2.499 11.924 6.88-4.332 2.499-.583-.336-1.8 1.038-.754-.436-8.695 5.871m40.63-22.752l-11.924-6.878 5.194-2.997 11.924 6.879-5.194 2.996"/>
            <path fill="#9D9E9F" d="M288.802 136.922l-11.86-7.017.769-.455 3.958 2.342c.111.066.26.098.417.098.19 0 .39-.047.545-.14l2.533-1.497c.283-.168.314-.424.069-.57l-3.958-2.341.646-.382 1.055.624c.111.066.26.098.417.098.19 0 .39-.047.545-.14l2.533-1.497c.283-.168.315-.424.069-.57l-1.055-.623 4.856-2.873.312.185a.836.836 0 0 0 .418.098c.19 0 .39-.047.544-.14l2.533-1.497c.283-.168.314-.424.069-.57l-.312-.184.646-.382 1.798 1.063c.111.066.26.098.418.098.19 0 .389-.047.544-.139l2.533-1.497c.283-.168.314-.425.069-.57l-1.798-1.064.646-.382 2.3 1.361c.112.066.261.098.418.098.19 0 .39-.047.545-.139l.75-.444c.284-.167.315-.424.07-.569l-2.301-1.36.734-.435 11.86 7.016-.734.434a.848.848 0 0 0-.409-.093 1.1 1.1 0 0 0-.545.14l-.75.443c-.28.166-.314.418-.078.564l-.646.383-1.318-.78a.836.836 0 0 0-.418-.098 1.1 1.1 0 0 0-.544.139l-2.532 1.498c-.284.168-.315.424-.07.57l1.318.779-4.856 2.872-.238-.14a.835.835 0 0 0-.417-.098 1.1 1.1 0 0 0-.545.138l-2.532 1.499c-.284.167-.315.424-.07.57l.238.14-.646.382-2.06-1.22a.837.837 0 0 0-.418-.097 1.1 1.1 0 0 0-.545.139l-2.532 1.498c-.284.168-.315.424-.07.569l2.061 1.219-4.98 2.946m-.67-3.266c-.189 0-.389.047-.544.139l-.75.444c-.284.167-.315.423-.07.569l2.194 1.297a.836.836 0 0 0 .417.098c.19 0 .39-.047.545-.139l.75-.444c.284-.167.315-.424.07-.569l-2.193-1.297a.836.836 0 0 0-.418-.098m-1.864-3.211c-.19 0-.39.047-.545.139l-2.532 1.498c-.284.168-.315.424-.069.569l2.193 1.297c.111.066.26.099.417.099.19 0 .39-.048.545-.14l2.532-1.498c.284-.167.315-.423.07-.569l-2.193-1.297a.833.833 0 0 0-.418-.098m4.953-2.051c-.19 0-.39.047-.545.139l-2.532 1.498c-.284.168-.315.424-.07.57l2.194 1.297c.111.065.26.098.417.098.19 0 .39-.047.545-.14l2.533-1.497c.283-.168.314-.424.069-.57l-2.193-1.297a.838.838 0 0 0-.418-.098m6.033-1.412a1.1 1.1 0 0 0-.545.139l-2.532 1.498c-.284.168-.315.424-.07.57l2.194 1.296c.111.066.26.098.417.098.19 0 .39-.047.545-.138l2.532-1.499c.284-.167.315-.423.07-.568l-2.193-1.298a.837.837 0 0 0-.418-.098m-9.68-.745c-.189 0-.389.047-.544.14l-2.532 1.497c-.284.168-.315.424-.069.57l2.193 1.297c.111.066.26.098.418.098.19 0 .39-.047.544-.14l2.532-1.497c.284-.168.315-.424.07-.57l-2.194-1.297a.833.833 0 0 0-.417-.098m14.969-1.107a1.1 1.1 0 0 0-.545.14l-2.532 1.497c-.284.168-.315.424-.07.57l2.194 1.297c.111.066.26.098.417.098.19 0 .39-.047.545-.139l2.532-1.498c.284-.168.315-.424.07-.57l-2.194-1.297a.835.835 0 0 0-.417-.098m-8.936-.305a1.1 1.1 0 0 0-.545.14l-2.532 1.497c-.284.168-.315.424-.07.57l2.194 1.297c.111.066.26.098.417.098.19 0 .39-.047.545-.14l2.532-1.497c.284-.168.315-.424.07-.57l-2.193-1.297a.836.836 0 0 0-.418-.098m5.29-1.851a1.1 1.1 0 0 0-.545.139l-2.532 1.498c-.284.168-.315.424-.07.569l2.194 1.297c.111.066.26.098.418.098.189 0 .389-.047.544-.139l2.532-1.498c.284-.168.315-.424.07-.57l-2.194-1.297a.834.834 0 0 0-.417-.097m-8.936-.306c-.19 0-.39.047-.545.14l-2.532 1.497c-.284.168-.315.424-.07.57l2.194 1.297a.836.836 0 0 0 .417.098c.19 0 .39-.047.545-.139l2.533-1.498c.283-.168.314-.424.069-.57l-2.194-1.297a.834.834 0 0 0-.417-.098m14.632-1.306c-.19 0-.39.047-.545.139l-2.532 1.498c-.284.168-.315.424-.07.57l2.194 1.297c.11.066.26.098.417.098.19 0 .39-.047.545-.14l2.532-1.497c.284-.168.315-.424.07-.57l-2.194-1.297a.838.838 0 0 0-.417-.098m-9.342-.545c-.19 0-.39.047-.545.139l-2.532 1.498c-.284.168-.315.424-.07.569l2.194 1.297c.111.066.26.099.417.099.19 0 .39-.048.545-.14l2.533-1.498c.283-.168.314-.424.069-.569l-2.193-1.297a.839.839 0 0 0-.418-.098m12.682-.352a1.1 1.1 0 0 0-.545.14l-.75.443c-.284.168-.315.424-.07.57l2.613 1.545c.111.066.26.098.418.098.189 0 .389-.047.544-.139l.75-.444c.284-.168.315-.424.07-.569l-2.612-1.546a.838.838 0 0 0-.418-.098m-6.986-1.26c-.19 0-.39.048-.545.14l-2.532 1.497c-.284.168-.315.424-.07.57l2.194 1.297c.11.066.26.098.418.098.189 0 .389-.047.544-.139l2.533-1.498c.283-.168.314-.424.069-.57l-2.193-1.296a.835.835 0 0 0-.418-.098m2.926-1.142a1.1 1.1 0 0 0-.545.139l-.75.443c-.284.168-.315.424-.07.57l2.613 1.545c.11.066.26.098.417.098.19 0 .39-.047.545-.139l.75-.444c.284-.168.315-.424.07-.57l-2.613-1.544a.838.838 0 0 0-.417-.098"/>
            <path fill="#424344" d="M285.339 133.863a.848.848 0 0 1-.42-.098l-2.203-1.285c-.247-.144-.216-.398.069-.564l2.544-1.484c.156-.091.357-.138.548-.138.157 0 .308.032.42.097l2.203 1.286c.247.144.216.398-.07.563l-2.544 1.485a1.117 1.117 0 0 1-.547.138M281.804 131.824a.822.822 0 0 1-.416-.1l-3.937-2.362 3.545-2.127 3.937 2.363c.244.146.214.405-.068.574l-2.52 1.511a1.08 1.08 0 0 1-.541.14M289.076 135.902a.938.938 0 0 1-.445-.098l-2.337-1.298c-.261-.146-.228-.402.074-.57l.8-.444a1.23 1.23 0 0 1 .58-.14c.167 0 .326.033.445.1l2.336 1.297c.262.146.229.402-.073.57l-.8.444a1.232 1.232 0 0 1-.58.139M301.289 118.569a.95.95 0 0 1-.451-.1l-2.485-1.38 1.924-1.07 2.485 1.381c.265.147.232.407-.074.577l-.81.45c-.169.094-.385.142-.59.142M305.534 120.608a.854.854 0 0 1-.405-.09l-2.537-1.409c-.238-.132-.208-.366.067-.519l.729-.404c.15-.084.345-.127.529-.127.152 0 .297.03.405.09l2.537 1.408c.238.133.208.366-.067.52l-.73.404c-.15.084-.344.127-.528.127M309.613 123.157a.853.853 0 0 1-.406-.09l-2.537-1.409c-.238-.132-.208-.366.068-.519l.729-.405c.15-.083.344-.126.528-.126.153 0 .298.03.406.09l2.536 1.409c.239.132.208.366-.067.518l-.729.405c-.15.084-.345.127-.528.127M310.753 123.667c-.248-.13-.213-.354.082-.502l.79-.394c.163-.082.373-.124.573-.124.16 0 .313.027.43.083l-1.875.937M296.522 120.608a.797.797 0 0 1-.423-.107l-1.824-1.161 3.615-2.3 1.824 1.16c.25.159.218.438-.07.622l-2.57 1.634c-.156.1-.36.152-.552.152M300.123 122.647a.849.849 0 0 1-.42-.097l-2.203-1.286c-.247-.143-.216-.397.07-.564l2.544-1.484c.156-.091.357-.138.547-.138.158 0 .308.032.42.098l2.204 1.285c.246.144.215.398-.07.564l-2.544 1.485a1.117 1.117 0 0 1-.548.137M303.692 125.196a.848.848 0 0 1-.42-.097l-2.204-1.286c-.246-.144-.215-.397.07-.564l2.544-1.484a1.12 1.12 0 0 1 .548-.138c.157 0 .307.032.42.097l2.203 1.286c.247.144.216.398-.07.564l-2.544 1.484a1.115 1.115 0 0 1-.547.138M305.969 126.216l-1.331-.799c-.248-.149-.217-.411.07-.583l2.558-1.535c.157-.094.358-.142.55-.142.158 0 .31.033.422.1l1.33.799-3.6 2.16M301.652 128.255a.852.852 0 0 1-.42-.097l-2.203-1.286c-.247-.144-.215-.398.07-.564l2.544-1.484c.156-.091.357-.138.548-.138.157 0 .308.032.42.097l2.203 1.286c.247.144.215.398-.07.564l-2.544 1.484a1.117 1.117 0 0 1-.548.138M298.084 126.216a.848.848 0 0 1-.42-.097l-2.204-1.286c-.246-.144-.215-.397.07-.564l2.545-1.484c.156-.091.357-.138.547-.138.158 0 .308.032.42.097l2.203 1.286c.247.144.216.397-.07.564l-2.544 1.484a1.117 1.117 0 0 1-.547.138M294.515 124.176a.848.848 0 0 1-.42-.097l-2.203-1.285c-.247-.144-.216-.398.07-.564l2.544-1.485a1.12 1.12 0 0 1 .547-.137c.158 0 .308.032.42.097l2.204 1.286c.246.143.215.397-.07.563l-2.545 1.485a1.116 1.116 0 0 1-.547.137M290.933 122.137a.971.971 0 0 1-.422-.083l-.315-.158 3.596-1.798.315.157c.248.125.217.343-.07.486l-2.555 1.278a1.27 1.27 0 0 1-.55.118M296.554 130.294a.847.847 0 0 1-.419-.097l-2.204-1.285c-.247-.144-.215-.398.07-.565l2.544-1.484c.156-.09.357-.138.547-.138a.85.85 0 0 1 .42.098l2.204 1.285c.247.144.215.398-.07.564l-2.544 1.485a1.117 1.117 0 0 1-.548.137M292.476 128.255a.849.849 0 0 1-.42-.097l-2.203-1.286c-.247-.144-.216-.398.07-.564l2.544-1.484c.156-.091.357-.138.547-.138a.85.85 0 0 1 .42.097l2.203 1.286c.247.144.216.398-.07.564l-2.544 1.484a1.115 1.115 0 0 1-.547.138M288.907 126.216a.85.85 0 0 1-.42-.097l-2.203-1.286c-.247-.144-.216-.398.07-.564l2.544-1.484c.156-.091.357-.138.548-.138.157 0 .307.032.419.097l2.204 1.286c.247.144.215.398-.07.564l-2.544 1.484a1.117 1.117 0 0 1-.548.138M297.748 130.804l-.244-.122c-.253-.127-.22-.35.07-.495l2.604-1.302c.16-.08.366-.12.56-.12.161 0 .315.028.43.085l.244.122-3.664 1.832M290.437 131.824a.85.85 0 0 1-.42-.098l-2.204-1.285c-.246-.144-.215-.398.07-.564l2.545-1.485a1.12 1.12 0 0 1 .547-.137c.157 0 .308.032.42.097l2.203 1.286c.247.144.216.398-.07.564l-2.544 1.484a1.117 1.117 0 0 1-.547.138M286.868 129.275a.848.848 0 0 1-.42-.098l-2.203-1.285c-.247-.144-.216-.398.07-.564l2.544-1.484c.156-.092.357-.138.547-.138.158 0 .308.032.42.097l2.204 1.286c.246.144.215.397-.07.563l-2.545 1.485a1.116 1.116 0 0 1-.547.138M282.942 127.235a.846.846 0 0 1-.4-.088l-1.013-.562 3.418-1.899 1.012.562c.235.131.205.362-.066.513l-2.429 1.35c-.149.082-.34.124-.522.124M293.568 133.863l-2.177-1.27c-.26-.152-.227-.418.073-.593l2.675-1.561c.165-.096.376-.145.576-.145.166 0 .324.034.441.102l2.177 1.27-3.765 2.197"/>
            <path fill="#20BCAC" d="M237.136 162.922L202 142.574l7.553-4.374c-.04-.285.112-.62.504-1.008 2.22-2.196 5.369-4.64 8.534-6.898l18.545 10.74 7.849-4.546c.003.96.423 1.95 1.631 2.799.231.162.498.24.763.24a1.362 1.362 0 0 0 1.017-.455c.529-.592 1.3-1.42 2.145-2.205v-.001l.271-.249 19.502 11.294c-5.108 2.52-18.35 8.978-22.074 10.077-1.243.367-2.24.944-2.965.944a.912.912 0 0 1-.72-.307l-7.419 4.297"/>
            <path fill="#3D6D7A" d="M270.334 148.137l-19.393-11.407c.318-.291.644-.572.968-.828.152.477.42.882.74 1.19.26.251.593.374.923.374a1.34 1.34 0 0 0 1.092-.563c.032-.043.063-.087.096-.13l8.4 4.94v.001l9.193 5.408s-.761.385-2.019 1.015"/>
            <path fill="#9D9E9F" d="M263.176 141.51l-8.666-4.588 8.666 4.588"/>
            <path fill="#2E525B" d="M272.353 147.118l-9.177-5.098 9.177 5.098"/>
            <path fill="#767677" d="M266.235 143.549l-3.059-2.04 3.06 2.04"/>
            <path fill="#2B3656" d="M281.236 96.647l-6.844-4.012v-9.621l9.944-5.87a1.816 1.816 0 0 0 .132-.085l.049-.033.03-.022.023-.017a11.298 11.298 0 0 0 .125-.096l.052-.043a417.526 417.526 0 0 0 .094-.083 2.1 2.1 0 0 0 .047-.045l.01-.01.012-.01c.053-.052.103-.107.153-.163l.04-.048.067-.08.021-.028.018-.023.011-.015.033-.043c.036-.05.071-.1.105-.152l.028-.042.008-.013.08-.132.04-.073.001-.003.024-.044c.027-.05.052-.103.078-.156l.002-.004.005-.012.005-.01a4.63 4.63 0 0 0 .13-.315l.012-.027.017-.052a4.86 4.86 0 0 0 .058-.176l.015-.047.007-.024.01-.028.02-.078a4.28 4.28 0 0 0 .035-.135l.008-.035.012-.045.006-.023.009-.045.006-.033v-.001l.007-.033.023-.116c.004-.026.01-.05.015-.076v-.007l.012-.078.001-.007a3.46 3.46 0 0 0 .02-.136l.005-.03.002-.017.003-.021c.005-.034.008-.068.01-.102l.002-.017.014-.129.003-.032.002-.019.006-.098.004-.077v-.002c.003-.03.005-.06.006-.092v-.001l.002-.023.001-.039c.003-.08.005-.164.005-.247v20.569l-4.881 2.882"/>
            <path fill="#B5B5B5" d="M275.49 100.725l-5.686-3.378v-.906l2.227-1.323 6.44 3.825-2.98 1.782"/>
            <path fill="#9D9E9F" d="M269.467 103.275l-.173-.035v-.536l.981-.57c.293-.17.325-.429.072-.576l-1.053-.611v-1.614l.585-.339c.292-.17.324-.43.07-.577l-.655-.38v-.88l6.118 3.55-1.754 1.026a3.252 3.252 0 0 0-1.122 1.096l-.69-.4a.875.875 0 0 0-.43-.1 1.15 1.15 0 0 0-.563.141l-1.386.805m1.547-4.09a1.15 1.15 0 0 0-.562.142l-.775.45c-.293.17-.326.429-.072.576l2.697 1.566c.115.066.27.099.431.099.196 0 .402-.048.563-.14l.775-.45c.292-.17.324-.43.07-.577l-2.696-1.566a.876.876 0 0 0-.431-.1"/>
            <path fill="#424344" d="M269.294 99.196v-1.02l.405.3c.156.116.136.32-.044.453l-.36.267M272.907 101.745a.854.854 0 0 1-.406-.09l-2.536-1.408c-.239-.133-.209-.366.067-.52l.729-.404a1.12 1.12 0 0 1 .528-.127c.153 0 .298.03.406.09l2.536 1.408c.239.133.209.367-.067.52l-.729.405c-.15.083-.344.126-.528.126M269.294 102.765v-2.04l.877.71c.212.17.185.472-.06.669l-.817.66M272.14 103.275a44.572 44.572 0 0 1-2.336-.467l1.381-.905c.16-.104.366-.158.56-.158.162 0 .316.037.43.112l.688.45a4.92 4.92 0 0 0-.307.663l-.1.066a2.79 2.79 0 0 0-.316.239"/>
            <path fill="#ACADAE" d="M280.63 97.667l-6.748-4.047.904-.542 6.743 4.045-.9.544"/>
            <path fill="#2B3656" d="M281.53 97.157l-7.138-4.079 7.137 4.079"/>
            <path fill="#B5B5B5" d="M277.977 98.686l-6.644-3.807.6-.344v-.254l1.21-.693 6.857 3.93-2.023 1.168"/>
            <path fill="#B5B6B6" d="M278.47 98.686l-6.627-3.568 6.628 3.568"/>
            <path fill="#58595B" d="M245.353 83.215c3.38 1.96 6.109 6.708 6.098 10.606-.011 3.899-2.758 5.472-6.138 3.513-3.378-1.959-6.108-6.708-6.097-10.606.011-3.899 2.759-5.472 6.137-3.513"/>
            <path fill="#BCBEC0" d="M243.568 85.173c3.239 1.77 5.854 6.058 5.844 9.58-.01 3.52-2.644 4.942-5.882 3.172-3.238-1.77-5.854-6.059-5.844-9.58.01-3.52 2.644-4.941 5.882-3.172"/>
            <path fill="#FFC39E" d="M233.746 97.853c-2.902-3.546-1.902-8.8 2.109-11.076l11.405-6.469a7.668 7.668 0 0 1 7.553 0c2.336 1.325 3.775 3.775 3.775 6.426 0 2.651-1.439 5.101-3.775 6.427l-11.405 6.468c-5.468 3.255-9.662-1.776-9.662-1.776M232.961 101.745s-6.841 5.346-8.474 6.188c0 0-3.167 2.483-4.055 2.9 0 0-2.487 1.622-3.796 2.16-1.309.537-2.308 1.632-1.717 2.62.592.988 2.446 2.282 5.952.647 4.407-2.056 12.737-7.931 12.737-7.931l-.647-6.584"/>
            <path fill="#8C6239" d="M224.1 95.118s-7.89 6.858-9.804 7.978c0 0-3.652 3.184-4.695 3.744 0 0-2.892 2.109-4.435 2.84-1.544.732-2.674 2.11-1.892 3.25.783 1.14 3.254 2.768 7.124.164 3.87-2.604 16.073-11.412 16.073-11.412l-2.37-6.564"/>
            <path fill="#FFC39E" d="M228.058 98.686s-8.255 6.401-10.225 7.41c0 0-3.821 2.973-4.892 3.473 0 0-3.002 1.942-4.581 2.585-1.58.643-2.785 1.954-2.071 3.138.713 1.183 3.08 2.948 7.084.567 4.005-2.38 16.666-10.484 16.666-10.484l-1.98-6.689"/>
            <path fill="#FFC39E" d="M226.47 101.681s-12.203 8.81-16.073 11.413c-2.612 1.759-4.587 1.588-5.835.94a3.56 3.56 0 0 1-1.288-1.104c-.782-1.14.349-2.518 1.892-3.25 1.544-.73 4.435-2.84 4.435-2.84 1.043-.56 4.696-3.744 4.696-3.744 1.912-1.12 9.804-7.978 9.804-7.978l2.37 6.563"/>
            <path fill="#FFC39E" d="M220.414 92.569s-3.584 3.362-5.513 4.461c0 0-3.683 3.13-4.735 3.68 0 0-2.916 2.071-4.473 2.79-1.556.719-2.696 2.072-1.907 3.193.79 1.12 3.245 2.939 7.147.38 3.902-2.558 12.479-9.058 12.479-9.058l-2.998-5.446"/>
            <path fill="#FFC39E" d="M238.185 84.922l-17.832 7.296s4.581 10.138 9.677 18.194c0 0 11.061-5.472 16.323-12.705l-8.168-12.785"/>
            <path fill="#F2A789" d="M258.588 86.817c0 2.68-1.43 5.157-3.749 6.498l-7.899 4.562a22.628 22.628 0 0 1-1.336 1.637 28.161 28.161 0 0 1-.883.946 52.397 52.397 0 0 1-.577.577 39.96 39.96 0 0 1-1.08 1.009l-.101.091a25.234 25.234 0 0 1-.475.416c-.11.095-.221.191-.333.285a42.792 42.792 0 0 1-1.01.83c-.115.09-.227.18-.341.268l-.17.133-.213.164a35.225 35.225 0 0 1-.768.578l-.042.03-.34.25c-.624.452-1.242.88-1.845 1.284l-.164.11a64.883 64.883 0 0 1-2.622 1.657h-.001l-.282.168c-.278.166-.547.322-.802.469l-.252.145a62.595 62.595 0 0 1-1.412.782l-.346.185-.079.041-.131.07-.08.041-.075.04a3.97 3.97 0 0 1-.095.048l-.087.044c-.147.077-.26.133-.332.169l-.026.012-.071.035c-2.812 1.89-7.014 4.609-9.724 5.873-2.478 1.156-4.126.84-5.083.207.637.284 2.414.418 3.922-.44 1.21-.687 3.165-1.966 6.701-4.227a1.998 1.998 0 0 0 .62-2.736l-.02-.036-.077-.128c-.317-.523-.68-1.145-.681-1.146-3.658 2.352-9.668 6.206-12.685 8.014-2.244 1.346-3.97 1.366-5.174.917 0 0 1.838.186 4.012-1.079 1.806-1.05 7.402-4.756 12.314-8.012.315-.21.96-1.258.446-1.914l-1.405-1.756c-2.673 1.946-9.777 7.115-13.037 9.332-2.585 1.758-4.54 1.587-5.774.94.749.215 1.798.149 3.2-.692 2.588-1.555 9.841-6.87 14.163-10.107a1.894 1.894 0 0 0 .564-2.363 8.317 8.317 0 0 0-.994-1.506c-.18.142-.365.285-.556.433-2.158 1.68-4.886 3.779-7.458 5.648-.103.076-.207.15-.31.225l-.918.66-.301.212a55.844 55.844 0 0 1-.666.464l-.087.06c-3.829 2.604-6.238.753-7.012-.388 0 0 2.432 1.577 4.838.275 1.214-.657 3.745-2.517 6.407-4.565 2.662-2.047 6.752-5.482 6.768-5.497a1.52 1.52 0 0 0 .312-.434c.422-.892-.208-2.024-1.299-2.649a3.201 3.201 0 0 0-.216-.115c-.317-.154-.956-.273-1.589-.36.652-.604 1.093-1.032 1.093-1.032l3.508-1.409.321-.13 12.649-5.083.015-.006c3.474 3.335 6.691 7.78 6.877 7.886l.01.005s.03 2.965-2.261 5.381c-.96 1.013-2.053 2.52-3.053 3.941-.45.64.335 1.417.97.964 2.538-1.812 4.113-3.484 5.29-5.417.388-.638.778-1.182 1.152-1.644.89-1.097 1.698-1.735 2.221-2.078.004-.092.007-.184.007-.28.001-.096-.002-.194-.005-.292l-.004-.09a4.362 4.362 0 0 0-.013-.218l-.01-.105a5.642 5.642 0 0 0-.021-.22l-.01-.089a13.493 13.493 0 0 0-.043-.31l-.007-.04c-.015-.09-.03-.18-.048-.27a5.265 5.265 0 0 0-.067-.318l-.028-.12a18.976 18.976 0 0 0-.05-.203 9.08 9.08 0 0 0-.124-.439 9.23 9.23 0 0 0-.099-.313l-.009-.026a17.205 17.205 0 0 0-.102-.29l-.035-.093-.084-.22-.043-.104a9.898 9.898 0 0 0-.13-.308c-.044-.101-.09-.202-.137-.304-.01-.023-.023-.046-.034-.07-.038-.08-.077-.158-.116-.237l-.085-.164-.081-.156a11.97 11.97 0 0 0-.236-.421l-.084-.14-.103-.17c-.03-.05-.063-.1-.094-.149a12.412 12.412 0 0 0-.108-.166c-.064-.099-.135-.19-.174-.295-.039-.105-.127-.174-.207-.253l-.002-.003a14.577 14.577 0 0 0-.23-.302c-.06-.077-.123-.153-.185-.229l-.034-.043a12.236 12.236 0 0 0-.224-.26c-.02-.025-.043-.049-.066-.074-.053-.06-.107-.119-.161-.177l-.094-.1-.142-.146-.103-.102-.14-.135-.111-.104-.139-.125-.113-.098a8.585 8.585 0 0 0-.405-.33l-.104-.079-.17-.123-.087-.062a8.689 8.689 0 0 0-.255-.17l-.019-.011a7.913 7.913 0 0 0-.264-.16c-.08-.048-1.954-1.021-2.447-.749l-.316.191a.54.54 0 0 0-.09.85c1.322 1.26 1.848 2.474 1.865 2.516-1.49-1.987-3.395-2.699-3.395-2.699l8.594-4.963a7.494 7.494 0 0 1 7.497 0h.001a7.5 7.5 0 0 1 3.75 6.498"/>
            <path fill="#F2A789" d="M212.196 102.255s.51 1.872.13 3.569l.372-.67s.111-1.4-.502-2.9M218.314 98.176s.51 1.872.13 3.57l.372-.671s.111-1.4-.502-2.899M212.196 108.373s.51 1.871.13 3.568l.372-.67s.111-1.4-.502-2.898M218.314 103.784s.51 1.872.13 3.569l.372-.67s.111-1.4-.502-2.899M213.725 111.431s.884 1.756.664 3.569l.356-.775s-.063-1.442-1.02-2.794M220.353 107.353s.89 1.764.645 3.569l.375-.767s-.05-1.44-1.02-2.802M220.863 112.96s.51 1.605.13 3.06l.372-.575s.111-1.2-.502-2.484M224.431 110.922s.51 1.604.13 3.058l.372-.574s.112-1.2-.502-2.484"/>
            <path fill="#EB9A7F" d="M222.392 95.118c.24.207.44.465.619.735.178.271.33.561.469.859.134.3.248.61.352.923.1.308.215.61.352.898.136.292.291.56.464.838.168.282.317.578.447.884a6.476 6.476 0 0 1 .416 1.445c.03.159.065.317.106.472.154.628.392 1.22.712 1.775.312.577.575 1.188.75 1.833.158.64.359 1.251.66 1.82.073.143.154.277.236.42.081.142.156.288.223.438.135.298.24.612.312.934-.1-.312-.23-.61-.383-.893a5.965 5.965 0 0 0-.245-.413c-.088-.132-.182-.267-.265-.407a6.609 6.609 0 0 1-.436-.884 9.494 9.494 0 0 1-.314-.939 8.994 8.994 0 0 0-.772-1.758 6.93 6.93 0 0 1-.86-2.331 6.68 6.68 0 0 0-.388-1.392 7.01 7.01 0 0 0-.413-.86c-.077-.136-.165-.28-.24-.427a7.198 7.198 0 0 1-.54-1.388 10.039 10.039 0 0 0-.302-.925 7.129 7.129 0 0 0-.408-.875 4.89 4.89 0 0 0-.253-.409 2.732 2.732 0 0 0-.299-.373M236.157 104.294c-4.436-2.27-7.127-6.482-8.726-10.226a44.66 44.66 0 0 1-1.47-3.98l.332-.068c2.195 7.185 8.5 8.728 8.756 8.806-3.579-.512-6.378-3.441-6.378-3.441 1.712 5.313 7.097 8.671 7.486 8.91M224.941 97.667s1.971.686 5.297 5.355c2.535 3.558 2.86 4.84 2.86 4.84s-.313-1.553-2.048-4.315c-1.335-2.126-3.742-5.084-6.109-5.88"/>
            <path fill="#EB9A7F" d="M243.804 93.994s-8.335 7.017-14.294-1.773c0 0-6.165 1.203-8.997.719 0 0-.058-.01-.16-.035.273-.266.435-.427.435-.427l16.454-6.786.632-.26c.242.057.472.118.688.182l5.242 8.38"/>
            <path fill="#FFC39E" d="M217.077 87.036c.052-.148.1-.275.144-.382a.62.62 0 0 1 .574-.392c2.388-.002 8.311-.19 12.67-1.316 3.5-.904 6.423-.502 8.316.047l5.533 8.666s-8.653 6.76-14.665-2.047c0 0-6.22 1.206-9.078.72 0 0-5.034-.888-3.494-5.296"/>
            <path fill="#9FD8E6" d="M218.314 86.762"/>
            <path fill="#FFD8C0" d="M220.188 88.49c-1.174 0-2.01-1.217-2.384-1.891a.504.504 0 0 1 .107-.012c.081 0 .168 0 .258-.002a61.316 61.316 0 0 0 3.472-.134c.316.323.54.729.693 1.086.174.407-.063.89-.449.909-.355.018-.884.03-1.667.044h-.03"/>
            <path fill="#F2A789" d="M244.314 93.803c-.162.118-8.708 6.29-14.664-1.931 0 0-6.222 1.137-9.08.68 0 0-3.965-.66-3.78-3.713.38 1.327.758 2.777 5.451 2.988 4.721.212 7.918-1.215 7.918-1.215s.856-1.165.733-2.122c0 0 .513 1.253.012 3.51 0 0 4.012 7.347 13.41 1.803M225.706 88.223v.024-.024M226.216 88.236v-.001"/>
            <path fill="#FFF" d="M283.565 73.925l-.002-.05-.005-.104-.006-.123-.007-.095-.009-.11c-.002-.025-.003-.05-.006-.074-.004-.052-.011-.105-.017-.158l-.01-.092-.004-.03a9.34 9.34 0 0 0-.04-.288l-.001-.006-.007-.042-.042-.242-.008-.043a6.018 6.018 0 0 0-.024-.115l-.028-.14-.018-.078-.029-.126-.022-.096-.03-.116-.033-.126-.016-.062-.048-.165-.03-.108-.01-.03a12.34 12.34 0 0 0-.094-.296v-.003l-.01-.027-.09-.262-.016-.04-.036-.1-.053-.14-.035-.09a20.686 20.686 0 0 0-.044-.109c-.01-.026-.02-.053-.032-.08l-.066-.156-.037-.087-.013-.03c-.04-.093-.083-.186-.125-.278l-.005-.01-.036-.074a11.83 11.83 0 0 0-.104-.217l-.016-.032-.088-.172-.071-.139-.014-.024c-.079-.149-.16-.296-.245-.442l-.02-.037-.067-.11a11.89 11.89 0 0 0-.107-.178l-.099-.157a15.222 15.222 0 0 0-.111-.174l-.037-.057-.037-.054a13.437 13.437 0 0 0-.323-.463l-.002-.003a13.391 13.391 0 0 0-.24-.317l-.01-.014c-.06-.077-.12-.152-.18-.226l-.039-.047a11.852 11.852 0 0 0-.219-.26l-.01-.012-.07-.076-.14-.158-.028-.03-.097-.102-.108-.114-.04-.04-.107-.107-.092-.092-.053-.05a9.543 9.543 0 0 0-.116-.108l-.08-.076-.065-.056a7.603 7.603 0 0 0-.116-.103l-.071-.063-.079-.064a10.287 10.287 0 0 0-.115-.095l-.06-.049c-.031-.026-.065-.05-.097-.075-.036-.028-.071-.056-.108-.083l-.043-.034c-.044-.032-.09-.063-.133-.095l-.09-.065-.024-.017a8.802 8.802 0 0 0-.241-.16l-.002-.002-.017-.01a8.173 8.173 0 0 0-.221-.137l-.056-.033-.18-.102-.069-.035a8.383 8.383 0 0 0-.092-.049l-.072-.037c-.038-.02-.076-.036-.114-.055l-.082-.038-.034-.017a6.795 6.795 0 0 0-.226-.097h-.001a5.632 5.632 0 0 0-.228-.087l-.03-.01-.082-.026c-.038-.013-.077-.027-.116-.038l-.057-.017a3.83 3.83 0 0 0-.1-.027c-.026-.007-.052-.016-.077-.022l-.08-.018-.1-.022-.053-.012-.093-.016-.114-.019-.041-.007-.094-.009c-.041-.005-.082-.01-.122-.013l-.037-.003c-.027-.002-.054-.002-.082-.003a3.185 3.185 0 0 0-.144-.005l-.04-.001-.062.002c-.06.002-.12.005-.178.009l-.054.003c-.025.002-.05.006-.074.009l-.055.006a3.05 3.05 0 0 0-.198.033l-.006.001-.053.013a3.09 3.09 0 0 0-.16.04c-.026.007-.051.016-.077.024-.033.01-.068.02-.1.032l-.025.01c-.051.019-.101.04-.15.062l-.073.03a2.65 2.65 0 0 0-.212.112l-34.66 20.32c.069-.04.14-.077.212-.111.024-.012.048-.021.073-.032a2.88 2.88 0 0 1 .15-.061c.04-.016.083-.03.125-.043l.076-.024a3.08 3.08 0 0 1 .16-.04l.054-.012a3.07 3.07 0 0 1 .204-.034l.055-.007c.042-.005.085-.008.128-.011a3.3 3.3 0 0 1 .178-.009c.034 0 .068-.002.102-.001.048 0 .096.002.145.005l.117.006c.04.003.082.008.123.013l.134.016c.038.006.077.012.115.02a4.75 4.75 0 0 1 .503.116l.173.054c.027.01.055.018.082.027a5.417 5.417 0 0 1 .519.21l.082.04a8.157 8.157 0 0 1 .527.277c.092.054.184.11.275.168l.019.012c.09.057.178.117.266.179l.09.065a9.88 9.88 0 0 1 .442.336 10.803 10.803 0 0 1 1.307 1.257l.07.077c.078.09.155.181.232.274l.035.045a11.633 11.633 0 0 1 .431.557l.002.003c.11.151.218.306.323.463l.073.11.112.175a13.1 13.1 0 0 1 .538.923c.03.054.057.11.085.163l.088.173c.041.082.08.165.12.249l.036.074c.049.105.096.211.143.318l.037.087a10.546 10.546 0 0 1 .23.575l.036.099c.037.1.072.202.106.303l.01.027c.036.11.07.22.103.33l.031.107c.022.076.044.151.064.226l.033.127a11.286 11.286 0 0 1 .128.556l.023.115c.018.095.034.19.05.285l.007.042c.017.108.032.216.045.324l.01.092c.009.077.017.154.023.23l.009.112c.005.073.01.145.013.218l.005.104a8.184 8.184 0 0 1-.002.622l-.005.088-.015.209-.012.119a7.53 7.53 0 0 1-.04.297 5.784 5.784 0 0 1-.16.707 4.32 4.32 0 0 1-.06.182 4.383 4.383 0 0 1-.26.596l-.001.003a3.54 3.54 0 0 1-.12.2l-.025.039a3.289 3.289 0 0 1-.098.14l-.04.055a2.994 2.994 0 0 1-.098.12l-.038.045a3.186 3.186 0 0 1-.142.15l-.02.02c-.043.04-.086.08-.131.117l-.049.04-.116.089-.05.035c-.054.038-.11.075-.167.108l34.66-20.32c.057-.033.113-.07.168-.107l.05-.036a3.05 3.05 0 0 0 .115-.089l.05-.04c.044-.037.087-.077.13-.118l.02-.019a3.06 3.06 0 0 0 .142-.15l.038-.044.098-.12.04-.055c.034-.045.066-.092.098-.14l.026-.039.007-.011c.039-.062.076-.125.112-.19l.001-.003c.035-.064.07-.13.101-.199l.005-.01c.043-.093.083-.19.121-.29l.01-.026c.009-.022.016-.048.024-.07.02-.06.041-.12.06-.183l.016-.048.018-.072c.014-.051.028-.104.04-.157l.017-.064.015-.072.027-.137.014-.07.012-.086.019-.125.01-.063.01-.11c.005-.04.01-.079.013-.119l.005-.047.01-.162.005-.087.001-.022c.004-.09.006-.183.007-.276v-.017c0-.085-.001-.172-.004-.258"/>
            <path fill="#AFB1B2" d="M247.882 97.73l.175-.148c-.057.05-.116.1-.175.148m.923-.891a10.933 10.933 0 0 1 0 0"/>
            <path fill="#E19B7F" d="M248.392 96.647l.044-.037c.1-.087.192-.178.28-.27l.012-.014a3.852 3.852 0 0 1-.292.285l-.043.036m.433-.436c.036-.043.072-.086.103-.13a.467.467 0 0 0 .03-.038l-.029.038a2.681 2.681 0 0 1-.104.13M249.116 95.802a2.602 2.602 0 0 0 .12-.233l.041-.092a2.313 2.313 0 0 1-.161.325m.251-.579c.008-.025.014-.05.021-.076l.006-.022-.005.022-.022.076m.032-.117a2.458 2.458 0 0 0 .025-.107l-.008.038c-.005.023-.01.046-.017.07m.051-.265a.724.724 0 0 1 .01-.06l-.01.06m.024-.21"/>
            <path fill="#EDEDED" d="M248.392 97.667v-.001a3.329 3.329 0 0 0 .08-.126l.022-.037.004-.008a3.918 3.918 0 0 0 .106-.197l.001-.003a3.774 3.774 0 0 0 .08-.17c.005-.014.01-.028.017-.041a4.706 4.706 0 0 0 .116-.31c.01-.027.017-.055.026-.083.005-.014.01-.027.013-.042a4.304 4.304 0 0 0 .053-.183l.021-.08c.009-.034.017-.069.024-.103l.009-.038.004-.018.005-.024a4.472 4.472 0 0 0 .064-.354l.009-.057v-.006l.009-.061.008-.06.01-.093.009-.082.002-.025a5.942 5.942 0 0 1 .009-.095l.003-.042c.004-.056.008-.113.01-.17v-.001l.004-.065.002-.023a26.087 26.087 0 0 0 .004-.167c.002-.05.002-.1.002-.151v-.013l1.793-1.15.006.09c.006.081.01.162.013.242l.005.116a9.763 9.763 0 0 1-.002.687l-.005.096a6.88 6.88 0 0 1-.048.555c-.005.047-.012.092-.019.137a5.904 5.904 0 0 1-.054.324l-.03.151-.041.174-2.344 1.507"/>
            <path fill="#4F5052" d="M242.275 82.882l.51-.51-.51.51"/>
            <path fill="#E5E5E5" d="M251.046 93.588l-.002-.032a7.92 7.92 0 0 0-.026-.25c-.004-.035-.006-.068-.011-.101a9.755 9.755 0 0 0-.05-.353l-.007-.047a15.055 15.055 0 0 0-.055-.31l-.026-.125a9.016 9.016 0 0 0-.05-.237l-.032-.137a10.008 10.008 0 0 0-.094-.369 14.85 14.85 0 0 0-.07-.247l-.035-.117a11.57 11.57 0 0 0-.114-.36l-.01-.028c-.037-.11-.075-.22-.116-.33l-.04-.107a11.813 11.813 0 0 0-.097-.25l-.048-.12a19.295 19.295 0 0 0-.108-.258l-.04-.094a14.877 14.877 0 0 0-.158-.347l-.039-.08-.133-.272c-.031-.063-.064-.125-.096-.188l-.093-.177a14.36 14.36 0 0 0-.27-.48l-.095-.161-.119-.194c-.035-.058-.072-.114-.108-.17-.04-.064-.081-.128-.123-.191l-.081-.12a14.34 14.34 0 0 0-.354-.505l-.003-.004a13.326 13.326 0 0 0-.263-.345c-.069-.088-.14-.175-.21-.26l-.04-.05c-.084-.1-.169-.2-.255-.298l-.076-.084a14.758 14.758 0 0 0-.184-.203l-.107-.112c-.055-.057-.109-.114-.163-.168l-.118-.117c-.053-.051-.106-.103-.16-.153a5.271 5.271 0 0 0-.127-.12c-.053-.047-.105-.095-.16-.142a6.344 6.344 0 0 0-.128-.113l-.163-.138a14.793 14.793 0 0 0-.3-.24 8.262 8.262 0 0 0-.411-.301 10.343 10.343 0 0 0-.294-.195l-.02-.012a9.796 9.796 0 0 0-.302-.183 9.991 9.991 0 0 0-.274-.15l-.101-.053c-.069-.035-.137-.067-.205-.1l-.09-.042a7.23 7.23 0 0 0-.287-.123v-.001a6.821 6.821 0 0 0-.564-.193l-.11-.03a4.452 4.452 0 0 0-.282-.068 5.001 5.001 0 0 0-.161-.03c-.043-.007-.084-.015-.127-.02a4.073 4.073 0 0 0-.148-.019c-.044-.004-.09-.01-.134-.013l-.104-.006.64-.372c.047.005.093.01.14.017.041.005.084.013.126.02a5.745 5.745 0 0 1 .27.054 5.242 5.242 0 0 1 .473.133l.09.03c.094.032.189.066.284.104.095.039.19.08.287.124l.09.042a7.466 7.466 0 0 1 .58.303c.1.058.202.12.302.183l.02.013c.099.062.197.128.294.195l.099.07.194.14.118.09a10.087 10.087 0 0 1 .75.634l.129.119.159.153.117.117c.055.055.11.111.163.168l.107.112c.063.067.124.135.185.203l.076.084c.086.098.171.197.255.298l.04.05a13.125 13.125 0 0 1 .474.606l.002.003a14.489 14.489 0 0 1 .558.815l.109.17.117.195.096.16c.093.159.183.32.27.48l.093.179c.032.062.065.124.096.187.046.09.09.18.133.272l.039.08c.054.115.106.23.157.347l.04.094c.038.086.074.172.109.258l.048.119a16.558 16.558 0 0 1 .253.688l.01.029c.04.12.078.24.115.359l.034.117c.024.083.048.165.07.247l.036.137c.02.077.04.154.058.232l.032.137.048.228.002.01a3.019 3.019 0 0 0 .026.125l.01.056c.014.073.026.145.038.216l.007.038.008.045a7.352 7.352 0 0 1 .051.37l.01.084a10.582 10.582 0 0 1 .025.251l.005.065.003.033.001.023.005.071-.405.233"/>
            <path fill="#D5D5D5" d="M250.941 96.137l.038-.158c.009-.045.019-.09.027-.137a4.075 4.075 0 0 0 .049-.294l.017-.124a4.257 4.257 0 0 0 .03-.293c.005-.07.01-.14.013-.21l.005-.088a8.884 8.884 0 0 0 .002-.624l-.005-.105a6.233 6.233 0 0 0-.017-.301l.333-.215a8.1 8.1 0 0 1 .008.154l.003.043.002.062.002.058a9.545 9.545 0 0 1-.004.566v.003l-.005.084v.007c-.004.068-.008.136-.014.203a8.099 8.099 0 0 1-.03.293l-.001.018a8.529 8.529 0 0 1-.039.263l-.02.112-.005.027a6.382 6.382 0 0 1-.028.136l-.005.025a4.521 4.521 0 0 1-.048.197c-.004.019-.01.038-.015.056a1.263 1.263 0 0 1-.018.065l-.275.177"/>
            <path fill="#414042" d="M286.624 73.38l-.003-.054-.005-.115-.007-.135-.008-.104-.01-.12c-.002-.027-.003-.054-.006-.08l-.019-.174-.011-.1-.004-.034a10.16 10.16 0 0 0-.045-.315v-.006l-.009-.046-.045-.265-.01-.047a7.63 7.63 0 0 0-.026-.125l-.031-.155-.02-.085a9.32 9.32 0 0 0-.032-.137l-.024-.106c-.01-.042-.023-.084-.033-.127a10.438 10.438 0 0 0-.037-.137l-.017-.068-.053-.18c-.012-.04-.022-.08-.034-.118l-.01-.033a12.149 12.149 0 0 0-.104-.325l-.001-.003-.01-.029a11.399 11.399 0 0 0-.1-.287l-.017-.045-.04-.108-.058-.154-.04-.097-.047-.12-.035-.088-.074-.17-.04-.096-.015-.034c-.045-.101-.09-.203-.138-.303l-.005-.011-.04-.08c-.037-.08-.075-.16-.114-.239l-.018-.035-.097-.188c-.026-.05-.051-.101-.079-.152l-.014-.027a15.58 15.58 0 0 0-.271-.483l-.023-.04-.073-.121-.118-.195-.11-.172c-.04-.063-.08-.127-.122-.19l-.04-.063-.042-.058a15.237 15.237 0 0 0-.355-.507l-.003-.004a14.227 14.227 0 0 0-.264-.347l-.012-.015a13.918 13.918 0 0 0-.199-.247l-.04-.05-.002-.002c-.08-.096-.16-.19-.242-.284l-.012-.013-.075-.084-.156-.173-.03-.031-.107-.113-.12-.125-.044-.044-.118-.117-.101-.1-.059-.054-.127-.12-.09-.082-.07-.062a6.899 6.899 0 0 0-.129-.112l-.078-.07-.086-.07-.127-.103-.066-.054-.108-.083-.119-.09-.048-.037c-.048-.036-.098-.07-.147-.105l-.099-.07-.026-.019a9.766 9.766 0 0 0-.266-.176l-.002-.001-.02-.012a9.412 9.412 0 0 0-.243-.15l-.061-.035a8.601 8.601 0 0 0-.2-.112l-.074-.038-.103-.053c-.026-.014-.052-.029-.079-.041l-.125-.06c-.03-.014-.061-.03-.091-.043l-.037-.017a6.31 6.31 0 0 0-.503-.201l-.033-.011-.09-.03c-.043-.014-.085-.029-.128-.042l-.063-.017a5.01 5.01 0 0 0-.11-.03l-.085-.024c-.03-.008-.059-.013-.089-.02a4.432 4.432 0 0 0-.11-.024l-.058-.013c-.034-.007-.068-.011-.102-.017l-.127-.021-.045-.008-.104-.01-.135-.014-.04-.004-.09-.003c-.053-.002-.106-.005-.159-.005l-.044-.002c-.023 0-.045.003-.068.004a3.716 3.716 0 0 0-.197.009l-.06.003c-.027.002-.054.006-.08.01l-.062.006c-.074.01-.147.022-.219.036l-.006.002-.059.013c-.06.014-.119.028-.177.044l-.084.027c-.037.011-.075.022-.111.035l-.027.01c-.056.021-.111.045-.166.068-.026.012-.054.022-.08.035-.08.037-.158.077-.233.121l-35.19 20.494c.075-.044.153-.085.233-.122l.08-.034a2.789 2.789 0 0 1 .305-.114l.083-.026c.059-.017.118-.03.178-.044l.058-.014c.073-.015.149-.027.225-.037l.061-.007a3.296 3.296 0 0 1 .338-.022l.112-.002c.053 0 .106.003.16.006.042.002.086.003.13.007.044.003.09.008.134.013.05.006.099.011.149.019.042.005.084.013.126.02a5.756 5.756 0 0 1 .271.055 5.253 5.253 0 0 1 .475.133l.09.03c.095.032.19.067.285.105.095.038.191.08.288.124l.09.043a7.486 7.486 0 0 1 .581.304c.102.059.204.12.304.184l.02.013c.1.062.198.128.295.196l.1.07c.065.047.13.093.194.141l.119.09a10.122 10.122 0 0 1 .753.637c.043.04.086.079.128.12.054.05.107.102.16.154l.118.117c.055.055.109.112.163.169l.108.112c.062.067.124.136.185.205l.076.084c.087.098.172.198.256.3l.04.048a13.184 13.184 0 0 1 .475.61l.003.003a14.558 14.558 0 0 1 .436.628l.124.191.109.172c.04.064.079.13.118.195l.096.16c.093.16.183.321.27.484l.093.178.098.189c.045.09.09.181.132.272l.04.081c.054.116.106.232.158.349l.04.095a16.605 16.605 0 0 1 .254.63l.04.108c.04.11.08.221.117.332l.01.028c.04.12.078.24.115.361l.034.118c.024.083.048.166.07.248l.037.138c.02.077.039.155.057.232l.032.138.051.239.026.126c.02.104.038.208.055.311l.008.046c.019.119.035.237.05.355l.01.101a10.156 10.156 0 0 1 .05.612l.006.115a9.137 9.137 0 0 1-.002.681l-.006.095c-.005.078-.01.154-.017.23l-.013.13a8.571 8.571 0 0 1-.043.326 6.015 6.015 0 0 1-.176.772 5.01 5.01 0 0 1-.066.2l-.038.105a4.362 4.362 0 0 1-.25.547l-.001.003c-.042.076-.086.15-.132.22l-.028.042c-.035.053-.07.104-.108.154l-.045.06c-.035.045-.071.089-.108.132l-.042.048c-.05.057-.102.112-.156.164l-.022.021a3.087 3.087 0 0 1-.145.13l-.054.043a3.208 3.208 0 0 1-.128.097l-.054.04a3.04 3.04 0 0 1-.185.117l35.19-20.493c.063-.037.125-.077.185-.118l.054-.04c.044-.03.087-.063.128-.096l.055-.044c.049-.042.097-.085.143-.13l.023-.02c.054-.052.106-.107.157-.164l.041-.049c.037-.043.073-.087.108-.132l.046-.06c.036-.049.072-.1.107-.153l.028-.042.009-.013c.042-.067.083-.136.123-.208l.001-.002c.04-.07.076-.144.112-.218l.004-.011c.048-.102.093-.209.134-.318l.012-.028c.01-.025.017-.052.026-.078.023-.065.045-.131.066-.199l.017-.053c.008-.025.014-.052.02-.078.016-.057.031-.114.045-.172.006-.024.013-.046.018-.07l.016-.08c.01-.049.021-.099.03-.15l.016-.077.014-.093.02-.137c.004-.023.008-.045.01-.07.006-.038.009-.08.013-.12l.014-.129.005-.052c.005-.058.007-.118.01-.177l.007-.096.001-.023c.004-.1.007-.2.007-.303v-.018c0-.094 0-.188-.003-.283"/>
            <path fill="#AAA" d="M250.941 95.627l.039-.03c.024-.018.05-.037.073-.056a3.576 3.576 0 0 1-.072.057l-.04.03m.34-.286a3.537 3.537 0 0 0 0 0m.186-.19c.033-.037.063-.074.094-.113a2.1 2.1 0 0 0 .001 0 2.71 2.71 0 0 1-.095.113m.281-.378l.01-.018a2.376 2.376 0 0 0 .142-.296 1.61 1.61 0 0 0 .002 0c-.015.04-.035.08-.052.12-.028.06-.057.118-.09.176l-.012.018m.242-.612v-.003.003"/>
            <path fill="#B7B7B7" d="M251.712 93.432a14.49 14.49 0 0 0-.01-.149l-.003-.048.004.05.01.146"/>
            <path fill="#AAA" d="M251.719 93.557l-.006-.098a16.479 16.479 0 0 0-.02-.348v-.001c.008.117.015.233.02.348l.006.099"/>
            <path fill="#B7B7B7" d="M252.025 93.142a1.578 1.578 0 0 0-.075-.124l.043.068.032.056m-.24-.344a3.013 3.013 0 0 0 0 0m-.388-.39c-.071-.06-.148-.122-.224-.185.08.062.154.124.224.186m-.362-.287a1.895 1.895 0 0 1-.08-.055l-.014-.008c.007.002.012.005.016.008l.078.055"/>
            <path fill="#2E3A5C" d="M272.353 84.412l2.04-1.02-2.04 1.02"/>
            <path fill="#222B45" d="M274.392 83.392l9.95-5.981.037-.022-.036.022-9.95 5.981m10.082-6.067a2.19 2.19 0 0 0 .05-.034l.029-.021-.03.022-.049.033m.136-.098l.091-.073.053-.044.01-.009-.01.01-.053.044-.09.072m.236-.201l.048-.046.01-.01-.01.01-.048.046m.33-.364l.021-.027-.021.027m.05-.066l.033-.044c.036-.05.07-.102.105-.155l.027-.043.009-.012-.008.013-.028.042a3.286 3.286 0 0 1-.105.155l-.033.044m.399-.675a.263.263 0 0 0 .005-.012l.005-.01-.005.01a.263.263 0 0 1-.005.012m.169-.424a5.019 5.019 0 0 0 0 0m.08-.25l.01-.03.02-.078-.02.079-.01.028m.085-.327a.726.726 0 0 0 .006-.024l.01-.046-.01.046-.006.024m.021-.103v-.001l.008-.034-.007.034m.045-.236c.005-.026.008-.053.012-.08-.004.026-.007.054-.012.08m.02-.141l.013-.084.004-.032-.004.032a3.375 3.375 0 0 1-.012.084m.019-.133l.003-.021.01-.104-.01.104-.003.021m.031-.306l.002-.02-.002.02m.013-.2l.006-.093-.006.093"/>
            <path fill="#2E3A5C" d="M286.373 73.466v-.03.03"/>
            <path fill="#222B45" d="M286.367 73.706c.006-.168.01-.338.01-.51h.001c0 .172-.004.342-.011.51"/>
            <path fill="#2E3A5C" d="M287.71 73.196l-.016-.052a.639.639 0 0 0 .002 0l.015.052M287.487 72.628a.104.104 0 0 0-.013-.026l-.03-.047.031.046c.005.009.01.018.012.027m-.101-.153l-.03-.043a.083.083 0 0 0-.01-.013l.011.013.029.043m-.195-.26a4.761 4.761 0 0 0-.204-.221l-.008-.007-.048-.045a6.26 6.26 0 0 0-.282-.258l-.022-.017.023.017c.103.086.192.173.281.258l.052.046.007.005c.074.075.14.148.201.222"/>
            <path fill="#343335" d="M250.941 95.627l.012-.037.01-.032.018-.06a3.683 3.683 0 0 0 .057-.212l.007-.026.034-.148.006-.028a5.79 5.79 0 0 0 .053-.287l.017-.116.003-.02a8.4 8.4 0 0 0 .023-.186l.013-.128c.006-.072.011-.145.015-.219v-.006l.007-.092v-.003a7.765 7.765 0 0 0 .004-.609l-.002-.062-.003-.067-.002-.046a9.668 9.668 0 0 0-.015-.235l-.001-.023-.003-.033a5.291 5.291 0 0 0-.005-.064l-.007-.078a10.657 10.657 0 0 0-.018-.17l-.01-.084a9.991 9.991 0 0 0-.05-.366l-.009-.046a9.608 9.608 0 0 0-.044-.25l-.01-.057a2.381 2.381 0 0 0-.013-.06l-.013-.064a.136.136 0 0 1-.002-.01l34.927-20.036.003.017c.017.087.032.174.046.26l.008.046v.006a12.378 12.378 0 0 1 .045.31l.003.033.01.086.002.014.005.043.01.08c0 .016.002.032.004.047a.462.462 0 0 1 .002.027l.004.052.003.033.005.07.002.017.008.102.005.107v.026a2.247 2.247 0 0 1 .006.113l.003.053c.002.093.004.186.004.279v.031c-.001.083-.003.165-.006.246l-.001.04-.002.021v.002l-.005.09v.003a4.22 4.22 0 0 1-.01.175l-.004.018-.003.032a4.167 4.167 0 0 1-.013.129l-.002.017-.01.101-.003.021-.003.017-.005.03a4.484 4.484 0 0 1-.02.135v.008l-.013.078v.007l-.016.075a10.73 10.73 0 0 1-.023.116l-.007.032v.001a.647.647 0 0 0-.006.033l-.01.045a.688.688 0 0 1-.006.024l-.012.044-.008.035-.036.135-.02.077-.018.052a3.295 3.295 0 0 1-.065.197l-.008.025-.018.051-.011.027c-.035.09-.07.177-.109.262l-.024.052-.005.01-.005.012-.002.004a3.74 3.74 0 0 1-.104.2v.003l-.042.072a3.764 3.764 0 0 1-.08.132l-.01.013-.027.041c-.035.052-.07.103-.106.152l-.034.043-.011.015-.018.023-.022.027a3.716 3.716 0 0 1-.068.08l-.041.049c-.05.055-.102.109-.155.16l-.012.012-.01.01a2.087 2.087 0 0 1-.133.118l-.01.009-.054.043c-.03.024-.061.048-.092.07l-.035.026-.023.017-.03.021a2.227 2.227 0 0 1-.185.117l-12.26 7.097v-1.052l-21.106 12.131"/>
            <path fill="#FFF" d="M269.294 85.176l-32.118 18.608-32.117-18.608 32.117-18.607 32.118 18.607"/>
            <path fill="#C7573E" d="M237.176 103.954V141l32.118-18.523V85.431l-32.118 18.523"/>
            <path fill="#DC6B4A" d="M205.059 85.431v37.046L237.176 141v-37.046L205.06 85.431"/>
            <path fill="#FFF" d="M215.255 110.358l-2.285 5.662-1.702-.978-2.13-8.199 1.573.904.83 3.41c.246.996.449 1.883.622 2.869.2-.726.431-1.42.673-2.082l.9-2.459 1.519.873M218.566 118.226c1.093.651 1.754-.008 1.758-1.42.004-1.334-.642-2.843-1.746-3.501-1.106-.66-1.761.055-1.765 1.437-.004 1.364.67 2.837 1.753 3.484m.042-6.255c2.038 1.216 3.28 3.56 3.274 5.712-.006 2.294-1.37 3.053-3.396 1.846-1.983-1.183-3.237-3.544-3.231-5.668.006-2.263 1.376-3.068 3.353-1.89M227.49 117.89l-.004 1.318-1.846-1.048-.016 5.507-1.43-.811.016-5.507-1.818-1.032.004-1.317 5.094 2.89M232.965 120.495l-.004 1.367-2.884-1.584-.004 1.441 2.718 1.494-.004 1.366-2.718-1.493-.005 1.625 3.034 1.667-.004 1.367-4.584-2.518.021-7.168 4.434 2.436"/>
            <path fill="#FF9765" d="M272.353 83.647l-35.177 20.137L202 83.647l35.176-20.137 35.177 20.137"/>
            <path fill="#9F4632" d="M237.176 116.53v-1.598l12.562-7.07.075.08c.02.022.044.044.065.064.032.034.067.066.1.095.022.023.043.043.066.063.033.03.065.057.1.086l.07.056.096.08c.026.017.049.035.072.051.032.025.067.048.1.072l.069.048.106.065.065.04.12.068.051.03.048.024-13.765 7.745M262.427 101.745a11.191 11.191 0 0 0-1.501-.166c-.476.047-.915.096-1.318.145l9.686-5.587v1.647l-6.867 3.961"/>
            <path fill="#B0563B" d="M237.176 116.53L205.06 98.26v-1.613l32.117 18.27v1.612"/>
            <path fill="#D26646" d="M237.176 103.584v10.906l35.177-20.192V83.392l-35.177 20.192"/>
            <path fill="#E77B53" d="M202 83.392v10.906l35.176 20.192v-10.906L202 83.392"/>
            <path fill="#CD5940" d="M247.882 87.895l-18.268-10.62-3.653 2.124 18.268 10.62 3.653-2.124"/>
            <path fill="#B84735" d="M229.53 77.275v4.078l-3.57-2.04 3.57-2.038"/>
            <path fill="#9D9E9F" d="M266.745 123.667v-.001l.71-.397-.71.398m2.55-3.432h-.002v-.772l.001.002v.77m0-1.052v-.105.105"/>
            <path fill="#424344" d="M267.256 123.667h-.001l2.038-1.038v-2.021h.001v2.022l-2.038 1.037M269.55 120.098l-.002-.002v-.505l.002-.003v.51"/>
            <path fill="#95412E" d="M244.125 136.922a4.231 4.231 0 0 1 .338-1.57h-.003l.012-.024c.044-.107.09-.214.141-.316a1.308 1.308 0 0 1-.43-.195c-2.492-1.752-1.633-4.105-.667-5.562l.02-.028.033-.046c-3.688-1.928-.713-6.161.104-6.951.366-.355 2.831-2.228 5.693-4.372 1.255-.941 2.589-1.936 3.853-2.876 3.18-2.37 5.927-4.398 5.927-4.398s.02-.016.055-.037c-.014-.114-.035-.233-.055-.353l-.015-.089a7.43 7.43 0 0 0-.101-.457l-.005-.017a8.203 8.203 0 0 0-.336-1.024s-1.953.237-4.132.237h-.093a.819.819 0 0 0-.042-.001H254.309c-.037 0-.072.003-.111.003h-.02l-.48.014h-.03c-.037.002-.074.002-.11.002h-.045c-.035.003-.07.003-.104.003h-.211c-.033-.003-.065-.003-.1-.003l-.05-.002a6.635 6.635 0 0 1-.369-.019l-.058-.004-.095-.01c-.025-.002-.048-.004-.071-.009a1.055 1.055 0 0 1-.093-.012c-.026-.002-.051-.006-.076-.009a1.27 1.27 0 0 1-.09-.016.492.492 0 0 1-.082-.014l-.088-.016c-.027-.005-.055-.012-.083-.016a3.429 3.429 0 0 1-.088-.021l-.086-.021c-.03-.007-.057-.017-.085-.023-.03-.01-.06-.017-.088-.026a6.13 6.13 0 0 1-.086-.028c-.03-.01-.06-.018-.09-.03l-.084-.03a1.856 1.856 0 0 1-.095-.038l-.076-.03c-.04-.016-.076-.035-.113-.05l-.06-.029a5.27 5.27 0 0 1-.124-.061l.838-.485c.833.432 1.69.508 2.443.508.203 0 .399-.006.585-.011.185-.006.36-.011.523-.011h.139c2.171 0 4.114-.236 4.114-.236.315.79.47 1.504.532 2.125l-.077-.149s-14.539 10.746-15.472 11.647c-.818.79-3.792 5.022-.106 6.95-.986 1.449-1.92 3.854.617 5.636.133.094.277.16.427.198-.053.11-.104.223-.15.337-.204.5-.34 1.04-.338 1.59l-.818.475m22.65-13.122l-1.279-2.317c.39-.165.713-.29.948-.364l-3.416-6.187-.403.283-1.697-3.27 5-3.695c-1.6 2.617-1.526 6.1.548 8.687 0 0 1.064 1.304 2.818 2.17v3.234l-1.817 1.052-.701.407"/>
            <path fill="#773425" d="M251.124 108.882l-.048-.026-.051-.032-.12-.075-.065-.045c-.035-.024-.072-.047-.106-.072l-.07-.052c-.032-.027-.067-.052-.099-.08l-.072-.056-.097-.087c-.023-.02-.046-.043-.07-.063l-.099-.094c-.023-.022-.044-.045-.067-.07a2.027 2.027 0 0 1-.1-.104 2.236 2.236 0 0 1-.064-.072l-.074-.086.83-.515c.386.456.795.78 1.209 1.01l-.837.52"/>
            <path fill="#9D4C34" d="M249.666 107.353l-.023-.027-.058-.066-.019-.024a5.88 5.88 0 0 1-.412-.57c-.667-1.059-1.169-2.67-.296-3.748a.404.404 0 0 1 .194-.13v-.002l.043-.009.038-.009a.354.354 0 0 1 .09-.002h.01l.02.002.143.014c-.554 1.058-.087 2.46.515 3.416.168.265.342.497.52.699l-.765.456"/>
            <path fill="#58595B" d="M277.98 102.078c3.38 1.96 6.11 6.708 6.098 10.606-.01 3.898-2.758 5.472-6.137 3.513-3.378-1.96-6.109-6.708-6.098-10.607.011-3.898 2.76-5.471 6.138-3.512"/>
            <path fill="#BCBEC0" d="M276.196 104.035c3.238 1.77 5.854 6.06 5.843 9.58-.01 3.522-2.643 4.942-5.882 3.173-3.237-1.77-5.854-6.059-5.843-9.58.01-3.521 2.644-4.942 5.882-3.173"/>
            <path fill="#FFC39E" d="M266.374 116.716c-2.902-3.546-1.902-8.8 2.108-11.076l11.406-6.47a7.669 7.669 0 0 1 7.552 0c2.336 1.326 3.776 3.776 3.776 6.427s-1.44 5.101-3.776 6.427l-11.404 6.468c-5.468 3.255-9.662-1.776-9.662-1.776"/>
            <path fill="#F2A789" d="M291.216 105.811a7.734 7.734 0 0 1-1.006 3.817 7.572 7.572 0 0 1-2.75 2.795l-6.999 4.106c.03-.041.061-.086.09-.131l.025-.038c.04-.063.079-.127.116-.196v-.002a3.785 3.785 0 0 0 .219-.487l.034-.093c.02-.058.04-.117.057-.178a7.032 7.032 0 0 0 .073-.27l.03-.132a3.814 3.814 0 0 0 .052-.284c.006-.041.013-.081.018-.122l.02-.17.012-.114c.005-.068.01-.136.013-.204l.006-.085a7.446 7.446 0 0 0 .002-.606c0-.034-.003-.068-.005-.102a15.699 15.699 0 0 0-.021-.32 6.335 6.335 0 0 0-.032-.314 8.811 8.811 0 0 0-.044-.316l-.007-.042a9.76 9.76 0 0 0-.07-.388l-.045-.212-.028-.123-.05-.207c-.011-.04-.021-.082-.033-.122a9.516 9.516 0 0 0-.061-.221l-.03-.105a14.357 14.357 0 0 0-.1-.32l-.01-.026a15.629 15.629 0 0 0-.102-.295l-.035-.096a8.803 8.803 0 0 0-.085-.224c-.014-.036-.029-.071-.042-.107l-.096-.23a10.642 10.642 0 0 0-.174-.394c-.01-.025-.022-.049-.034-.073l-.116-.242-.086-.167a9.892 9.892 0 0 0-.318-.589l-.085-.144-.103-.173c-.03-.051-.063-.101-.095-.152a10.612 10.612 0 0 0-.108-.17l-.071-.107a13.355 13.355 0 0 0-.312-.451l-.002-.003a18.142 18.142 0 0 0-.417-.543l-.035-.043c-.074-.09-.148-.18-.225-.267l-.066-.075a10.596 10.596 0 0 0-.4-.432l-.103-.104c-.047-.047-.092-.092-.14-.137l-.112-.106-.14-.13c-.037-.033-.075-.065-.112-.1-.05-.04-.097-.082-.145-.123a6.384 6.384 0 0 0-.111-.092l-.152-.122c-.036-.026-.07-.053-.105-.08l-.17-.125c-.03-.021-.058-.043-.088-.063a7.289 7.289 0 0 0-.258-.174l-.017-.012a10.778 10.778 0 0 0-.266-.164 9.52 9.52 0 0 0-.24-.134l-.09-.046a5.333 5.333 0 0 0-.18-.09l-.08-.038a5.128 5.128 0 0 0-.251-.11 6.116 6.116 0 0 0-.25-.094c-.027-.01-.053-.017-.08-.026a3.121 3.121 0 0 0-.167-.053l-.096-.028a4.899 4.899 0 0 0-.152-.038l-.097-.022-.14-.027-.112-.017a1.976 1.976 0 0 0-.13-.016 2.769 2.769 0 0 0-.118-.013l-.114-.006c-.046-.002-.093-.005-.139-.005-.033 0-.066 0-.1.002a3.591 3.591 0 0 0-.295.019l-.053.007-.02.003 7.088-4.159a7.405 7.405 0 0 1 7.51 0 7.57 7.57 0 0 1 2.75 2.795 7.734 7.734 0 0 1 1.006 3.817"/>
            <path fill="#FFC39E" d="M249.408 102.526c.1-.124.253-.18.408-.166 2.867.284 6.084.051 6.25.032.773-.088 2.236-.39 4.735-.647 1.415.043 3.136.557 4.435.723 2.055.262 4.809 1.008 7.117 1.278l-12.809 9.725s.939-1.927-.202-4.876c0 0-2.017.252-4.24.243-.17 0-.356.005-.552.011-1.392.043-3.346.086-4.818-2.246-.727-1.152-1.272-2.903-.324-4.077"/>
            <path fill="#FFC39E" d="M272.505 103.275c-4.968 1.874-12.387 6.743-12.387 6.743s1.423 7.834 3.358 11.924c1.348 2.847 3.666 6.823 3.666 6.823 1.675-.965 11.108-10.026 12.858-12.324l-7.495-13.166"/>
            <path fill="#E29B87" d="M253.359 102.144c-1.036 0-2.206-.069-3.324-.283 1.118.214 2.288.283 3.325.283a24.425 24.425 0 0 1-.001 0"/>
            <path fill="#FFD8C0" d="M253.118 104.294c-1.267 0-2.74-1.412-3.196-2.017a.51.51 0 0 1 .202-.02c1.095.097 2.24.128 3.255.128.4 0 .779-.005 1.127-.013.342.29.802.823.96 1.109.191.348-.07.76-.494.775-.39.016-.97.026-1.83.038h-.024"/>
            <path fill="#FFC39E" d="M265.978 123.667s-11.99 7.349-13.15 8.536c-2.012 2.057-1.501 3.921-.477 4.861.606.557 1.579.469 2.073-.184 1.22-1.612 3.016-2.718 3.016-2.718l2.904-1.865s5.734-2.918 6.91-3.419l-1.276-5.211"/>
            <path fill="#EB9A7F" d="M266.235 127.313c-.892.568-4.783 2.62-7.451 4.637-.478.361-.98.687-1.506.971-1.703.921-3.066 1.75-4.04 2.698a3.635 3.635 0 0 1-.511.411 10.15 10.15 0 0 0-.53.382c-.449-1.019-.348-2.442 1.097-3.973.99-1.046 10.092-6.872 12.274-8.263l.667 3.137"/>
            <path fill="#E1E2E3" d="M254.605 136.87"/>
            <path fill="#81A0A8" d="M254.589 136.895a2.822 2.822 0 0 1 0 0"/>
            <path fill="#BFC0C1" d="M254.765 136.667"/>
            <path fill="#FFD8C0" d="M254.08 137.431c-.112-.532-.079-1.299-.061-1.58a.774.774 0 0 1 .048-.23c.24-.62.86-1.312 1.217-1.676a.252.252 0 0 1 .182-.082c.103 0 .204.068.257.193.156.364.255.705.316.984a11.375 11.375 0 0 0-1.35 1.755l-.081.137c-.02.033-.04.065-.061.095-.13.187-.293.323-.468.404"/>
            <path fill="#F2A789" d="M257.569 133.762c-.024.017-.074.05-.142.1a4.273 4.273 0 0 0-.368-1.019c.248.317.407.639.51.919M261.137 131.739l-.15.085c-.139-.575-.341-.983-.36-1.02.234.32.398.642.51.935"/>
            <path fill="#FFC39E" d="M264.878 119.588s-16.7 11.898-17.627 12.81c-.807.794-3.705 4.388-.295 6.829a1.325 1.325 0 0 0 1.77-.218c.908-1.037 2.54-2.788 4.005-3.788.182-.124.354-.262.512-.419.978-.967 3.135-2.31 4.845-3.25.528-.29 1.031-.622 1.51-.99 2.677-2.06 7.147-4.213 8.677-4.708l-3.397-6.266"/>
            <path fill="#EB9A7F" d="M263.686 122.823c-.704.595-3.91 2.267-6.61 4.292-.482.362-.99.69-1.522.975-1.723.924-3.103 1.758-4.09 2.71a3.65 3.65 0 0 1-.516.412c-1.477.984-3.123 2.706-4.039 3.725a1.362 1.362 0 0 1-1.576.334c.451-1.098 1.232-1.994 1.595-2.342.788-.756 12.843-9.167 16.64-11.811l.118 1.705"/>
            <path fill="#8EB8C3" d="M248.392 138.96l.042-.042a31.357 31.357 0 0 0-.042.043"/>
            <path fill="#FFD8C0" d="M248.212 138.96c-.323-.45-.334-1.583-.329-1.944a.703.703 0 0 1 .047-.237c.252-.648.962-1.4 1.373-1.8a.337.337 0 0 1 .237-.097.35.35 0 0 1 .301.176c.398.673.543 1.278.59 1.548a33.005 33.005 0 0 0-2.05 2.204c-.053.056-.11.106-.17.15"/>
            <path fill="#F2A789" d="M252.98 134.503l-.084.133c-.053.088-.109.17-.167.246.088-1.559-.24-2.981-.258-3.058a9.147 9.147 0 0 1 .51 2.68M259.096 131.023v.001c-.095.1-.192.197-.29.29.195-1.52-.218-2.55-.218-2.55.501 1.208.519 1.882.508 2.26"/>
            <path fill="#FFC39E" d="M263.349 115s-16.7 11.898-17.628 12.81c-.807.794-3.705 4.387-.295 6.828a1.324 1.324 0 0 0 1.77-.218c.909-1.036 2.54-2.787 4.006-3.787a3.63 3.63 0 0 0 .512-.419c.978-.967 2.345-1.814 4.055-2.754.527-.29 1.031-.623 1.51-.99 2.677-2.06 7.937-4.71 9.466-5.204L263.35 115"/>
            <path fill="#EB9A7F" d="M261.647 117.195c-.291.45-2.665 1.651-5.341 3.68-.48.362-.984.69-1.513.978-1.704.923-2.939 1.756-3.915 2.705-.16.157-.334.296-.52.421-1.53 1.03-3.304 2.866-4.22 3.862a1.35 1.35 0 0 1-1.623.277 5.018 5.018 0 0 1-.201-.11c.4-.659.853-1.167 1.103-1.41.757-.735 12.044-8.697 16.138-11.578l.092 1.175"/>
            <path fill="#F2BDAC" d="M247.882 133.353c.443-.473.971-1.012 1.53-1.53v.001a30.342 30.342 0 0 0-1.53 1.529"/>
            <path fill="#FFD8C0" d="M246.558 134.373c-.201-.565-.209-1.48-.204-1.805a.77.77 0 0 1 .047-.252c.259-.69.985-1.492 1.406-1.918a.34.34 0 0 1 .243-.104c.12 0 .239.065.309.189.303.532.462 1.025.543 1.362a30.95 30.95 0 0 0-1.464 1.593c-.2.234-.383.452-.541.645-.1.12-.214.217-.339.29"/>
            <path fill="#F2A789" d="M256.808 126.725c.086-1.605-.259-3.058-.259-3.058a9.365 9.365 0 0 1 .51 2.751 8.259 8.259 0 0 1-.251.307M251.451 129.94l-.006.008a2.876 2.876 0 0 1-.252.346c.105-1.55-.233-2.982-.252-3.059a8.76 8.76 0 0 1 .51 2.704"/>
            <path fill="#FFC39E" d="M259.824 110.412s-14.68 10.514-15.622 11.396c-.826.773-3.832 4.917-.102 6.803.552.28 1.227.172 1.65-.271.93-.978 2.735-2.78 4.29-3.79.189-.123.366-.26.529-.413.993-.931 2.248-1.749 3.98-2.655.537-.281 1.05-.604 1.538-.96 2.72-1.99 5.538-3.372 7.09-3.85l-3.353-6.26"/>
            <path fill="#F2BDAC" d="M245.843 128.765c.102-.053.196-.116.28-.19a38.725 38.725 0 0 0 0 0c-.084.075-.179.138-.28.19"/>
            <path fill="#FFD8C0" d="M245.78 128.765c-.438-.447-.452-1.804-.446-2.221.002-.091.021-.18.055-.263.3-.72 1.145-1.553 1.634-1.996a.423.423 0 0 1 .641.088c.633.996.726 1.857.728 1.882a41.917 41.917 0 0 0-2.325 2.276c-.086.092-.183.17-.287.234"/>
            <path fill="#F2A789" d="M250.43 124.316a2.93 2.93 0 0 1-.207.27l-.086.1c.201-1.795-.215-3.568-.215-3.568a9.48 9.48 0 0 1 .508 3.198M255.275 121.118a11.786 11.786 0 0 0-.255-3.06 9.08 9.08 0 0 1 .51 2.77 10.83 10.83 0 0 1-.255.29M263.982 112.96s1.101 2.329-1.315 3.57c0 0 1.606-.393 1.984-1.455.29-.815-.669-2.114-.669-2.114M266.692 119.078s.003 2.188-1.986 3.06c0 0 1.264-.253 1.79-1.088.403-.636.196-1.972.196-1.972M268.78 124.686s-.155 1.393-2.035 2.04c0 0 1.276-.282 1.739-.757.354-.363.297-1.283.297-1.283M263.176 108.574c-.02.016-.83.527-1.429.822-.162 2.02-9.727 6.988-11.81 8.145l-.015.008c4.473-3.272 9.896-7.183 9.896-7.183l.057-.036a7.697 7.697 0 0 0-.517-1.916s-2.035.24-4.277.233c-1.276-.005-3.333.34-4.97-1.552.755.6 1.834 1.05 3.352.989 1.957-.08 3.133-.18 4.317-.272.118-.247.221-.564.287-.969 0 0 .155.371.072.942.361-.028.73-.055 1.129-.08.995-.064 1.854.724 2.27 1.135.175-.066.895-.215 1.079-.325 0 0-.136.144-.395.342.298-.053.621-.143.954-.283"/>
            <path fill="#FFF" d="M316.702 92.787l-.002-.048-.005-.105-.006-.124-.007-.094-.009-.111-.005-.073c-.005-.053-.012-.106-.018-.158a4.092 4.092 0 0 0-.01-.092l-.003-.03a10.28 10.28 0 0 0-.041-.288l-.001-.006-.007-.042a9.494 9.494 0 0 0-.042-.242l-.008-.043-.023-.115-.029-.14c-.005-.027-.012-.052-.018-.078l-.029-.126-.022-.097-.03-.115-.033-.126-.016-.063-.048-.164-.03-.108-.01-.03c-.03-.099-.06-.198-.094-.296v-.003l-.01-.027c-.03-.087-.059-.175-.09-.262l-.016-.04-.036-.1-.053-.14-.035-.09-.044-.109c-.01-.026-.02-.053-.032-.08l-.066-.156-.037-.087-.013-.03c-.04-.094-.083-.186-.125-.278l-.005-.01-.036-.074a11.866 11.866 0 0 0-.104-.217l-.016-.032-.088-.172-.071-.139-.014-.025a14.48 14.48 0 0 0-.245-.44l-.02-.038-.067-.11-.107-.178-.099-.157-.111-.174-.037-.058-.037-.053a14.029 14.029 0 0 0-.323-.463l-.002-.003a13.536 13.536 0 0 0-.24-.317l-.01-.015-.18-.225-.036-.045-.003-.002a12.669 12.669 0 0 0-.219-.26l-.01-.012-.07-.076c-.046-.053-.093-.107-.14-.158l-.028-.03-.097-.102c-.036-.038-.071-.077-.108-.114l-.04-.04a11.006 11.006 0 0 0-.107-.107l-.092-.092-.053-.05a12.003 12.003 0 0 0-.116-.108l-.08-.076-.065-.056a8.98 8.98 0 0 0-.116-.103l-.071-.063-.079-.064a8.453 8.453 0 0 0-.114-.095l-.06-.049-.098-.076-.108-.082-.043-.034c-.044-.033-.089-.064-.133-.096l-.09-.064-.024-.017a8.272 8.272 0 0 0-.24-.16l-.003-.002-.017-.01a7.81 7.81 0 0 0-.221-.137l-.056-.033a10.65 10.65 0 0 0-.18-.102l-.068-.035a6.76 6.76 0 0 0-.093-.049l-.072-.037c-.038-.02-.076-.037-.114-.055l-.082-.039-.033-.016a5.423 5.423 0 0 0-.456-.184l-.03-.01-.082-.027-.116-.038-.057-.016-.1-.028-.077-.021-.08-.018a5.723 5.723 0 0 0-.1-.023l-.053-.011-.092-.016-.115-.019-.041-.007-.094-.01-.122-.012-.036-.004c-.028-.002-.055-.001-.082-.002-.049-.003-.097-.005-.145-.005l-.04-.001-.061.002-.18.009-.053.003-.074.008-.055.007c-.067.009-.133.02-.198.032l-.006.002-.053.013a2.655 2.655 0 0 0-.16.04c-.026.007-.051.016-.077.024-.033.01-.068.02-.1.032l-.025.01c-.051.019-.1.04-.15.061-.024.011-.05.02-.073.032a2.773 2.773 0 0 0-.212.11v.001l-34.66 20.32c.069-.04.14-.078.212-.112l.073-.03c.05-.023.099-.044.15-.062.041-.016.083-.03.125-.043.026-.008.05-.017.077-.024a3.08 3.08 0 0 1 .16-.04l.053-.013c.067-.013.135-.024.204-.033l.056-.007a3.082 3.082 0 0 1 .306-.02c.033 0 .067-.002.102-.001.047 0 .095.002.144.004l.117.007.123.012c.045.005.09.01.135.017.037.005.076.012.115.019l.145.027.1.023a4.486 4.486 0 0 1 .43.12l.082.028a5.503 5.503 0 0 1 .519.21l.083.039c.061.03.123.06.185.092l.093.048c.082.044.165.09.248.137.093.054.184.111.276.17l.018.01c.09.058.179.118.267.18.03.02.06.043.09.064.059.043.118.085.177.13l.107.082a7.71 7.71 0 0 1 .422.346l.117.103a9.153 9.153 0 0 1 .405.382l.107.107c.05.05.099.102.148.154l.097.104c.057.06.113.123.169.186.022.026.046.05.068.077.079.09.156.18.233.274l.035.044a14.04 14.04 0 0 1 .432.558l.002.002c.11.152.217.307.322.464l.074.11.111.175.099.156.107.178c.03.05.059.098.087.148.085.145.167.293.245.441.03.054.057.109.085.163.03.058.06.115.088.172.041.083.081.166.12.25l.036.073c.049.106.097.212.143.318l.037.088a11.822 11.822 0 0 1 .23.575l.036.099c.037.1.073.202.106.303l.01.026c.036.11.07.22.103.33l.031.108c.022.075.044.15.064.226l.033.126c.018.071.036.142.052.213l.03.125.046.219.023.114c.018.096.035.19.05.285l.007.042c.017.109.032.216.045.324l.01.093a8.454 8.454 0 0 1 .045.559l.005.105a8.196 8.196 0 0 1-.002.622l-.005.087-.015.21-.012.118a6.28 6.28 0 0 1-.093.591 5.382 5.382 0 0 1-.166.596l-.034.096a4.033 4.033 0 0 1-.227.5v.002c-.039.07-.079.137-.12.202l-.026.037a3.533 3.533 0 0 1-.097.142l-.041.053a3.215 3.215 0 0 1-.098.121l-.038.045a3.176 3.176 0 0 1-.141.15l-.021.019c-.043.04-.086.08-.13.118l-.05.04-.116.089-.049.035c-.055.038-.11.074-.168.108l34.66-20.32a2.66 2.66 0 0 0 .168-.108l.05-.035c.038-.029.077-.058.115-.089l.05-.04c.044-.038.087-.077.13-.118l.02-.019c.049-.048.096-.098.142-.15l.038-.044.098-.12.04-.055c.034-.046.066-.092.098-.14l.026-.039.007-.011c.04-.062.077-.125.112-.19l.001-.003a3.74 3.74 0 0 0 .101-.2l.005-.009c.043-.093.083-.19.121-.29l.01-.026c.01-.023.016-.048.024-.071.02-.06.041-.12.06-.182l.016-.048.018-.072c.014-.051.028-.104.04-.157l.017-.064c.006-.023.01-.049.015-.072l.027-.138.014-.07.013-.085.018-.125.01-.064.01-.11c.005-.039.01-.078.013-.118l.005-.048.01-.161.005-.088.001-.02c.004-.092.006-.184.007-.277v-.017c0-.086-.001-.172-.004-.259"/>
            <path fill="#AFB1B2" d="M280.124 117.38c.081-.05.161-.103.241-.158l.02-.014-.02.015c-.08.054-.16.107-.24.157"/>
            <path fill="#525355" d="M280.762 116.787l.002-.002.003-.003-.005.005"/>
            <path fill="#AFB1B2" d="M280.615 116.919c.087-.075.173-.153.258-.233l.041-.036-.002.002-.038.035c-.085.08-.17.157-.259.232"/>
            <path fill="#525355" d="M280.744 116.805l.032-.031.01-.01a3.252 3.252 0 0 1-.042.041"/>
            <path fill="#AFB1B2" d="M281.02 117.103l.064-.046a2.233 2.233 0 0 1-.056.04l-.008.006m.138-.1l.077-.061.063-.05-.063.05-.077.06m.144-.115c.056-.046.112-.094.166-.143l.034-.031-.034.031c-.054.05-.11.097-.166.143M281.727 116.49l.02-.022a5.691 5.691 0 0 0 .001 0l-.021.022m.284-.34l.091-.13c-.03.045-.06.088-.091.13"/>
            <path fill="#E19B7F" d="M281.53 115.51l.038-.03-.037.03h-.002m.417-.388c.04-.046.083-.092.118-.14a.657.657 0 0 0 .029-.033l-.027.034a2.894 2.894 0 0 1-.12.14m.488-.758l.02-.048-.02.048m.099-.295l.015-.06.009-.035-.008.035-.016.06m.05-.25a.52.52 0 0 1 .008-.041l-.007.04m.02-.157c.005-.06.008-.12.008-.181v-.01.01c0 .061-.003.121-.008.18"/>
            <path fill="#EDEDED" d="M280 117.04a2.712 2.712 0 0 0 .147-.094l.01-.006.04-.027c.038-.027.076-.055.113-.085l.049-.039.007-.006c.042-.034.082-.07.121-.106l.018-.016.003-.002.02-.02a1.394 1.394 0 0 0 .074-.075 4.27 4.27 0 0 0 .045-.048l.036-.04.001-.002.002-.001c.032-.038.064-.075.095-.115l.02-.025.02-.026a3.628 3.628 0 0 1 .058-.079l.039-.056.012-.018.013-.018a3.382 3.382 0 0 0 .118-.192v-.003a3.368 3.368 0 0 0 .102-.195l.002-.004a3.89 3.89 0 0 0 .12-.277c.012-.03.022-.061.033-.092l.008-.02c.017-.05.035-.101.051-.153l.012-.038.023-.076.039-.15.007-.03a4.125 4.125 0 0 0 .072-.35l.005-.03v-.007c.004-.017.006-.035.009-.052l.01-.06a7.643 7.643 0 0 0 .02-.166v-.003a1.337 1.337 0 0 0 .011-.11l.004-.038a4.35 4.35 0 0 0 .01-.161l.001-.01.003-.045.003-.029.003-.1.004-.2v-.011l1.923-1.083.006.085c.007.076.011.152.015.227l.005.11c.004.106.007.213.007.32-.001.11-.004.22-.01.326 0 .031-.003.061-.005.091a5.436 5.436 0 0 1-.052.522c-.005.044-.012.087-.02.13a3.865 3.865 0 0 1-.058.305 5.775 5.775 0 0 1-.077.305 4.024 4.024 0 0 1-.101.315l-.003.012-3.243 1.84"/>
            <path fill="#4F5052" d="M283.059 115.446v-.002l.51-.38v.002l-.51.38"/>
            <path fill="#E5E5E5" d="M283.059 115.445l.51-.38-.51.38"/>
            <path fill="#4F5052" d="M274.902 101.745l.51-.51-.51.51"/>
            <path fill="#E5E5E5" d="M283.674 112.451l-.003-.032a8.536 8.536 0 0 0-.026-.25l-.01-.1a8.783 8.783 0 0 0-.05-.354l-.008-.046a12.155 12.155 0 0 0-.055-.31l-.025-.126a7.806 7.806 0 0 0-.051-.237l-.032-.137a8.198 8.198 0 0 0-.094-.369 11.682 11.682 0 0 0-.07-.247l-.034-.117c-.036-.12-.074-.24-.114-.36l-.01-.028c-.037-.11-.076-.22-.117-.33l-.04-.107a12.345 12.345 0 0 0-.096-.25l-.049-.12a14.487 14.487 0 0 0-.108-.258l-.04-.094a14.86 14.86 0 0 0-.158-.347l-.038-.08-.133-.272-.096-.188-.094-.177a14.745 14.745 0 0 0-.27-.48l-.095-.162-.118-.193c-.035-.058-.072-.114-.108-.17-.04-.065-.082-.128-.123-.191l-.082-.12c-.114-.171-.232-.34-.354-.505l-.002-.004a13.306 13.306 0 0 0-.474-.606l-.04-.049a14.52 14.52 0 0 0-.254-.299l-.076-.083a12.367 12.367 0 0 0-.185-.203l-.107-.113-.163-.167-.118-.117a8.536 8.536 0 0 0-.287-.272l-.158-.144-.13-.112c-.054-.046-.108-.093-.163-.138a9.769 9.769 0 0 0-.611-.47l-.1-.07a9.698 9.698 0 0 0-.293-.196l-.02-.012a9.787 9.787 0 0 0-.303-.184 10.382 10.382 0 0 0-.375-.202c-.068-.035-.137-.068-.204-.1l-.09-.043a8.229 8.229 0 0 0-.287-.123h-.001a6.487 6.487 0 0 0-.564-.194l-.11-.03a4.137 4.137 0 0 0-.282-.068 4.31 4.31 0 0 0-.287-.05 4.228 4.228 0 0 0-.148-.018l-.134-.014a7.005 7.005 0 0 1-.105-.005l.641-.373c.047.005.093.01.14.017l.125.02.16.03.11.025a4.81 4.81 0 0 1 .473.132l.09.03a6.755 6.755 0 0 1 .57.228l.092.043a7.122 7.122 0 0 1 .579.302c.101.059.202.12.303.184l.02.013c.098.062.196.127.293.194l.1.071.193.14.118.09a8.312 8.312 0 0 1 .3.24 12.294 12.294 0 0 1 .293.25 11.71 11.71 0 0 1 .287.262c.053.05.105.102.158.154l.118.117c.055.055.109.11.163.167l.107.113.185.203.075.084c.087.098.172.197.256.298l.04.049a14.7 14.7 0 0 1 .473.607l.002.003c.122.165.24.334.355.505l.081.12.123.19.108.17.118.195.096.16c.092.159.182.32.27.48l.092.179.097.187c.045.09.09.18.133.271l.038.08c.054.116.107.232.158.348l.04.094a11.722 11.722 0 0 1 .253.627l.04.108c.04.11.08.22.117.33l.01.029c.04.12.077.239.114.359l.034.117a13.91 13.91 0 0 1 .164.615 13.963 13.963 0 0 1 .08.366l.002.01a6.226 6.226 0 0 0 .026.125l.01.053a13.722 13.722 0 0 1 .045.257l.008.046.013.085.036.267.004.027a18885.998 18885.998 0 0 1 .033.325l.003.03.006.075v.016l.005.07-.404.234"/>
            <path fill="#D5D5D5" d="M283.569 115l.003-.013a5.47 5.47 0 0 0 .046-.195 8.075 8.075 0 0 0 .058-.297l.024-.146.02-.147c.008-.055.015-.11.021-.167l.014-.134a5.266 5.266 0 0 0 .026-.313c.005-.073.008-.148.012-.224 0-.031.003-.062.003-.094a11.911 11.911 0 0 0 .002-.665l-.004-.113a9.064 9.064 0 0 0-.015-.321l.285-.23.006.164.002.041a10.413 10.413 0 0 1 0 .737v.003c0 .031-.002.061-.004.092v.008a9.626 9.626 0 0 1-.011.216l-.01.127-.015.186-.015.133c0 .01-.002.02-.003.029a7.35 7.35 0 0 1-.017.138l-.013.093-.007.046-.001.008a7.017 7.017 0 0 1-.128.639l-.01.042-.017.06c-.01.04-.021.08-.033.118l-.22.179"/>
            <path fill="#414042" d="M319.251 92.242l-.002-.054-.006-.114-.006-.135-.008-.104-.01-.121-.006-.08-.02-.173-.01-.1-.004-.034-.045-.315-.001-.007-.008-.045-.046-.265-.01-.047-.025-.126-.031-.154-.02-.085-.032-.137-.025-.106-.033-.127a9.55 9.55 0 0 0-.036-.138l-.018-.067-.053-.18-.034-.119-.01-.033a13.427 13.427 0 0 0-.103-.324l-.001-.004-.01-.028a14.249 14.249 0 0 0-.1-.287l-.017-.045-.04-.108-.058-.154-.04-.097-.048-.12-.035-.088-.073-.17-.04-.096-.015-.034a16.08 16.08 0 0 0-.138-.304l-.006-.01c-.012-.028-.026-.054-.039-.081-.038-.08-.075-.159-.114-.238l-.019-.035c-.031-.063-.064-.125-.097-.188-.026-.05-.051-.102-.078-.152l-.015-.027a15.79 15.79 0 0 0-.27-.483l-.024-.04-.073-.121a12.857 12.857 0 0 0-.35-.557l-.04-.063-.042-.059a15.496 15.496 0 0 0-.355-.507l-.002-.003a14.729 14.729 0 0 0-.264-.347l-.012-.015a13.934 13.934 0 0 0-.2-.247l-.039-.05-.002-.002c-.08-.096-.16-.19-.242-.284l-.013-.013-.075-.084c-.051-.058-.103-.116-.156-.173l-.03-.031-.107-.113-.119-.125-.045-.044-.118-.117-.1-.1-.059-.054a9.65 9.65 0 0 0-.128-.12l-.089-.082-.07-.062a13.589 13.589 0 0 0-.13-.113l-.078-.068-.086-.07-.127-.104-.066-.054-.108-.083-.118-.09-.048-.037-.147-.105-.1-.07-.025-.019a9.4 9.4 0 0 0-.266-.176l-.003-.001-.019-.012a8.224 8.224 0 0 0-.243-.15l-.062-.035a8.205 8.205 0 0 0-.199-.112l-.075-.039a5.828 5.828 0 0 0-.102-.052c-.026-.014-.053-.029-.08-.042l-.125-.059c-.03-.014-.06-.03-.09-.043l-.038-.017a6.544 6.544 0 0 0-.503-.202l-.032-.01-.09-.03c-.043-.014-.086-.03-.128-.042l-.063-.017a5.376 5.376 0 0 0-.11-.03l-.086-.024c-.03-.008-.059-.013-.088-.02a4.438 4.438 0 0 0-.11-.025l-.058-.012c-.035-.007-.069-.011-.103-.017l-.126-.021-.045-.008-.104-.01a4.187 4.187 0 0 0-.135-.014l-.04-.004-.09-.003a3.876 3.876 0 0 0-.16-.005l-.044-.002c-.023 0-.045.003-.068.003a3.715 3.715 0 0 0-.197.01l-.06.003c-.026.002-.053.006-.08.01l-.061.006c-.074.01-.147.022-.22.036l-.006.001-.058.014c-.06.014-.12.028-.177.044l-.084.027c-.037.011-.075.022-.112.035l-.027.01c-.056.021-.11.044-.165.068l-.08.034c-.08.038-.158.078-.234.122l-35.19 20.494c.076-.045.154-.085.233-.122.027-.013.054-.023.08-.035a3.035 3.035 0 0 1 .305-.113c.028-.009.055-.019.084-.026.058-.017.117-.03.177-.044l.058-.014c.074-.015.15-.027.226-.037l.06-.007a4.347 4.347 0 0 1 .338-.022l.113-.002c.052 0 .106.003.159.005l.13.007a4.336 4.336 0 0 1 .283.032l.127.021c.053.01.107.019.16.03l.11.025a4.82 4.82 0 0 1 .475.132l.09.03a6.772 6.772 0 0 1 .572.23 7.141 7.141 0 0 1 .672.347c.103.058.204.12.305.184l.02.012c.099.063.197.129.294.196l.1.071.195.141.118.09a8.342 8.342 0 0 1 .301.24 12.339 12.339 0 0 1 .294.252l.159.145.128.12c.054.05.106.101.16.153l.117.118c.055.055.11.111.164.168l.107.113c.063.067.124.136.186.204l.075.084c.087.099.172.199.257.3l.04.05a14.765 14.765 0 0 1 .475.609l.002.003c.122.165.24.335.356.507l.081.121c.042.063.083.127.123.19l.11.172.117.195c.032.054.065.107.096.162.093.16.184.32.27.483.033.059.063.119.094.178l.097.189c.046.09.09.18.133.272l.039.08c.054.117.107.233.158.35.014.03.027.063.04.094a11.786 11.786 0 0 1 .254.63l.04.108c.04.11.08.221.117.332l.01.03c.04.12.078.24.115.36l.034.118a13.99 13.99 0 0 1 .165.618 14.045 14.045 0 0 1 .083.377l.025.125c.02.105.039.208.055.312l.008.046c.02.118.036.237.05.355l.011.1c.01.085.019.17.026.253l.01.122.014.238.005.115a8.617 8.617 0 0 1-.002.68c-.001.033-.004.064-.006.096-.004.077-.01.154-.016.23l-.013.13a7.292 7.292 0 0 1-.023.189l-.02.136a5.868 5.868 0 0 1-.177.773c-.02.068-.043.134-.066.2l-.037.105a4.401 4.401 0 0 1-.25.547l-.002.003a3.89 3.89 0 0 1-.131.22l-.029.042c-.035.053-.07.104-.107.154l-.045.06c-.035.044-.071.089-.108.131l-.042.05c-.05.056-.102.11-.156.163l-.023.02a3.081 3.081 0 0 1-.144.13l-.054.044a3.047 3.047 0 0 1-.128.097l-.055.039c-.06.041-.121.081-.185.118l35.19-20.493a3.18 3.18 0 0 0 .186-.119l.054-.038c.043-.032.086-.064.128-.098l.054-.044c.05-.04.097-.084.144-.129l.023-.02c.054-.053.105-.107.156-.164l.042-.05c.037-.042.073-.086.108-.131l.045-.06c.036-.05.072-.1.107-.153l.029-.042.008-.013a4.01 4.01 0 0 0 .123-.208l.002-.002c.039-.071.076-.144.111-.218l.005-.011c.048-.102.092-.209.134-.318l.011-.028c.01-.025.017-.052.026-.078.023-.065.046-.131.066-.199l.018-.053.02-.078c.016-.057.03-.114.045-.172.005-.024.013-.046.018-.07l.016-.08.03-.15.016-.077c.005-.03.008-.062.014-.093l.02-.137.01-.07.013-.12.013-.13.005-.051c.005-.058.008-.118.011-.177l.006-.096.002-.023c.004-.1.006-.2.007-.303v-.018a9.14 9.14 0 0 0-.004-.283"/>
            <path fill="#B8B9BA" d="M297.844 107.863l1.018-.51-1.018.51"/>
            <path fill="#2E3A5C" d="M298.863 107.353l2.039-1.02-2.039 1.02"/>
            <path fill="#3E4967" d="M300.902 105.824l6.118-3.57v.001l-6.118 3.569"/>
            <path fill="#C1C2C2" d="M292.746 110.412l3.074-1.845-3.074 1.845m3.074-1.845l2.023-1.214-2.023 1.214"/>
            <path fill="#A7A9AA" d="M285.099 115h-.001l5.037-3.022L285.1 115m6.884-4.13v-.001l.762-.457-.762.457"/>
            <path fill="#464749" d="M290.197 111.941l2.038-1.02-2.038 1.02M282.549 117.04a.438.438 0 0 0 .018-.013l3.04-2.027-3.058 2.04"/>
            <path fill="#C2C2C2" d="M295.549 108.628"/>
            <path fill="#2E364E" d="M307.02 102.255l10.15-6.09.046-.028-.045.028-10.151 6.09"/>
            <path fill="#464749" d="M282.549 117.103l.056-.042-.056.042m.294-.23l.036-.03c.073-.065.146-.13.216-.2l.034-.033c.08-.079.16-.164.235-.253l.062-.075c.056-.067.112-.135.164-.205l.042-.057-.042.058c-.053.07-.107.138-.163.204l-.063.076a4.728 4.728 0 0 1-.234.253l-.034.033c-.07.069-.143.135-.217.199l-.036.03M283.266 115.85a7.624 7.624 0 0 0 .075-.132l-.003.005a5.058 5.058 0 0 1-.072.126"/>
            <path fill="#464749" d="M283.569 116.083a7.37 7.37 0 0 0 .328-.284l.004-.005.099-.09-.06.057a7.65 7.65 0 0 1-.371.322m.926-.895c.053-.062.105-.125.155-.188h.002a10.13 10.13 0 0 1-.157.188"/>
            <path fill="#3F4042" d="M283.823 115.256v-.002h.001v.001h-.001"/>
            <path fill="#B7B7B7" d="M283.823 115.255h.001-.001"/>
            <path fill="#AAA" d="M284.153 114.325l.025-.04c.031-.047.062-.096.09-.145l.006-.01-.006.01a3.046 3.046 0 0 1-.115.185m.145-.24c.017-.03.032-.062.048-.093a2.607 2.607 0 0 0-.048.093m.179-.394c.022-.06.04-.123.06-.186.011-.042.024-.084.034-.127-.01.043-.023.085-.034.127a3.05 3.05 0 0 1-.06.186m.153-.63v-.002.003"/>
            <path fill="#B7B7B7" d="M284.34 112.287a14.296 14.296 0 0 0-.011-.147l-.002-.035.003.036.01.146"/>
            <path fill="#AAA" d="M284.346 112.414l-.006-.087a13.825 13.825 0 0 0-.02-.349h.001c.009.116.015.233.02.349l.005.087"/>
            <path fill="#B7B7B7" d="M285.162 112.005l-.016-.027a1.863 1.863 0 0 0 .001 0c.004.01.01.018.015.027m-.218-.315l-.02-.023a3.531 3.531 0 0 0 .02.023m-.769-.702a3.992 3.992 0 0 1-.082-.058l-.015-.008c.01.002.012.005.017.008l.08.058"/>
            <path fill="#2E364E" d="M317.216 96.137c.02-.01.041-.02.061-.032l.036-.02-.035.02-.062.032m.175-.095a4.13 4.13 0 0 0 .106-.063l.055-.034-.055.035-.106.062m.305-.194l.04-.029.01-.007-.01.008-.04.028m.447-.378l.044-.044c.044-.046.088-.094.13-.142l.034-.04.01-.01a3.977 3.977 0 0 0 0-.001l-.01.012-.034.039a3.702 3.702 0 0 1-.13.142l-.044.044M318.832 94.496l.026-.062c.028-.06.055-.122.08-.184l.02-.05c.01-.023.017-.048.025-.072.015-.04.028-.079.041-.119-.012.04-.026.08-.04.119-.009.024-.016.05-.025.073l-.021.049c-.025.062-.052.123-.08.184-.01.02-.017.041-.026.062m.218-.562a.51.51 0 0 0 .01-.03l.014-.057-.014.058-.01.029m.029-.103l.008-.032-.008.032m.06-.239l.01-.05-.01.05m.022-.111l.014-.074.007-.034-.007.035-.014.073m.022-.116l.005-.022.012-.094a2.377 2.377 0 0 1-.012.094l-.005.022m.04-.287l.002-.014-.002.014m.015-.18l.007-.076-.007.076m.013-.19"/>
            <path fill="#3E4967" d="M320.3 91.923c-.01-.038-.019-.077-.034-.115a.415.415 0 0 1 .034.115m-.094-.238c-.017-.035-.033-.07-.052-.106l-.001-.002.001.002c.019.035.038.07.052.106m-.076-.157l-.016-.03a.327.327 0 0 0 .002 0c.006.01.01.02.014.03m-.096-.149a10.936 10.936 0 0 0-.063-.089l.025.033.038.056m-.23-.309a3.661 3.661 0 0 0-.184-.202l-.008-.007-.049-.046a5.667 5.667 0 0 0-.287-.268l-.021-.018h.001l.022.019c.106.089.195.178.285.267l.053.047.007.006c.066.068.126.135.181.202"/>
            <path fill="#343335" d="M282.04 116.53c.049-.03.097-.063.144-.095l.017-.012.037-.026a6.806 6.806 0 0 0 .127-.096l.03-.024.024-.02c.049-.04.096-.083.143-.127l.023-.02a3.06 3.06 0 0 0 .155-.162l.041-.048c.037-.043.072-.086.107-.131l.029-.037.016-.021c.034-.046.067-.093.099-.14l.008-.012.006-.009.022-.033a6.273 6.273 0 0 0 .13-.217l.002-.003a.411.411 0 0 1 .01-.018l.016-.03a4.075 4.075 0 0 0 .175-.373 4.627 4.627 0 0 0 .07-.18l.015-.043a8.243 8.243 0 0 0 .086-.266l.017-.06.034-.13.01-.04a5.457 5.457 0 0 0 .036-.156l.01-.046a3.753 3.753 0 0 0 .042-.233l.005-.028.02-.136a7.16 7.16 0 0 0 .023-.187c.004-.042.01-.085.013-.128a6.86 6.86 0 0 0 .016-.226c.002-.03.005-.061.006-.092v-.003a8.146 8.146 0 0 0 .004-.612c0-.02 0-.04-.002-.06l-.003-.071-.002-.042-.01-.165-.004-.07-.002-.017a3.722 3.722 0 0 0-.006-.073l-.002-.03a10.784 10.784 0 0 0-.085-.699l-.009-.046a6.738 6.738 0 0 0-.045-.255 9803.752 9803.752 0 0 1-.021-.111l-.014-.065-.002-.01 34.967-20.067.003.018.045.26.008.046.001.007a9.16 9.16 0 0 1 .045.31l.003.033.008.068.003.032.007.054.008.074a1.201 1.201 0 0 1 .007.071l.004.048v.002l.008.103.001.017.009.102.005.113v.02l.003.037.003.075v.002l.003.053.003.279v.081a7.515 7.515 0 0 1-.007.236l-.001.022v.012l-.006.08v.003l-.004.08a3.9 3.9 0 0 1-.007.095l-.001.016-.005.035a4.254 4.254 0 0 1-.014.147l-.01.1-.004.023-.001.01-.006.035a6.74 6.74 0 0 1-.011.079l-.01.056v.009l-.008.054a.604.604 0 0 1-.005.03l-.015.075-.023.115-.007.034a.222.222 0 0 0-.004.017l-.012.061a.66.66 0 0 1-.008.032l-.01.037a4.844 4.844 0 0 1-.044.17c-.008.025-.013.052-.02.077l-.018.052c-.02.067-.043.132-.066.197l-.021.066a.195.195 0 0 1-.004.01l-.012.028a4.851 4.851 0 0 1-.133.314l-.004.01a3.375 3.375 0 0 1-.084.167l-.027.05-.002.002a4.477 4.477 0 0 1-.122.205l-.008.012-.029.042a3.44 3.44 0 0 1-.106.151l-.036.048-.009.01a2.833 2.833 0 0 1-.107.131l-.042.049c-.05.055-.102.11-.155.161l-.014.014-.008.007a3.798 3.798 0 0 1-.143.128l-.009.007-.045.036a3.35 3.35 0 0 1-.087.067l-.04.029-.024.017-.03.021-.05.034-.09.057-.044.026-18.42 10.667-.929.538-15.545 9.002"/>
        </g>
    </g>
</svg>
