<svg xmlns="http://www.w3.org/2000/svg" xmlns:xlink="http://www.w3.org/1999/xlink" width="1440" height="200" viewBox="0 0 1440 200">
    <defs>
        <path id="a" d="M0 0h1440v200H0z"/>
    </defs>
    <g fill="none" fill-rule="evenodd">
        <mask id="b" fill="#fff">
            <use xlink:href="#a"/>
        </mask>
        <use fill="#2C294C" xlink:href="#a"/>
        <g mask="url(#b)">
            <path fill="#262725" d="M1174.582 207.84c-.325.562-.912.84-1.307.608l-111.441-63.61c-.396-.227-.454-.864-.127-1.434.325-.561.912-.832 1.307-.609l111.441 63.618c.396.225.451.865.127 1.426"/>
            <path fill="#737067" d="M1061.674 161.5c-.163 1.178-1.06 2.036-2.006 1.916-.942-.118-1.577-1.164-1.413-2.341l4.027-83.192c.163-1.177 1.063-2.035 2.007-1.917.944.113 1.575 1.166 1.412 2.341l-4.027 83.194"/>
            <path fill="#262725" d="M1174.166 224.845c.182 1.177 1.036 2.024 1.907 1.88.872-.142 1.433-1.212 1.252-2.393l-11.768-93.998c-.184-1.18-1.036-2.02-1.91-1.88-.871.14-1.429 1.212-1.25 2.392l11.769 93.999"/>
            <path fill="#737067" d="M1062.229 139.864c.345.575.134 1.294-.474 1.62l-34.123 17.624c-.607.321-1.383.124-1.725-.444-.348-.57-.137-1.294.468-1.62l34.123-17.618c.607-.326 1.383-.13 1.731.438"/>
            <path fill="#BEBBB0" d="M1025.201 181.469c-.171 1.192-1.116 2.062-2.111 1.94-.994-.117-1.66-1.179-1.489-2.372l14.676-90.63c.173-1.191 1.116-2.065 2.11-1.945.993.118 1.658 1.182 1.488 2.375l-14.674 90.632"/>
            <path fill="#262725" d="M1134.167 248.937c.151 1.197.986 2.073 1.863 1.952.876-.116 1.471-1.189 1.317-2.386l-2.604-101.44c-.151-1.2-.986-2.072-1.864-1.952-.878.122-1.467 1.188-1.316 2.386l2.604 101.44"/>
            <path fill="#E0E3E8" d="M1019.475 92.616l.03 13.851L1130.987 171l.002-13.832-111.515-64.552"/>
            <path fill="#D4D8DF" d="M1130.99 171l48.485-27.423-.092-13.79-48.392 27.47-.001 13.743M1036.57 105.112l.012 9.709 23.313 13.617v-9.7l-23.326-13.626"/>
            <path fill="#3A3228" d="M1046.191 116.075a.834.834 0 0 1-1.666 0 .834.834 0 0 1 1.666 0"/>
            <path fill="#D4D8DF" d="M1062.303 120.09l.017 9.705 23.31 13.622v-9.698l-23.327-13.628"/>
            <path fill="#3A3228" d="M1074.89 129.273a.833.833 0 1 1-1.664-.002.833.833 0 0 1 1.665.002"/>
            <path fill="#D4D8DF" d="M1089.778 135.444l.014 9.71 23.312 13.616v-9.697l-23.326-13.629"/>
            <path fill="#3A3228" d="M1101.14 146.782a.833.833 0 1 1-1.665.001.833.833 0 0 1 1.666-.001"/>
            <path fill="#EDF2F6" d="M1018.242 93.1l48.242-27.625 112.566 64.498-48.24 27.623L1018.243 93.1"/>
            <path fill="#FC3471" d="M1064.808 94.717h10.99v-8.889h-10.99z"/>
            <path fill="#FC3471" d="M1066.423 96.665c2.142 1.07 5.643 1.065 7.778-.006 2.137-1.073 2.128-2.824-.02-3.89-2.15-1.067-5.65-1.065-7.78.004-2.132 1.071-2.123 2.822.022 3.892"/>
            <path fill="#C60640" d="M1062.311 87.31c1.278-.858 2.87-.849 3.277-.83.11.052 1.246.64-.012 1.448l-.103-.007c-.011-.002-1.075-.073-1.875.465-.65.437-.983 1.181-.983 2.21 0 1.02.326 1.761.968 2.2.796.544 1.888.476 1.89.476l.103-.01s1.356.62.01 1.45l-.223.005c-.604 0-1.945-.093-3.052-.835-1.076-.725-1.624-1.828-1.624-3.287 0-1.456.548-2.562 1.624-3.284"/>
            <path fill="#DF1D58" d="M1066.423 87.614c2.142 1.07 5.643 1.066 7.778-.005 2.137-1.074 2.128-2.824-.02-3.89-2.15-1.068-5.65-1.066-7.78.005-2.132 1.07-2.123 2.82.022 3.89"/>
            <path fill="#C60640" d="M1067.392 87.247c1.605.804 4.232.802 5.835-.003 1.604-.804 1.594-2.118-.017-2.919-1.61-.799-4.237-.798-5.836.006-1.596.801-1.59 2.115.018 2.916"/>
            <path fill="#84837E" d="M1115 133.29c-2.163 1.275-5.653 1.311-7.744.075-.937-.55-1.5-1.26-1.522-2.007-.035-1.118-.012-.674-.012-2.039l5.51-2.796c2.163-1.275 9.474-2.446 9.474.061 0 1.062-.081 1.083-.006 1.832.09.876-.454 1.779-1.62 2.467l-4.08 2.407"/>
            <path fill="#BAB9B4" d="M1114.997 130.74c-2.163 1.342-5.655 1.378-7.747.082-2.097-1.294-2.038-3.447.127-4.79l3.85-2.373c2.164-1.342 5.703-1.41 7.864-.15 2.163 1.253 2.157 3.374-.012 4.71l-4.082 2.52"/>
            <path fill="#F1F0ED" d="M1064.06 109l16.383-9.72 32.77 19.441-16.39 9.717L1064.062 109"/>
            <path fill="#5D5E5B" d="M1063.92 108.778l33.13 19.286v1.724l-33.13-19.78v-1.23"/>
            <path fill="#777874" d="M1096.709 128.262l16.48-9.787.072 1.496-16.469 9.883-.083-1.592"/>
            <path fill="#989994" d="M1096.824 127.446l-2.19-1.303 2.144-1.257 2.18 1.296-2.134 1.264zm14.708-8.725l-1.851 1.101-2.117-1.257 1.862-1.093 2.106 1.25zm-31.089-18.452l1.945 1.154-1.848 1.083-1.932-1.146 1.835-1.091zm-4.4 2.615l2.128-1.264 1.926 1.146-2.146 1.255-1.909-1.137zm-2.568 1.525l2.123-1.264 1.908 1.138-2.14 1.25-1.89-1.124zm-2.573 1.525l2.13-1.262 1.89 1.123-2.138 1.256-1.882-1.117zm-2.565 1.528l2.126-1.264 1.876 1.114-2.141 1.254-1.86-1.104zm-.752 2.637l-1.844-1.1 2.152-1.279 1.862 1.108-2.17 1.271zm2.394 1.416l-1.948-1.154 2.167-1.27 1.945 1.158-2.164 1.266zm2.442 1.45l-1.996-1.187 2.161-1.268 1.996 1.186-2.161 1.269zm2.478 1.471l-2.035-1.208 2.164-1.268 2.03 1.21-2.159 1.266zm2.377 1.407l-1.93-1.142 2.156-1.27 1.932 1.15-2.158 1.262zm2.418 1.434l-1.973-1.168 2.156-1.266 1.973 1.173-2.156 1.26zm2.417 1.438l-1.973-1.174 2.157-1.265 1.965 1.174-2.15 1.265zm2.41 1.434l-1.973-1.176 2.158-1.262 1.972 1.174-2.158 1.264zm2.415 1.433l-1.971-1.174 2.156-1.261 1.968 1.172-2.153 1.263zm2.419 1.432l-1.973-1.17 2.152-1.264 1.973 1.172-2.152 1.262zm2.417 1.43l-1.974-1.167 2.153-1.263 1.973 1.175-2.152 1.256zm4.561.18l-2.146 1.256-1.972-1.168 2.146-1.263 1.972 1.175zm.445-.261l-1.973-1.174 2.141-1.254 1.973 1.17-2.141 1.258zm4.747.293l-2.13 1.263-2.174-1.295 2.141-1.254 2.163 1.286zm2.573-1.525l-2.129 1.262-2.162-1.281 2.14-1.256 2.151 1.275zm2.566-1.524l-2.127 1.262-2.148-1.274 2.14-1.257 2.135 1.27zm.455-2.782l2.119 1.259-2.13 1.262-2.133-1.27 2.144-1.25zm-.444-.266l-2.138 1.257-1.973-1.172 2.14-1.252 1.97 1.167zm.336-2.52l1.972 1.168-1.864 1.09-1.972-1.167 1.864-1.092zm-2.416-1.436l1.973 1.17-1.864 1.09-1.968-1.167 1.859-1.093zm-2.419-1.434l1.973 1.171-1.856 1.092-1.973-1.172 1.856-1.09zm-2.415-1.435l1.972 1.172-1.858 1.09-1.97-1.172 1.856-1.09zm-2.412-1.433l1.972 1.173-1.858 1.087-1.973-1.17 1.86-1.09zm-2.417-1.43l1.973 1.168-1.858 1.087-1.972-1.169 1.857-1.087zm-2.417-1.436l1.973 1.17-1.852 1.088-1.972-1.17 1.851-1.088zm-2.377-1.41l1.933 1.145-1.852 1.089-1.931-1.15 1.85-1.084zm-2.479-1.47l2.036 1.205-1.852 1.084-2.03-1.207 1.846-1.082zm-2.441-1.45l2.001 1.182-1.85 1.086-1.995-1.185 1.844-1.082zm-4.237-.336l1.85-1.083 1.95 1.155-1.853 1.086-1.947-1.158zm-2.586 1.514l2.14-1.253 1.95 1.158-2.139 1.254-1.95-1.16zm-2.584 1.518l2.14-1.258 1.948 1.156-2.138 1.259-1.95-1.157zm-2.584 1.511l2.14-1.252 1.95 1.158-2.14 1.258-1.95-1.164zm-.635 2.675l-1.951-1.156 2.143-1.257 1.948 1.158-2.14 1.255zm2.436 1.451l-1.996-1.186 2.14-1.256 1.994 1.185-2.138 1.257zm2.474 1.472l-2.031-1.212 2.138-1.256 2.039 1.21-2.146 1.258zm2.375 1.411l-1.932-1.152 2.14-1.254 1.932 1.149-2.14 1.257zm2.418 1.434l-1.973-1.174 2.14-1.25 1.972 1.167-2.14 1.257zm2.41 1.435l-1.966-1.174 2.14-1.25 1.973 1.165-2.146 1.259zm2.416 1.434l-1.972-1.174 2.14-1.251 1.974 1.169-2.142 1.256zm2.413 1.433l-1.97-1.172 2.143-1.252 1.973 1.169-2.146 1.255zm2.417 1.437l-1.973-1.175 2.139-1.25 1.972 1.166-2.138 1.259zm4.554.178l-2.138 1.256-1.973-1.176 2.138-1.252 1.973 1.172zm.446-.262l-1.973-1.169 2.14-1.257 1.973 1.174-2.14 1.252zm4.55.182l-2.139 1.254-1.973-1.17 2.145-1.255 1.966 1.17zm.618-2.69l1.973 1.174-2.146 1.257-1.966-1.172 2.14-1.259zm-.442-.26l-2.143 1.258-1.973-1.176 2.141-1.255 1.975 1.173zm.61-2.686l1.972 1.168-2.14 1.259-1.974-1.173 2.142-1.254zm-2.412-1.436l1.973 1.17-2.141 1.256-1.971-1.17 2.14-1.256zm-2.417-1.434l1.973 1.169-2.14 1.256-1.972-1.171 2.14-1.254zm-2.41-1.434l1.972 1.168-2.146 1.257-1.966-1.17 2.14-1.255zm-2.416-1.435l1.972 1.168-2.141 1.257-1.973-1.17 2.142-1.255zm-2.413-1.435l1.973 1.169-2.145 1.257-1.968-1.172 2.14-1.254zm-2.376-1.412l1.933 1.146-2.14 1.257-1.932-1.15 2.14-1.253zm-2.474-1.471l2.03 1.207-2.14 1.255-2.037-1.208 2.147-1.254zm-4.58-.194l2.139-1.255 1.997 1.184-2.141 1.258-1.995-1.187zm-2.584 1.516l2.141-1.254 1.995 1.186-2.14 1.254-1.996-1.186zm-.596 2.702l-1.994-1.188 2.146-1.256 1.995 1.185-2.147 1.259zm2.482 1.468l-2.036-1.205 2.14-1.254 2.035 1.205-2.14 1.254zm2.37 1.411l-1.932-1.146 2.147-1.256 1.932 1.153-2.146 1.25zm2.418 1.434l-1.974-1.166 2.141-1.259 1.973 1.176-2.14 1.249zm2.417 1.437l-1.973-1.17 2.139-1.255 1.972 1.172-2.138 1.253zm2.411 1.433l-1.973-1.169 2.139-1.255 1.972 1.17-2.138 1.254zm2.416 1.434l-1.973-1.166 2.14-1.258 1.974 1.17-2.141 1.254zm4.552.181l-2.143 1.254-1.97-1.167 2.147-1.257 1.966 1.17zm.616-2.687l1.973 1.173-2.146 1.256-1.966-1.174 2.14-1.255zm-2.417-1.437l1.973 1.175-2.138 1.257-1.973-1.173 2.138-1.26zm-2.411-1.434l1.967 1.175-2.14 1.256-1.967-1.174 2.14-1.257zm-2.416-1.43l1.973 1.17-2.141 1.256-1.973-1.172 2.141-1.254zm-2.41-1.435l1.967 1.17-2.142 1.257-1.972-1.172 2.146-1.255zm-4.96-.421l-2.038-1.207 2.14-1.257 2.037 1.21-2.14 1.254zm2.582-.994l1.931 1.151-2.138 1.258-1.933-1.152 2.14-1.257zm-21.198.116l32.763 19.44 16.388-9.718-32.769-19.44-5.237 3.105-.007-.003-.006.012-2.56 1.514-.035-.022-.041.07-2.49 1.48-.068-.042-.07.127-2.429 1.44-.104-.061-.104.18-3.231 1.918z"/>
            <path fill="#181917" d="M1177.359 117.608v10.59l-30.824 18.568v-10.707l30.824-18.45"/>
            <path fill="#EAE9E4" d="M1177.359 126.077v-5.136l-27.492 16.415v5.245l27.492-16.524"/>
            <path fill="#2E2F2C" d="M1037.846 86.785c-.161 0-.319-.009-.47-.026-1.449-.162-2.66-1.005-3.405-2.38a5.857 5.857 0 0 1-.52-4.413c1.249-4.561 7.81-7.708 8.55-8.054.783-.36 1.66.102 1.962 1.026.303.921-.08 1.965-.86 2.325-2.464 1.143-6.198 3.703-6.77 5.815-.13.477-.077.885.177 1.354.51.936 1.622.79 1.93.663.578-.549 1.428-.522 1.985.101.605.682.63 1.822.053 2.541-.589.739-1.674 1.048-2.632 1.048"/>
            <path fill="#E88584" d="M1082.36 77.464c-.058.15-.186.2-.289.116l-1.243-1.044c-.1-.084-.136-.275-.077-.424.057-.15.187-.201.287-.117l1.244 1.043c.101.087.136.276.079.426"/>
            <path fill="#2E2F2C" d="M1040.936 83.452l-.162-.128c-.065-.137-.047-.328.043-.422.032-.037.779-.878.801-2.741.022-1.876.172-2.144.432-2.458l.065-.082.286.024-.02.432-.078.103c-.147.175-.259.31-.28 1.993-.026 2.18-.932 3.18-.968 3.223l-.12.056"/>
            <path fill="#000" d="M1050.144 188.95s-.552 8.777 0 11.546c0 0 4.833 2 9.212.763v-2.578s7.462 3.67 15.871 2.982c0 0 4.634-.5 5.406-4.125.772-3.628-3.602-3.817-7.38-4.772-3.774-.953-8.494-3.817-9.181-6.013l-13.928 2.196"/>
            <path fill="#EED7D2" d="M1064.37 187.878c0 4.477-14.996 4.477-14.996 0V144.36c0-4.477 3.355-8.107 7.498-8.107 4.139 0 7.497 3.63 7.497 8.107v43.518"/>
            <path fill="#1B1C1A" d="M1062.638 199.783s-.547 8.774 0 11.538c0 0 4.836 2.006 9.215.763v-2.573s7.462 3.673 15.87 2.98c0 0 4.634-.5 5.406-4.123.772-3.626-3.602-3.816-7.379-4.773-3.775-.952-8.495-3.812-9.18-6.012l-13.932 2.2"/>
            <path fill="#F7E7E4" d="M1079.056 200.06c0 4.473-14.995 4.473-14.995 0v-43.521c0-4.478 3.36-8.107 7.503-8.107 4.136 0 7.492 3.629 7.492 8.107v43.52"/>
            <path fill="#1E1E1E" d="M1038.164 215.502a3.75 3.75 0 0 1-7.497 0V199.66a3.742 3.742 0 0 1 3.745-3.743 3.748 3.748 0 0 1 3.752 3.743v15.842"/>
            <path fill="#000" d="M1036.57 195.659c0 1.061-1.303 1.924-2.919 1.924-1.607 0-2.913-.863-2.913-1.924v-14.477c0-1.063 1.306-1.926 2.913-1.926 1.616 0 2.918.863 2.918 1.926v14.477"/>
            <path fill="#221B1A" d="M1001.712 185.14s-1.31 4.345 4.33 7.68c5.64 3.337 10.5.13 13.68-2.432l7.684-6.462-12-8.003-13.694 9.216"/>
            <path fill="#BEDCE0" d="M1003.34 179.121c-2.116-1.259-3.24-2.895-3.362-4.556-.138-1.864-.01-1.656-.003-4.743l22.614-11.884c4.498-2.678 11.858-2.678 16.356 0l22.617 11.69c0 3.65-.004 2.856 0 4.613.006 1.769-1.119 3.54-3.375 4.88l-19.242 11.457c-4.498 2.676-11.858 2.676-16.356 0l-19.248-11.457"/>
            <path fill="#D0EBEF" d="M1003.291 174.958c-4.503-2.678-4.503-7.055 0-9.732l19.265-11.454c4.501-2.676 11.869-2.676 16.37-.003l19.258 11.457c4.503 2.677 4.503 7.054 0 9.732l-19.258 11.455c-4.501 2.675-11.869 2.675-16.37 0l-19.265-11.455"/>
            <path fill="#EA9A73" d="M1080.722 129.467l2.781-.873s7.068-3.654 9.924-3.482c2.861.174 10.584 2.711 5.716 4.035-4.867 1.322-3.276.148-6.854 2.16-3.58 2.016-4.243 2.819-6.016 2.354l-2.983.609-2.568-4.803M1067.064 117.608l2.37-.652s4.24.54 6.69-.197c0 0 5.153.078 1.75-1.627 0 0-.414-.17-2.336-.45 0 0 5.171-1.969 7.772-.952 2.6 1.017 3.135-.276 1.419-2.024-1.717-1.76-4.803-4.21-10.208-2.883-5.402 1.333-5.257 2.35-6.695 3.466l-2.099.583 1.337 4.736M1025.806 97.915s.944-7.105-1.036-13.429c-1.984-6.327.69-17.94 11.374-18.46 10.685-.518 15.424 6.496 15.51 9.532.087 3.03-2.239 10.66-2.844 14.383-.603 3.73-3.447 16.73-10.9 11.008l-2.11 3.372-9.994-6.406"/>
            <path fill="#000" d="M1032.899 95.157l-7.345-2.426s-3.542-9.496-5.554-12.24c0 0-.115-15.61 15.739-16.141 15.857-.522 24.457 11.749 15.839 14.58 0 0-5.302 5.26-5.897 7.366 0 0 .237-8.26-4.379-1.544-4.614 6.713-8.403 10.405-8.403 10.405"/>
            <path fill="#DAEEE8" d="M1059.895 111.563l5.218-1.452s2.551 1.063 2.256 5.403l-5.563 2.094s2.005-3.704-1.91-6.045"/>
            <path fill="#5F5E91" d="M1045.76 123.599c-2.186 2.004-5.735 2.01-7.931.013l-20.053-14.707c-2.196-1.991-1.107-7.782 1.08-9.786 2.19-1.998 5.742-2.01 7.935-.011l18.959 17.256c2.198 1.996 2.198 5.234.01 7.235"/>
            <path fill="#FFF" d="M1062.734 119.623l-16.216 6.991c-2.822.845-4.908-1.843-5.621-4.576-.713-2.731.99-5.63 3.816-6.474l15.896-3.723c2.818-.845 4.94 6.934 2.125 7.782"/>
            <path fill="#EED7D2" d="M1061.47 140.602c2.106 4.215.494 9.402-3.598 11.576l-36.64 19.457c-4.093 2.173-9.121.517-11.228-3.705-2.106-4.218-.5-9.405 3.596-11.578l36.637-19.457c4.094-2.18 9.124-.519 11.232 3.707"/>
            <path fill="#212221" d="M1010.132 155.93s-4.66 12.341 5.616 19.46c10.278 7.119 11.77 10.06 20.821 6.549v-15.221l-26.437-10.788"/>
            <path fill="#F7E7E4" d="M1077.173 151.917c2.24 4.037.779 9.132-3.27 11.373l-37.572 20.57c-4.05 2.242-11.65 1.357-13.324-2.204-2.246-4.038-2.048-10.176 2.004-12.418l39.5-21.633c4.05-2.237 10.416.27 12.662 4.312"/>
            <path fill="#FFF" d="M1024.095 95.948s-14.617 7.82-13.013 27.637c1.603 19.815-2.004 35.412-2.004 35.412s13.816 19.72 26.646 16.59c0 0 6.905-2.11 9.044-8.193l.892-40.16s2.493-22.247-21.565-31.286"/>
            <path fill="#DAEEE8" d="M1074.89 128.643l5.562-1.87s4.433 2.255 3.464 7.21l-5.796 1.953s1.179-5.093-3.23-7.293"/>
            <path fill="#FFF" d="M1065.406 143.181c-2.65 2.549-6.95 2.561-9.612.02l-24.98-17.381c-2.658-2.534-2.484-9.27 1.984-13.793 2.656-2.55 6.961-2.556 9.62-.012l22.975 21.954c2.665 2.544 2.665 6.671.013 9.212"/>
            <path fill="#FFF" d="M1081.174 136.072l-18.173 8.662c-3.181 1.186-6.656-.608-7.764-4.007-1.104-3.394.57-7.11 3.75-8.298l18.495-5.552c3.173-1.182 6.865 8.01 3.692 9.195"/>
            <path fill="#D0EBEF" d="M998.467 127.386c-.272-4.038-1.57-9.102-1.57-9.102-2.417-8.67 9.508-8.45 20.855-.69 7.988 5.464 13.724 8.081 14.587 20.552l2.433 14.56c1.473 6.964-9.717 6.06-18.61.002-10.27-6.996-16.543-8.142-17.695-25.322"/>
            <path fill="#BEDCE0" d="M994.299 127.385c-.268-4.035-1.568-9.104-1.568-9.104-2.415-8.663 9.51-8.447 20.854-.691 7.99 5.467 13.726 8.086 14.588 20.556l2.434 14.56c1.468 6.965-9.718 6.059-18.608 0-10.27-6.998-16.548-8.138-17.7-25.32"/>
            <path fill="#1E1E1E" d="M1001.58 185.179s4.615-19.196 6.492-26.302c1.877-7.108-.226-28.195-1.238-33.771l6.974 3.832s1.593 23.01 1.405 25.206c0 0 .708 19.936 1.363 33.713 0 0-2.164 1.45-4.622 3.062l-10.374-5.74"/>
            <path fill="#1E1E1E" d="M1014.91 153.872l-1.184-23.162-6.314-3.938 1.28 24.64 4.462 2.852 1.756-.392"/>
            <path fill="#DADAEA" d="M1103.81 110.11l-15.807-8.938 31.064-17.728 15.805 8.939-31.062 17.728"/>
            <path fill="#DADAEA" d="M1078.84 11.295c-.779.296-1.835.363-2.283 2.575l1.305 55.59c0 3.099 2.208 6.904 4.909 8.454l48.248 28.864c1.497-.94 1.497-.94 2.383-1.437.907-.506 1.47-1.604 1.47-3.17l-.003-54.167c.003-3.866.308-5.489-4.912-8.454l-47.186-27.08c-1.413-.812-3.152-1.47-3.93-1.175z"/>
            <path fill="#C4C4DA" d="M1076.557 15.328v54.819c0 3.138 2.193 6.99 4.88 8.556l46.891 27.407c2.68 1.568 4.878.282 4.878-2.856V47.831c.003-4.536.195-5.044-3.017-6.894l-48.753-28.46c-2.686-1.568-4.88-.285-4.88 2.851z"/>
            <path fill="#DADAEA" d="M1076.557 66.79v3.866c0 3.095 2.193 6.892 4.88 8.437l46.891 27.026c2.68 1.546 4.878.278 4.878-2.816v-3.857l-56.65-32.655"/>
            <path fill="#EFEFEF" d="M1080.722 15.14v48.2l50.818 30.11V45.457l-50.818-30.318"/>
            <path fill="#FC3471" d="M1110.95 56.691a3.926 3.926 0 0 1-1.293.133v7.369c0 .604-.507.82-1.132.483-.625-.338-1.131-1.102-1.131-1.706v-6.737a9.326 9.326 0 0 1-.633-.312l-.027-.015a10.49 10.49 0 0 1-.633-.372v6.736c0 .605-.506.821-1.131.483-.625-.338-1.132-1.101-1.132-1.706v-7.369a14.32 14.32 0 0 1-1.293-1.53v8.2c0 .604-.506.82-1.13.483-.626-.338-1.132-1.102-1.132-1.706V47.896c0-.18.044-.324.123-.43a7.109 7.109 0 0 1-.123-1.288c0-3.447 2.888-4.68 6.451-2.753l.027.015c3.563 1.926 6.451 6.282 6.451 9.728 0 .418-.042.803-.123 1.154.079.192.123.386.123.565v11.228c0 .605-.506.82-1.131.483-.625-.338-1.132-1.102-1.132-1.706v-8.2zm-7.435-5.39c.446.218.808.079.808-.31 0-.39-.362-.883-.808-1.1-.446-.218-.808-.079-.808.31 0 .39.362.883.808 1.1zm7.273 4.04c.446.218.808.079.808-.31 0-.39-.362-.882-.808-1.1-.446-.218-.808-.078-.808.311 0 .39.362.882.808 1.1z"/>
            <path fill="#6236FF" d="M1114.945 105.303l10.83 7.07v-11.258l-10.83-7.07v11.258"/>
            <path fill="#3A76FF" d="M1081.333 84.926l10.83 7.068V80.735l-10.83-7.068v11.259"/>
            <path fill="#FC3471" d="M1097.995 95.755l10.83 7.07v-11.26l-10.83-7.068v11.258M1131.54 101.375l10.83 7.07v-11.26l-10.83-7.068v11.258"/>
        </g>
    </g>
</svg>
